<svg width="270" height="99" viewBox="0 0 270 99" fill="none" xmlns="http://www.w3.org/2000/svg">
<g clip-path="url(#clip0_374_4026)">
<path d="M226.679 90.3637C220.473 90.3637 216.385 86.6574 216.385 80.4565C216.385 72.3312 221.32 69.0526 237.256 69.0526V68.8387C237.256 63.4219 234.999 61.1411 230.205 61.1411C226.326 61.1411 223.788 62.1391 220.332 66.2729L217.019 62.638C221.038 58.0764 224.774 56.3657 230.557 56.3657C241.133 56.3657 242.402 63.5644 242.402 68.7675V89.5083H237.256V84.5192C234.576 88.2254 230.839 90.3637 226.679 90.3637ZM227.383 85.7308C230.839 85.7308 233.73 83.8064 237.256 78.3182V73.4003C225.057 73.4003 221.531 75.111 221.531 80.4565C221.531 84.3053 223.717 85.7308 227.383 85.7308Z" fill="white"/>
<path d="M185.625 89.508H180.478V57.292H185.625V70.4064H203.252V57.292H208.4V89.508H203.252V75.2532H185.625V89.508Z" fill="white"/>
<path d="M170.879 89.5081H165.733V65.3461L147.399 89.5081H142.676V57.2921H147.823V81.2403L166.085 57.2921H170.879V89.5081ZM156.777 51.3051C151.278 51.3051 147.118 49.5945 144.297 44.5341L148.387 41.5405C150.573 45.3893 152.476 46.5297 156.777 46.5297C161.079 46.5297 162.983 45.3893 165.168 41.5405L169.258 44.5341C166.437 49.5945 162.277 51.3051 156.777 51.3051Z" fill="white"/>
<path d="M117.746 90.3637C111.541 90.3637 107.451 86.6574 107.451 80.4565C107.451 72.3312 112.387 69.0526 128.323 69.0526V68.8387C128.323 63.4219 126.066 61.1411 121.272 61.1411C117.393 61.1411 114.855 62.1391 111.4 66.2729L108.086 62.638C112.105 58.0764 115.842 56.3657 121.624 56.3657C132.201 56.3657 133.469 63.5644 133.469 68.7675V89.5083H128.323V84.5192C125.643 88.2254 121.906 90.3637 117.746 90.3637ZM118.451 85.7308C121.906 85.7308 124.797 83.8064 128.323 78.3182V73.4003C116.124 73.4003 112.599 75.111 112.599 80.4565C112.599 84.3053 114.785 85.7308 118.451 85.7308Z" fill="white"/>
<path d="M89.5324 85.5882C94.2567 85.5882 96.5834 82.7372 96.5834 79.6725C96.5834 76.8215 93.9041 75.1823 90.3786 75.1823H86.0774V70.4069H90.3786C93.5516 70.4069 95.5963 68.4825 95.5963 65.8453C95.5963 63.0656 93.9041 61.2837 90.4491 61.2837C86.289 61.2837 84.6672 62.5666 81.5648 66.2017C81.4942 66.1304 78.1098 62.8518 78.1098 62.8518C81.7763 58.2189 85.3723 56.437 90.4491 56.437C97.0066 56.437 100.603 60.4997 100.603 65.2038C100.603 68.625 98.9808 71.0483 96.4424 72.6163C99.7564 74.1131 101.731 76.679 101.731 80.0289C101.731 85.2319 97.7117 90.5062 89.5324 90.5062C84.8082 90.5062 81.3532 89.152 77.1931 84.5191L80.6481 81.098C84.0327 84.5191 85.7953 85.5882 89.5324 85.5882Z" fill="white"/>
<path d="M42.1604 57.292H47.3076V81.2402L65.5698 57.292H70.3645V89.508H65.2173V65.346L46.8846 89.508H42.1604V57.292Z" fill="white"/>
<path d="M4.93573 89.508V98.9162H0V84.6613H3.94858C8.53175 77.1063 8.53175 65.7737 8.53175 57.292H30.813V84.6613H35.3962V98.9162H30.4604V89.508H4.93573ZM25.6658 84.6613V62.1386H13.679C13.679 69.8363 12.8329 77.534 9.65992 84.6613H25.6658Z" fill="white"/>
<path d="M166.015 33.9978C159.81 33.9978 155.72 30.2916 155.72 24.0908C155.72 15.9655 160.656 12.6869 176.592 12.6869V12.473C176.592 7.05615 174.336 4.77538 169.54 4.77538C165.663 4.77538 163.124 5.77322 159.669 9.90713L156.355 6.27214C160.375 1.71059 164.112 0 169.894 0C180.469 0 181.739 7.19871 181.739 12.4017V33.1426H176.592V28.1533C173.913 31.8596 170.175 33.9978 166.015 33.9978ZM166.72 29.3651C170.175 29.3651 173.066 27.4407 176.592 21.9525V17.0346C164.394 17.0346 160.868 18.7451 160.868 24.0908C160.868 27.9396 163.054 29.3651 166.72 29.3651Z" fill="white"/>
<path d="M117.585 33.0715V27.9397C118.22 28.2248 119.136 28.296 119.7 28.296C124.636 28.296 125.976 20.6698 125.976 0.926758H147.764V33.1428H142.616V5.77341H130.982C130.982 24.376 128.374 33.4278 120.335 33.4278C119.418 33.4278 118.502 33.2853 117.585 33.0715Z" fill="white"/>
<path d="M98.7489 4.84666C92.1915 4.84666 87.3967 10.3348 87.3967 17.0346C87.3967 23.6631 92.1915 29.1512 98.7489 29.1512C105.377 29.1512 109.96 23.6631 109.96 17.0346C109.96 10.3348 105.377 4.84666 98.7489 4.84666ZM82.2495 17.0346C82.2495 7.62635 89.4415 0 98.7489 0C108.056 0 115.107 7.62635 115.107 17.0346C115.107 26.3716 108.056 33.9978 98.7489 33.9978C89.4415 33.9978 82.2495 26.3716 82.2495 17.0346Z" fill="white"/>
<path d="M52.0591 33.1428V0.926758H57.2064V14.0413H59.7447L72.2251 0.926758H78.571L64.1164 16.1795C68.6995 18.1039 71.802 28.3674 77.3019 28.3674C77.9364 28.3674 78.571 28.2248 79.2761 27.9398V33.1428C78.2184 33.4278 77.2313 33.5704 76.3852 33.5704C67.8534 33.5704 65.5266 21.8814 60.1677 18.8879H57.2064V33.1428H52.0591Z" fill="white"/>
<path d="M20.1663 28.296V0.926758H25.3135V28.296H37.3003V0.926758H42.4475V33.1428H3.03223V0.926758H8.17949V28.296H20.1663Z" fill="white"/>
<path d="M258.619 51.3286C264.387 51.3286 269.073 56.0564 269.133 61.9358C269.133 67.8152 264.387 72.5429 258.619 72.5429C252.791 72.5429 248.104 67.7546 248.104 61.9358C248.104 56.0564 252.85 51.3286 258.619 51.3286ZM254.893 54.6017V68.7849H263.425V66.118C263.425 63.5117 262.584 61.754 260.421 60.966C261.142 60.7235 261.503 60.2385 261.803 59.9355C262.283 59.3293 262.524 58.6021 262.524 57.8747C262.524 57.2686 262.344 56.1775 261.382 55.3897C260.721 54.8441 260.121 54.6017 258.678 54.6017H254.893ZM258.202 55.3303C258.743 55.3303 259.524 55.3909 260.065 56.1183C260.365 56.4214 260.545 56.9064 260.605 57.3913H258.141V58.1184H260.605C260.605 58.6033 260.485 59.0883 260.065 59.6338C259.644 60.1186 259.043 60.5429 258.141 60.5429V61.2703C260.545 61.2703 261.446 62.9069 261.506 65.8769V68.059H259.944V63.3311H258.202V68.059H256.821V55.3303H258.202Z" fill="white"/>
</g>
<defs>
<clipPath id="clip0_374_4026">
<rect width="269.211" height="99" fill="white"/>
</clipPath>
</defs>
</svg>
