<svg width="545" height="455" viewBox="0 0 545 455" fill="none" xmlns="http://www.w3.org/2000/svg">
<g style="mix-blend-mode:screen">
<path d="M370.665 317.492L266.456 348.221L129.711 346.797L89.9098 307.318L94.166 211.902L105.137 184.564L148.373 115.311L203.122 147.059L261.213 112.618L321.675 123.304L332.216 140.432L349.004 136.455L420.08 111.951L386.25 231.5L417.436 280.946L406.811 329.183L370.664 317.485L370.665 317.492Z" fill="#5F277C" fill-opacity="0.46"/>
<path d="M386.949 151.524L416.816 240.05L405.918 353.41L355.875 383.78L241.678 373.837L209.615 362.897L129.428 322.37L171.2 279.08L133.78 228.568L150.664 179.121L171.923 171.526L168.28 157.33L143.656 96.7125L284.821 132.815L346.243 110.263L403.405 122.32L386.941 151.525L386.949 151.524Z" fill="#5F277C" fill-opacity="0.46"/>
<path d="M238.58 306.576C233.076 295.507 223.234 278.683 223.234 278.683L179.082 288.537L155.17 262.525L182.792 247.025L150.336 216.101L204.724 229.413L194.912 191.907L210.389 165.194L233.049 210.629L261.902 165.244L265.587 154.389L296.654 210.124C296.654 210.124 305.963 227.764 309.333 226.967L327.299 237.429L284.8 244.643L322.58 279.259L257.66 314.022L238.581 306.579L238.58 306.576Z" fill="url(#paint0_linear_394_114)" fill-opacity="0.41"/>
</g>
<path fill-rule="evenodd" clip-rule="evenodd" d="M160.575 273.512C162.044 278.616 168.014 290.523 180.151 297.327C181.782 297.894 185.045 297.837 185.045 293.074C185.045 292.514 184.954 291.894 184.79 291.229L189.938 299.879L196.3 300.729C198.584 307.817 204.228 321.822 208.535 321.141C209.677 320.007 212.059 318.59 212.45 321.992C212.842 325.394 218.812 320.007 221.748 316.889C223.217 314.904 226.251 311.105 226.642 311.786C227.034 312.466 228.763 314.337 229.578 315.188L233.494 313.487L239.856 312.636C243.118 309.801 250.454 312.636 253.586 305.832C254.891 304.131 258.284 302.43 261.416 309.234C264.548 316.038 267.587 306.399 268.729 305.832C271.339 308.667 277.049 314.507 279.006 315.188C280.964 315.868 281.127 313.77 280.964 312.636C281.29 311.786 282.432 310.935 284.389 314.337C286.347 317.739 292.709 319.157 295.645 319.44C299.56 318.306 308.076 314.678 310.816 309.234C310.653 307.817 310.62 304.812 311.795 304.131C312.969 303.451 314.242 306.683 314.731 308.384L324.519 310.085C328.108 305.265 335.579 295.796 336.753 296.476C337.928 297.157 336.917 287.121 336.264 282.018C338.326 278.434 340.255 271.339 333.408 268.992L334.796 269.26L330.391 253.951L315.221 250.549L304.454 263.306H309.348L318.157 270.961C316.526 274.079 310.816 280.657 301.028 282.018C297.44 281.734 290.262 280.147 290.262 276.064C290.262 271.982 279.822 276.064 274.602 278.616C266.935 276.915 247.098 274.533 229.089 278.616C211.08 282.698 208.861 275.214 210.003 270.961H203.641L198.747 263.306L193.364 259.904H189.938L191.407 266.708L184.066 273.512H176.725H171.342L167.916 278.616L160.575 273.512Z" fill="#553D55"/>
<path d="M179.661 245.445C164.784 253.61 160.739 265.858 160.575 270.961V273.512L167.916 278.616L171.342 273.512H176.725H184.066L191.407 266.708L189.938 259.904H193.364L198.747 263.306L203.641 270.961H210.003C208.861 275.214 211.08 282.698 229.089 278.616C247.098 274.533 266.935 276.915 274.602 278.616C279.822 276.064 290.262 271.982 290.262 276.064C290.262 280.147 297.44 281.734 301.028 282.018C310.816 280.657 316.526 274.079 318.157 270.961L309.348 263.306H304.454L315.221 250.549L330.391 253.951L337.243 245.445C343.898 231.837 334.47 225.6 328.923 224.182C324.682 230.42 315.123 241.873 310.816 237.791C306.51 233.708 292.056 241.193 285.368 245.445C279.104 242.043 272.318 242.327 269.708 242.894C265.793 234.729 245.841 251.308 232.515 245.445C224.831 242.065 222.238 231.554 215.876 231.837C209.514 232.121 208.339 243.914 207.556 237.791C206.773 231.667 196.419 232.723 189.938 235.239C184.665 237.286 194.539 237.28 179.661 245.445Z" fill="#9D7194"/>
<path d="M330.391 253.951L337.243 245.445C343.898 231.837 334.47 225.6 328.923 224.182C324.682 230.42 315.123 241.873 310.816 237.791C306.51 233.708 292.056 241.193 285.368 245.445C279.104 242.043 272.318 242.327 269.708 242.894C265.793 234.729 245.841 251.308 232.515 245.445C224.831 242.065 222.238 231.554 215.876 231.837C209.514 232.121 208.339 243.914 207.556 237.791C206.773 231.667 196.419 232.723 189.938 235.239C184.665 237.286 194.539 237.28 179.661 245.445C164.784 253.61 160.739 265.858 160.575 270.961V273.512M330.391 253.951L315.221 250.549L304.454 263.306H309.348L318.157 270.961C316.526 274.079 310.816 280.657 301.028 282.018C297.44 281.734 290.262 280.147 290.262 276.064C290.262 271.982 279.822 276.064 274.602 278.616C266.935 276.915 247.098 274.533 229.089 278.616C211.08 282.698 208.861 275.214 210.003 270.961H203.641L198.747 263.306L193.364 259.904H189.938L191.407 266.708L184.066 273.512H176.725H171.342L167.916 278.616L160.575 273.512M330.391 253.951L334.796 269.26L333.408 268.992M160.575 273.512C162.044 278.616 168.014 290.523 180.151 297.327C181.782 297.894 185.045 297.837 185.045 293.074C185.045 292.514 184.954 291.894 184.79 291.229M333.408 268.992C340.255 271.339 338.326 278.434 336.264 282.018C336.917 287.121 337.928 297.157 336.753 296.476C335.579 295.796 328.108 305.265 324.519 310.085L314.731 308.384C314.242 306.683 312.969 303.451 311.795 304.131C310.62 304.812 310.653 307.817 310.816 309.234C308.076 314.678 299.56 318.306 295.645 319.44C292.709 319.157 286.347 317.739 284.389 314.337C282.432 310.935 281.29 311.786 280.964 312.636C281.127 313.77 280.964 315.868 279.006 315.188C277.049 314.507 271.339 308.667 268.729 305.832C267.587 306.399 264.548 316.038 261.416 309.234C258.284 302.43 254.891 304.131 253.586 305.832C250.454 312.636 243.118 309.801 239.856 312.636L233.494 313.487L229.578 315.188C228.763 314.337 227.034 312.466 226.642 311.786C226.251 311.105 223.217 314.904 221.748 316.889C218.812 320.007 212.842 325.394 212.45 321.992C212.059 318.59 209.677 320.007 208.535 321.141C204.228 321.822 198.584 307.817 196.3 300.729L189.938 299.879L184.79 291.229M333.408 268.992L330.391 268.409L315.221 275.214L330.881 268.409C331.832 268.542 332.671 268.739 333.408 268.992ZM184.79 291.229C183.556 286.236 178.76 277.015 175.881 273.512L184.79 291.229Z" stroke="#1C0F1B" stroke-width="2.99688"/>
<g filter="url(#filter0_i_394_114)">
<path d="M259.473 285.405C248.17 284.463 247.699 278.733 248.877 275.986L274.778 279.518C274.386 281.873 270.775 286.346 259.473 285.405Z" fill="#D9D9D9" fill-opacity="0.03"/>
<path d="M280.665 290.114C269.362 283.521 275.955 277.948 280.665 275.986L288.906 273.631L291.261 279.518C294.008 280.303 299.031 281.873 297.148 281.873C295.264 281.873 296.363 289.722 297.148 293.646C296.363 295.216 291.967 296.707 280.665 290.114Z" fill="#D9D9D9" fill-opacity="0.03"/>
<path d="M305.389 283.05C295.97 282.108 295.97 288.937 297.148 292.469C301.072 292.076 307.979 291.762 304.212 293.646C300.444 295.53 303.083 299.14 304.873 300.71C311.717 297.963 325.875 291.762 327.759 288.937C329.642 286.111 334.038 284.62 336 284.227V281.873L337.177 273.631L332.468 268.922L325.404 271.276L313.631 278.341L305.389 283.05Z" fill="#D9D9D9" fill-opacity="0.03"/>
<path d="M327.759 299.533C324.933 302.358 317.947 303.85 314.808 304.242C316.77 305.812 319.282 308.716 323.049 307.774C327.759 306.597 331.291 296.001 327.759 299.533Z" fill="#312832"/>
<path d="M280.665 306.597C282.549 305.655 286.944 310.129 288.906 312.484C290.868 313.661 295.264 316.251 297.148 317.193C299.502 318.37 299.502 311.306 299.502 308.951C299.502 306.597 303.034 310.129 307.744 308.951C311.511 308.01 307.744 304.635 305.389 303.065L298.325 296.001C293.616 299.821 290.084 298.355 286.552 297.178C283.02 296.001 278.31 307.774 280.665 306.597Z" fill="#30232E"/>
<path d="M250.054 286.582L238.28 297.178H227.684L218.266 301.887C217.481 298.355 215.204 291.527 212.379 292.469C209.553 293.411 212.771 286.582 214.733 283.05C210.966 283.992 208.454 276.378 207.669 272.454L185.3 274.808L179.413 275.986L191.187 299.533L200.203 301.887C200.289 300.81 200.422 299.636 200.605 298.355C202.96 303.457 211.437 312.484 226.507 307.774C227.223 307.55 227.888 307.343 228.502 307.152C228.192 306.938 227.912 306.748 227.684 306.597C227.292 304.635 227.213 300.71 230.039 300.71H250.054L246.522 306.597C242.205 308.167 233.336 311.071 232.394 310.129C231.698 309.433 230.103 308.266 228.842 307.387C228.452 307.518 228.064 307.648 227.684 307.774C224.937 312.091 218.909 317.881 212.379 316.016C204.778 313.844 199.18 314.677 200.203 301.887L191.187 299.533L179.413 275.986L185.3 274.808L207.669 272.454C208.454 276.378 210.966 283.992 214.733 283.05C217.088 284.227 223.446 285.876 230.039 283.05C232.786 281.873 239.693 279.753 245.345 280.695C246.286 281.637 248.877 285.012 250.054 286.582Z" fill="#352435"/>
<path d="M212.379 294.823L202.96 299.533C206.728 306.126 212.379 306.989 214.733 306.597C215.126 306.597 215.911 305.89 215.911 303.065C215.911 300.239 213.556 296.393 212.379 294.823Z" fill="#312935"/>
<path d="M267.714 300.71V290.114L253.586 287.759L242.99 297.178L267.714 300.71Z" fill="#3C313F"/>
<path d="M275.955 290.114C278.31 291.291 283.02 294.117 283.02 296.001C283.02 297.884 279.88 301.495 278.31 303.065C276.74 301.887 273.365 299.768 272.423 300.71C271.482 301.652 270.461 297.178 270.069 294.823L275.955 290.114Z" fill="#322835"/>
</g>
<path d="M333.527 267.862L338.237 272.571L338.767 273.101L338.661 273.843L337.498 281.982V285.456L336.294 285.696C335.583 285.838 334.467 286.158 333.283 286.663C334.21 286.407 335.123 286.261 336 286.261C336.561 286.261 337.064 286.29 337.5 286.359C337.918 286.425 338.374 286.543 338.775 286.78C339.21 287.037 339.649 287.486 339.773 288.164C339.886 288.778 339.686 289.301 339.509 289.629C339.169 290.26 338.55 290.844 337.981 291.325C337.369 291.843 336.618 292.397 335.841 292.952C334.242 294.094 332.52 295.252 331.154 296.369C330.601 296.822 330.15 297.234 329.817 297.597C329.885 297.64 329.952 297.689 330.017 297.745C330.453 298.121 330.598 298.606 330.65 298.901C330.754 299.482 330.646 300.124 330.517 300.641C330.375 301.21 330.15 301.842 329.867 302.488C329.304 303.776 328.458 305.231 327.41 306.464C326.385 307.67 325.03 308.823 323.413 309.227C321.034 309.822 319.055 309.177 317.482 308.236C316.029 307.366 314.669 306.05 313.872 305.412L312.894 304.63L309.918 304.878L311.313 303.365L311.101 303.195L311.519 303.142L312.529 302.049C313.938 300.523 315.901 298.552 318.145 296.527C313.998 298.513 309.472 300.457 306.223 301.779L306.353 301.909C307.56 302.729 309.21 304.052 310.112 305.417C310.556 306.088 311.069 307.143 310.733 308.279C310.368 309.518 309.238 310.123 308.107 310.405C305.32 311.102 302.907 310.389 301.427 309.945C301.268 309.898 301.126 309.855 300.997 309.817C300.987 311.107 300.939 313 300.689 314.625C300.538 315.608 300.284 316.715 299.782 317.523C299.522 317.942 299.104 318.43 298.454 318.676C297.753 318.94 297.056 318.822 296.478 318.533C294.532 317.56 290.083 314.937 288.136 313.768L287.918 313.638L287.755 313.443C286.811 312.311 285.289 310.679 283.806 309.463C283.058 308.85 282.386 308.396 281.848 308.15C281.476 307.98 281.305 307.968 281.266 307.967C280.973 308.103 280.51 308.255 279.974 308.134C279.298 307.981 278.904 307.499 278.722 307.078C278.56 306.705 278.532 306.328 278.532 306.061C278.533 305.773 278.569 305.476 278.62 305.191C278.643 305.062 278.672 304.927 278.704 304.789L278.451 305.043L277.411 304.264C276.672 303.709 275.521 302.945 274.479 302.442C273.95 302.186 273.533 302.04 273.256 301.99C273.243 301.988 273.232 301.988 273.221 301.986C272.812 302.276 272.252 302.45 271.625 302.256C271.034 302.073 270.674 301.639 270.499 301.397C270.117 300.87 269.831 300.13 269.615 299.467C269.471 299.024 269.337 298.541 269.213 298.051V302.437L267.502 302.193L252.221 300.01L251.339 301.481L247.807 307.368L247.533 307.823L247.034 308.005C244.855 308.797 241.519 309.93 238.596 310.748C237.14 311.155 235.743 311.497 234.627 311.675C234.075 311.763 233.533 311.821 233.061 311.81C232.825 311.805 232.556 311.782 232.289 311.714C232.038 311.65 231.658 311.513 231.334 311.188C230.845 310.7 229.729 309.858 228.624 309.07C227.154 311.25 224.951 313.705 222.273 315.466C219.386 317.365 215.792 318.549 211.967 317.456C211.05 317.194 210.159 316.976 209.283 316.766C208.418 316.56 207.551 316.358 206.734 316.137C205.112 315.697 203.505 315.139 202.159 314.133C199.483 312.131 198.341 308.779 198.628 303.024L190.808 300.982L190.15 300.81L178.073 276.656L177.195 274.901L179.119 274.516L185.006 273.339L185.074 273.325L185.143 273.318L207.513 270.964L208.871 270.82L209.139 272.16C209.515 274.042 210.303 276.776 211.409 278.88C211.966 279.939 212.547 280.727 213.105 281.188C213.628 281.62 214.015 281.685 214.37 281.597L214.908 281.462L217.721 280.759L216.87 282.288C219.593 283.16 224.451 283.815 229.449 281.673C230.917 281.044 233.429 280.189 236.307 279.609C239.173 279.032 242.514 278.704 245.591 279.217L246.064 279.296L246.404 279.636C246.683 279.914 247.063 280.352 247.488 280.864C246.626 278.852 246.894 276.807 247.499 275.395L247.949 274.347L249.079 274.501L274.967 278.031C275.336 277.632 275.734 277.266 276.141 276.933C277.378 275.923 278.806 275.137 280.089 274.602L280.169 274.569L280.253 274.545L288.494 272.19L289.795 271.819L290.298 273.075L292.381 278.283C293.678 278.663 295.264 279.154 296.448 279.58C297.097 279.813 297.8 280.087 298.217 280.353C298.313 280.415 298.543 280.567 298.733 280.817C298.833 280.948 299.004 281.213 299.048 281.593C299.085 281.911 299.02 282.218 298.884 282.481C299.04 282.401 299.202 282.324 299.369 282.252C300.873 281.604 302.753 281.341 305.052 281.516L312.859 277.055L324.633 269.991L324.774 269.907L324.93 269.855L331.994 267.5L332.873 267.207L333.527 267.862ZM185.528 276.291L181.63 277.07L192.222 298.254L198.883 299.993C198.951 299.4 199.031 298.784 199.122 298.143L199.84 293.12L201.966 297.727C202.041 297.89 202.124 298.057 202.214 298.229L202.29 298.192L210.977 293.849C210.93 293.826 210.883 293.803 210.837 293.776C210.068 293.331 209.847 292.56 209.79 292.063C209.731 291.553 209.798 291.014 209.896 290.534C209.999 290.034 210.157 289.496 210.344 288.951C210.848 287.48 211.635 285.766 212.4 284.255C211.965 284.059 211.561 283.8 211.196 283.499C210.199 282.675 209.397 281.491 208.757 280.274C207.728 278.317 206.974 275.983 206.503 274.083L185.528 276.291ZM283.076 293.142C283.18 293.25 283.281 293.358 283.376 293.467C283.898 294.065 284.498 294.933 284.516 295.954C285.26 295.604 286.113 295.453 287.025 295.757C288.881 296.375 290.394 296.935 292.025 296.966C292.874 296.982 293.784 296.849 294.788 296.433C294.149 296.502 293.451 296.505 292.705 296.432C290.357 296.203 287.213 295.254 283.076 293.142ZM301.738 293.678C300.779 293.697 299.716 293.755 298.713 293.834L298.718 293.856L298.578 294.135L300.796 296.352C300.787 295.834 300.868 295.296 301.085 294.761C301.244 294.367 301.464 294.006 301.738 293.678ZM269.213 293.589L275.02 288.944L275.744 288.363C274.994 287.64 274.399 286.913 273.953 286.178C273.565 285.537 273.294 284.897 273.128 284.265C270.495 286.148 266.083 287.459 259.349 286.898C254.926 286.53 251.87 285.435 249.885 283.889C250.413 284.574 250.897 285.209 251.253 285.682L252.075 286.779L251.057 287.696L239.283 298.292L238.855 298.677H228.038L218.936 303.227L217.378 304.006C217.309 305.065 217.12 305.891 216.829 306.52C216.68 306.842 216.462 307.188 216.172 307.474C219.018 307.786 222.306 307.517 226.06 306.344C226.079 306.337 226.099 306.33 226.119 306.324C225.963 305.258 225.9 303.85 226.195 302.579C226.373 301.815 226.706 300.977 227.345 300.314C228.023 299.61 228.944 299.212 230.039 299.212H246.634L242.778 298.661L239.579 298.205L241.994 296.058L252.591 286.64L253.126 286.164L253.832 286.281L267.96 288.636L269.213 288.845V293.589Z" stroke="#1C0F1B" stroke-width="2.99688"/>
<path d="M255.495 248.289L232.612 263.181L217.975 178.843L237.371 161.328L255.495 248.289Z" fill="url(#paint1_linear_394_114)"/>
<path d="M218.409 178.42L196.237 168.114L211.607 253.103L233.296 262.996L218.409 178.42Z" fill="url(#paint2_linear_394_114)"/>
<path d="M227.715 229.716L232.265 248.054L236.939 254.943L244.252 247.527L251.094 236.434L245.974 210.097C236.662 195.657 235.09 198.728 235.467 202.069C236.871 205.132 238.871 214.303 235.641 226.484C232.411 238.665 229.011 233.714 227.715 229.716Z" fill="url(#paint3_linear_394_114)"/>
<path d="M231.52 249.343L238.668 257.193L246.031 251.938L250.681 240.894L248.563 227.334C243.679 226.301 234.027 227.029 234.491 238.21C235.069 252.187 233.192 243.454 229.833 243.276C227.146 243.134 229.838 247.261 231.52 249.343Z" fill="url(#paint4_linear_394_114)"/>
<path d="M248.91 242.461C240.723 259.028 235.119 254.348 233.34 249.937L231.942 250.859L234.895 261.475L253.212 249.994C251.825 247.651 249.023 242.865 248.91 242.461Z" fill="#492195"/>
<path d="M222.243 231.963C223.203 224.31 225.158 225.919 226.016 227.68L228.704 249.24C221.926 249.988 208.795 248.65 210.496 237.318C212.197 225.985 215.893 226.978 217.528 228.891C218.7 233.104 221.284 239.616 222.243 231.963Z" fill="url(#paint5_linear_394_114)"/>
<ellipse cx="2.12554" cy="2.09888" rx="2.12554" ry="2.09888" transform="matrix(0.965257 -0.261301 0.268013 0.963415 218.549 246.331)" fill="#DE7FEF"/>
<path d="M208.505 236.004L211.748 253.608L229.485 261.853L229.857 261.208L228.625 246.865C221.801 250.887 217.603 248.218 216.356 246.381C212.048 234.066 209.28 234.163 208.505 236.004Z" fill="#672DC2"/>
<path d="M221.664 174.277L214.796 148.413L234.079 162.219L221.664 174.277Z" fill="url(#paint6_linear_394_114)"/>
<path d="M214.796 148.413C214.796 148.413 214.796 148.413 214.796 148.413C214.891 149.552 214.995 150.689 215.11 151.823C215.9 159.675 217.155 167.404 218.877 175.011L219.959 179.698L223.679 176.31C225.427 174.732 227.145 173.123 228.833 171.484C231.283 169.104 233.67 166.66 235.993 164.151L238.316 162.121L235.688 160.02C229.968 156.368 224.036 153.004 217.893 149.93C216.866 149.416 215.834 148.911 214.796 148.413C214.796 148.413 214.796 148.413 214.796 148.413C215.598 149.233 216.406 150.045 217.22 150.849C222.091 155.661 227.175 160.184 232.469 164.418L232.165 160.287C229.587 162.538 227.073 164.854 224.623 167.234C222.935 168.873 221.277 170.543 219.65 172.243L224.452 173.542C222.172 166.083 219.427 158.746 216.216 151.531C215.753 150.489 215.279 149.45 214.796 148.413ZM214.796 148.413V148.413V148.413Z" fill="url(#paint7_linear_394_114)"/>
<path d="M216.584 176.196L214.796 148.413L199.455 167.786L216.584 176.196Z" fill="url(#paint8_linear_394_114)"/>
<path d="M214.796 148.413C215.073 149.587 215.34 150.762 215.597 151.938C217.348 159.942 218.633 167.973 219.452 176.031L219.916 180.812L215.312 178.729C212.9 177.651 210.509 176.531 208.14 175.367C204.8 173.727 201.502 172.003 198.247 170.193L195.305 168.929L197.299 166.125C201.963 160.825 206.904 155.739 212.123 150.867C213.006 150.043 213.897 149.225 214.796 148.413C214.215 149.47 213.626 150.521 213.029 151.565C209.501 157.74 205.695 163.701 201.612 169.448L200.664 165.379C204.089 166.85 207.472 168.406 210.812 170.046C213.182 171.209 215.529 172.415 217.856 173.663L213.715 176.361C213.495 168.269 213.741 160.15 214.452 152.004C214.557 150.807 214.671 149.61 214.796 148.413ZM214.796 148.413" fill="url(#paint9_linear_394_114)"/>
<path d="M204.539 167.875C204.046 168.499 203.33 168.892 202.532 168.953C201.734 169.016 200.921 168.743 200.285 168.208C199.65 167.672 199.25 166.922 199.188 166.136C199.126 165.348 199.407 164.589 199.955 164.012C199.955 164.012 199.955 164.012 199.955 164.012C200.439 163.501 200.922 162.99 201.406 162.48C205.021 158.663 208.637 154.847 212.252 151.03L214.873 147.775L216.089 151.914C217.581 159.115 219.073 166.316 220.565 173.518C220.707 174.202 220.848 174.886 220.99 175.57C220.258 175.752 219.527 175.934 218.795 176.117C218.593 175.448 218.39 174.779 218.187 174.11C216.053 167.069 213.919 160.028 211.786 152.987L215.622 153.871C212.364 157.988 209.106 162.105 205.847 166.222C205.411 166.773 204.975 167.324 204.539 167.875Z" fill="#FEEBFE"/>
<path d="M239.566 193.24C239.636 193.521 239.804 193.772 240.046 193.937C240.288 194.102 240.582 194.168 240.867 194.119C241.151 194.07 241.405 193.91 241.575 193.673C241.745 193.437 241.815 193.144 241.783 192.857C241.783 192.857 241.783 192.857 241.783 192.857C241.567 190.949 241.345 189.042 241.116 187.136C240.216 179.617 239.22 172.114 238.128 164.628L237.56 160.8L234.193 162.992C228.519 166.666 222.889 170.404 217.305 174.206L215.789 175.238L216.092 177.108C216.559 179.995 217.041 182.881 217.536 185.763C217.934 188.075 218.341 190.384 218.757 192.693L218.772 192.772C221.817 207.37 225.232 221.896 229.019 236.351C229.506 238.209 229.999 240.067 230.499 241.923C230.574 242.202 230.747 242.451 230.992 242.611C231.237 242.771 231.533 242.831 231.816 242.776C232.099 242.721 232.35 242.556 232.515 242.317C232.68 242.077 232.745 241.783 232.707 241.497C232.707 241.497 232.707 241.497 232.707 241.497C232.453 239.593 232.193 237.691 231.927 235.789C229.857 221.003 227.416 206.289 224.605 191.646L224.619 191.725C224.24 189.411 223.852 187.098 223.454 184.787C222.959 181.904 222.448 179.024 221.924 176.146L220.711 179.047C226.218 175.136 231.68 171.16 237.097 167.12L233.162 165.485C234.745 172.886 236.424 180.271 238.198 187.64C238.648 189.508 239.104 191.374 239.566 193.24Z" fill="url(#paint10_linear_394_114)"/>
<path d="M225.325 254.859C228.773 254.27 232.222 253.682 235.67 253.093C235.403 252.087 235.136 251.08 234.869 250.074C230.063 231.962 225.257 213.85 220.45 195.737C220.183 194.731 219.916 193.725 219.649 192.719C219.744 193.754 219.838 194.79 219.933 195.826C221.635 214.468 223.338 233.11 225.041 251.752C225.135 252.787 225.23 253.823 225.325 254.859Z" fill="#3F1F77"/>
<path d="M248.572 250.838C252.008 250.183 255.444 249.527 258.88 248.872C258.561 247.703 258.241 246.534 257.921 245.365C252.167 224.327 246.413 203.288 240.658 182.249C240.339 181.08 240.019 179.911 239.699 178.743C239.847 179.944 239.995 181.146 240.143 182.347C242.805 203.976 245.467 225.605 248.128 247.233C248.276 248.435 248.424 249.636 248.572 250.838Z" fill="#3F1F77"/>
<path d="M218.378 181.387C219.174 179.561 219.969 177.736 220.764 175.911C220.514 175.856 220.264 175.801 220.014 175.745C215.511 174.753 211.009 173.761 206.506 172.769C206.256 172.714 206.006 172.659 205.756 172.604C205.966 172.751 206.176 172.897 206.387 173.043C210.174 175.678 213.96 178.313 217.747 180.948C217.957 181.094 218.168 181.24 218.378 181.387Z" fill="#FEEBFE"/>
<ellipse cx="2.12554" cy="2.09888" rx="2.12554" ry="2.09888" transform="matrix(0.965257 -0.261301 0.268013 0.963415 230.446 180.054)" fill="#DE7FEF"/>
<path d="M200.464 189.257L199.147 182.54C202.036 179.047 202.647 172.789 204.27 175.181C207.074 179.314 203.025 189.21 200.464 189.257Z" fill="url(#paint11_linear_394_114)"/>
<ellipse cx="2.12554" cy="2.09888" rx="2.12554" ry="2.09888" transform="matrix(0.965257 -0.261301 0.268013 0.963415 199.092 174.408)" fill="#DE7FEF"/>
<path d="M235.325 253.148L225.544 254.353L225.139 259.92L233.775 263.626L235.067 261.479L235.325 253.148Z" fill="#3F1F77"/>
<path d="M254.512 249.574L275.346 267.828L302.391 186.455L285.447 166.133L254.512 249.574Z" fill="url(#paint12_linear_394_114)"/>
<path d="M302.017 185.969L325.818 179.135L297.941 261.041L275.162 267.747L302.017 185.969Z" fill="url(#paint13_linear_394_114)"/>
<path d="M285.162 235.401L277.906 252.885L272.2 259.001L265.929 250.534L260.671 238.493L269.669 213.166C281.143 200.272 282.275 203.557 281.407 206.811C279.548 209.633 276.197 218.419 277.664 230.987C279.132 243.555 283.274 239.166 285.162 235.401Z" fill="url(#paint14_linear_394_114)"/>
<path d="M300.842 185.457L283.04 239.637L277.849 241.964L275.263 234.528L268.193 215.964L275.684 193.994L279.795 180.874C290.514 182.333 288.424 172.208 286.039 166.964L300.842 185.457Z" fill="url(#paint15_linear_394_114)"/>
<path d="M281.414 197.064C279.828 196.374 273.761 204.435 270.926 208.552L267.977 216.443C268.566 216.891 270.536 218.132 273.707 219.514C276.878 220.895 282.968 212.079 285.616 207.498C284.876 204.308 282.999 197.755 281.414 197.064Z" fill="url(#paint16_linear_394_114)"/>
<path d="M278.467 254.277L270.133 260.968L263.497 254.636L260.435 242.979L264.546 229.859C269.608 229.58 279.207 231.774 277.108 242.788C274.483 256.555 277.647 248.184 281.051 248.52C283.774 248.789 280.463 252.47 278.467 254.277Z" fill="url(#paint17_linear_394_114)"/>
<path d="M261.986 244.802C267.798 262.474 274.117 258.689 276.55 254.588L277.821 255.716L273.3 265.789L256.56 251.613C258.297 249.502 261.814 245.185 261.986 244.802Z" fill="#492195"/>
<path d="M288.284 237.555C288.012 229.722 286.22 230.915 285.062 232.49L279.703 253.668C287.296 255.842 302.893 257.377 302.173 245.719C301.452 234.061 296.002 233.922 293.948 235.485C292.174 239.439 288.557 245.388 288.284 237.555Z" fill="url(#paint18_linear_394_114)"/>
<path d="M303.56 244.564L297.726 261.521L275.162 267.747L275.823 265.448L280.069 251.534C286.343 256.561 292.627 255.285 294.149 253.654C300.281 242.103 303.05 242.621 303.56 244.564Z" fill="#672DC2"/>
<path d="M301.207 183.322L310.036 156.774L288.628 167.518L301.207 183.322Z" fill="url(#paint19_linear_394_114)"/>
<path d="M304.177 184.043L310.036 156.774L322.63 178.319L304.177 184.043Z" fill="url(#paint20_linear_394_114)"/>
<path d="M310.036 156.774C310.036 156.774 310.036 156.774 310.036 156.774C309.587 157.898 309.148 159.024 308.719 160.152C305.8 167.829 303.341 175.6 301.341 183.465L300.194 188.064L305.066 186.717C307.66 186.012 310.238 185.262 312.802 184.467C316.389 183.354 319.947 182.153 323.475 180.864L326.609 180.058L325.028 177.006C321.114 171.036 316.89 165.237 312.356 159.607C311.591 158.658 310.818 157.713 310.036 156.774C310.036 156.774 310.036 156.774 310.036 156.774C310.465 157.907 310.903 159.035 311.35 160.158C314.001 166.819 316.961 173.311 320.233 179.632L321.785 175.774C318.139 176.71 314.523 177.735 310.936 178.847C308.372 179.642 305.823 180.483 303.289 181.368L307.013 184.621C308.419 176.635 309.365 168.556 309.851 160.382C309.923 159.182 309.984 157.979 310.036 156.774ZM310.036 156.774" fill="url(#paint21_linear_394_114)"/>
<path d="M309.271 156.751C309.545 156.653 309.849 156.654 310.119 156.765C310.39 156.875 310.605 157.085 310.718 157.349C310.831 157.614 310.833 157.914 310.725 158.185C310.618 158.457 310.408 158.677 310.148 158.807C310.148 158.807 310.148 158.807 310.148 158.807C308.284 159.735 306.418 160.658 304.55 161.574C299.263 164.169 293.957 166.718 288.631 169.221L289.522 165.687C294.381 171.17 299.179 176.703 303.914 182.286L304.893 183.439L304.412 184.972C302.834 190.011 301.218 195.036 299.562 200.049C299.524 200.164 299.487 200.275 299.45 200.385C293.589 218.019 287.245 235.499 280.42 252.823C279.661 254.748 278.897 256.671 278.126 258.593C278.019 258.861 277.816 259.087 277.552 259.217C277.289 259.347 276.987 259.371 276.711 259.283C276.436 259.194 276.207 259 276.072 258.743C275.937 258.485 275.909 258.185 275.984 257.906C275.984 257.906 275.984 257.906 275.984 257.906C276.516 255.908 277.054 253.913 277.598 251.919C282.495 233.976 287.875 216.188 293.736 198.554C293.773 198.444 293.81 198.333 293.846 198.223C295.504 193.215 297.202 188.215 298.939 183.228L299.437 185.915C294.882 180.185 290.389 174.405 285.958 168.576L284.077 166.106L286.849 165.042C292.345 162.938 297.86 160.88 303.395 158.867C305.351 158.156 307.31 157.45 309.271 156.751Z" fill="url(#paint22_linear_394_114)"/>
<path d="M317.531 177.618C317.933 178.304 318.591 178.798 319.376 178.979C320.161 179.162 321.009 179.017 321.717 178.588C322.426 178.158 322.931 177.483 323.105 176.719C323.281 175.955 323.111 175.166 322.65 174.515C322.65 174.515 322.65 174.515 322.65 174.515C322.228 173.919 321.806 173.324 321.385 172.728C318.325 168.404 315.266 164.08 312.206 159.756L309.945 155.982L308.198 160.112C305.76 167.425 303.323 174.739 300.885 182.053C300.658 182.734 300.431 183.414 300.204 184.095C300.915 184.363 301.626 184.632 302.336 184.9C302.622 184.241 302.909 183.583 303.195 182.924C306.269 175.851 309.343 168.777 312.416 161.703L308.408 162.058C311.081 166.617 313.753 171.175 316.426 175.733C316.794 176.361 317.163 176.989 317.531 177.618Z" fill="#FEEBFE"/>
<path d="M261.355 253.667C258.021 252.602 254.688 251.536 251.354 250.471C251.831 249.303 252.309 248.135 252.787 246.967C261.383 225.944 269.98 204.921 278.577 183.898C279.054 182.731 279.532 181.563 280.009 180.395C280.009 180.395 280.009 180.395 280.009 180.395C279.699 181.616 279.388 182.837 279.077 184.058C273.48 206.04 267.884 228.022 262.288 250.004C261.977 251.225 261.666 252.446 261.355 253.667Z" fill="#3F1F77"/>
<path d="M301.565 188.903C301.065 186.98 300.564 185.057 300.064 183.134C300.323 183.117 300.581 183.101 300.84 183.084C305.498 182.784 310.156 182.484 314.814 182.184C315.073 182.167 315.332 182.151 315.591 182.134C315.357 182.247 315.123 182.36 314.889 182.473C310.682 184.503 306.474 186.534 302.267 188.565C302.033 188.678 301.799 188.791 301.565 188.903Z" fill="#FEEBFE"/>
<path d="M296.961 238.242C297.418 234.93 292.629 229.727 291.217 230.346C289.805 230.965 288.506 234.883 290.323 236.106C291.451 236.866 293.606 235.861 293.606 235.861C296.095 237.328 296.697 240.158 296.961 238.242Z" fill="url(#paint23_linear_394_114)"/>
<path d="M235.881 262.98L254.054 270.167L252.08 209.07L235.968 199.553L235.881 262.98Z" fill="url(#paint24_linear_394_114)"/>
<path d="M251.716 208.835L265.74 198.487L267.296 260.144L253.913 270.158L251.716 208.835Z" fill="url(#paint25_linear_394_114)"/>
<path d="M252.633 246.053L252.106 259.531L249.832 265.013L243.639 260.857L237.243 254.06L237.012 234.903C241.437 223.48 242.983 225.407 243.202 227.799C242.663 230.141 242.593 236.842 246.618 244.911C250.643 252.98 252.305 249.035 252.633 246.053Z" fill="url(#paint26_linear_394_114)"/>
<path d="M250.817 208.777L252.266 249.407L249.411 252.224L245.897 247.867L236.72 237.136L236.312 220.595L235.83 210.805C243.25 209.185 239.408 202.905 236.56 199.967L250.817 208.777Z" fill="url(#paint27_linear_394_114)"/>
<path d="M240.835 221.264C239.622 221.185 237.585 228.059 236.718 231.506L236.694 237.51C237.191 237.667 238.792 238.022 241.218 238.179C243.644 238.337 245.513 230.952 246.144 227.24C244.88 225.281 242.048 221.343 240.835 221.264Z" fill="url(#paint28_linear_394_114)"/>
<path d="M252.814 260.328L248.949 266.833L243.034 264.196L238.18 257.124L237.698 247.334C240.966 245.92 247.827 245.065 249.122 252.956C250.742 262.821 250.791 256.443 253.116 255.844C254.976 255.364 253.69 258.633 252.814 260.328Z" fill="url(#paint29_linear_394_114)"/>
<path d="M239.647 257.97C247.777 268.408 251.021 264.34 251.627 261.001L252.739 261.449L252.21 269.297L237.727 263.851C238.359 262.015 239.626 258.269 239.647 257.97Z" fill="#492195"/>
<path d="M255.216 246.741C253.131 241.556 252.24 242.79 251.86 244.126L253.481 259.621C259.015 259.238 269.668 256.488 266.357 248.848C263.046 241.208 259.42 242.436 258.446 243.981C258.238 247.061 257.302 251.925 255.216 246.741Z" fill="url(#paint30_linear_394_114)"/>
<path d="M266.989 247.738L267.27 260.518L253.912 270.158L253.788 268.457L253.202 258.101C258.56 259.951 262.391 257.573 262.997 256.111C264.229 246.883 266.18 246.559 266.989 247.738Z" fill="#672DC2"/>
<path d="M250.536 207.257L249.895 187.323L238.4 199.712L250.536 207.257Z" fill="url(#paint31_linear_394_114)"/>
<path d="M252.67 207.021L249.896 187.323L263.439 198.713L252.67 207.021Z" fill="url(#paint32_linear_394_114)"/>
<path d="M249.896 187.323C249.815 188.192 249.744 189.06 249.683 189.927C249.269 195.827 249.317 201.661 249.826 207.428L250.275 212.17L254.428 209.251C255.978 208.176 257.498 207.064 258.988 205.914C261.088 204.295 263.128 202.601 265.111 200.832L267.725 199.096L265.216 196.657C261.115 193.686 256.786 190.98 252.228 188.539C251.457 188.126 250.68 187.72 249.896 187.323C250.418 188.023 250.947 188.717 251.482 189.402C254.647 193.456 258.04 197.245 261.663 200.769L261.768 196.594C259.551 198.065 257.393 199.61 255.293 201.229C253.803 202.379 252.342 203.566 250.911 204.791L255.513 206.613C254.41 200.931 252.845 195.314 250.819 189.764C250.521 188.949 250.213 188.135 249.896 187.323ZM249.896 187.323" fill="url(#paint33_linear_394_114)"/>
<path d="M249.153 187.261C249.378 187.082 249.66 186.981 249.95 186.993C250.24 187.005 250.512 187.126 250.708 187.333C250.905 187.539 251.012 187.817 251.009 188.107C251.006 188.397 250.89 188.674 250.7 188.889C250.7 188.889 250.7 188.889 250.7 188.889C249.72 189.991 248.736 191.089 247.748 192.183C244.963 195.264 242.144 198.31 239.291 201.319L238.9 197.712C243.479 200.144 248.018 202.643 252.516 205.208L253.809 205.946L253.9 207.561C254.112 211.32 254.283 215.08 254.413 218.842C254.418 218.973 254.422 219.101 254.426 219.228C254.852 232.428 254.772 245.646 254.187 258.882C254.122 260.352 254.051 261.823 253.974 263.294C253.958 263.58 253.846 263.858 253.644 264.067C253.442 264.276 253.17 264.399 252.885 264.409C252.599 264.419 252.32 264.315 252.106 264.12C251.891 263.926 251.76 263.656 251.727 263.372C251.727 263.372 251.727 263.372 251.727 263.372C251.555 261.909 251.389 260.447 251.229 258.984C249.792 245.818 248.86 232.635 248.434 219.435C248.43 219.308 248.426 219.181 248.422 219.054C248.298 215.296 248.215 211.533 248.172 207.768L249.556 210.121C245.178 207.355 240.841 204.523 236.544 201.623L233.967 199.888L236.153 198.016C239.305 195.321 242.491 192.663 245.712 190.04C246.855 189.109 248.002 188.183 249.153 187.261Z" fill="url(#paint34_linear_394_114)"/>
<path d="M259.517 200.274C260.149 200.762 260.936 200.968 261.723 200.822C262.509 200.677 263.23 200.192 263.711 199.498C264.192 198.805 264.388 197.966 264.239 197.191C264.091 196.414 263.611 195.765 262.92 195.362C262.92 195.362 262.92 195.362 262.92 195.362C262.499 195.116 262.078 194.869 261.656 194.623C258.597 192.832 255.537 191.042 252.477 189.252L249.292 186.847L248.977 191.026C249.208 196.204 249.439 201.381 249.669 206.559C249.691 207.041 249.712 207.523 249.734 208.005C250.488 208.021 251.243 208.037 251.997 208.053C252.038 207.572 252.08 207.091 252.121 206.61C252.565 201.447 253.009 196.284 253.453 191.121L249.953 192.895C252.755 195.057 255.557 197.219 258.36 199.381C258.745 199.679 259.131 199.976 259.517 200.274Z" fill="#FEEBFE"/>
<path d="M242.518 200.785C241.944 201.341 241.185 201.634 240.387 201.575C239.59 201.519 238.821 201.115 238.267 200.478C237.713 199.84 237.427 199.027 237.49 198.24C237.553 197.452 237.961 196.754 238.604 196.278C238.604 196.278 238.604 196.278 238.604 196.278C238.987 195.993 239.371 195.709 239.754 195.424C242.453 193.422 245.151 191.419 247.85 189.416L250.957 186.487L251.566 190.906C251.652 196.078 251.739 201.25 251.826 206.422C251.834 206.894 251.842 207.366 251.85 207.837C251.098 207.903 250.347 207.969 249.596 208.035C249.525 207.569 249.455 207.102 249.384 206.636C248.611 201.524 247.838 196.412 247.065 191.301L250.781 192.791C248.369 195.124 245.957 197.457 243.546 199.791C243.203 200.122 242.861 200.453 242.518 200.785Z" fill="#FEEBFE"/>
<path d="M252.655 211.609C251.508 209.976 250.361 208.343 249.214 206.71C249.389 206.648 249.564 206.586 249.74 206.524C252.894 205.403 256.048 204.283 259.203 203.162C259.378 203.1 259.553 203.038 259.729 202.976C259.611 203.12 259.493 203.263 259.375 203.407C257.253 205.997 255.131 208.588 253.009 211.178C252.891 211.321 252.773 211.465 252.655 211.609Z" fill="#FEEBFE"/>
<path d="M261.102 245.099C260.597 242.769 256.175 240.441 255.395 241.198C254.614 241.955 254.712 244.896 256.207 245.276C257.136 245.512 258.311 244.316 258.311 244.316C260.308 244.696 261.394 246.448 261.102 245.099Z" fill="url(#paint35_linear_394_114)"/>
<path d="M262.132 280.244C262.941 279.716 263.382 279.929 263.595 280.547C263.714 280.563 263.793 280.583 263.805 280.611C263.969 280.908 264.127 281.45 264.476 282.327C264.819 283.164 265.406 284.013 265.771 285.145C266.462 287.284 266.783 288.704 267.149 289.533C267.508 290.349 267.848 291.474 268.386 292.375C268.841 293.136 268.856 294.601 270.146 294.739C270.865 294.815 271.457 294.698 271.818 294.557C272.143 294.43 273.182 293.998 273.808 292.736C274.558 291.223 274.813 290.568 274.856 289.489C274.887 288.719 274.824 287.754 274.061 286.926C273.287 286.086 272.321 285.052 271.36 284.193C271.127 283.984 270.932 283.793 271.303 283.72C273.624 283.267 274.604 283.139 275.553 282.749C276.3 282.441 277.235 282.292 277.632 281.583C277.89 281.124 278.064 280.393 277.799 279.665C277.599 279.112 277.408 278.608 277.031 278.409C276.703 278.236 276.366 278.128 276.022 278.153C275.157 278.216 274.185 278.184 273.363 278.252C271.727 278.386 269.441 278.471 268.662 278.503C267.876 278.534 263.315 280.975 263.041 278.965C263.006 278.708 263.423 278.282 264.801 276.657C265.441 275.903 266 275.398 266.594 274.913C267.285 274.348 268.124 273.577 268.325 272.731L268.33 272.709C268.492 272.028 268.653 271.349 268.267 269.937C267.843 268.389 267.497 265.071 266.075 265.124C265.512 265.145 264.998 265.249 264.617 265.395C263.77 265.719 262.606 265.766 261.621 267.117C260.576 268.553 260.042 269.819 260.132 271.237C260.167 271.776 260.208 272.457 260.255 273.173C260.464 274.125 260.533 274.788 260.698 275.472C260.944 276.492 260.948 277.352 260.864 277.606C260.631 278.309 260.411 275.546 260.255 273.173C260.149 272.692 260.007 272.136 259.799 271.466C259.236 269.657 258.687 268.042 257.523 266.388C255.414 263.392 253.813 260.957 253.013 260.998C252.811 261.008 252.552 261.085 252.422 261.245C251.957 261.817 251.49 262.575 251.325 263.622C251.05 265.37 250.974 267.147 251.313 269.739C251.731 272.938 252.06 275.137 252.302 275.64C252.964 277.012 253.188 278.114 254.424 279.279C255.412 280.21 256.696 281.203 257.296 281.682C257.316 281.698 257.147 281.643 256.974 281.565C256.192 281.214 255.389 280.646 254.457 280.255C253.531 279.866 251.814 278.284 249.471 278.393C247.403 278.49 244.272 278.732 243.202 279.416C243.037 279.521 242.989 279.7 243.084 279.836C243.288 280.128 243.586 280.528 244.072 280.924C245.102 281.762 245.678 282.793 246.601 283.035C248.111 283.43 251.104 284.175 252.601 284.349C254.009 284.512 256.151 284.699 257.035 284.356C257.862 284.035 259.388 282.428 259.379 283.076C259.376 283.339 259.31 283.712 259.213 284.334C258.865 286.556 258.628 287.625 258.671 288.453C258.729 289.561 258.837 291.223 259.551 291.748C259.711 291.865 259.873 291.881 260.091 291.829C260.308 291.777 260.603 291.7 260.889 291.451C262.167 290.339 263 289.376 263.053 287.796C263.087 286.793 264.166 282.207 263.595 280.547C263.066 280.476 261.758 280.488 262.132 280.244Z" fill="#571C5C"/>
<path d="M268.325 272.731C268.124 273.577 267.285 274.348 266.594 274.913C266 275.398 265.441 275.903 264.801 276.657C263.423 278.282 263.006 278.708 263.041 278.965C263.315 280.975 267.876 278.534 268.662 278.503C269.441 278.471 271.727 278.386 273.363 278.252C274.185 278.184 275.157 278.216 276.022 278.153C276.366 278.128 276.703 278.236 277.031 278.409C277.408 278.608 277.599 279.112 277.799 279.665C278.064 280.393 277.89 281.124 277.632 281.583C277.235 282.292 276.3 282.441 275.553 282.749C274.604 283.139 273.624 283.267 271.303 283.72C270.932 283.793 271.127 283.984 271.36 284.193C272.321 285.052 273.287 286.086 274.061 286.926C274.824 287.754 274.887 288.719 274.856 289.489C274.813 290.568 274.558 291.223 273.808 292.736C273.182 293.998 272.143 294.43 271.818 294.557C271.457 294.698 270.865 294.815 270.146 294.739C268.856 294.601 268.841 293.136 268.386 292.375C267.848 291.474 267.508 290.349 267.149 289.533C266.783 288.704 266.462 287.284 265.771 285.145C265.406 284.013 264.819 283.164 264.476 282.327C264.127 281.45 263.969 280.908 263.805 280.611C263.793 280.583 263.714 280.563 263.595 280.547M268.325 272.731L268.33 272.709M268.325 272.731C268.327 272.724 268.328 272.716 268.33 272.709M263.595 280.547C263.382 279.929 262.941 279.716 262.132 280.244C261.758 280.488 263.066 280.476 263.595 280.547ZM263.595 280.547C264.166 282.207 263.087 286.793 263.053 287.796C263 289.376 262.167 290.339 260.889 291.451C260.603 291.7 260.308 291.777 260.091 291.829C259.873 291.881 259.711 291.865 259.551 291.748C258.837 291.223 258.729 289.561 258.671 288.453C258.628 287.625 258.865 286.556 259.213 284.334C259.31 283.712 259.376 283.339 259.379 283.076C259.388 282.428 257.862 284.035 257.035 284.356C256.151 284.699 254.009 284.512 252.601 284.349C251.104 284.175 248.111 283.43 246.601 283.035C245.678 282.793 245.102 281.762 244.072 280.924C243.586 280.528 243.288 280.128 243.084 279.836C242.989 279.7 243.037 279.521 243.202 279.416C244.272 278.732 247.403 278.49 249.471 278.393C251.814 278.284 253.531 279.866 254.457 280.255C255.389 280.646 256.192 281.214 256.974 281.565C257.147 281.643 257.316 281.698 257.296 281.682C256.696 281.203 255.412 280.21 254.424 279.279C253.188 278.114 252.964 277.012 252.302 275.64C252.06 275.137 251.731 272.938 251.313 269.739C250.974 267.147 251.05 265.37 251.325 263.622C251.49 262.575 251.957 261.817 252.422 261.245C252.552 261.085 252.811 261.008 253.013 260.998C253.813 260.957 255.414 263.392 257.523 266.388C258.687 268.042 259.236 269.657 259.799 271.466C260.007 272.136 260.149 272.692 260.255 273.173M268.33 272.709C268.492 272.028 268.653 271.349 268.267 269.937C267.843 268.389 267.497 265.071 266.075 265.124C265.512 265.145 264.998 265.249 264.617 265.395C263.77 265.719 262.606 265.766 261.621 267.117C260.576 268.553 260.042 269.819 260.132 271.237C260.167 271.776 260.208 272.457 260.255 273.173M260.255 273.173C260.464 274.125 260.533 274.788 260.698 275.472C260.944 276.492 260.948 277.352 260.864 277.606C260.631 278.309 260.411 275.546 260.255 273.173Z" stroke="#BB2094" stroke-width="1.49844" stroke-linecap="round"/>
<path d="M254.543 281.694C253.896 281.982 253.595 281.789 253.504 281.335C253.419 281.311 253.363 281.289 253.357 281.269C253.268 281.043 253.21 280.648 253.046 279.997C252.883 279.377 252.542 278.722 252.394 277.892C252.113 276.323 252.027 275.294 251.846 274.676C251.669 274.068 251.538 273.245 251.239 272.559C250.986 271.98 251.129 270.951 250.199 270.725C249.681 270.6 249.235 270.622 248.956 270.685C248.705 270.741 247.9 270.939 247.31 271.761C246.602 272.747 246.347 273.18 246.202 273.933C246.099 274.47 246.044 275.152 246.515 275.81C246.994 276.477 247.592 277.299 248.205 277.998C248.353 278.167 248.477 278.321 248.197 278.335C246.451 278.42 245.721 278.411 244.986 278.589C244.407 278.73 243.708 278.74 243.342 279.197C243.106 279.493 242.902 279.989 243.019 280.525C243.108 280.933 243.195 281.306 243.449 281.483C243.671 281.638 243.906 281.747 244.161 281.764C244.8 281.807 245.508 281.927 246.117 281.962C247.328 282.032 249.009 282.202 249.583 282.259C250.161 282.315 253.754 281.062 253.743 282.499C253.742 282.683 253.393 282.94 252.214 283.94C251.667 284.405 251.205 284.703 250.719 284.983C250.154 285.31 249.459 285.766 249.224 286.339L249.218 286.354C249.028 286.815 248.839 287.275 248.974 288.304C249.121 289.432 249.027 291.793 250.072 291.899C250.486 291.941 250.874 291.92 251.168 291.856C251.821 291.714 252.678 291.798 253.54 290.949C254.456 290.047 254.979 289.213 255.061 288.21C255.093 287.829 255.134 287.347 255.175 286.84C255.121 286.152 255.14 285.68 255.091 285.184C255.018 284.444 255.105 283.84 255.194 283.671C255.438 283.201 255.309 285.161 255.175 286.84C255.202 287.188 255.247 287.592 255.329 288.083C255.552 289.408 255.784 290.595 256.462 291.872C257.691 294.185 258.607 296.053 259.197 296.105C259.346 296.118 259.543 296.09 259.655 295.991C260.055 295.637 260.476 295.152 260.707 294.435C261.091 293.237 261.333 291.998 261.357 290.147C261.387 287.861 261.376 286.287 261.252 285.91C260.912 284.881 260.863 284.086 260.081 283.145C259.456 282.393 258.621 281.568 258.232 281.172C258.219 281.158 258.337 281.213 258.455 281.285C258.99 281.611 259.518 282.089 260.16 282.458C260.796 282.823 261.886 284.105 263.613 284.264C265.135 284.404 267.452 284.548 268.306 284.177C268.438 284.119 268.492 283.999 268.437 283.894C268.318 283.669 268.142 283.358 267.828 283.032C267.162 282.341 266.848 281.56 266.199 281.298C265.135 280.869 263.024 280.046 261.946 279.773C260.933 279.517 259.386 279.171 258.703 279.323C258.064 279.465 256.779 280.438 256.854 279.985C256.884 279.801 256.971 279.545 257.107 279.119C257.595 277.596 257.88 276.871 257.935 276.286C258.009 275.503 258.105 274.327 257.637 273.887C257.533 273.789 257.415 273.761 257.251 273.776C257.087 273.791 256.863 273.815 256.628 273.961C255.576 274.612 254.865 275.203 254.661 276.306C254.531 277.006 253.26 280.113 253.504 281.335C253.883 281.437 254.842 281.56 254.543 281.694Z" fill="#601050"/>
<path d="M249.224 286.339C249.459 285.766 250.154 285.31 250.719 284.983C251.205 284.703 251.667 284.405 252.214 283.94C253.393 282.94 253.742 282.683 253.743 282.499C253.754 281.062 250.161 282.315 249.583 282.259C249.009 282.202 247.328 282.032 246.117 281.962C245.508 281.927 244.8 281.807 244.161 281.764C243.906 281.747 243.671 281.638 243.449 281.483C243.195 281.306 243.108 280.933 243.019 280.525C242.902 279.989 243.106 279.493 243.342 279.197C243.708 278.74 244.407 278.73 244.986 278.589C245.721 278.411 246.451 278.42 248.197 278.335C248.477 278.321 248.353 278.167 248.205 277.998C247.592 277.299 246.994 276.477 246.515 275.81C246.044 275.152 246.099 274.47 246.202 273.933C246.347 273.18 246.602 272.747 247.31 271.761C247.9 270.939 248.705 270.741 248.956 270.685C249.235 270.622 249.681 270.6 250.199 270.725C251.129 270.951 250.986 271.98 251.239 272.559C251.538 273.245 251.669 274.068 251.846 274.676C252.027 275.294 252.113 276.323 252.394 277.892C252.542 278.722 252.883 279.377 253.046 279.997C253.21 280.648 253.268 281.043 253.357 281.269C253.363 281.289 253.419 281.311 253.504 281.335M249.224 286.339L249.218 286.354M249.224 286.339C249.222 286.344 249.22 286.349 249.218 286.354M253.504 281.335C253.595 281.789 253.896 281.982 254.543 281.694C254.842 281.56 253.883 281.437 253.504 281.335ZM253.504 281.335C253.26 280.113 254.531 277.006 254.661 276.306C254.865 275.203 255.576 274.612 256.628 273.961C256.863 273.815 257.087 273.791 257.251 273.776C257.415 273.761 257.533 273.789 257.637 273.887C258.105 274.327 258.009 275.503 257.935 276.286C257.88 276.871 257.595 277.596 257.107 279.119C256.971 279.545 256.884 279.801 256.854 279.985C256.779 280.438 258.064 279.465 258.703 279.323C259.386 279.171 260.933 279.517 261.946 279.773C263.024 280.046 265.135 280.869 266.199 281.298C266.848 281.56 267.162 282.341 267.828 283.032C268.142 283.358 268.318 283.669 268.437 283.894C268.492 283.999 268.438 284.119 268.306 284.177C267.452 284.548 265.135 284.404 263.613 284.264C261.886 284.105 260.796 282.823 260.16 282.458C259.518 282.089 258.99 281.611 258.455 281.285C258.337 281.213 258.219 281.158 258.232 281.172C258.621 281.568 259.456 282.393 260.081 283.145C260.863 284.086 260.912 284.881 261.252 285.91C261.376 286.287 261.387 287.861 261.357 290.147C261.333 291.998 261.091 293.237 260.707 294.435C260.476 295.152 260.055 295.637 259.655 295.991C259.543 296.09 259.346 296.118 259.197 296.105C258.607 296.053 257.691 294.185 256.462 291.872C255.784 290.595 255.552 289.408 255.329 288.083C255.247 287.592 255.202 287.188 255.175 286.84M249.218 286.354C249.028 286.815 248.839 287.275 248.974 288.304C249.121 289.432 249.027 291.793 250.072 291.899C250.486 291.941 250.874 291.92 251.168 291.856C251.821 291.714 252.678 291.798 253.54 290.949C254.456 290.047 254.979 289.213 255.061 288.21C255.093 287.829 255.134 287.347 255.175 286.84M255.175 286.84C255.121 286.152 255.14 285.68 255.091 285.184C255.018 284.444 255.105 283.84 255.194 283.671C255.438 283.201 255.309 285.161 255.175 286.84Z" stroke="#8D0F85" stroke-width="1.49844" stroke-linecap="round"/>
<ellipse cx="174.062" cy="266.888" rx="14.9844" ry="5.24454" fill="#A93EB3"/>
<path d="M165.181 264.78C164.632 264.956 163.928 265.088 163.244 265.242C162.259 265.464 161.721 265.508 161.346 265.628C161.17 265.685 160.97 265.75 160.62 265.871C160.014 266.079 158.685 266.562 157.11 267.201C155.676 267.783 155.127 268.086 154.752 268.406C154.662 268.483 154.598 268.55 154.618 268.583C154.792 268.864 155.475 268.42 156.356 267.98C156.751 267.782 157.384 267.477 158.147 267.155C159.769 266.472 160.792 266.104 161.088 265.961C162.125 265.461 163.128 265.002 163.592 264.77C164.101 264.515 164.649 264.163 165.158 263.943C165.267 263.895 165.356 263.876 165.412 263.909C165.535 263.98 165.49 264.249 165.403 264.524C165.212 265.123 164.742 265.395 163.631 266.21C162.753 266.855 161.286 267.511 160.486 267.943C159.968 268.223 159.276 268.681 158.579 269.177C157.722 269.789 157.048 270.794 156.374 271.713C156.094 272.094 155.68 272.649 155.171 273.51C154.904 273.962 154.707 274.283 154.586 274.636C154.523 274.818 155.163 274.094 156.92 272.172C157.957 271.037 159.375 269.66 160.324 268.765C161.273 267.871 161.732 267.522 162.678 266.938C163.623 266.354 165.042 265.546 165.817 265.097C166.592 264.648 166.679 264.583 166.746 264.636C166.813 264.69 166.856 264.865 166.737 265.217C166.618 265.569 166.334 266.093 165.194 267.432C164.055 268.772 162.068 270.911 160.99 272.09C159.786 273.406 159.428 273.863 158.595 274.893C158.003 275.624 157.15 276.84 156.667 277.503C156.185 278.165 156.119 278.252 157.723 276.78C159.326 275.307 162.601 272.273 164.365 270.611C166.307 268.781 166.547 268.354 166.757 268.002C167.165 267.313 167.694 266.459 168.014 265.907C168.324 265.371 168.643 264.936 168.951 264.407C169.098 264.155 168.645 265.152 167.966 266.324C167.419 267.269 166.371 268.871 165.788 269.813C165.205 270.754 165.095 270.972 164.755 271.532C163.248 274.015 162.869 274.524 162.58 275.01C162.258 275.555 162.27 276.635 162.172 277.535C162.08 278.369 161.698 278.672 161.61 278.914C161.535 279.118 161.826 278.416 162.825 276.319C163.454 274.999 164.413 273.196 165.333 271.706C166.253 270.216 167.126 269.103 167.631 268.475C168.399 267.518 168.664 267.251 168.874 267.042C168.973 266.942 169.061 266.855 168.429 268.392C167.797 269.93 166.444 273.096 165.648 275.087C164.853 277.078 164.656 277.798 164.544 278.257C164.39 278.885 164.387 279.288 164.453 279.564C164.473 279.649 164.649 279.513 165.372 277.961C166.094 276.41 167.404 273.419 168.254 271.572C169.397 269.088 169.9 268.397 170.065 268.221C170.363 267.904 170.539 267.56 170.716 267.262C170.756 267.194 170.193 268.627 169.246 270.763C168.833 271.693 168.604 272.331 168.393 272.985C168.182 273.638 168.008 274.293 167.798 275.231C167.587 276.169 167.347 277.37 167.136 278.217C166.925 279.065 166.751 279.524 166.65 279.804C166.549 280.083 166.527 280.171 166.92 279.397C167.312 278.623 168.12 276.986 168.918 275.204C169.716 273.421 170.481 271.544 170.929 270.5C171.45 269.287 171.751 268.841 172.016 268.541C172.09 268.458 172.193 268.875 172.041 270.386C171.889 271.898 171.518 274.583 171.305 276.054C171.017 278.037 170.893 278.429 170.827 278.616C170.793 278.713 170.805 278.825 171.329 277.309C171.853 275.794 172.901 272.65 173.539 270.856C174.177 269.062 174.373 268.712 174.485 268.62C174.597 268.527 174.619 268.702 174.62 269.534C174.62 270.366 174.598 271.851 174.478 273.522C174.357 275.192 174.139 277.004 174.027 278.102C173.914 279.199 173.914 279.526 173.958 279.575C174.113 279.748 174.244 278.83 174.463 277.199C174.641 275.877 174.857 273.538 175.003 272.247C175.206 270.442 175.522 269.571 175.832 269.026C175.882 268.937 175.964 268.883 176.041 268.86C176.118 268.837 176.206 268.859 176.294 268.991C176.524 269.331 176.604 269.981 176.637 272.246C176.665 274.14 176.562 277.546 176.539 279.071C176.516 280.596 176.538 280.138 176.778 278.242C177.019 276.347 177.477 273.028 177.713 271.188C178.053 268.539 178.104 267.868 178.191 267.79C178.35 267.65 178.784 268.742 179.63 271.209C180.222 272.938 180.933 275.706 181.327 277.167C181.721 278.628 181.721 278.715 181.731 278.695C181.804 278.558 181.787 277.797 181.656 275.779C181.564 274.37 181.263 272.19 181.128 270.847C180.993 269.504 180.993 269.067 181.069 268.842C181.146 268.617 181.298 268.617 181.421 268.661C181.543 268.704 181.631 268.792 182.451 270.343C183.271 271.894 184.821 274.907 185.652 276.547C186.567 278.351 186.66 278.628 186.682 278.673C186.703 278.715 186.574 278.456 186.256 276.816C185.938 275.176 185.392 272.076 185.089 270.435C184.786 268.794 184.743 268.707 184.775 268.629C184.851 268.443 185.181 268.419 185.478 268.44C185.76 268.461 186.369 268.966 187.184 269.692C187.721 270.171 188.572 271.015 189.728 272.072C190.758 273.013 190.762 273.402 190.784 273.534C190.792 273.583 190.676 273.579 190.587 273.513C190.375 273.357 190.19 273.051 189.631 272.339C189.186 271.772 188.483 270.733 188.003 270.008C186.969 268.448 186.706 268.155 186.341 267.737C186.282 267.668 186.438 267.604 186.614 267.647C186.79 267.69 187.03 267.821 187.711 268.456C188.391 269.091 189.505 270.226 190.373 271.247C191.921 273.069 192.525 274.129 192.69 274.316C192.858 274.506 192.988 274.703 193.153 274.846C193.236 274.918 193.297 275.01 192.883 274.27C192.469 273.529 191.574 271.957 190.884 270.896C189.826 269.27 188.913 268.554 188.297 268.069C187.829 267.702 187.609 267.427 187.597 267.317C187.525 266.645 189.76 267.359 190.584 267.481C190.694 267.498 190.804 267.492 190.642 267.492C189.287 267.492 188.514 267.316 187.453 267.239M175.724 264.814C175.498 264.697 175.282 264.67 175.128 264.549C174.958 264.416 174.863 263.618 174.687 261.654C174.568 260.327 174.598 258.315 174.609 257.215C174.623 255.691 174.949 254.949 175.478 254.208C175.568 254.081 175.72 254.194 175.787 254.293C175.926 254.497 175.877 254.942 175.735 255.808C175.638 256.396 175.396 257.265 175.076 258.391C174.756 259.518 174.341 260.871 174.117 261.645C173.767 262.85 173.672 263.388 173.693 264.61C173.702 265.124 174.023 265.418 174.298 265.584C174.447 265.674 174.681 265.64 175.176 264.93C175.671 264.221 176.435 262.802 176.861 262.038C177.331 261.196 177.486 261.032 177.585 260.91C177.791 260.657 176.589 262.805 175.747 264.159C175.439 264.653 175.019 264.998 174.478 265.297C174.275 265.41 174.07 265.442 173.85 265.398C173.733 265.375 173.63 265.267 173.115 264.545C172.6 263.823 171.683 262.47 171.156 261.663C170.497 260.654 170.037 259.519 169.463 258.119C169.239 257.527 169.195 257.349 169.184 257.293C169.194 257.325 169.238 257.478 169.283 257.635" stroke="#CF49BD" stroke-width="1.49844" stroke-linecap="round"/>
<path d="M179.758 265.97C179.539 265.861 178.923 265.334 178.448 264.693C178.132 264.269 177.951 263.659 177.917 262.435C177.89 261.465 178.411 260.461 178.71 259.974C179.079 259.372 179.535 258.784 179.944 258.484C180.096 258.374 180.395 258.296 180.803 258.34C181.387 258.402 181.784 259.591 182.051 260.3C182.505 261.505 182.251 262.748 182.053 263.266C181.518 264.662 180.466 265.328 179.915 266.034C179.558 266.49 179.296 266.763 178.988 267.093C178.912 267.175 178.877 267.269 178.887 267.249C179.084 266.856 179.426 266.436 179.943 265.851C180.688 265.009 181.627 264.496 182.271 264.075C182.725 263.778 183.284 263.48 184.11 263.017C184.659 262.709 185.071 262.355 185.534 262.024C186.21 261.542 187.009 260.967 187.717 260.645C188.103 260.47 188.752 260.545 189.393 260.973C189.66 261.151 189.857 261.404 190.055 261.679C190.506 262.304 190.234 263.211 190.058 263.675C189.771 264.429 188.978 264.91 188.559 265.131C187.55 265.663 186.067 266.367 185.352 266.63C184.255 267.034 183.774 266.984 183.343 267.105C182.973 267.21 182.059 267.445 181.161 267.58C180.995 267.602 180.842 267.645 180.665 267.668C180.488 267.69 180.291 267.69 180.089 267.69" stroke="#E747DC" stroke-width="1.49844" stroke-linecap="round"/>
<path d="M169.306 264.184C169.306 263.459 169.219 262.533 169.152 262.113C169.016 261.258 168.183 260.348 167.918 259.962C167.788 259.774 167.457 259.401 166.809 258.775C165.98 257.973 164.901 257.329 164.097 256.855C163.723 256.635 163.464 256.555 163.222 256.466C163.137 256.435 163.11 256.552 163.11 256.663C163.108 257.293 163.506 258.203 163.562 258.746C163.605 259.17 163.859 259.595 164.068 259.905C164.435 260.447 164.96 261.401 165.5 262.174C165.891 262.733 166.217 263.102 166.593 263.433C166.912 263.715 167.649 263.719 168.235 263.974C168.466 264.073 168.644 264.183 168.82 264.282C168.93 264.316 169.083 264.316 169.439 264.382" stroke="#E747DC" stroke-width="1.49844" stroke-linecap="round"/>
<path d="M228.992 308.515C227.959 309.167 226.712 309.98 225.794 310.88C225.331 311.334 225.56 312.107 225.601 312.542C225.633 312.89 225.833 313.116 225.981 313.226C226.266 313.436 227.323 311.822 228.588 309.93C229.064 309.219 229.234 309.036 229.371 308.912C229.508 308.788 229.616 308.734 229.618 308.841C229.632 309.754 228.884 310.337 228.558 310.99C228.27 311.565 228.094 312.54 227.972 313.924C227.902 314.713 227.93 315.685 227.984 316.104C228.038 316.524 228.146 316.362 228.215 316.184C228.494 315.466 228.664 314.674 228.95 313.56C229.584 311.094 229.644 310.397 229.904 309.675C230.029 309.326 230.19 309.06 230.285 309.018C230.574 308.891 230.327 310.008 230.245 311.161C230.124 312.875 230.245 314.15 230.286 314.666C230.393 316.026 230.545 317.336 230.626 317.895C230.644 318.02 230.68 318.127 230.734 317.805C230.789 317.483 230.87 316.728 230.925 315.53C230.98 314.332 231.007 312.714 231.048 311.733C231.101 310.452 231.198 310.014 231.266 309.918C231.31 309.854 231.468 310.172 231.753 311.28C232.038 312.389 232.47 314.384 232.705 315.561C232.999 317.027 233.077 317.555 233.226 317.814C233.302 317.946 233.404 316.613 233.31 314.63C233.212 312.576 232.751 311.295 232.669 310.887C232.637 310.725 232.749 310.641 232.872 310.626C233.156 310.665 233.754 311.206 234.839 312.521C235.493 313.351 236.355 314.51 237.244 315.705" stroke="#601050" stroke-width="1.49844" stroke-linecap="round"/>
<path d="M330.935 228.241C331.077 228.209 331.218 228.179 331.356 228.149C332.017 228.004 332.818 228.122 333.29 228.378C333.758 228.632 334.07 229.172 334.367 229.621C334.919 230.455 334.949 231.581 335.192 232.351C335.398 233.009 335.324 233.862 335.313 235.411C335.306 236.618 335.177 237.453 335.024 238.168C335.025 238.167 335.026 238.165 335.027 238.163C335.271 237.707 335.543 237.253 335.686 236.83C335.717 236.72 335.758 236.601 335.791 236.49C335.704 236.273 335.64 236.053 335.599 235.856C335.574 235.737 335.523 235.638 335.533 235.547C335.543 235.457 335.608 235.381 335.707 235.354C336.15 235.235 336.724 235.886 337.144 236.362L337.146 236.365C337.373 236.622 337.611 236.95 337.834 237.317C337.915 236.657 337.944 235.782 337.896 234.337C337.823 232.185 337.346 231.69 337.203 231.189C337.181 231.113 337.154 231.017 337.121 230.907C337.116 230.906 337.111 230.906 337.105 230.905C336.617 230.86 336.227 230.713 335.875 230.674C335.697 230.655 335.392 230.61 335.019 230.597C334.655 230.585 335.924 230.583 337.033 230.611C336.785 229.797 336.368 228.525 335.941 227.663C335.753 227.285 335.491 226.982 335.224 226.763C333.796 227.702 333.127 227.566 332.689 227.712C332.147 227.893 331.811 228.045 331.24 228.148C331.217 228.152 331.194 228.157 331.171 228.161C331.075 228.197 330.997 228.223 330.935 228.241Z" fill="#E747DC"/>
<path d="M334.842 238.954C334.7 239.543 334.709 240.172 334.578 240.736C334.472 241.188 334.423 242.726 334.63 243.635C334.751 244.165 335.521 243.586 335.729 243.394C336.097 243.054 336.399 242.587 336.609 241.997C336.818 241.406 337.036 240.489 337.301 239.638C337.429 239.225 337.548 238.777 337.646 238.348C337 237.902 336.458 237.489 336.281 237.304C336.075 237.088 335.911 236.792 335.791 236.49C335.758 236.601 335.717 236.72 335.686 236.83C335.543 237.253 335.271 237.707 335.027 238.163L335.024 238.168C334.965 238.443 334.903 238.7 334.842 238.954Z" fill="#E747DC"/>
<path d="M335.533 235.547C335.523 235.638 335.574 235.737 335.599 235.856C335.64 236.053 335.704 236.273 335.791 236.49C335.911 236.792 336.075 237.088 336.281 237.304C336.458 237.489 337 237.902 337.646 238.348C337.68 238.198 337.712 238.05 337.74 237.907C337.777 237.725 337.808 237.532 337.834 237.317C337.611 236.95 337.373 236.622 337.146 236.365L337.144 236.362C336.724 235.886 336.15 235.235 335.707 235.354C335.608 235.381 335.543 235.457 335.533 235.547Z" fill="#E747DC"/>
<path d="M327.107 232.918C327.238 232.409 327.633 231.332 327.908 230.766C328.176 230.214 328.446 229.741 328.851 229.304C329.477 228.63 330.224 228.403 330.935 228.241M337.146 236.365L337.144 236.362M337.146 236.365C337.373 236.622 337.611 236.95 337.834 237.317M337.146 236.365C337.146 236.364 337.145 236.363 337.144 236.362M335.027 238.163C335.271 237.707 335.543 237.253 335.686 236.83C335.717 236.72 335.758 236.601 335.791 236.49M335.027 238.163C335.026 238.165 335.025 238.167 335.024 238.168M335.027 238.163L335.024 238.168M335.873 236.072C335.851 236.253 335.829 236.355 335.796 236.471C335.794 236.477 335.792 236.483 335.791 236.49M330.935 228.241C331.077 228.209 331.218 228.179 331.356 228.149C332.017 228.004 332.818 228.122 333.29 228.378C333.758 228.632 334.07 229.172 334.367 229.621C334.919 230.455 334.949 231.581 335.192 232.351C335.398 233.009 335.324 233.862 335.313 235.411C335.306 236.618 335.177 237.453 335.024 238.168M330.935 228.241C330.997 228.223 331.075 228.197 331.171 228.161M330.935 228.241C330.797 228.283 330.743 228.287 330.765 228.277C330.815 228.254 330.978 228.201 331.171 228.161M335.024 238.168C334.77 238.641 334.383 239.135 334.225 239.689C334.071 240.229 333.81 240.745 333.907 241.728C333.962 242.279 333.7 243.13 335.043 244.422C335.612 244.971 336.326 245.325 337.042 245.083C337.612 244.891 337.922 244.69 338.106 244.467C338.643 243.813 339.065 243.43 339.07 242.294C339.081 240.275 338.827 239.624 338.564 238.85C338.384 238.324 338.122 237.789 337.834 237.317M335.024 238.168C334.965 238.443 334.903 238.7 334.842 238.954C334.7 239.543 334.709 240.172 334.578 240.736C334.472 241.188 334.423 242.726 334.63 243.635C334.751 244.165 335.521 243.586 335.729 243.394C336.097 243.054 336.399 242.587 336.609 241.997C336.818 241.406 337.036 240.489 337.301 239.638C337.429 239.225 337.548 238.777 337.646 238.348M335.791 236.49C335.704 236.273 335.64 236.053 335.599 235.856C335.574 235.737 335.523 235.638 335.533 235.547C335.543 235.457 335.608 235.381 335.707 235.354C336.15 235.235 336.724 235.886 337.144 236.362M335.791 236.49C335.911 236.792 336.075 237.088 336.281 237.304C336.458 237.489 337 237.902 337.646 238.348M337.834 237.317C337.915 236.657 337.944 235.782 337.896 234.337C337.823 232.185 337.346 231.69 337.203 231.189C337.181 231.113 337.154 231.017 337.121 230.907M337.834 237.317C337.808 237.532 337.777 237.725 337.74 237.907C337.712 238.05 337.68 238.198 337.646 238.348M337.121 230.907C337.116 230.906 337.111 230.906 337.105 230.905C336.617 230.86 336.227 230.713 335.875 230.674C335.697 230.655 335.392 230.61 335.019 230.597C334.655 230.585 335.924 230.583 337.033 230.611M337.121 230.907C337.539 230.942 338.131 230.88 339.714 231.24C340.557 231.432 341.67 231.621 343.001 231.494C344.206 231.379 345.259 231.258 346.029 230.825C347.147 230.198 347.676 229.894 347.981 229.429C348.266 228.993 349.352 227.632 349.375 226.491C349.385 225.94 349.388 225.401 349.242 225.108C349.121 224.865 349.008 224.64 348.555 224.401C347.533 223.863 346.399 223.279 345.255 223.199C343.797 223.097 342.614 223.027 342.033 223.239C341.297 223.509 340.583 223.718 339.5 224.139C338.15 224.665 337.153 225.124 336.704 225.33C336.09 225.612 335.573 225.92 334.629 226.438C333.87 226.855 332.565 227.54 331.8 227.896C331.54 228.017 331.331 228.102 331.171 228.161M337.121 230.907C337.095 230.817 337.065 230.718 337.033 230.611M337.033 230.611C336.785 229.797 336.368 228.525 335.941 227.663C335.753 227.285 335.491 226.982 335.224 226.763M337.033 230.611C337.571 230.624 338.071 230.644 338.329 230.674C340.585 230.93 341.144 231.149 341.606 231.276C342.315 231.472 343.275 232.121 343.77 232.672C344.345 233.312 344.727 234.35 344.826 235.055C345.044 236.607 345.233 237.501 345.036 238.607C344.902 239.36 344.443 239.916 344.234 240.288C343.994 240.715 343.281 240.815 342.063 240.816C341.127 240.816 339.944 239.767 339.27 239.381C338.75 239.083 338.164 238.705 337.646 238.348M335.224 226.763C333.796 227.702 333.127 227.566 332.689 227.712C332.147 227.893 331.811 228.045 331.24 228.148C331.217 228.152 331.194 228.157 331.171 228.161M335.224 226.763C335.304 226.711 335.386 226.655 335.472 226.595C336.517 225.861 338.006 224.552 338.291 223.557C338.468 222.938 338.817 222.11 338.685 221.106C338.576 220.275 338.599 219.741 338.102 219.262C337.849 219.019 337.387 218.505 336.67 218.532C335.227 218.587 333.796 218.932 333.059 219.792C332.551 220.384 332.009 221.122 330.927 222.64C330.379 223.409 330.013 224.146 329.654 224.766C329.191 225.565 328.683 226.601 328.169 228.094C327.347 230.485 326.886 231.952 326.887 231.494C326.888 231.404 326.955 231.066 327.295 230.48C327.592 229.967 327.924 229.6 328.086 229.134C328.25 228.659 328.592 228.324 329.087 225.946C329.371 224.578 329.543 223.182 329.469 222.041C329.414 221.198 329.509 220.468 328.973 219.556C328.688 219.07 328.605 218.28 327.907 218.225C327.28 218.175 326.663 218.126 326.249 218.457C325.831 218.792 325.417 219.086 325.061 219.652C324.426 220.664 324.213 221.178 324.064 221.689C323.921 222.176 323.86 223.515 323.944 224.433C324.009 225.152 324.084 226.589 324.372 227.42C324.581 228.022 324.603 228.718 325.066 229.267C325.703 230.022 326.44 230.515 326.756 231.086C326.977 231.484 327.466 231.96 327.26 232.317C327.017 232.739 326.845 233.407 326.502 233.328C326.161 233.25 325.735 233.062 325.535 232.673C325.437 232.481 325.249 231.504 325.405 230.207C325.504 229.376 325.616 228.846 326.021 228.326C326.34 227.916 326.65 227.536 327.263 227.34C327.703 227.199 328.338 227.015 328.79 226.802C329.306 226.558 329.688 226.378 330.086 226.328C330.492 226.276 330.896 225.948 332.824 226.162C333.635 226.252 334.128 226.273 334.557 226.392C334.752 226.447 334.99 226.572 335.224 226.763Z" stroke="#E747DC" stroke-width="1.49844" stroke-linecap="round"/>
<defs>
<filter id="filter0_i_394_114" x="177.196" y="265.493" width="164.11" height="54.8289" filterUnits="userSpaceOnUse" color-interpolation-filters="sRGB">
<feFlood flood-opacity="0" result="BackgroundImageFix"/>
<feBlend mode="normal" in="SourceGraphic" in2="BackgroundImageFix" result="shape"/>
<feColorMatrix in="SourceAlpha" type="matrix" values="0 0 0 0 0 0 0 0 0 0 0 0 0 0 0 0 0 0 127 0" result="hardAlpha"/>
<feOffset dx="-1.49844" dy="4.49532"/>
<feComposite in2="hardAlpha" operator="arithmetic" k2="-1" k3="1"/>
<feColorMatrix type="matrix" values="0 0 0 0 0.14902 0 0 0 0 0.145098 0 0 0 0 0.168627 0 0 0 0.91 0"/>
<feBlend mode="normal" in2="shape" result="effect1_innerShadow_394_114"/>
</filter>
<linearGradient id="paint0_linear_394_114" x1="200.734" y1="168.513" x2="251.488" y2="316.144" gradientUnits="userSpaceOnUse">
<stop stop-color="#8F4DB0"/>
<stop offset="1" stop-color="#B056B2"/>
</linearGradient>
<linearGradient id="paint1_linear_394_114" x1="221.983" y1="165.493" x2="247.348" y2="259.192" gradientUnits="userSpaceOnUse">
<stop stop-color="#A05FF0"/>
<stop offset="0.350962" stop-color="#A24FFD"/>
<stop offset="0.615385" stop-color="#9A43FB"/>
<stop offset="1" stop-color="#4B24A1"/>
</linearGradient>
<linearGradient id="paint2_linear_394_114" x1="198.107" y1="170.87" x2="227.758" y2="264.529" gradientUnits="userSpaceOnUse">
<stop offset="0.00480769" stop-color="#BD5DE8"/>
<stop offset="0.0913462" stop-color="#D082F2"/>
<stop offset="0.177885" stop-color="#D767F0"/>
<stop offset="0.427885" stop-color="#D261F4"/>
<stop offset="0.754808" stop-color="#D961F5"/>
<stop offset="1" stop-color="#B253EA"/>
</linearGradient>
<linearGradient id="paint3_linear_394_114" x1="231.217" y1="200.671" x2="245.297" y2="252.68" gradientUnits="userSpaceOnUse">
<stop stop-color="#6A30D6"/>
<stop offset="1" stop-color="#612DC7"/>
</linearGradient>
<linearGradient id="paint4_linear_394_114" x1="236.65" y1="228.772" x2="243.956" y2="255.761" gradientUnits="userSpaceOnUse">
<stop stop-color="#5D30B9"/>
<stop offset="1" stop-color="#5528AB"/>
</linearGradient>
<linearGradient id="paint5_linear_394_114" x1="216.292" y1="227.372" x2="222.655" y2="250.877" gradientUnits="userSpaceOnUse">
<stop stop-color="#9B4BE5"/>
<stop offset="1" stop-color="#7D3AD8"/>
</linearGradient>
<linearGradient id="paint6_linear_394_114" x1="215.237" y1="147.207" x2="228.34" y2="167.676" gradientUnits="userSpaceOnUse">
<stop offset="0.00480769" stop-color="#DF96F5"/>
<stop offset="0.480769" stop-color="#FBACF9"/>
<stop offset="1" stop-color="#FDA2FC"/>
</linearGradient>
<linearGradient id="paint7_linear_394_114" x1="220.354" y1="154.519" x2="215.228" y2="145.545" gradientUnits="userSpaceOnUse">
<stop stop-color="#FBA2FB"/>
<stop offset="1" stop-color="#E491F9"/>
</linearGradient>
<linearGradient id="paint8_linear_394_114" x1="213.307" y1="150.99" x2="207.153" y2="171.238" gradientUnits="userSpaceOnUse">
<stop offset="0.00480769" stop-color="#DF96F5"/>
<stop offset="0.719249" stop-color="#FBACF9"/>
<stop offset="1" stop-color="#F8C0FB"/>
</linearGradient>
<linearGradient id="paint9_linear_394_114" x1="213.489" y1="147.68" x2="207.542" y2="173.296" gradientUnits="userSpaceOnUse">
<stop stop-color="#E491F9"/>
<stop offset="1" stop-color="#F8C0FB"/>
</linearGradient>
<linearGradient id="paint10_linear_394_114" x1="225.118" y1="172.798" x2="237.35" y2="241.755" gradientUnits="userSpaceOnUse">
<stop stop-color="#FEEBFE"/>
<stop offset="1" stop-color="#9A47ED"/>
</linearGradient>
<linearGradient id="paint11_linear_394_114" x1="200.609" y1="175.438" x2="204.093" y2="188.308" gradientUnits="userSpaceOnUse">
<stop stop-color="#9440E2"/>
<stop offset="1" stop-color="#B158E3"/>
</linearGradient>
<linearGradient id="paint12_linear_394_114" x1="300.312" y1="172.61" x2="261.46" y2="261.777" gradientUnits="userSpaceOnUse">
<stop stop-color="#A05FF0"/>
<stop offset="0.350962" stop-color="#A24FFD"/>
<stop offset="0.615385" stop-color="#9A43FB"/>
<stop offset="1" stop-color="#4B24A1"/>
</linearGradient>
<linearGradient id="paint13_linear_394_114" x1="323.535" y1="181.581" x2="280.487" y2="270.127" gradientUnits="userSpaceOnUse">
<stop offset="0.00480769" stop-color="#BD5DE8"/>
<stop offset="0.0913462" stop-color="#D082F2"/>
<stop offset="0.177885" stop-color="#D767F0"/>
<stop offset="0.427885" stop-color="#D261F4"/>
<stop offset="0.754808" stop-color="#D961F5"/>
<stop offset="1" stop-color="#B253EA"/>
</linearGradient>
<linearGradient id="paint14_linear_394_114" x1="285.885" y1="206.073" x2="264.319" y2="255.567" gradientUnits="userSpaceOnUse">
<stop stop-color="#6A30D6"/>
<stop offset="1" stop-color="#612DC7"/>
</linearGradient>
<linearGradient id="paint15_linear_394_114" x1="268.931" y1="238.078" x2="297.702" y2="172.045" gradientUnits="userSpaceOnUse">
<stop stop-color="#6331CC"/>
<stop offset="1" stop-color="#7539DF"/>
</linearGradient>
<linearGradient id="paint16_linear_394_114" x1="273.212" y1="219.298" x2="282.662" y2="197.608" gradientUnits="userSpaceOnUse">
<stop stop-color="#7438DE"/>
<stop offset="0.9999" stop-color="#5B2EB6"/>
</linearGradient>
<linearGradient id="paint17_linear_394_114" x1="276.316" y1="233.102" x2="265.125" y2="258.786" gradientUnits="userSpaceOnUse">
<stop stop-color="#5D30B9"/>
<stop offset="1" stop-color="#5528AB"/>
</linearGradient>
<linearGradient id="paint18_linear_394_114" x1="295.508" y1="234.231" x2="285.869" y2="256.355" gradientUnits="userSpaceOnUse">
<stop stop-color="#9B4BE5"/>
<stop offset="1" stop-color="#7D3AD8"/>
</linearGradient>
<linearGradient id="paint19_linear_394_114" x1="309.769" y1="155.511" x2="293.819" y2="173.991" gradientUnits="userSpaceOnUse">
<stop offset="0.00480769" stop-color="#D782F8"/>
<stop offset="0.480769" stop-color="#C071F1"/>
<stop offset="1" stop-color="#AE5DF0"/>
</linearGradient>
<linearGradient id="paint20_linear_394_114" x1="311.156" y1="159.556" x2="314.138" y2="180.601" gradientUnits="userSpaceOnUse">
<stop offset="0.00480769" stop-color="#DF96F5"/>
<stop offset="0.719249" stop-color="#FBACF9"/>
<stop offset="1" stop-color="#F8C0FB"/>
</linearGradient>
<linearGradient id="paint21_linear_394_114" x1="311.457" y1="156.246" x2="313.422" y2="182.567" gradientUnits="userSpaceOnUse">
<stop stop-color="#E491F9"/>
<stop offset="1" stop-color="#F8C0FB"/>
</linearGradient>
<linearGradient id="paint22_linear_394_114" x1="290.907" y1="171.953" x2="273.428" y2="245.767" gradientUnits="userSpaceOnUse">
<stop stop-color="#F2AEFA"/>
<stop offset="0.139077" stop-color="#FEE9FE"/>
<stop offset="0.461576" stop-color="#FEE9FE"/>
<stop offset="1" stop-color="#9A47ED"/>
</linearGradient>
<linearGradient id="paint23_linear_394_114" x1="294.893" y1="239.007" x2="293.683" y2="229.992" gradientUnits="userSpaceOnUse">
<stop stop-color="#7D3BE5"/>
<stop offset="1" stop-color="#A251F6"/>
</linearGradient>
<linearGradient id="paint24_linear_394_114" x1="247.341" y1="200.293" x2="242.844" y2="269.438" gradientUnits="userSpaceOnUse">
<stop stop-color="#A05FF0"/>
<stop offset="0.350962" stop-color="#A24FFD"/>
<stop offset="0.615385" stop-color="#9A43FB"/>
<stop offset="1" stop-color="#4B24A1"/>
</linearGradient>
<linearGradient id="paint25_linear_394_114" x1="264.831" y1="200.68" x2="257.336" y2="270.391" gradientUnits="userSpaceOnUse">
<stop offset="0.00480769" stop-color="#BD5DE8"/>
<stop offset="0.0913462" stop-color="#D082F2"/>
<stop offset="0.177885" stop-color="#D767F0"/>
<stop offset="0.427885" stop-color="#D261F4"/>
<stop offset="0.754808" stop-color="#D961F5"/>
<stop offset="1" stop-color="#B253EA"/>
</linearGradient>
<linearGradient id="paint26_linear_394_114" x1="245.974" y1="226.219" x2="243.478" y2="264.6" gradientUnits="userSpaceOnUse">
<stop stop-color="#9A4AE5"/>
<stop offset="1" stop-color="#803BDA"/>
</linearGradient>
<linearGradient id="paint27_linear_394_114" x1="242.587" y1="251.781" x2="245.918" y2="200.576" gradientUnits="userSpaceOnUse">
<stop stop-color="#BC5CE7"/>
<stop offset="1" stop-color="#D761F5"/>
</linearGradient>
<linearGradient id="paint28_linear_394_114" x1="240.839" y1="238.155" x2="241.933" y2="221.336" gradientUnits="userSpaceOnUse">
<stop stop-color="#DE7FEF"/>
<stop offset="0.9998" stop-color="#D07BEE"/>
</linearGradient>
<linearGradient id="paint29_linear_394_114" x1="246.244" y1="246.656" x2="244.949" y2="266.572" gradientUnits="userSpaceOnUse">
<stop stop-color="#5D30B9"/>
<stop offset="1" stop-color="#5528AB"/>
</linearGradient>
<linearGradient id="paint30_linear_394_114" x1="259.169" y1="242.762" x2="258.054" y2="259.918" gradientUnits="userSpaceOnUse">
<stop stop-color="#9B4BE5"/>
<stop offset="1" stop-color="#7D3AD8"/>
</linearGradient>
<linearGradient id="paint31_linear_394_114" x1="249.412" y1="186.541" x2="243.16" y2="202.702" gradientUnits="userSpaceOnUse">
<stop offset="0.00480769" stop-color="#EFA2F7"/>
<stop offset="1" stop-color="#F6BBFB"/>
</linearGradient>
<linearGradient id="paint32_linear_394_114" x1="251.312" y1="188.916" x2="258.506" y2="202.242" gradientUnits="userSpaceOnUse">
<stop offset="0.00480769" stop-color="#DF96F5"/>
<stop offset="0.719249" stop-color="#FBACF9"/>
<stop offset="1" stop-color="#F8C0FB"/>
</linearGradient>
<linearGradient id="paint33_linear_394_114" x1="250.705" y1="186.625" x2="258.512" y2="203.743" gradientUnits="userSpaceOnUse">
<stop stop-color="#E491F9"/>
<stop offset="1" stop-color="#F8C0FB"/>
</linearGradient>
<linearGradient id="paint34_linear_394_114" x1="240.983" y1="202.132" x2="247.248" y2="255.866" gradientUnits="userSpaceOnUse">
<stop stop-color="#F2AEFA"/>
<stop offset="0.139077" stop-color="#FEE9FE"/>
<stop offset="0.461576" stop-color="#FEE9FE"/>
<stop offset="1" stop-color="#9A47ED"/>
</linearGradient>
<linearGradient id="paint35_linear_394_114" x1="259.925" y1="246.113" x2="256.888" y2="240.388" gradientUnits="userSpaceOnUse">
<stop stop-color="#7D3BE5"/>
<stop offset="1" stop-color="#A251F6"/>
</linearGradient>
</defs>
</svg>
