<svg width="126" height="217" viewBox="0 0 126 217" fill="none" xmlns="http://www.w3.org/2000/svg">
<g filter="url(#filter0_gn_78_128)">
<g filter="url(#filter1_i_78_128)">
<path d="M122.5 157.642C122.5 182.635 95.8609 214.902 62.9999 214.902C30.139 214.902 3.49991 182.635 3.49991 157.642C3.49991 132.649 30.139 112.388 62.9999 112.388C95.8609 112.388 122.5 132.649 122.5 157.642Z" fill="url(#paint0_radial_78_128)"/>
</g>
<path d="M68.3166 145.888L36.1836 157.642L31.9933 156.718C16.071 151.177 -3.20427 141.254 19.9287 125.064C41.6609 109.854 68.5995 111.483 79.3524 114.199L81.8991 125.064L68.3166 145.888Z" fill="#CB62DE"/>
<path d="M21.9365 153.948L31.1548 158.565L63.8379 181.654C40.869 178.296 16.0703 171.495 16.0703 167.801C16.0703 164.107 21.9365 153.948 21.9365 153.948Z" fill="#CF67D4"/>
<path d="M39.5353 172.419L31.155 157.642C77.4142 170.941 109.092 153.948 119.148 143.788C119.148 172.419 73.3358 180.423 63.8381 181.654C60.7653 181.346 51.6029 179.068 39.5353 172.419Z" fill="url(#paint1_linear_78_128)"/>
<path d="M39.5353 172.419L31.155 157.642C77.4142 170.941 109.092 153.948 119.148 143.788C119.148 172.419 73.3358 180.423 63.8381 181.654C60.7653 181.346 51.6029 179.068 39.5353 172.419Z" fill="url(#paint2_linear_78_128)"/>
<path d="M121.662 166.877C74.062 195.692 26.9649 178.884 9.36627 166.877C13.3888 184.61 22.7747 194.584 26.9649 197.355C31.993 203.819 48.586 216.01 74.7325 213.055C100.879 210.1 116.913 181.038 121.662 166.877Z" fill="#C662CF"/>
<path d="M114.958 167.801C73.0412 190.628 31.5676 177.312 16.0703 167.801C19.6125 181.848 27.8778 189.75 31.5676 191.945C35.9954 197.067 50.6071 206.724 73.6316 204.383C96.6561 202.042 110.776 179.019 114.958 167.801Z" fill="#DE8CE5"/>
<path d="M83.6941 141.571L74.943 144.758L76.5339 115.597L84.326 111.27L83.6941 141.571Z" fill="url(#paint3_linear_78_128)"/>
<path d="M76.711 115.49L70.1264 110.356L68.7293 139.79L75.185 144.749L76.711 115.49Z" fill="url(#paint4_linear_78_128)"/>
<path d="M75.8772 133.258L75.986 139.703L77.0129 142.353L80.0132 140.452L83.1383 137.291L83.4523 128.143C81.4612 122.626 80.703 123.526 80.5728 124.665C80.8051 125.791 80.7678 128.994 78.7607 132.794C76.7535 136.594 76.002 134.686 75.8772 133.258Z" fill="url(#paint5_linear_78_128)"/>
<path d="M75.6404 140.074L77.4165 143.234L80.2677 142.055L82.6599 138.742L82.9941 134.072C81.449 133.352 78.1832 132.851 77.4809 136.603C76.603 141.293 76.6472 138.246 75.5438 137.928C74.661 137.674 75.2404 139.253 75.6404 140.074Z" fill="url(#paint6_linear_78_128)"/>
<path d="M81.9505 139.126C77.9588 144.002 76.4534 142.015 76.1997 140.412L75.6641 140.611L75.8332 144.367L82.8043 141.962C82.5224 141.076 81.957 139.269 81.9505 139.126Z" fill="#492195"/>
<path d="M73.8857 133.583C74.791 131.113 75.318 131.799 75.4684 132.45L74.7113 139.823C72.3997 139.55 68.1349 138.094 69.5685 134.458C71.0022 130.822 72.1553 131.437 72.5527 132.199C72.6198 133.689 72.9804 136.053 73.8857 133.583Z" fill="url(#paint7_linear_78_128)"/>
<ellipse cx="0.725384" cy="0.716187" rx="0.725384" ry="0.716187" transform="matrix(0.999329 -0.0366159 0.0449951 0.998987 71.5563 138.074)" fill="#DE7FEF"/>
<path d="M69.0069 133.867L68.7371 139.969L74.0047 144.076L74.1779 143.89L74.8665 139.028C72.2891 139.839 71.097 138.628 70.8232 137.922C70.3334 133.496 69.4056 133.315 69.0069 133.867Z" fill="#672DC2"/>
<path d="M78.1106 114.364L77.8073 105.238L83.163 111.312L78.1106 114.364Z" fill="url(#paint8_linear_78_128)"/>
<path d="M77.8073 105.238C77.8073 105.238 77.8073 105.238 77.8073 105.238C77.6861 105.626 77.5716 106.013 77.4637 106.401C76.7172 109.084 76.2918 111.757 76.1876 114.421L76.0921 117.566L79.1162 115.989C79.8334 115.623 80.5355 115.232 81.2224 114.817C82.2196 114.215 83.1849 113.562 84.1185 112.856L85.8909 112.021L84.5392 110.125C82.8275 108.547 80.9349 107.125 78.8614 105.859C78.5151 105.648 78.1637 105.44 77.8073 105.238C77.8073 105.238 77.8073 105.238 77.8073 105.238C77.9619 105.615 78.1215 105.987 78.2862 106.355C79.2722 108.559 80.439 110.607 81.7867 112.499L82.2074 109.768C81.1467 110.267 80.1177 110.818 79.1206 111.42C78.4336 111.835 77.7617 112.275 77.1049 112.738L80.0336 114.306C79.7527 111.654 79.1506 109.011 78.2274 106.378C78.094 105.998 77.954 105.618 77.8073 105.238ZM77.8073 105.238V105.238V105.238Z" fill="url(#paint9_linear_78_128)"/>
<path d="M76.2739 114.61L77.8071 105.238L71.2213 110.496L76.2739 114.61Z" fill="url(#paint10_linear_78_128)"/>
<path d="M77.8071 105.238C77.8071 105.238 77.8071 105.238 77.8071 105.238C77.874 105.661 77.9344 106.082 77.9881 106.503C78.3537 109.366 78.4125 112.177 78.1644 114.935L77.8547 118.063L75.0673 116.065C74.3278 115.545 73.6087 115 72.9098 114.431C71.9245 113.629 70.9795 112.778 70.0748 111.878L68.372 110.75L70.0675 109.091C72.1004 107.781 74.2818 106.652 76.6118 105.703C77.006 105.543 77.4044 105.388 77.8071 105.238C77.8071 105.238 77.8071 105.238 77.8071 105.238C77.5745 105.595 77.3376 105.947 77.0965 106.294C75.6713 108.343 74.0975 110.212 72.3751 111.9L72.3679 109.113C73.4338 109.818 74.4594 110.572 75.4448 111.374C76.1436 111.944 76.8222 112.537 77.4806 113.155L74.3834 114.286C75.0265 111.595 75.9765 108.958 77.2335 106.373C77.418 105.994 77.6093 105.615 77.8071 105.238Z" fill="url(#paint11_linear_78_128)"/>
<path d="M73.4929 111.699C73.0927 112.049 72.5798 112.212 72.0511 112.132C71.5234 112.053 71.023 111.736 70.6762 111.274C70.3295 110.812 70.1694 110.248 70.2474 109.728C70.3245 109.207 70.6334 108.772 71.0898 108.497C71.2959 108.373 71.5021 108.248 71.7082 108.124C73.2485 107.195 74.7889 106.266 76.3292 105.336L78.4186 103.578L78.6923 106.489C78.5292 108.999 78.3661 111.51 78.203 114.02C78.1875 114.259 78.172 114.497 78.1565 114.735C77.6534 114.744 77.1502 114.752 76.6471 114.76C76.6207 114.523 76.5942 114.285 76.5678 114.047C76.2895 111.544 76.0112 109.041 75.7329 106.538L78.096 107.691C76.7427 108.869 75.3895 110.048 74.0362 111.226C73.8551 111.384 73.674 111.541 73.4929 111.699Z" fill="#FEEBFE"/>
<path d="M82.2467 122.025C82.2616 122.213 82.3353 122.396 82.467 122.536C82.5986 122.675 82.7754 122.76 82.962 122.77C83.1486 122.781 83.3326 122.717 83.4769 122.593C83.6215 122.469 83.7125 122.295 83.7455 122.111C83.7455 122.111 83.7455 122.111 83.7455 122.111C83.8605 121.462 83.9714 120.813 84.0781 120.164C84.499 117.604 84.8551 115.039 85.1464 112.471L85.4193 109.957L82.832 110.815C80.636 111.532 78.4596 112.297 76.3029 113.11L75.1761 113.535L75.0794 114.814C75.0041 115.809 74.9386 116.804 74.8827 117.801C74.8379 118.6 74.7993 119.399 74.767 120.199L74.7647 120.253C74.6982 125.341 74.8836 130.439 75.321 135.545C75.3773 136.202 75.4377 136.859 75.5023 137.516C75.5209 137.703 75.5981 137.885 75.7326 138.022C75.8669 138.159 76.0453 138.24 76.232 138.247C76.4188 138.254 76.6014 138.186 76.7433 138.06C76.8853 137.933 76.9728 137.757 77.0021 137.571C77.0021 137.571 77.0021 137.571 77.0021 137.571C77.1042 136.921 77.2021 136.27 77.2959 135.618C78.0249 130.555 78.5019 125.482 78.727 120.399L78.7247 120.453C78.782 119.655 78.833 118.857 78.8778 118.058C78.9337 117.061 78.9799 116.064 79.0163 115.067L77.7928 116.771C79.9156 115.874 82.0188 114.93 84.1024 113.937L81.788 112.281C81.8288 114.867 81.9344 117.458 82.1047 120.052C82.1479 120.709 82.1952 121.367 82.2467 122.025Z" fill="url(#paint12_linear_78_128)"/>
<path d="M71.5223 145.065C73.8545 145.177 76.1867 145.29 78.5189 145.402C78.4773 144.984 78.4358 144.566 78.3943 144.149C77.6472 136.63 76.9 129.111 76.1529 121.591C76.1114 121.174 76.0699 120.756 76.0284 120.338C75.9533 120.75 75.8782 121.163 75.8031 121.575C74.4512 128.993 73.0994 136.411 71.7476 143.829C71.6725 144.241 71.5974 144.653 71.5223 145.065Z" fill="#3F1F77"/>
<path d="M79.4861 141.818C81.8191 141.909 84.152 142.001 86.4849 142.093C86.4396 141.678 86.3943 141.264 86.349 140.85C85.5335 133.393 84.7181 125.937 83.9026 118.48C83.8573 118.066 83.812 117.652 83.7666 117.237C83.7666 117.237 83.7666 117.237 83.7666 117.237C83.6953 117.647 83.624 118.057 83.5526 118.466C82.2685 125.84 80.9843 133.214 79.7002 140.589C79.6288 140.998 79.5575 141.408 79.4861 141.818Z" fill="#3F1F77"/>
<path d="M75.8935 117.256C76.6841 116.189 77.4748 115.122 78.2654 114.056C78.1768 114.031 78.0881 114.006 77.9995 113.982C76.4041 113.54 74.8088 113.098 73.2134 112.656C73.1248 112.631 73.0361 112.607 72.9475 112.582C72.9966 112.66 73.0457 112.738 73.0948 112.816C73.9786 114.218 74.8624 115.62 75.7462 117.022C75.7953 117.1 75.8444 117.178 75.8935 117.256Z" fill="#FEEBFE"/>
<ellipse cx="0.725384" cy="0.716187" rx="0.725384" ry="0.716187" transform="matrix(0.999329 -0.0366159 0.0449951 0.998987 80.5889 116.96)" fill="#DE7FEF"/>
<path d="M69.9131 117.71L69.9895 115.376C71.2179 114.437 71.9003 112.404 72.2569 113.324C72.8731 114.914 70.7684 117.892 69.9131 117.71Z" fill="url(#paint13_linear_78_128)"/>
<ellipse cx="0.725384" cy="0.716187" rx="0.725384" ry="0.716187" transform="matrix(0.999329 -0.0366159 0.0449951 0.998987 70.5935 112.668)" fill="#DE7FEF"/>
<path d="M76.7675 148.264L70.9886 153.779L64.9466 136.485L69.7225 130.725L76.7675 148.264Z" fill="url(#paint14_linear_78_128)"/>
<path d="M65.0528 136.349L58.8356 136.206L65.0908 153.574L71.168 153.672L65.0528 136.349Z" fill="url(#paint15_linear_78_128)"/>
<path d="M68.8361 146.829L70.5173 150.457L71.9459 151.533L73.7264 149.182L75.2883 146.06L73.2537 140.712C70.3899 138.409 70.0439 139.242 70.229 139.947C70.6828 140.49 71.4495 142.332 70.8857 145.346C70.3219 148.36 69.2843 147.591 68.8361 146.829Z" fill="url(#paint16_linear_78_128)"/>
<path d="M70.35 150.815L72.4675 151.865L74.3153 149.988L75.2892 147.089L74.3811 144.285C73.0425 144.528 70.4663 145.622 70.8702 148.058C71.3751 151.103 70.6521 149.347 69.7448 149.632C69.0189 149.86 69.8458 150.516 70.35 150.815Z" fill="url(#paint17_linear_78_128)"/>
<path d="M74.852 147.608C73.0653 152.074 71.442 151.578 70.8537 150.771L70.5009 151.111L71.56 153.18L76.1966 148.863C75.7652 148.477 74.8923 147.686 74.852 147.608Z" fill="#492195"/>
<path d="M67.4221 147.856C67.4888 146.066 68.0546 146.234 68.3291 146.541L69.5905 151.064C67.7872 151.885 64.224 152.858 64.3981 150.179C64.5721 147.501 65.5904 147.364 66.0777 147.63C66.498 148.452 67.3553 149.647 67.4221 147.856Z" fill="url(#paint18_linear_78_128)"/>
<ellipse cx="0.626415" cy="0.442822" rx="0.626415" ry="0.442822" transform="matrix(0.858247 -0.513237 0.455576 0.890197 66.7875 151.401)" fill="#DE7FEF"/>
<path d="M63.8296 150.08L65.1411 153.672L70.1149 153.787L70.1989 153.608L69.5092 150.545C67.7755 152.097 66.5802 151.911 66.1992 151.624C64.7334 149.308 63.9919 149.597 63.8296 150.08Z" fill="#672DC2"/>
<path d="M65.8241 135.116L63.3317 130.042L68.8599 131.241L65.8241 135.116Z" fill="url(#paint19_linear_78_128)"/>
<path d="M63.3317 130.042C63.3161 130.35 63.3067 130.655 63.3034 130.954C63.2814 132.964 63.5371 134.773 64.0704 136.382L64.8061 138.547L67.149 135.955C67.6702 135.384 68.1668 134.797 68.639 134.194C69.1787 133.505 69.6865 132.796 70.1623 132.066L71.9027 130.191L69.7935 129.391C68.0888 129.267 66.248 129.412 64.2713 129.827C63.9615 129.892 63.6483 129.964 63.3317 130.042C63.5146 130.229 63.7008 130.408 63.8904 130.582C65.0997 131.687 66.445 132.524 67.9263 133.091L67.5575 130.416C66.9537 131.064 66.3819 131.733 65.8422 132.422C65.37 133.024 64.9224 133.642 64.4992 134.276L67.5779 133.849C66.6651 132.514 65.4748 131.38 64.0068 130.446C63.7879 130.307 63.5629 130.172 63.3317 130.042ZM63.3317 130.042V130.042V130.042Z" fill="url(#paint20_linear_78_128)"/>
<path d="M64.5065 136.032L63.3317 130.042L59.6922 135.822L64.5065 136.032Z" fill="url(#paint21_linear_78_128)"/>
<path d="M63.3317 130.042C63.3317 130.042 63.3317 130.042 63.3317 130.042C63.5259 130.257 63.713 130.475 63.8929 130.695C65.1067 132.177 65.9933 133.756 66.5527 135.43L67.2625 137.617L63.9656 137.724C63.214 137.752 62.4719 137.75 61.7396 137.718C60.8672 137.68 60.0084 137.599 59.1634 137.476L56.8314 137.595L57.9307 135.331C59.1925 133.727 60.7068 132.194 62.4737 130.731C62.7534 130.5 63.0394 130.27 63.3317 130.042C63.3317 130.042 63.3317 130.042 63.3317 130.042C63.2924 130.341 63.2469 130.637 63.195 130.932C62.8671 132.797 62.2867 134.59 61.4538 136.314L60.2211 134.169C61.1208 134.122 62.0068 134.117 62.8792 134.155C63.6116 134.187 64.3344 134.249 65.0475 134.341L62.4603 136.634C62.3376 134.831 62.5421 132.932 63.0738 130.936C63.1526 130.64 63.2385 130.342 63.3317 130.042Z" fill="url(#paint22_linear_78_128)"/>
<path d="M62.0767 135.704C61.7997 136.206 61.3526 136.627 60.8036 136.864C60.2564 137.102 59.6521 137.136 59.154 136.97C58.6558 136.804 58.3134 136.454 58.2324 136.006C58.1496 135.558 58.3348 135.05 58.717 134.583C58.717 134.583 58.717 134.583 58.717 134.583C58.8457 134.425 58.9744 134.268 59.1031 134.11C60.0566 132.943 61.0101 131.775 61.9636 130.607L63.3688 128.163L64.6529 130.132C65.1014 131.67 65.5499 133.208 65.9984 134.746C66.0408 134.892 66.0831 135.037 66.1254 135.182C65.6334 135.483 65.1414 135.785 64.6494 136.086C64.5661 135.966 64.4827 135.846 64.3994 135.725C63.5166 134.453 62.6338 133.181 61.7511 131.909L64.4404 131.433C63.7462 132.687 63.052 133.942 62.3578 135.196C62.2641 135.365 62.1704 135.534 62.0767 135.704Z" fill="#FEEBFE"/>
<path d="M70.721 137.737C70.8145 137.895 70.9505 138.026 71.1186 138.093C71.2865 138.161 71.4706 138.16 71.6353 138.089C71.8001 138.018 71.9354 137.88 72.0164 137.705C72.0975 137.53 72.1156 137.333 72.0862 137.147C72.0862 137.147 72.0862 137.147 72.0862 137.147C72.0153 136.705 71.9405 136.264 71.862 135.825C71.5747 134.219 71.2366 132.635 70.8478 131.072L70.2842 128.856L68.2779 130.51C66.7528 131.754 65.2827 133.061 63.8677 134.429L62.9187 135.346L63.3502 136.657C63.4656 137.007 63.5836 137.356 63.7044 137.704C63.9536 138.422 64.2143 139.135 64.4867 139.843L64.5125 139.914C65.7506 142.806 67.1862 145.606 68.8192 148.314C69.0443 148.687 69.2732 149.058 69.5058 149.428C69.6035 149.583 69.7429 149.71 69.9129 149.772C70.0826 149.835 70.2668 149.829 70.4298 149.753C70.5928 149.677 70.7246 149.536 70.8011 149.359C70.8777 149.181 70.8907 148.983 70.8564 148.799C70.8564 148.799 70.8564 148.799 70.8564 148.799C70.7739 148.36 70.6876 147.922 70.5975 147.485C69.9444 144.321 69.0937 141.249 68.0456 138.268L68.0715 138.339C67.8455 137.611 67.608 136.888 67.3588 136.17C67.238 135.822 67.1145 135.476 66.9883 135.13L66.4708 137.358C67.8444 135.943 69.1629 134.466 70.4264 132.928L67.8565 132.365C68.5417 133.799 69.2777 135.212 70.0645 136.602C70.2795 136.982 70.4984 137.36 70.721 137.737Z" fill="url(#paint23_linear_78_128)"/>
<path d="M68.0184 155.485C70.1159 154.507 72.2133 153.529 74.3108 152.55C74.168 152.331 74.0252 152.112 73.8824 151.893C71.3122 147.948 68.7419 144.003 66.1717 140.059C66.0289 139.84 65.8861 139.62 65.7433 139.401C65.7812 139.669 65.8191 139.937 65.8571 140.205C66.5396 145.031 67.2221 149.856 67.9047 154.681C67.9426 154.949 67.9805 155.217 68.0184 155.485Z" fill="#3F1F77"/>
<path d="M73.2002 150.291C75.2874 149.285 77.3746 148.28 79.4618 147.275C79.3172 147.059 79.1726 146.844 79.0279 146.629C76.4245 142.756 73.821 138.882 71.2175 135.009C71.0729 134.794 70.9282 134.578 70.7836 134.363C70.7836 134.363 70.7836 134.363 70.7836 134.363C70.8239 134.629 70.8641 134.894 70.9044 135.16C71.6294 139.938 72.3544 144.716 73.0794 149.494C73.1197 149.76 73.16 150.025 73.2002 150.291Z" fill="#3F1F77"/>
<path d="M65.3001 138.343C65.3472 136.973 65.3943 135.603 65.4414 134.233C65.3759 134.267 65.3103 134.301 65.2447 134.335C64.0641 134.95 62.8834 135.565 61.7028 136.18C61.6372 136.214 61.5716 136.248 61.506 136.282C61.5693 136.317 61.6325 136.351 61.6957 136.385C62.834 137.003 63.9722 137.622 65.1104 138.24C65.1736 138.274 65.2369 138.309 65.3001 138.343Z" fill="#FEEBFE"/>
<ellipse cx="0.626415" cy="0.442822" rx="0.626415" ry="0.442822" transform="matrix(0.858247 -0.513237 0.455576 0.890197 68.329 135.548)" fill="#DE7FEF"/>
<path d="M60.5005 140.487L59.9786 139.125C60.6679 138.071 60.6756 136.623 61.1717 136.997C62.0288 137.643 61.1876 140.229 60.5005 140.487Z" fill="url(#paint24_linear_78_128)"/>
<ellipse cx="0.626415" cy="0.442822" rx="0.626415" ry="0.442822" transform="matrix(0.858247 -0.513237 0.455576 0.890197 59.76 137.326)" fill="#DE7FEF"/>
<path d="M22.735 143.973L30.0882 150.534L39.0614 126.314L33.0515 119.272L22.735 143.973Z" fill="url(#paint25_linear_78_128)"/>
<path d="M38.9286 126.147L47.1782 125.016L37.9182 149.367L30.0235 150.501L38.9286 126.147Z" fill="url(#paint26_linear_78_128)"/>
<path d="M33.3289 140.842L30.898 145.986L28.9443 147.652L26.7151 144.751L24.8186 140.779L27.8137 133.265C31.7384 129.728 32.1506 130.799 31.866 131.777C31.2341 132.578 30.1152 135.175 30.6946 139.153C31.274 143.13 32.6922 141.936 33.3289 140.842Z" fill="url(#paint27_linear_78_128)"/>
<path d="M38.516 125.938L32.6129 142.073L30.8183 142.58L29.8772 140.155L27.3147 134.074L29.8033 127.543L31.1634 123.628C34.9034 124.532 34.1205 121.289 33.2615 119.555L38.516 125.938Z" fill="url(#paint28_linear_78_128)"/>
<path d="M31.8154 128.74C31.2596 128.458 29.1912 130.716 28.2264 131.88L27.2425 134.215C27.45 134.379 28.1428 134.848 29.2544 135.412C30.366 135.975 32.4383 133.484 33.3355 132.167C33.0604 131.142 32.3712 129.022 31.8154 128.74Z" fill="url(#paint29_linear_78_128)"/>
<path d="M31.101 146.443L28.2355 148.178L25.8905 145.927L24.7612 142.167L26.1212 138.251C27.8821 138.376 31.2362 139.463 30.565 142.806C29.726 146.986 30.7823 144.51 31.9691 144.758C32.9186 144.956 31.786 145.964 31.101 146.443Z" fill="url(#paint30_linear_78_128)"/>
<path d="M25.3111 142.8C27.4307 148.55 29.6103 147.635 30.4351 146.46L30.8838 146.864L29.3645 149.813L23.4588 144.694C24.0521 144.11 25.2533 142.912 25.3111 142.8Z" fill="#492195"/>
<path d="M34.4278 141.644C34.2903 139.192 33.673 139.489 33.2784 139.931L31.5279 146.305C34.1833 147.301 39.6221 148.433 39.3079 144.77C38.9937 141.108 37.0954 140.836 36.3886 141.237C35.7923 142.394 34.5654 144.096 34.4278 141.644Z" fill="url(#paint31_linear_78_128)"/>
<path d="M39.7845 144.469L37.8457 149.508L30.0233 150.501L30.2409 149.813L31.6437 145.655C33.8555 147.485 36.0363 147.351 36.5573 146.906C38.6295 143.565 39.5963 143.842 39.7845 144.469Z" fill="#672DC2"/>
<path d="M38.6318 125.288L41.5612 117.387L34.1662 119.837L38.6318 125.288Z" fill="url(#paint32_linear_78_128)"/>
<path d="M39.6694 125.637L41.5607 117.386L46.063 124.628L39.6694 125.637Z" fill="url(#paint33_linear_78_128)"/>
<path d="M41.5607 117.386C41.5607 117.386 41.5607 117.386 41.5607 117.386C41.3379 117.707 41.1222 118.03 40.9136 118.354C39.5013 120.547 38.4135 122.818 37.6504 125.164L36.8557 127.673L40.2195 127.343C41.1757 127.254 42.1223 127.136 43.0594 126.988C44.2535 126.799 45.4321 126.562 46.5952 126.277L48.8721 126.104L47.8061 123.956C46.2937 121.965 44.5417 120.066 42.5499 118.259C42.2265 117.966 41.8967 117.675 41.5607 117.386C41.5607 117.386 41.5607 117.386 41.5607 117.386C41.6439 117.772 41.7335 118.156 41.8294 118.537C42.4199 120.883 43.2501 123.137 44.32 125.299L45.5309 122.978C44.3056 123.07 43.0958 123.21 41.9017 123.399C40.9646 123.547 40.0372 123.725 39.1193 123.932L41.6884 126.111C42.0239 123.665 42.0347 121.142 41.721 118.543C41.6746 118.159 41.6212 117.774 41.5607 117.386Z" fill="url(#paint34_linear_78_128)"/>
<path d="M41.2641 116.963C41.4513 116.939 41.6457 116.973 41.8086 117.072C41.9715 117.172 42.0889 117.327 42.136 117.507C42.1831 117.687 42.1567 117.88 42.0635 118.047C41.9703 118.214 41.8174 118.339 41.6424 118.409C41.6424 118.409 41.6424 118.409 41.6424 118.409C41.0314 118.655 40.4193 118.898 39.8062 119.136C37.9624 119.852 36.109 120.531 34.2462 121.175L35.0489 118.683C36.8484 120.514 38.5982 122.386 40.2982 124.3L41.0092 125.1L40.6324 126.213C40.2033 127.479 39.7577 128.74 39.2954 129.994C39.2078 130.232 39.1197 130.47 39.0309 130.707C37.0563 135.955 34.7925 141.095 32.238 146.128C31.9414 146.713 31.6408 147.296 31.3363 147.878C31.2489 148.044 31.1092 148.184 30.9334 148.26C30.7577 148.337 30.5622 148.344 30.3866 148.281C30.211 148.217 30.0669 148.086 29.9828 147.915C29.8986 147.744 29.8832 147.548 29.9254 147.365C29.9254 147.365 29.9254 147.365 29.9254 147.365C30.0731 146.726 30.2247 146.089 30.3803 145.453C31.7198 139.978 33.3499 134.609 35.2706 129.345C35.3557 129.11 35.4427 128.872 35.5303 128.634C35.9925 127.38 36.4713 126.131 36.9666 124.888L37.3008 126.801C35.7046 124.8 34.158 122.759 32.6612 120.675L31.1639 118.617L33.4639 118.183C35.4025 117.83 37.3506 117.512 39.3082 117.231C39.9591 117.138 40.6111 117.048 41.2641 116.963Z" fill="url(#paint35_linear_78_128)"/>
<path d="M43.4224 124.584C43.6933 125.06 44.1404 125.435 44.6887 125.615C45.2357 125.796 45.839 125.769 46.3425 125.548C46.8461 125.328 47.2018 124.935 47.3081 124.468C47.4158 124 47.2653 123.496 46.9131 123.055C46.9131 123.055 46.9131 123.055 46.9131 123.055C46.7535 122.855 46.594 122.655 46.4344 122.455C45.2815 121.009 44.1287 119.564 42.9758 118.118L41.4866 115.605L40.2076 117.988C39.5093 120.22 38.811 122.451 38.1127 124.683C38.0479 124.89 37.9831 125.098 37.9183 125.305C38.4135 125.54 38.9086 125.775 39.4037 126.01C39.5098 125.822 39.6159 125.634 39.7219 125.447C40.8648 123.426 42.0077 121.405 43.1505 119.384L40.3823 119.254C41.2725 120.814 42.1626 122.375 43.0528 123.936C43.176 124.152 43.2992 124.368 43.4224 124.584Z" fill="#FEEBFE"/>
<path d="M26.6699 146.047C24.4833 145.234 22.2968 144.421 20.1102 143.608C20.2956 143.273 20.481 142.938 20.6665 142.602C24.0042 136.566 27.342 130.53 30.6797 124.494C30.8651 124.158 31.0506 123.823 31.236 123.488C31.236 123.488 31.236 123.488 31.236 123.488C31.1599 123.864 31.0838 124.24 31.0077 124.616C29.6379 131.383 28.2681 138.151 26.8982 144.919C26.8221 145.295 26.746 145.671 26.6699 146.047Z" fill="#3F1F77"/>
<path d="M38.7331 128.094C38.5842 126.773 38.4353 125.452 38.2864 124.131C38.3755 124.154 38.4646 124.177 38.5537 124.2C40.1577 124.617 41.7618 125.035 43.3658 125.452C43.455 125.475 43.5441 125.498 43.6332 125.521C43.5515 125.564 43.4698 125.607 43.3882 125.65C41.9181 126.422 40.4481 127.193 38.9781 127.965C38.8964 128.008 38.8148 128.051 38.7331 128.094Z" fill="#FEEBFE"/>
<path d="M37.4524 142.222C37.5935 141.21 35.8977 139.388 35.4094 139.521C34.9212 139.655 34.4904 140.821 35.1294 141.278C35.5265 141.563 36.2713 141.34 36.2713 141.34C37.1457 141.901 37.3707 142.808 37.4524 142.222Z" fill="url(#paint36_linear_78_128)"/>
<path d="M76.045 144.943L81.5387 148.732L85.5613 128.272L80.9314 123.867L76.045 144.943Z" fill="url(#paint37_linear_78_128)"/>
<path d="M85.4581 128.166L90.915 125.807L86.7104 146.421L81.4925 148.718L85.4581 128.166Z" fill="url(#paint38_linear_78_128)"/>
<path d="M82.9131 140.607L81.7054 145.047L80.5294 146.694L78.7881 144.835L77.1815 142.083L78.5715 135.698C80.9181 132.242 81.2846 133.001 81.1744 133.813C80.8159 134.55 80.2791 136.772 80.9999 139.764C81.7208 142.757 82.5757 141.573 82.9131 140.607Z" fill="url(#paint39_linear_78_128)"/>
<path d="M85.1637 128.077L82.5341 141.694L81.3688 142.41L80.5338 140.691L78.3036 136.417L79.4347 130.888L80.024 127.596C82.6158 127.63 81.8192 125.246 81.0969 124.051L85.1637 128.077Z" fill="url(#paint40_linear_78_128)"/>
<path d="M80.8873 131.459C80.4899 131.339 79.2859 133.467 78.7336 134.546L78.2658 136.54C78.4191 136.631 78.9244 136.872 79.7192 137.111C80.5141 137.35 81.7011 135.04 82.1953 133.854C81.9249 133.106 81.2847 131.579 80.8873 131.459Z" fill="url(#paint41_linear_78_128)"/>
<path d="M81.8797 145.366L80.096 147.23L78.3308 145.898L77.258 143.174L77.8473 139.882C79.0426 139.664 81.3899 139.909 81.2165 142.631C80.9997 146.035 81.5045 143.919 82.3237 143.899C82.979 143.883 82.3008 144.87 81.8797 145.366Z" fill="url(#paint42_linear_78_128)"/>
<path d="M77.6812 143.568C79.5858 147.664 80.9763 146.561 81.4335 145.498L81.7691 145.733L80.9921 148.301L76.5924 145.375C76.943 144.813 77.6516 143.666 77.6812 143.568Z" fill="#492195"/>
<path d="M83.7194 141.035C83.4229 139.151 83.0322 139.492 82.8035 139.907L82.156 145.182C84.0255 145.482 87.7794 145.388 87.2633 142.593C86.7471 139.799 85.4471 139.928 85.0049 140.366C84.7 141.374 84.016 142.919 83.7194 141.035Z" fill="url(#paint43_linear_78_128)"/>
<path d="M87.5588 142.273L86.6735 146.543L81.4927 148.718L81.5818 148.143L82.1798 144.656C83.8202 145.684 85.2765 145.188 85.5901 144.749C86.7063 141.776 87.38 141.819 87.5588 142.273Z" fill="#672DC2"/>
<path d="M85.187 127.551L86.5006 120.875L81.7286 124.108L85.187 127.551Z" fill="url(#paint44_linear_78_128)"/>
<path d="M85.9146 127.636L86.5006 120.875L90.1327 125.704L85.9146 127.636Z" fill="url(#paint45_linear_78_128)"/>
<path d="M86.5006 120.875C86.3418 121.152 86.1897 121.43 86.0442 121.708C85.054 123.604 84.3739 125.525 84.004 127.474L83.4659 130.513L86.7238 129.351C87.335 129.141 87.9325 128.902 88.5163 128.635C89.3385 128.258 90.1337 127.825 90.9019 127.334L92.7771 126.77L91.5964 124.635C90.364 123.402 88.943 122.307 87.3333 121.349C87.0611 121.187 86.7836 121.029 86.5006 120.875C86.5679 121.187 86.6405 121.494 86.7186 121.798C87.1801 123.594 87.8302 125.253 88.669 126.773L89.3636 124.075C88.4874 124.337 87.6383 124.657 86.8161 125.033C86.2323 125.301 85.662 125.597 85.1053 125.922L87.8252 127.799C87.7959 125.817 87.4564 123.808 86.8069 121.773C86.7115 121.474 86.6094 121.175 86.5006 120.875Z" fill="url(#paint46_linear_78_128)"/>
<path d="M86.0724 120.482C86.2459 120.415 86.4397 120.398 86.621 120.451C86.8022 120.503 86.955 120.619 87.0479 120.777C87.1409 120.935 87.1682 121.125 87.1263 121.309C87.0844 121.493 86.9755 121.654 86.8332 121.773C86.8332 121.773 86.8332 121.773 86.8332 121.773C86.4437 122.099 86.0521 122.422 85.6583 122.741C84.5484 123.64 83.4216 124.51 82.2781 125.352L82.5648 122.946C83.9633 124.043 85.3255 125.177 86.6516 126.349L87.3651 126.98L87.1992 128.088C87.009 129.359 86.7919 130.625 86.5479 131.885C86.5392 131.93 86.5311 131.971 86.5229 132.013C85.6535 136.434 84.4527 140.791 82.9206 145.083C82.7504 145.56 82.5761 146.036 82.3977 146.512C82.3322 146.685 82.2162 146.842 82.0563 146.942C81.8965 147.043 81.7083 147.08 81.5283 147.045C81.3484 147.01 81.1882 146.905 81.0784 146.751C80.9685 146.598 80.9202 146.41 80.9253 146.224C80.9253 146.224 80.9253 146.224 80.9253 146.224C80.9401 145.717 80.959 145.21 80.982 144.705C81.1889 140.154 81.7271 135.668 82.5966 131.246C82.6048 131.205 82.6129 131.163 82.6212 131.122C82.8681 129.865 83.1426 128.61 83.4439 127.361L83.9915 129.1C82.7739 127.816 81.5924 126.495 80.4471 125.136L79.0627 123.5L80.7338 122.73C82.0246 122.138 83.3322 121.575 84.6566 121.04C85.1265 120.85 85.5984 120.664 86.0724 120.482Z" fill="url(#paint47_linear_78_128)"/>
<path d="M87.9879 126.576C88.3013 127.011 88.7612 127.282 89.2954 127.306C89.8279 127.33 90.3909 127.104 90.8318 126.704C91.2727 126.303 91.5472 125.768 91.566 125.242C91.5865 124.714 91.3498 124.24 90.9367 123.896C90.9367 123.896 90.9367 123.896 90.9367 123.896C90.808 123.788 90.6793 123.681 90.5506 123.573C89.6156 122.792 88.6806 122.01 87.7456 121.229L86.193 119.173L85.2034 121.855C84.9904 123.621 84.7773 125.387 84.5643 127.153C84.5444 127.317 84.5246 127.482 84.5047 127.646C84.9929 127.77 85.4811 127.894 85.9694 128.018C86.0299 127.864 86.0904 127.71 86.1509 127.556C86.8008 125.901 87.4506 124.246 88.1004 122.591L85.5583 123.217C86.2702 124.201 86.9821 125.185 87.694 126.169C87.792 126.305 87.8899 126.44 87.9879 126.576Z" fill="#FEEBFE"/>
<path d="M83.4728 125.641C83.032 125.946 82.508 126.048 81.9976 125.889C81.4882 125.733 81.034 125.329 80.7537 124.801C80.4733 124.274 80.3951 123.676 80.5549 123.174C80.7137 122.671 81.0974 122.305 81.6029 122.122C81.6029 122.122 81.6029 122.122 81.6029 122.122C81.757 122.066 81.911 122.01 82.065 121.954C83.1494 121.559 84.2338 121.164 85.3182 120.769L87.6297 119.261L87.5115 122.297C87.033 124.007 86.5545 125.717 86.076 127.428C86.0323 127.584 85.9887 127.74 85.945 127.896C85.4464 127.825 84.9478 127.755 84.4492 127.685C84.4514 127.523 84.4535 127.361 84.4556 127.199C84.4787 125.425 84.5019 123.651 84.525 121.877L86.7182 123.404C85.771 124.057 84.8237 124.71 83.8764 125.363C83.7419 125.456 83.6073 125.548 83.4728 125.641Z" fill="#FEEBFE"/>
<path d="M85.9244 130.066C85.424 128.831 84.9236 127.596 84.4232 126.361C84.4923 126.369 84.5615 126.377 84.6306 126.385C85.8753 126.527 87.12 126.669 88.3646 126.812C88.4338 126.82 88.5029 126.828 88.5721 126.835C88.528 126.889 88.4838 126.943 88.4397 126.997C87.6454 127.966 86.8511 128.935 86.0568 129.904C86.0126 129.958 85.9685 130.012 85.9244 130.066Z" fill="#FEEBFE"/>
<path d="M85.8025 140.942C85.8132 140.129 84.5205 139.015 84.2031 139.206C83.8857 139.398 83.6929 140.383 84.1609 140.624C84.4517 140.774 84.9344 140.467 84.9344 140.467C85.5694 140.747 85.7963 141.413 85.8025 140.942Z" fill="url(#paint48_linear_78_128)"/>
</g>
<g opacity="0.55" style="mix-blend-mode:darken">
<path d="M95.1482 141.889C95.1482 135.248 63.1578 141.889 65.7516 45.8242C64.087 43.3947 59.1578 45.8242 57.9702 45.8242C52.5537 45.8242 42.6074 41.259 41.5427 47.5534C39.3783 60.3494 50.3717 90.9398 45.8657 106.347C39.0988 129.483 20.7922 138.082 20.7922 141.889C20.7922 149.477 37.4373 155.629 57.9702 155.629C78.503 155.629 95.1482 149.477 95.1482 141.889Z" fill="#6E4FB6"/>
</g>
<foreignObject x="0" y="37.9573" width="125.196" height="178.236"><div xmlns="http://www.w3.org/1999/xhtml" style="backdrop-filter:blur(0.5px);clip-path:url(#bgblur_0_78_128_clip_path);height:100%;width:100%"></div></foreignObject><g filter="url(#filter2_ddi_78_128)" data-figma-bg-blur-radius="1">
<path d="M40.8491 41.4573H83.9426C83.9426 41.4573 75.84 80.8928 83.9426 103.795C91.4996 125.156 116.857 126.88 119.279 149.451C121.304 168.321 115.967 181.571 102.904 195.107C90.6337 207.822 79.0323 212.292 61.534 212.667C43.0997 213.063 30.0073 208.982 17.5786 195.107C4.86334 180.912 1.39032 166.623 4.65057 147.695C8.44918 125.642 33.0128 124.714 40.8491 103.795C49.3695 81.0507 40.8491 41.4573 40.8491 41.4573Z" fill="url(#paint49_linear_78_128)" fill-opacity="0.28" shape-rendering="crispEdges"/>
<path d="M40.8491 41.4573H83.9426C83.9426 41.4573 75.84 80.8928 83.9426 103.795C91.4996 125.156 116.857 126.88 119.279 149.451C121.304 168.321 115.967 181.571 102.904 195.107C90.6337 207.822 79.0323 212.292 61.534 212.667C43.0997 213.063 30.0073 208.982 17.5786 195.107C4.86334 180.912 1.39032 166.623 4.65057 147.695C8.44918 125.642 33.0128 124.714 40.8491 103.795C49.3695 81.0507 40.8491 41.4573 40.8491 41.4573Z" stroke="url(#paint50_linear_78_128)" stroke-width="5" shape-rendering="crispEdges"/>
</g>
<path d="M97.1968 36.0594C97.1968 45.9635 82.1376 48.6672 63.5611 48.6672C44.9846 48.6672 29.9254 46.8647 29.9254 36.0594C29.9254 27.9386 44.9846 28.8397 63.5611 28.8397C82.1376 28.8397 97.1968 27.0374 97.1968 36.0594Z" fill="url(#paint51_linear_78_128)"/>
<path d="M30.9444 35.1484C30.9444 32.2644 38.419 30.0414 41.137 29.741L43.1776 38.7534L55.407 40.5559C41.1366 40.5559 30.9444 37.1989 30.9444 35.1484Z" fill="#C09FD5" stroke="url(#paint52_linear_78_128)" stroke-miterlimit="3.4203"/>
<path d="M45.499 30.453C50.1386 30.047 56.542 30.1425 63.5605 30.1425C70.5789 30.1425 76.9824 30.0471 81.622 30.453C83.9375 30.6556 85.8664 30.9867 87.2285 31.5409C88.5832 32.0921 89.5418 32.9422 89.5419 34.2469C89.5419 35.4985 88.6498 36.5782 87.3173 37.4696C85.9664 38.3732 84.0445 39.1669 81.7148 39.826C77.0479 41.1465 70.6296 41.9569 63.5605 41.9569C56.4914 41.9569 50.073 41.1465 45.4062 39.826C43.0765 39.1668 41.1545 38.3732 39.8036 37.4696C38.4712 36.5782 37.579 35.4985 37.579 34.2469C37.5792 32.9421 38.5386 32.0921 39.8935 31.5409C41.2556 30.9868 43.1837 30.6556 45.499 30.453Z" fill="url(#paint53_linear_78_128)" stroke="url(#paint54_linear_78_128)"/>
<path d="M41.1368 33.3462L38.079 9.0127C41.1368 12.6177 48.2717 16.2226 61.5221 16.2226C74.7725 16.2226 83.9459 12.6177 87.0037 9.0127L83.9459 33.3462C72.734 38.7536 52.3487 38.7536 41.1368 33.3462Z" fill="url(#paint55_linear_78_128)" stroke="url(#paint56_linear_78_128)" stroke-miterlimit="3.4203"/>
<ellipse cx="62.5414" cy="8.11117" rx="24.4623" ry="8.11117" fill="url(#paint57_linear_78_128)"/>
<ellipse cx="62.5418" cy="7.21006" rx="20.3853" ry="5.40744" fill="#280E32"/>
<ellipse cx="52.7824" cy="81.2729" rx="2.59381" ry="8.64605" fill="white" fill-opacity="0.78"/>
<path d="M55.3764 102.159C55.3764 113.694 36.2075 129.691 34.7194 129.691C33.2314 129.691 49.9876 113.694 49.9876 102.159C49.9876 90.624 51.1939 81.2729 52.682 81.2729C54.1701 81.2729 55.3764 90.624 55.3764 102.159Z" fill="white" fill-opacity="0.78"/>
<ellipse cx="36.1244" cy="146.321" rx="12.1979" ry="6.09893" transform="rotate(-78.4627 36.1244 146.321)" fill="white" fill-opacity="0.92"/>
<ellipse cx="44.571" cy="122.262" rx="4.32155" ry="2.20875" transform="rotate(-78.4627 44.571 122.262)" fill="white" fill-opacity="0.86"/>
<defs>
<filter id="filter0_gn_78_128" x="2.29991" y="102.378" width="121.4" height="113.724" filterUnits="userSpaceOnUse" color-interpolation-filters="sRGB">
<feFlood flood-opacity="0" result="BackgroundImageFix"/>
<feBlend mode="normal" in="SourceGraphic" in2="BackgroundImageFix" result="shape"/>
<feTurbulence type="fractalNoise" baseFrequency="0.90909087657928467 0.90909087657928467" numOctaves="3" seed="7522" />
<feDisplacementMap in="shape" scale="2.4000000953674316" xChannelSelector="R" yChannelSelector="G" result="displacedImage" width="100%" height="100%" />
<feMerge result="effect1_texture_78_128">
<feMergeNode in="displacedImage"/>
</feMerge>
<feTurbulence type="fractalNoise" baseFrequency="2 2" stitchTiles="stitch" numOctaves="3" result="noise" seed="4481" />
<feColorMatrix in="noise" type="luminanceToAlpha" result="alphaNoise" />
<feComponentTransfer in="alphaNoise" result="coloredNoise1">
<feFuncA type="discrete" tableValues="0 0 0 0 0 0 0 0 0 0 0 0 0 0 0 0 0 1 1 1 1 1 1 1 1 1 1 1 1 1 1 1 1 0 0 0 0 0 0 0 0 0 0 0 0 0 0 0 0 0 0 0 0 0 0 0 0 0 0 0 0 0 0 0 0 0 0 0 0 0 0 0 0 0 0 0 0 0 0 0 0 0 0 0 0 0 0 0 0 0 0 0 0 0 0 0 0 0 0 0 "/>
</feComponentTransfer>
<feComposite operator="in" in2="effect1_texture_78_128" in="coloredNoise1" result="noise1Clipped" />
<feComponentTransfer in="alphaNoise" result="coloredNoise2">
<feFuncA type="discrete" tableValues="0 0 0 0 0 0 0 0 0 0 0 0 0 0 0 0 0 0 0 0 0 0 0 0 0 0 0 0 0 0 0 0 0 0 0 0 0 0 0 0 0 0 0 0 0 0 0 0 0 0 0 0 0 0 0 0 0 0 0 0 0 0 0 0 0 0 0 1 1 1 1 1 1 1 1 1 1 1 1 1 1 1 1 0 0 0 0 0 0 0 0 0 0 0 0 0 0 0 0 0 "/>
</feComponentTransfer>
<feComposite operator="in" in2="effect1_texture_78_128" in="coloredNoise2" result="noise2Clipped" />
<feFlood flood-color="rgba(255, 255, 255, 0.2)" result="color1Flood" />
<feComposite operator="in" in2="noise1Clipped" in="color1Flood" result="color1" />
<feFlood flood-color="rgba(214, 67, 255, 0.04)" result="color2Flood" />
<feComposite operator="in" in2="noise2Clipped" in="color2Flood" result="color2" />
<feMerge result="effect2_noise_78_128">
<feMergeNode in="effect1_texture_78_128" />
<feMergeNode in="color1" />
<feMergeNode in="color2" />
</feMerge>
</filter>
<filter id="filter1_i_78_128" x="3.49991" y="112.388" width="119" height="102.515" filterUnits="userSpaceOnUse" color-interpolation-filters="sRGB">
<feFlood flood-opacity="0" result="BackgroundImageFix"/>
<feBlend mode="normal" in="SourceGraphic" in2="BackgroundImageFix" result="shape"/>
<feColorMatrix in="SourceAlpha" type="matrix" values="0 0 0 0 0 0 0 0 0 0 0 0 0 0 0 0 0 0 127 0" result="hardAlpha"/>
<feOffset dx="2" dy="-1"/>
<feComposite in2="hardAlpha" operator="arithmetic" k2="-1" k3="1"/>
<feColorMatrix type="matrix" values="0 0 0 0 0 0 0 0 0 0 0 0 0 0 0 0 0 0 0.2 0"/>
<feBlend mode="normal" in2="shape" result="effect1_innerShadow_78_128"/>
</filter>
<filter id="filter2_ddi_78_128" x="0" y="37.9573" width="125.196" height="178.236" filterUnits="userSpaceOnUse" color-interpolation-filters="sRGB">
<feFlood flood-opacity="0" result="BackgroundImageFix"/>
<feColorMatrix in="SourceAlpha" type="matrix" values="0 0 0 0 0 0 0 0 0 0 0 0 0 0 0 0 0 0 127 0" result="hardAlpha"/>
<feOffset dx="-1" dy="-1"/>
<feComposite in2="hardAlpha" operator="out"/>
<feColorMatrix type="matrix" values="0 0 0 0 0.968627 0 0 0 0 0.886275 0 0 0 0 0.858824 0 0 0 1 0"/>
<feBlend mode="normal" in2="BackgroundImageFix" result="effect1_dropShadow_78_128"/>
<feColorMatrix in="SourceAlpha" type="matrix" values="0 0 0 0 0 0 0 0 0 0 0 0 0 0 0 0 0 0 127 0" result="hardAlpha"/>
<feOffset dx="3"/>
<feComposite in2="hardAlpha" operator="out"/>
<feColorMatrix type="matrix" values="0 0 0 0 0.996078 0 0 0 0 0.956863 0 0 0 0 0.870588 0 0 0 1 0"/>
<feBlend mode="normal" in2="effect1_dropShadow_78_128" result="effect2_dropShadow_78_128"/>
<feBlend mode="normal" in="SourceGraphic" in2="effect2_dropShadow_78_128" result="shape"/>
<feColorMatrix in="SourceAlpha" type="matrix" values="0 0 0 0 0 0 0 0 0 0 0 0 0 0 0 0 0 0 127 0" result="hardAlpha"/>
<feOffset dx="-7" dy="6"/>
<feComposite in2="hardAlpha" operator="arithmetic" k2="-1" k3="1"/>
<feColorMatrix type="matrix" values="0 0 0 0 0.996078 0 0 0 0 0.878431 0 0 0 0 0.807843 0 0 0 0.25 0"/>
<feBlend mode="normal" in2="shape" result="effect3_innerShadow_78_128"/>
</filter>
<clipPath id="bgblur_0_78_128_clip_path" transform="translate(0 -37.9573)"><path d="M40.8491 41.4573H83.9426C83.9426 41.4573 75.84 80.8928 83.9426 103.795C91.4996 125.156 116.857 126.88 119.279 149.451C121.304 168.321 115.967 181.571 102.904 195.107C90.6337 207.822 79.0323 212.292 61.534 212.667C43.0997 213.063 30.0073 208.982 17.5786 195.107C4.86334 180.912 1.39032 166.623 4.65057 147.695C8.44918 125.642 33.0128 124.714 40.8491 103.795C49.3695 81.0507 40.8491 41.4573 40.8491 41.4573Z"/>
</clipPath><radialGradient id="paint0_radial_78_128" cx="0" cy="0" r="1" gradientTransform="matrix(69.5563 -0.923553 0.332205 30.387 65.514 136.4)" gradientUnits="userSpaceOnUse">
<stop offset="0.807692" stop-color="#F4B8EE"/>
<stop offset="0.807792" stop-color="#B94FB7"/>
</radialGradient>
<linearGradient id="paint1_linear_78_128" x1="75.1515" y1="143.788" x2="75.1515" y2="181.654" gradientUnits="userSpaceOnUse">
<stop stop-color="#BD3EBB"/>
<stop offset="1" stop-color="#EE6BF5"/>
</linearGradient>
<linearGradient id="paint2_linear_78_128" x1="26.9649" y1="166.877" x2="119.256" y2="160.025" gradientUnits="userSpaceOnUse">
<stop stop-color="#B635BD"/>
<stop offset="0.490385" stop-color="white" stop-opacity="0"/>
<stop offset="1" stop-color="#D257DD"/>
</linearGradient>
<linearGradient id="paint3_linear_78_128" x1="78.8893" y1="111.469" x2="80.1021" y2="144.569" gradientUnits="userSpaceOnUse">
<stop stop-color="#A05FF0"/>
<stop offset="0.350962" stop-color="#A24FFD"/>
<stop offset="0.615385" stop-color="#9A43FB"/>
<stop offset="1" stop-color="#4B24A1"/>
</linearGradient>
<linearGradient id="paint4_linear_78_128" x1="70.5372" y1="111.416" x2="73.1779" y2="144.836" gradientUnits="userSpaceOnUse">
<stop offset="0.00480769" stop-color="#BD5DE8"/>
<stop offset="0.0913462" stop-color="#D082F2"/>
<stop offset="0.177885" stop-color="#D767F0"/>
<stop offset="0.427885" stop-color="#D261F4"/>
<stop offset="0.754808" stop-color="#D961F5"/>
<stop offset="1" stop-color="#B253EA"/>
</linearGradient>
<linearGradient id="paint5_linear_78_128" x1="79.2665" y1="123.873" x2="79.9397" y2="142.246" gradientUnits="userSpaceOnUse">
<stop stop-color="#6A30D6"/>
<stop offset="1" stop-color="#612DC7"/>
</linearGradient>
<linearGradient id="paint6_linear_78_128" x1="78.9217" y1="133.632" x2="79.2711" y2="143.166" gradientUnits="userSpaceOnUse">
<stop stop-color="#5D30B9"/>
<stop offset="1" stop-color="#5528AB"/>
</linearGradient>
<linearGradient id="paint7_linear_78_128" x1="72.258" y1="131.599" x2="72.5623" y2="139.902" gradientUnits="userSpaceOnUse">
<stop stop-color="#9B4BE5"/>
<stop offset="1" stop-color="#7D3AD8"/>
</linearGradient>
<linearGradient id="paint8_linear_78_128" x1="78.0461" y1="104.871" x2="80.8266" y2="112.687" gradientUnits="userSpaceOnUse">
<stop offset="0.00480769" stop-color="#DF96F5"/>
<stop offset="0.480769" stop-color="#FBACF9"/>
<stop offset="1" stop-color="#FDA2FC"/>
</linearGradient>
<linearGradient id="paint9_linear_78_128" x1="79.1882" y1="107.695" x2="78.1749" y2="104.316" gradientUnits="userSpaceOnUse">
<stop stop-color="#FBA2FB"/>
<stop offset="1" stop-color="#E491F9"/>
</linearGradient>
<linearGradient id="paint10_linear_78_128" x1="77.1144" y1="105.98" x2="73.514" y2="112.234" gradientUnits="userSpaceOnUse">
<stop offset="0.00480769" stop-color="#DF96F5"/>
<stop offset="0.719249" stop-color="#FBACF9"/>
<stop offset="1" stop-color="#F8C0FB"/>
</linearGradient>
<linearGradient id="paint11_linear_78_128" x1="77.4285" y1="104.893" x2="73.4834" y2="112.947" gradientUnits="userSpaceOnUse">
<stop stop-color="#E491F9"/>
<stop offset="1" stop-color="#F8C0FB"/>
</linearGradient>
<linearGradient id="paint12_linear_78_128" x1="79.3731" y1="114.138" x2="78.1275" y2="138" gradientUnits="userSpaceOnUse">
<stop stop-color="#FEEBFE"/>
<stop offset="1" stop-color="#9A47ED"/>
</linearGradient>
<linearGradient id="paint13_linear_78_128" x1="71.0195" y1="113.128" x2="71.1861" y2="117.674" gradientUnits="userSpaceOnUse">
<stop stop-color="#9440E2"/>
<stop offset="1" stop-color="#B158E3"/>
</linearGradient>
<linearGradient id="paint14_linear_78_128" x1="65.6903" y1="133.136" x2="76.1788" y2="150.676" gradientUnits="userSpaceOnUse">
<stop stop-color="#A05FF0"/>
<stop offset="0.350962" stop-color="#A24FFD"/>
<stop offset="0.615385" stop-color="#9A43FB"/>
<stop offset="1" stop-color="#4B24A1"/>
</linearGradient>
<linearGradient id="paint15_linear_78_128" x1="59.407" y1="136.636" x2="70.5309" y2="154.027" gradientUnits="userSpaceOnUse">
<stop offset="0.00480769" stop-color="#BD5DE8"/>
<stop offset="0.0913462" stop-color="#D082F2"/>
<stop offset="0.177885" stop-color="#D767F0"/>
<stop offset="0.427885" stop-color="#D261F4"/>
<stop offset="0.754808" stop-color="#D961F5"/>
<stop offset="1" stop-color="#B253EA"/>
</linearGradient>
<linearGradient id="paint16_linear_78_128" x1="69.0517" y1="140.047" x2="74.8736" y2="149.783" gradientUnits="userSpaceOnUse">
<stop stop-color="#6A30D6"/>
<stop offset="1" stop-color="#612DC7"/>
</linearGradient>
<linearGradient id="paint17_linear_78_128" x1="71.2147" y1="145.756" x2="74.2358" y2="150.808" gradientUnits="userSpaceOnUse">
<stop stop-color="#5D30B9"/>
<stop offset="1" stop-color="#5528AB"/>
</linearGradient>
<linearGradient id="paint18_linear_78_128" x1="65.7077" y1="147.413" x2="68.3388" y2="151.813" gradientUnits="userSpaceOnUse">
<stop stop-color="#9B4BE5"/>
<stop offset="1" stop-color="#7D3AD8"/>
</linearGradient>
<linearGradient id="paint19_linear_78_128" x1="63.4199" y1="129.732" x2="66.9552" y2="133.477" gradientUnits="userSpaceOnUse">
<stop offset="0.00480769" stop-color="#DF96F5"/>
<stop offset="0.480769" stop-color="#FBACF9"/>
<stop offset="1" stop-color="#FDA2FC"/>
</linearGradient>
<linearGradient id="paint20_linear_78_128" x1="64.9783" y1="130.859" x2="63.5399" y2="129.22" gradientUnits="userSpaceOnUse">
<stop stop-color="#FBA2FB"/>
<stop offset="1" stop-color="#E491F9"/>
</linearGradient>
<linearGradient id="paint21_linear_78_128" x1="62.9958" y1="130.758" x2="63.5149" y2="135.668" gradientUnits="userSpaceOnUse">
<stop offset="0.00480769" stop-color="#DF96F5"/>
<stop offset="0.719249" stop-color="#FBACF9"/>
<stop offset="1" stop-color="#F8C0FB"/>
</linearGradient>
<linearGradient id="paint22_linear_78_128" x1="62.962" y1="130.006" x2="63.9384" y2="135.945" gradientUnits="userSpaceOnUse">
<stop stop-color="#E491F9"/>
<stop offset="1" stop-color="#F8C0FB"/>
</linearGradient>
<linearGradient id="paint23_linear_78_128" x1="66.7159" y1="134.454" x2="73.5061" y2="147.653" gradientUnits="userSpaceOnUse">
<stop stop-color="#FEEBFE"/>
<stop offset="1" stop-color="#9A47ED"/>
</linearGradient>
<linearGradient id="paint24_linear_78_128" x1="60.194" y1="137.408" x2="61.6347" y2="139.817" gradientUnits="userSpaceOnUse">
<stop stop-color="#9440E2"/>
<stop offset="1" stop-color="#B158E3"/>
</linearGradient>
<linearGradient id="paint25_linear_78_128" x1="38.2622" y1="121.913" x2="25.0489" y2="147.98" gradientUnits="userSpaceOnUse">
<stop stop-color="#A05FF0"/>
<stop offset="0.350962" stop-color="#A24FFD"/>
<stop offset="0.615385" stop-color="#9A43FB"/>
<stop offset="1" stop-color="#4B24A1"/>
</linearGradient>
<linearGradient id="paint26_linear_78_128" x1="46.3967" y1="125.682" x2="32.1137" y2="151.589" gradientUnits="userSpaceOnUse">
<stop offset="0.00480769" stop-color="#BD5DE8"/>
<stop offset="0.0913462" stop-color="#D082F2"/>
<stop offset="0.177885" stop-color="#D767F0"/>
<stop offset="0.427885" stop-color="#D261F4"/>
<stop offset="0.754808" stop-color="#D961F5"/>
<stop offset="1" stop-color="#B253EA"/>
</linearGradient>
<linearGradient id="paint27_linear_78_128" x1="33.4211" y1="131.735" x2="26.0867" y2="146.204" gradientUnits="userSpaceOnUse">
<stop stop-color="#6A30D6"/>
<stop offset="1" stop-color="#612DC7"/>
</linearGradient>
<linearGradient id="paint28_linear_78_128" x1="27.6919" y1="140.996" x2="37.4769" y2="121.692" gradientUnits="userSpaceOnUse">
<stop stop-color="#6331CC"/>
<stop offset="1" stop-color="#7539DF"/>
</linearGradient>
<linearGradient id="paint29_linear_78_128" x1="29.0807" y1="135.324" x2="32.2948" y2="128.983" gradientUnits="userSpaceOnUse">
<stop stop-color="#7438DE"/>
<stop offset="0.9999" stop-color="#5B2EB6"/>
</linearGradient>
<linearGradient id="paint30_linear_78_128" x1="30.2366" y1="139.755" x2="26.4307" y2="147.263" gradientUnits="userSpaceOnUse">
<stop stop-color="#5D30B9"/>
<stop offset="1" stop-color="#5528AB"/>
</linearGradient>
<linearGradient id="paint31_linear_78_128" x1="36.9251" y1="140.912" x2="33.6467" y2="147.379" gradientUnits="userSpaceOnUse">
<stop stop-color="#9B4BE5"/>
<stop offset="1" stop-color="#7D3AD8"/>
</linearGradient>
<linearGradient id="paint32_linear_78_128" x1="41.4615" y1="116.982" x2="36.5547" y2="122.552" gradientUnits="userSpaceOnUse">
<stop offset="0.00480769" stop-color="#D782F8"/>
<stop offset="0.480769" stop-color="#C071F1"/>
<stop offset="1" stop-color="#AE5DF0"/>
</linearGradient>
<linearGradient id="paint33_linear_78_128" x1="41.9661" y1="118.3" x2="42.0087" y2="124.99" gradientUnits="userSpaceOnUse">
<stop offset="0.00480769" stop-color="#DF96F5"/>
<stop offset="0.719249" stop-color="#FBACF9"/>
<stop offset="1" stop-color="#F8C0FB"/>
</linearGradient>
<linearGradient id="paint34_linear_78_128" x1="42.0528" y1="117.282" x2="41.6117" y2="125.497" gradientUnits="userSpaceOnUse">
<stop stop-color="#E491F9"/>
<stop offset="1" stop-color="#F8C0FB"/>
</linearGradient>
<linearGradient id="paint35_linear_78_128" x1="34.9842" y1="121.314" x2="27.7782" y2="143.076" gradientUnits="userSpaceOnUse">
<stop stop-color="#F2AEFA"/>
<stop offset="0.139077" stop-color="#FEE9FE"/>
<stop offset="0.461576" stop-color="#FEE9FE"/>
<stop offset="1" stop-color="#9A47ED"/>
</linearGradient>
<linearGradient id="paint36_linear_78_128" x1="36.7364" y1="142.374" x2="36.7374" y2="139.515" gradientUnits="userSpaceOnUse">
<stop stop-color="#7D3BE5"/>
<stop offset="1" stop-color="#A251F6"/>
</linearGradient>
<linearGradient id="paint37_linear_78_128" x1="84.6573" y1="124.989" x2="77.8426" y2="147.619" gradientUnits="userSpaceOnUse">
<stop stop-color="#A05FF0"/>
<stop offset="0.350962" stop-color="#A24FFD"/>
<stop offset="0.615385" stop-color="#9A43FB"/>
<stop offset="1" stop-color="#4B24A1"/>
</linearGradient>
<linearGradient id="paint38_linear_78_128" x1="90.4446" y1="126.465" x2="82.5915" y2="149.052" gradientUnits="userSpaceOnUse">
<stop offset="0.00480769" stop-color="#BD5DE8"/>
<stop offset="0.0913462" stop-color="#D082F2"/>
<stop offset="0.177885" stop-color="#D767F0"/>
<stop offset="0.427885" stop-color="#D261F4"/>
<stop offset="0.754808" stop-color="#D961F5"/>
<stop offset="1" stop-color="#B253EA"/>
</linearGradient>
<linearGradient id="paint39_linear_78_128" x1="82.2173" y1="133.502" x2="78.4346" y2="146.063" gradientUnits="userSpaceOnUse">
<stop stop-color="#9A4AE5"/>
<stop offset="1" stop-color="#803BDA"/>
</linearGradient>
<linearGradient id="paint40_linear_78_128" x1="79.1332" y1="141.737" x2="84.1798" y2="124.979" gradientUnits="userSpaceOnUse">
<stop stop-color="#BC5CE7"/>
<stop offset="1" stop-color="#D761F5"/>
</linearGradient>
<linearGradient id="paint41_linear_78_128" x1="79.595" y1="137.074" x2="81.2526" y2="131.569" gradientUnits="userSpaceOnUse">
<stop stop-color="#DE7FEF"/>
<stop offset="0.9998" stop-color="#D07BEE"/>
</linearGradient>
<linearGradient id="paint42_linear_78_128" x1="80.7417" y1="140.316" x2="78.7788" y2="146.834" gradientUnits="userSpaceOnUse">
<stop stop-color="#5D30B9"/>
<stop offset="1" stop-color="#5528AB"/>
</linearGradient>
<linearGradient id="paint43_linear_78_128" x1="85.3388" y1="140.017" x2="83.648" y2="145.632" gradientUnits="userSpaceOnUse">
<stop stop-color="#9B4BE5"/>
<stop offset="1" stop-color="#7D3AD8"/>
</linearGradient>
<linearGradient id="paint44_linear_78_128" x1="86.3999" y1="120.578" x2="83.0815" y2="125.467" gradientUnits="userSpaceOnUse">
<stop offset="0.00480769" stop-color="#EFA2F7"/>
<stop offset="1" stop-color="#F6BBFB"/>
</linearGradient>
<linearGradient id="paint45_linear_78_128" x1="86.8495" y1="121.514" x2="88.2151" y2="126.499" gradientUnits="userSpaceOnUse">
<stop offset="0.00480769" stop-color="#DF96F5"/>
<stop offset="0.719249" stop-color="#FBACF9"/>
<stop offset="1" stop-color="#F8C0FB"/>
</linearGradient>
<linearGradient id="paint46_linear_78_128" x1="86.8231" y1="120.705" x2="88.0999" y2="126.998" gradientUnits="userSpaceOnUse">
<stop stop-color="#E491F9"/>
<stop offset="1" stop-color="#F8C0FB"/>
</linearGradient>
<linearGradient id="paint47_linear_78_128" x1="82.4018" y1="125.111" x2="80.3461" y2="143.452" gradientUnits="userSpaceOnUse">
<stop stop-color="#F2AEFA"/>
<stop offset="0.139077" stop-color="#FEE9FE"/>
<stop offset="0.461576" stop-color="#FEE9FE"/>
<stop offset="1" stop-color="#9A47ED"/>
</linearGradient>
<linearGradient id="paint48_linear_78_128" x1="85.3334" y1="141.189" x2="84.7648" y2="139.051" gradientUnits="userSpaceOnUse">
<stop stop-color="#7D3BE5"/>
<stop offset="1" stop-color="#A251F6"/>
</linearGradient>
<linearGradient id="paint49_linear_78_128" x1="96.8707" y1="60.7732" x2="25.7664" y2="60.7732" gradientUnits="userSpaceOnUse">
<stop stop-color="#FEE5CF"/>
<stop offset="1" stop-color="#4D3770"/>
</linearGradient>
<linearGradient id="paint50_linear_78_128" x1="41.8838" y1="210.864" x2="43.7851" y2="49.5443" gradientUnits="userSpaceOnUse">
<stop stop-color="#987EAE"/>
<stop offset="0.1875" stop-color="#CF8BAA"/>
<stop offset="0.763657" stop-color="#F7BCBA"/>
<stop offset="1" stop-color="#BEA0CF"/>
</linearGradient>
<linearGradient id="paint51_linear_78_128" x1="95.8514" y1="34.8587" x2="28.58" y2="34.8587" gradientUnits="userSpaceOnUse">
<stop stop-color="#FEEBD5"/>
<stop offset="0.225962" stop-color="#FED1AB"/>
<stop offset="0.408654" stop-color="#FCCBAE"/>
<stop offset="0.548077" stop-color="#E69881"/>
<stop offset="0.75" stop-color="#936597"/>
<stop offset="1" stop-color="#835F9C"/>
</linearGradient>
<linearGradient id="paint52_linear_78_128" x1="54.8971" y1="39.5196" x2="36.5503" y2="39.5196" gradientUnits="userSpaceOnUse">
<stop offset="0.350962" stop-color="#EFD3DE"/>
<stop offset="0.846154" stop-color="#DABCE6"/>
</linearGradient>
<linearGradient id="paint53_linear_78_128" x1="88.023" y1="33.4461" x2="37.0598" y2="33.4461" gradientUnits="userSpaceOnUse">
<stop stop-color="#FBCAA1"/>
<stop offset="0.5" stop-color="#6E4158"/>
<stop offset="1" stop-color="#351C48"/>
</linearGradient>
<linearGradient id="paint54_linear_78_128" x1="38.079" y1="36.0449" x2="89.0422" y2="36.0449" gradientUnits="userSpaceOnUse">
<stop stop-color="#D6BAD3"/>
<stop offset="0.9999" stop-color="#FEFDFE"/>
</linearGradient>
<linearGradient id="paint55_linear_78_128" x1="84.9652" y1="22.5313" x2="40.1176" y2="22.5313" gradientUnits="userSpaceOnUse">
<stop offset="0.461538" stop-color="#682D49"/>
<stop offset="0.552885" stop-color="#461F55"/>
<stop offset="0.591346" stop-color="#371B4C"/>
</linearGradient>
<linearGradient id="paint56_linear_78_128" x1="78.8496" y1="28.84" x2="46.2331" y2="28.84" gradientUnits="userSpaceOnUse">
<stop stop-color="#451D33"/>
<stop offset="1" stop-color="#331842"/>
</linearGradient>
<linearGradient id="paint57_linear_78_128" x1="38.079" y1="8.11117" x2="87.0037" y2="8.11117" gradientUnits="userSpaceOnUse">
<stop stop-color="#BE6F85"/>
<stop offset="0.504808" stop-color="#E48E81"/>
<stop offset="1" stop-color="#E79E88"/>
</linearGradient>
</defs>
</svg>
