<svg width="216" height="190" viewBox="0 0 216 190" fill="none" xmlns="http://www.w3.org/2000/svg">
<path d="M95.1808 147.941L63.1469 166.734L49.4475 49.9308L76.9532 27.2864L95.1808 147.941Z" fill="url(#paint0_linear_374_2613)"/>
<path d="M50.0656 49.3808L20.8177 33.6414L35.4613 151.391L64.0862 166.529L50.0656 49.3808Z" fill="url(#paint1_linear_374_2613)"/>
<path d="M58.944 120.453L63.7723 145.948L69.5971 155.739L80.0272 146.087L90.0855 131.354L85.0638 94.8389C73.5115 74.3515 71.1621 78.4534 71.4314 83.0653C73.1086 87.3699 75.1503 100.101 69.8995 116.586C64.6488 133.072 60.408 126.033 58.944 120.453Z" fill="url(#paint2_linear_374_2613)"/>
<path d="M62.6711 147.663L71.7727 158.951L82.1136 152.269L89.2025 137.447L87.3188 118.683C80.7868 116.914 67.6771 117.219 67.4946 132.598C67.2666 151.823 65.358 139.702 60.827 139.216C57.2023 138.828 60.5461 144.686 62.6711 147.663Z" fill="url(#paint3_linear_374_2613)"/>
<path d="M86.6937 139.469C74.4195 161.618 67.177 154.792 65.09 148.61L63.1318 149.775L66.359 164.558L91.9683 150.118C90.2613 146.803 86.8167 140.032 86.6937 139.469Z" fill="#492195"/>
<path d="M51.3801 123.143C53.2321 112.709 55.7607 115.058 56.7934 117.536L58.8704 147.32C49.6466 147.858 31.9793 145.078 35.1004 129.647C38.2215 114.216 43.1494 115.844 45.2231 118.587C46.5038 124.453 49.528 133.577 51.3801 123.143Z" fill="url(#paint4_linear_374_2613)"/>
<circle cx="48.7712" cy="144.798" r="2.88204" transform="rotate(-12.3149 48.7712 144.798)" fill="#DE7FEF"/>
<path d="M32.5016 127.7L35.6148 152.095L59.013 164.687L59.5633 163.829L58.9338 144.055C49.4118 149.083 43.9248 145.119 42.3715 142.508C37.4341 125.296 33.6831 125.23 32.5016 127.7Z" fill="#672DC2"/>
<path d="M54.7692 43.9287L47.3497 7.9374L72.4362 28.2726L54.7692 43.9287Z" fill="url(#paint5_linear_374_2613)"/>
<path d="M47.3497 7.9374C47.3497 7.9374 47.3497 7.9374 47.3497 7.9374C47.4658 9.49007 47.5916 11.0407 47.7272 12.5894C48.6673 23.3259 50.0778 33.9655 51.9587 44.5081L52.8338 49.3207L56.6724 46.0763C59.1179 44.0233 61.535 41.9384 63.9238 39.8214C67.424 36.7196 70.8634 33.5492 74.242 30.3103L76.643 28.3442L74.1507 26.1575C66.7605 20.6322 59.1459 15.3837 51.307 10.412C49.9942 9.57935 48.6751 8.75449 47.3497 7.9374C47.3497 7.9374 47.3497 7.9374 47.3497 7.9374C48.4234 9.06498 49.5034 10.1848 50.5896 11.2969C57.076 17.9372 63.7867 24.3008 70.7217 30.3876L70.6305 26.2349C67.0087 29.1995 63.4477 32.2327 59.9475 35.3344C57.5587 37.4514 55.1982 39.6002 52.866 41.7811L57.5797 43.3493C55.1378 32.9224 52.2255 22.5924 48.8428 12.3594C48.3549 10.8834 47.8572 9.40937 47.3497 7.9374ZM47.3497 7.9374V7.9374V7.9374Z" fill="url(#paint6_linear_374_2613)"/>
<path d="M47.7579 46.1973L47.3494 7.93715L25.1948 33.4232L47.7579 46.1973Z" fill="url(#paint7_linear_374_2613)"/>
<path d="M47.3494 7.93715C47.3494 7.93715 47.3494 7.93715 47.3494 7.93715C47.5667 9.56758 47.7739 11.1981 47.9712 12.8288C49.3151 23.9365 50.1953 35.0492 50.6119 46.1669L50.7784 51.0522L46.3518 48.681C43.1957 47.0042 40.0633 45.2858 36.9545 43.5257C32.5423 41.0277 28.1776 38.4459 23.8604 35.7802L21.0096 34.3052L23.1506 31.6462C29.7404 24.623 36.5923 17.8277 43.7062 11.2601C44.913 10.1459 46.1274 9.03823 47.3494 7.93715C47.3494 7.93715 47.3494 7.93715 47.3494 7.93715C46.4291 9.30045 45.5013 10.6572 44.5659 12.0074C39.0523 19.9661 33.2766 27.697 27.239 35.2001L26.5292 31.0661C31.0364 33.3964 35.496 35.8105 39.9082 38.3085C43.0171 40.0685 46.1023 41.8703 49.1641 43.7136L44.9039 46.2278C45.0831 35.1038 45.7258 23.9748 46.8322 12.8409C46.9946 11.2064 47.167 9.57185 47.3494 7.93715ZM47.3494 7.93715" fill="url(#paint8_linear_374_2613)"/>
<path d="M31.2794 33.1592C30.7509 33.7538 30.0135 34.1049 29.2184 34.1251C28.424 34.1459 27.6369 33.8339 27.0415 33.2683C26.446 32.7027 26.094 31.9328 26.0738 31.1383C26.053 30.3433 26.3658 29.5888 26.9324 29.0304C26.9324 29.0304 26.9324 29.0304 26.9324 29.0304C27.6153 28.3567 28.2983 27.6829 28.9813 27.0092C34.087 21.9726 39.1927 16.9361 44.2984 11.8995L47.1173 8.77132L48.0589 12.9941C49.6738 22.9609 51.2886 32.9277 52.9035 42.8945C53.0569 43.8415 53.2104 44.7885 53.3638 45.7355C52.6283 45.8794 51.8929 46.0233 51.1574 46.1671C50.9427 45.2321 50.7279 44.2971 50.5132 43.3621C48.2533 33.5214 45.9934 23.6808 43.7335 13.8402L47.4941 14.9348C42.7269 20.2928 37.9597 25.6509 33.1925 31.009C32.5548 31.7257 31.9171 32.4425 31.2794 33.1592Z" fill="#FEEBFE"/>
<path d="M78.0136 71.1976C78.0631 71.4849 78.2164 71.7473 78.4495 71.926C78.6825 72.1047 78.9747 72.1852 79.2636 72.1497C79.5524 72.1141 79.8163 71.965 79.999 71.7351C80.1817 71.5051 80.2668 71.2133 80.245 70.9227C80.245 70.9227 80.245 70.9227 80.245 70.9227C80.0475 68.2984 79.8437 65.6748 79.6338 63.052C78.8036 52.6798 77.8765 42.3195 76.8524 31.9712L76.4601 28.0798L73.0085 30.1457C65.1099 34.8536 57.2519 39.6262 49.4346 44.4634L47.8709 45.431L48.0736 47.3024C48.5121 51.3495 48.9654 55.3948 49.4335 59.4384C49.7982 62.5878 50.1718 65.7361 50.5545 68.8834L50.5648 68.9629C53.5854 89.228 56.9815 109.439 60.7531 129.597C61.2371 132.183 61.7272 134.769 62.2234 137.353C62.2785 137.639 62.437 137.899 62.6735 138.073C62.91 138.247 63.2037 138.322 63.4918 138.28C63.7799 138.239 64.0408 138.085 64.2189 137.851C64.3972 137.618 64.4765 137.325 64.449 137.034C64.449 137.034 64.449 137.034 64.449 137.034C64.2 134.414 63.9448 131.795 63.6834 129.177C61.6464 108.771 59.2338 88.4191 56.4456 68.1207L56.4559 68.2002C56.1093 65.0487 55.7537 61.8982 55.3891 58.7488C54.9209 54.7052 54.4378 50.6634 53.9399 46.6232L52.5789 49.4622C60.3242 44.5105 68.0288 39.4942 75.6927 34.4132L71.8488 32.5877C73.3675 42.8751 74.9832 53.1505 76.6958 63.414C77.1289 66.0093 77.5682 68.6039 78.0136 71.1976Z" fill="url(#paint9_linear_374_2613)"/>
<path d="M58.5742 169.249C62.0416 168.794 65.5091 168.338 68.9766 167.883C68.6722 166.236 68.3677 164.59 68.0633 162.943C62.5833 133.307 57.1033 103.67 51.6232 74.0337C51.3188 72.3873 51.0144 70.7408 50.7099 69.0943C50.841 70.7636 50.9721 72.4328 51.1031 74.1021C53.4624 104.149 55.8217 134.195 58.181 164.242C58.312 165.911 58.4431 167.58 58.5742 169.249Z" fill="#3F1F77"/>
<path d="M87.4781 150.693C90.9415 150.207 94.4048 149.721 97.8682 149.235C97.5511 147.604 97.234 145.973 96.9169 144.341C91.2092 114.977 85.5016 85.6133 79.7939 56.2493C79.4768 54.618 79.1597 52.9867 78.8426 51.3553C78.8426 51.3553 78.8426 51.3553 78.8426 51.3553C78.9865 53.0109 79.1305 54.6665 79.2744 56.3222C81.865 86.1234 84.4557 115.925 87.0463 145.726C87.1902 147.381 87.3342 149.037 87.4781 150.693Z" fill="#3F1F77"/>
<path d="M50.2606 52.4503C51.167 50.6692 52.0735 48.8882 52.98 47.1072C52.6531 46.9969 52.3263 46.8866 51.9994 46.7763C46.1157 44.7907 40.232 42.8052 34.3483 40.8197C34.0214 40.7094 33.6945 40.5991 33.3676 40.4888C33.6492 40.6881 33.9307 40.8875 34.2123 41.0868C39.2802 44.6753 44.348 48.2637 49.4159 51.8522C49.6975 52.0515 49.979 52.2509 50.2606 52.4503Z" fill="#FEEBFE"/>
<circle cx="69.6609" cy="54.69" r="2.88204" transform="rotate(-12.3149 69.6609 54.69)" fill="#DE7FEF"/>
<path d="M25.0058 62.9637L23.71 53.6497C27.8711 49.0635 29.1501 40.5181 31.1727 43.9178C34.6675 49.7922 28.4735 63.0833 25.0058 62.9637Z" fill="url(#paint10_linear_374_2613)"/>
<circle cx="27.654" cy="44.6859" r="2.88204" transform="rotate(-12.3149 27.654 44.6859)" fill="#DE7FEF"/>
<path d="M93.7736 149.638L120.637 176.189L163.11 66.4528L141.659 37.3424L93.7736 149.638Z" fill="url(#paint11_linear_374_2613)"/>
<path d="M162.639 65.7588L195.331 58.0909L151.694 168.5L120.392 176.065L162.639 65.7588Z" fill="url(#paint12_linear_374_2613)"/>
<path d="M136.261 132.39L125.181 155.865L117.019 163.848L109.149 151.777L102.906 134.873L116.911 100.759C133.366 83.8883 134.66 88.4775 133.25 92.8809C130.531 96.6204 125.362 108.438 126.438 125.793C127.514 143.148 133.435 137.422 136.261 132.39Z" fill="url(#paint13_linear_374_2613)"/>
<path d="M161.084 64.9709L133.082 138.052L125.892 140.871L122.931 130.48L114.71 104.492L126.434 74.8783L132.945 57.168C147.34 59.9413 145.244 45.8948 142.397 38.5249L161.084 64.9709Z" fill="url(#paint14_linear_374_2613)"/>
<path d="M133.964 79.5046C131.869 78.4424 123.078 89.0705 118.945 94.5173L114.384 105.135C115.148 105.792 117.724 107.637 121.914 109.761C126.104 111.886 134.98 100.223 138.894 94.1267C138.124 89.6953 136.059 80.5668 133.964 79.5046Z" fill="url(#paint15_linear_374_2613)"/>
<path d="M125.837 157.815L114.078 166.399L105.559 157.231L102.261 141.012L108.772 123.302C115.64 123.282 128.467 126.984 124.829 141.949C120.282 160.655 125.169 149.395 129.749 150.1C133.413 150.665 128.668 155.479 125.837 157.815Z" fill="url(#paint16_linear_374_2613)"/>
<path d="M104.229 143.625C110.812 168.298 119.634 163.558 123.223 158.105L124.861 159.743L118.016 173.243L96.395 152.583C98.8977 149.811 103.968 144.139 104.229 143.625Z" fill="#492195"/>
<path d="M140.329 135.571C140.527 124.801 138.017 126.309 136.337 128.388L127.555 157.069C137.669 160.599 158.658 163.827 158.527 147.775C158.396 131.723 151.033 131.141 148.141 133.138C145.455 138.437 140.131 146.341 140.329 135.571Z" fill="url(#paint17_linear_374_2613)"/>
<path d="M160.486 146.29L151.367 169.143L120.392 176.065L121.452 172.957L128.204 154.165C136.327 161.517 144.92 160.217 147.097 158.088C156.228 142.676 159.936 143.587 160.486 146.29Z" fill="#672DC2"/>
<path d="M161.732 62.0677L175.596 26.266L145.859 39.4728L161.732 62.0677Z" fill="url(#paint18_linear_374_2613)"/>
<path d="M165.7 63.2707L175.598 26.2657L191.077 56.7422L165.7 63.2707Z" fill="url(#paint19_linear_374_2613)"/>
<path d="M175.598 26.2657C175.598 26.2657 175.598 26.2657 175.598 26.2657C174.98 27.7936 174.373 29.324 173.775 30.857C169.706 41.2937 166.087 51.8508 162.92 62.5283L161.566 67.148L166.446 66.0121C169.987 65.1999 173.516 64.3415 177.032 63.437C181.975 62.1653 186.893 60.8025 191.786 59.3485L194.953 58.6567L193.518 55.5518C188.776 47.0214 183.72 38.6445 178.348 30.4212C177.44 29.0316 176.523 27.6465 175.598 26.2657C175.598 26.2657 175.598 26.2657 175.598 26.2657C176.164 27.8219 176.739 29.3736 177.323 30.921C180.779 40.0784 184.549 49.0823 188.635 57.9326L190.367 54.1359C185.375 55.2252 180.407 56.4057 175.464 57.6773C171.948 58.5818 168.444 59.5325 164.953 60.5293L168.479 64.0131C171.066 53.1803 173.201 42.2271 174.885 31.1534C175.132 29.5268 175.37 27.8976 175.598 26.2657ZM175.598 26.2657" fill="url(#paint20_linear_374_2613)"/>
<path d="M174.694 26.567C174.972 26.4779 175.275 26.4933 175.542 26.6183C175.808 26.7431 176.014 26.966 176.115 27.2394C176.216 27.5128 176.205 27.8161 176.084 28.0841C175.964 28.3523 175.743 28.5619 175.474 28.6754C175.474 28.6754 175.474 28.6754 175.474 28.6754C172.866 29.7743 170.256 30.8674 167.644 31.9547C160.273 35.0224 152.885 38.0434 145.48 41.0178L146.535 37.537C152.631 45.4737 158.663 53.4564 164.633 61.485L165.542 62.7082L164.987 64.1995C162.461 70.9905 159.897 77.7667 157.294 84.5282C157.214 84.7374 157.134 84.9422 157.055 85.1469C147.869 108.877 138.212 132.424 128.083 155.789C126.957 158.385 125.826 160.979 124.689 163.571C124.571 163.838 124.358 164.056 124.089 164.172C123.819 164.289 123.515 164.296 123.243 164.19C122.972 164.085 122.752 163.876 122.631 163.608C122.51 163.34 122.499 163.036 122.592 162.759C122.592 162.759 122.592 162.759 122.592 162.759C123.496 160.077 124.406 157.398 125.322 154.721C133.564 130.625 142.278 106.713 151.464 82.9827C151.543 82.7779 151.623 82.5731 151.702 82.3684C154.307 75.613 156.953 68.8681 159.637 62.1379L159.991 64.8524C154.211 56.6868 148.494 48.4753 142.84 40.2178L141.104 37.6862L143.895 36.737C151.451 34.1709 159.025 31.6515 166.616 29.1787C169.306 28.3023 171.999 27.4317 174.694 26.567Z" fill="url(#paint21_linear_374_2613)"/>
<path d="M185.184 54.8926C185.554 55.5999 186.187 56.1272 186.957 56.3514C187.726 56.576 188.568 56.4791 189.286 56.0891C190.003 55.699 190.534 55.0497 190.748 54.2909C190.963 53.5318 190.843 52.7253 190.429 52.042C190.429 52.042 190.429 52.042 190.429 52.042C189.912 51.1888 189.395 50.3355 188.877 49.4823C185.123 43.2885 181.369 37.0947 177.614 30.9009L175.526 26.9811L173.618 31.0482C169.679 40.8603 165.74 50.6723 161.8 60.4844C161.434 61.3979 161.067 62.3114 160.7 63.2249C161.391 63.5316 162.082 63.8383 162.773 64.1449C163.198 63.257 163.622 62.369 164.046 61.481C168.604 51.9435 173.162 42.4059 177.719 32.8684L173.723 33.0157C177.081 39.4251 180.438 45.8344 183.796 52.2437C184.259 53.1267 184.721 54.0096 185.184 54.8926Z" fill="#FEEBFE"/>
<path d="M100.978 155.082C97.7151 153.824 94.4524 152.565 91.1896 151.307C91.8909 149.727 92.5923 148.147 93.2936 146.568C105.918 118.133 118.542 89.6987 131.166 61.2641C131.867 59.6844 132.569 58.1047 133.27 56.525C132.732 58.1677 132.194 59.8103 131.655 61.4529C121.968 91.02 112.28 120.587 102.593 150.154C102.054 151.797 101.516 153.439 100.978 155.082Z" fill="#3F1F77"/>
<path d="M161.626 68.674C161.214 66.7185 160.802 64.7629 160.39 62.8074C160.738 62.7851 161.086 62.7629 161.434 62.7406C167.701 62.34 173.967 61.9393 180.233 61.5387C180.582 61.5164 180.93 61.4942 181.278 61.4719C180.95 61.592 180.623 61.712 180.295 61.832C174.4 63.9927 168.504 66.1533 162.608 68.3139C162.281 68.434 161.953 68.554 161.626 68.674Z" fill="#FEEBFE"/>
<path d="M152.017 137.138C152.875 132.626 146.772 125.14 144.817 125.888C142.862 126.635 140.822 131.92 143.191 133.729C144.662 134.854 147.65 133.628 147.65 133.628C150.911 135.821 151.52 139.749 152.017 137.138Z" fill="url(#paint22_linear_374_2613)"/>
<path d="M67.5827 166.694L91.6477 177.866L93.3974 93.87L72.2888 79.6497L67.5827 166.694Z" fill="url(#paint23_linear_374_2613)"/>
<path d="M92.9197 93.5211L112.641 80.3277L110.285 165.061L91.4558 177.843L92.9197 93.5211Z" fill="url(#paint24_linear_374_2613)"/>
<path d="M91.4697 144.668L89.7807 163.128L86.3087 170.489L78.2314 164.339L70.0709 154.551L71.1433 128.241C77.9564 112.882 79.9077 115.639 80.0318 118.936C79.1337 122.112 78.5529 131.305 83.4147 142.668C88.2765 154.032 90.8104 148.737 91.4697 144.668Z" fill="url(#paint25_linear_374_2613)"/>
<path d="M91.7073 93.3761L90.729 149.245L86.6625 152.906L82.224 146.673L70.586 131.285L71.2306 108.553L71.2863 95.0813C81.4412 93.3926 76.699 84.4968 73.0586 80.26L91.7073 93.3761Z" fill="url(#paint26_linear_374_2613)"/>
<path d="M77.3023 109.797C75.6669 109.602 72.4136 118.889 70.9914 123.558L70.5247 131.796C71.1858 132.048 73.3257 132.649 76.5966 133.04C79.8675 133.431 82.9296 123.43 84.0518 118.38C82.4834 115.601 78.9378 109.993 77.3023 109.797Z" fill="url(#paint27_linear_374_2613)"/>
<path d="M90.6808 164.272L84.9811 172.922L77.1705 168.878L71.1154 158.823L71.1711 145.351C75.6949 143.646 85.038 142.966 86.2201 153.89C87.6976 167.544 88.2255 158.795 91.4142 158.139C93.9652 157.615 91.9882 162.01 90.6808 164.272Z" fill="url(#paint28_linear_374_2613)"/>
<path d="M73.0365 160.089C83.2802 174.999 87.9633 169.65 89.0244 165.111L90.4965 165.806L89.2131 176.538L70.0144 168.022C71.0014 165.548 72.9876 160.498 73.0365 160.089Z" fill="#492195"/>
<path d="M94.9128 145.797C92.4666 138.532 91.1724 140.161 90.5617 141.968L91.6336 163.35C99.1468 163.223 113.758 160.214 109.831 149.49C105.905 138.767 100.911 140.191 99.4815 142.242C98.9778 146.454 97.3589 153.062 94.9128 145.797Z" fill="url(#paint29_linear_374_2613)"/>
<path d="M110.769 148.012L110.224 165.573L91.4566 177.843L91.4122 175.499L91.3679 161.244C98.483 164.169 103.838 161.18 104.764 159.217C107.097 146.64 109.76 146.337 110.769 148.012Z" fill="#672DC2"/>
<path d="M91.4405 91.2707L92.016 63.865L75.5685 80.0418L91.4405 91.2707Z" fill="url(#paint30_linear_374_2613)"/>
<path d="M94.3423 91.0998L92.0149 63.8651L109.513 80.4723L94.3423 91.0998Z" fill="url(#paint31_linear_374_2613)"/>
<path d="M92.0149 63.8651C91.9151 65.0443 91.8253 66.2225 91.7454 67.4C91.2011 75.4204 91.1188 83.4014 91.4985 91.3428L91.7536 96.1964L95.9799 93.4374C98.125 92.0515 100.243 90.6264 102.333 89.162C105.3 87.0839 108.211 84.9267 111.067 82.6907L113.753 81.013L111.377 78.5077C106.139 74.0403 100.661 69.8246 94.945 65.8608C93.9752 65.1883 92.9985 64.5231 92.0149 63.8651C92.7233 64.813 93.4386 65.7536 94.1608 66.687C98.4176 72.1888 102.913 77.4388 107.648 82.4369L107.959 78.2539C104.882 80.1743 101.86 82.1735 98.8932 84.2517C96.8029 85.716 94.7401 87.2195 92.7047 88.7622L97.186 90.8568C96.2128 82.966 94.7775 75.1148 92.8803 67.303C92.6018 66.1562 92.3134 65.0102 92.0149 63.8651ZM92.0149 63.8651" fill="url(#paint32_linear_374_2613)"/>
<path d="M91.2665 64.0507C91.4968 63.8751 91.7853 63.7848 92.0767 63.8089C92.368 63.8331 92.637 63.9682 92.8262 64.1866C93.0155 64.405 93.111 64.6905 93.0934 64.9823C93.0758 65.2742 92.9454 65.5469 92.7388 65.7498C92.7388 65.7498 92.7388 65.7498 92.7388 65.7498C91.3011 67.1608 89.8593 68.567 88.4134 69.9685C84.3564 73.9011 80.2672 77.7965 76.1458 81.6547L75.9408 78.052C81.9049 81.8064 87.8256 85.624 93.7031 89.5048L94.952 90.3295L94.9478 91.9218C94.9342 97.0954 94.8793 102.268 94.7831 107.44C94.7782 107.683 94.7733 107.921 94.7684 108.16C94.3908 126.25 93.5075 144.33 92.1184 162.4C91.9641 164.408 91.8035 166.415 91.6367 168.423C91.6126 168.712 91.4861 168.986 91.2728 169.186C91.0596 169.386 90.779 169.495 90.4901 169.489C90.2012 169.483 89.9253 169.362 89.7206 169.154C89.5158 168.945 89.401 168.665 89.3889 168.376C89.3889 168.376 89.3889 168.376 89.3889 168.376C89.306 166.363 89.2293 164.351 89.1589 162.338C88.525 144.226 88.3968 126.125 88.7743 108.034C88.7793 107.796 88.7844 107.558 88.7895 107.32C88.8933 102.152 89.0385 96.9813 89.225 91.8111L90.4697 94.228C84.7253 90.1529 79.0241 86.0145 73.3663 81.8129L70.9263 80.0033L73.1613 78.2102C77.567 74.6801 82.0049 71.1871 86.475 67.7313C88.0681 66.4997 89.6652 65.2728 91.2665 64.0507Z" fill="url(#paint33_linear_374_2613)"/>
<path d="M104.752 81.4648C105.36 81.978 106.138 82.2168 106.926 82.1112C107.714 82.0067 108.448 81.5665 108.954 80.9048C109.46 80.2431 109.693 79.4191 109.587 78.6316C109.483 77.843 109.049 77.1554 108.394 76.7026C108.394 76.7026 108.394 76.7026 108.394 76.7026C107.849 76.3251 107.304 75.9477 106.759 75.5702C102.799 72.8272 98.839 70.0843 94.8789 67.3413L91.7817 64.7732L91.3109 68.9452C91.1269 76.058 90.9428 83.1709 90.7588 90.2838C90.7416 90.9465 90.7245 91.6092 90.7073 92.2718C91.4547 92.3265 92.2022 92.3812 92.9496 92.4358C93.029 91.7777 93.1084 91.1195 93.1879 90.4614C94.0404 83.3974 94.893 76.3334 95.7456 69.2694L92.1777 70.8733C95.862 73.9767 99.5464 77.0802 103.231 80.1836C103.738 80.6107 104.245 81.0378 104.752 81.4648Z" fill="#FEEBFE"/>
<path d="M80.41 80.9489C79.8047 81.4657 79.029 81.7089 78.2401 81.6072C77.4519 81.5066 76.715 81.0693 76.2052 80.4095C75.6953 79.7496 75.4583 78.9262 75.5599 78.1381C75.6606 77.349 76.0917 76.6599 76.7446 76.2046C76.7446 76.2046 76.7446 76.2046 76.7446 76.2046C77.2762 75.8334 77.8078 75.4621 78.3394 75.0909C82.0883 72.4729 85.8371 69.8549 89.5859 67.2369L92.8953 64.4709L93.1998 68.9458C93.0676 76.0432 92.9354 83.1405 92.8032 90.2378C92.7912 90.8861 92.7791 91.5344 92.767 92.1827C92.0179 92.2048 91.2688 92.2269 90.5198 92.2491C90.4694 91.6027 90.4191 90.9562 90.3687 90.3098C89.8175 83.2327 89.2663 76.1555 88.7151 69.0784L92.329 70.7874C88.8494 73.7539 85.3698 76.7204 81.8903 79.6869C81.3969 80.1076 80.9034 80.5283 80.41 80.9489Z" fill="#FEEBFE"/>
<path d="M93.4501 96.4396C92.3772 94.7536 91.3043 93.0676 90.2314 91.3816C90.464 91.2928 90.6965 91.2041 90.9291 91.1153C95.115 89.5175 99.3009 87.9197 103.487 86.322C103.719 86.2332 103.952 86.1444 104.185 86.0557C104.006 86.2287 103.827 86.4018 103.648 86.5749C100.427 89.6901 97.2072 92.8053 93.9868 95.9204C93.8079 96.0935 93.629 96.2666 93.4501 96.4396Z" fill="#FEEBFE"/>
<path d="M102.994 143.968C102.481 140.733 96.6659 137.22 95.5558 138.203C94.4457 139.186 94.3649 143.23 96.3594 143.858C97.5989 144.249 99.2759 142.692 99.2759 142.692C101.95 143.358 103.292 145.84 102.994 143.968Z" fill="url(#paint34_linear_374_2613)"/>
<defs>
<linearGradient id="paint0_linear_374_2613" x1="55.8352" y1="31.8966" x2="84.2649" y2="162.124" gradientUnits="userSpaceOnUse">
<stop stop-color="#A05FF0"/>
<stop offset="0.350962" stop-color="#A24FFD"/>
<stop offset="0.615385" stop-color="#9A43FB"/>
<stop offset="1" stop-color="#4B24A1"/>
</linearGradient>
<linearGradient id="paint1_linear_374_2613" x1="23.1476" y1="37.5577" x2="57.5161" y2="167.964" gradientUnits="userSpaceOnUse">
<stop offset="0.00480769" stop-color="#BD5DE8"/>
<stop offset="0.0913462" stop-color="#D082F2"/>
<stop offset="0.177885" stop-color="#D767F0"/>
<stop offset="0.427885" stop-color="#D261F4"/>
<stop offset="0.754808" stop-color="#D961F5"/>
<stop offset="1" stop-color="#B253EA"/>
</linearGradient>
<linearGradient id="paint2_linear_374_2613" x1="65.7833" y1="80.8406" x2="81.5639" y2="153.126" gradientUnits="userSpaceOnUse">
<stop stop-color="#6A30D6"/>
<stop offset="1" stop-color="#612DC7"/>
</linearGradient>
<linearGradient id="paint3_linear_374_2613" x1="71.0982" y1="119.8" x2="79.287" y2="157.311" gradientUnits="userSpaceOnUse">
<stop stop-color="#5D30B9"/>
<stop offset="1" stop-color="#5528AB"/>
</linearGradient>
<linearGradient id="paint4_linear_374_2613" x1="43.6615" y1="116.414" x2="50.7933" y2="149.083" gradientUnits="userSpaceOnUse">
<stop stop-color="#9B4BE5"/>
<stop offset="1" stop-color="#7D3AD8"/>
</linearGradient>
<linearGradient id="paint5_linear_374_2613" x1="48.0326" y1="6.31336" x2="64.6493" y2="35.1349" gradientUnits="userSpaceOnUse">
<stop offset="0.00480769" stop-color="#DF96F5"/>
<stop offset="0.480769" stop-color="#FBACF9"/>
<stop offset="1" stop-color="#FDA2FC"/>
</linearGradient>
<linearGradient id="paint6_linear_374_2613" x1="54.427" y1="16.7171" x2="47.9875" y2="4.11075" gradientUnits="userSpaceOnUse">
<stop stop-color="#FBA2FB"/>
<stop offset="1" stop-color="#E491F9"/>
</linearGradient>
<linearGradient id="paint7_linear_374_2613" x1="45.1482" y1="11.3676" x2="35.1292" y2="38.6294" gradientUnits="userSpaceOnUse">
<stop offset="0.00480769" stop-color="#DF96F5"/>
<stop offset="0.719249" stop-color="#FBACF9"/>
<stop offset="1" stop-color="#F8C0FB"/>
</linearGradient>
<linearGradient id="paint8_linear_374_2613" x1="45.634" y1="6.83671" x2="35.5013" y2="41.4979" gradientUnits="userSpaceOnUse">
<stop stop-color="#E491F9"/>
<stop offset="1" stop-color="#F8C0FB"/>
</linearGradient>
<linearGradient id="paint9_linear_374_2613" x1="59.5491" y1="42.1481" x2="71.5405" y2="137.615" gradientUnits="userSpaceOnUse">
<stop stop-color="#FEEBFE"/>
<stop offset="1" stop-color="#9A47ED"/>
</linearGradient>
<linearGradient id="paint10_linear_374_2613" x1="26.2013" y1="44.0082" x2="30.1064" y2="61.8959" gradientUnits="userSpaceOnUse">
<stop stop-color="#9440E2"/>
<stop offset="1" stop-color="#B158E3"/>
</linearGradient>
<linearGradient id="paint11_linear_374_2613" x1="161.299" y1="47.3007" x2="100.997" y2="166.231" gradientUnits="userSpaceOnUse">
<stop stop-color="#A05FF0"/>
<stop offset="0.350962" stop-color="#A24FFD"/>
<stop offset="0.615385" stop-color="#9A43FB"/>
<stop offset="1" stop-color="#4B24A1"/>
</linearGradient>
<linearGradient id="paint12_linear_374_2613" x1="192.066" y1="61.2842" x2="126.057" y2="178.947" gradientUnits="userSpaceOnUse">
<stop offset="0.00480769" stop-color="#BD5DE8"/>
<stop offset="0.0913462" stop-color="#D082F2"/>
<stop offset="0.177885" stop-color="#D767F0"/>
<stop offset="0.427885" stop-color="#D261F4"/>
<stop offset="0.754808" stop-color="#D961F5"/>
<stop offset="1" stop-color="#B253EA"/>
</linearGradient>
<linearGradient id="paint13_linear_374_2613" x1="139.361" y1="92.1904" x2="105.889" y2="158.205" gradientUnits="userSpaceOnUse">
<stop stop-color="#6A30D6"/>
<stop offset="1" stop-color="#612DC7"/>
</linearGradient>
<linearGradient id="paint14_linear_374_2613" x1="114.108" y1="134.896" x2="158.764" y2="46.8235" gradientUnits="userSpaceOnUse">
<stop stop-color="#6331CC"/>
<stop offset="1" stop-color="#7539DF"/>
</linearGradient>
<linearGradient id="paint15_linear_374_2613" x1="121.26" y1="109.429" x2="135.928" y2="80.5004" gradientUnits="userSpaceOnUse">
<stop stop-color="#7438DE"/>
<stop offset="0.9999" stop-color="#5B2EB6"/>
</linearGradient>
<linearGradient id="paint16_linear_374_2613" x1="124.459" y1="128.599" x2="107.09" y2="162.855" gradientUnits="userSpaceOnUse">
<stop stop-color="#5D30B9"/>
<stop offset="1" stop-color="#5528AB"/>
</linearGradient>
<linearGradient id="paint17_linear_374_2613" x1="150.343" y1="131.529" x2="135.381" y2="161.037" gradientUnits="userSpaceOnUse">
<stop stop-color="#9B4BE5"/>
<stop offset="1" stop-color="#7D3AD8"/>
</linearGradient>
<linearGradient id="paint18_linear_374_2613" x1="175.327" y1="24.5134" x2="152.071" y2="48.3968" gradientUnits="userSpaceOnUse">
<stop offset="0.00480769" stop-color="#D782F8"/>
<stop offset="0.480769" stop-color="#C071F1"/>
<stop offset="1" stop-color="#AE5DF0"/>
</linearGradient>
<linearGradient id="paint19_linear_374_2613" x1="176.913" y1="30.1651" x2="179.527" y2="59.2542" gradientUnits="userSpaceOnUse">
<stop offset="0.00480769" stop-color="#DF96F5"/>
<stop offset="0.719249" stop-color="#FBACF9"/>
<stop offset="1" stop-color="#F8C0FB"/>
</linearGradient>
<linearGradient id="paint20_linear_374_2613" x1="177.559" y1="25.644" x2="178.374" y2="61.9092" gradientUnits="userSpaceOnUse">
<stop stop-color="#E491F9"/>
<stop offset="1" stop-color="#F8C0FB"/>
</linearGradient>
<linearGradient id="paint21_linear_374_2613" x1="148.623" y1="45.7221" x2="118.951" y2="145.57" gradientUnits="userSpaceOnUse">
<stop stop-color="#F2AEFA"/>
<stop offset="0.139077" stop-color="#FEE9FE"/>
<stop offset="0.461576" stop-color="#FEE9FE"/>
<stop offset="1" stop-color="#9A47ED"/>
</linearGradient>
<linearGradient id="paint22_linear_374_2613" x1="149.164" y1="138.039" x2="148.137" y2="125.583" gradientUnits="userSpaceOnUse">
<stop stop-color="#7D3BE5"/>
<stop offset="1" stop-color="#A251F6"/>
</linearGradient>
<linearGradient id="paint23_linear_374_2613" x1="87.6212" y1="81.483" x2="76.3154" y2="176.033" gradientUnits="userSpaceOnUse">
<stop stop-color="#A05FF0"/>
<stop offset="0.350962" stop-color="#A24FFD"/>
<stop offset="0.615385" stop-color="#9A43FB"/>
<stop offset="1" stop-color="#4B24A1"/>
</linearGradient>
<linearGradient id="paint24_linear_374_2613" x1="111.252" y1="83.2719" x2="95.7354" y2="178.355" gradientUnits="userSpaceOnUse">
<stop offset="0.00480769" stop-color="#BD5DE8"/>
<stop offset="0.0913462" stop-color="#D082F2"/>
<stop offset="0.177885" stop-color="#D767F0"/>
<stop offset="0.427885" stop-color="#D261F4"/>
<stop offset="0.754808" stop-color="#D961F5"/>
<stop offset="1" stop-color="#B253EA"/>
</linearGradient>
<linearGradient id="paint25_linear_374_2613" x1="83.8959" y1="116.968" x2="77.6203" y2="169.45" gradientUnits="userSpaceOnUse">
<stop stop-color="#9A4AE5"/>
<stop offset="1" stop-color="#803BDA"/>
</linearGradient>
<linearGradient id="paint26_linear_374_2613" x1="77.4631" y1="151.806" x2="85.8355" y2="81.7878" gradientUnits="userSpaceOnUse">
<stop stop-color="#BC5CE7"/>
<stop offset="1" stop-color="#D761F5"/>
</linearGradient>
<linearGradient id="paint27_linear_374_2613" x1="76.0855" y1="132.979" x2="78.8356" y2="109.981" gradientUnits="userSpaceOnUse">
<stop stop-color="#DE7FEF"/>
<stop offset="0.9998" stop-color="#D07BEE"/>
</linearGradient>
<linearGradient id="paint28_linear_374_2613" x1="82.7819" y1="145.036" x2="79.5254" y2="172.269" gradientUnits="userSpaceOnUse">
<stop stop-color="#5D30B9"/>
<stop offset="1" stop-color="#5528AB"/>
</linearGradient>
<linearGradient id="paint29_linear_374_2613" x1="100.548" y1="140.621" x2="97.7432" y2="164.08" gradientUnits="userSpaceOnUse">
<stop stop-color="#9B4BE5"/>
<stop offset="1" stop-color="#7D3AD8"/>
</linearGradient>
<linearGradient id="paint30_linear_374_2613" x1="91.4193" y1="62.7569" x2="81.5752" y2="84.3889" gradientUnits="userSpaceOnUse">
<stop offset="0.00480769" stop-color="#EFA2F7"/>
<stop offset="1" stop-color="#F6BBFB"/>
</linearGradient>
<linearGradient id="paint31_linear_374_2613" x1="93.8149" y1="66.1539" x2="102.805" y2="84.8542" gradientUnits="userSpaceOnUse">
<stop offset="0.00480769" stop-color="#DF96F5"/>
<stop offset="0.719249" stop-color="#FBACF9"/>
<stop offset="1" stop-color="#F8C0FB"/>
</linearGradient>
<linearGradient id="paint32_linear_374_2613" x1="93.1595" y1="62.9652" x2="102.736" y2="86.9194" gradientUnits="userSpaceOnUse">
<stop stop-color="#E491F9"/>
<stop offset="1" stop-color="#F8C0FB"/>
</linearGradient>
<linearGradient id="paint33_linear_374_2613" x1="78.8866" y1="83.549" x2="83.6876" y2="157.734" gradientUnits="userSpaceOnUse">
<stop stop-color="#F2AEFA"/>
<stop offset="0.139077" stop-color="#FEE9FE"/>
<stop offset="0.461576" stop-color="#FEE9FE"/>
<stop offset="1" stop-color="#9A47ED"/>
</linearGradient>
<linearGradient id="paint34_linear_374_2613" x1="101.329" y1="145.274" x2="97.5415" y2="137.243" gradientUnits="userSpaceOnUse">
<stop stop-color="#7D3BE5"/>
<stop offset="1" stop-color="#A251F6"/>
</linearGradient>
</defs>
</svg>
