<svg width="297" height="72" viewBox="0 0 297 72" fill="none" xmlns="http://www.w3.org/2000/svg">
<mask id="path-1-inside-1_513_30632" fill="white">
<path d="M67.8521 5.99512C101.321 5.99512 131.896 14.7487 131.897 25.5469C131.897 33.6825 125.461 38.7531 115.263 41.8613C114.614 32.951 94.4102 25.7998 69.5815 25.7998C44.3433 25.7998 23.8834 33.1889 23.8833 42.3037C23.8833 42.5607 23.9019 42.8162 23.9341 43.0703C12.1015 40.1874 4.49658 34.9506 4.49658 25.5469C4.49729 14.7488 34.3834 5.9952 67.8521 5.99512Z"/>
</mask>
<path d="M67.8521 5.99512C101.321 5.99512 131.896 14.7487 131.897 25.5469C131.897 33.6825 125.461 38.7531 115.263 41.8613C114.614 32.951 94.4102 25.7998 69.5815 25.7998C44.3433 25.7998 23.8834 33.1889 23.8833 42.3037C23.8833 42.5607 23.9019 42.8162 23.9341 43.0703C12.1015 40.1874 4.49658 34.9506 4.49658 25.5469C4.49729 14.7488 34.3834 5.9952 67.8521 5.99512Z" fill="url(#paint0_linear_513_30632)"/>
<path d="M67.8521 5.99512V4.49629H67.852L67.8521 5.99512ZM131.897 25.5469H133.396V25.5468L131.897 25.5469ZM115.263 41.8613L113.768 41.9703L113.905 43.8423L115.7 43.295L115.263 41.8613ZM69.5815 25.7998V24.301V24.301V25.7998ZM23.8833 42.3037L22.3845 42.3037V42.3037H23.8833ZM23.9341 43.0703L23.5793 44.5265L25.6946 45.0419L25.421 42.882L23.9341 43.0703ZM4.49658 25.5469L2.99775 25.5468V25.5469H4.49658ZM67.8521 5.99512V7.49395C84.4738 7.49395 100.336 9.66962 111.995 13.1576C117.835 14.9045 122.537 16.956 125.745 19.17C129.006 21.4207 130.398 23.6011 130.398 25.547L131.897 25.5469L133.396 25.5468C133.396 22.0936 130.965 19.1304 127.448 16.7028C123.877 14.2385 118.843 12.077 112.855 10.2857C100.859 6.69741 84.6991 4.49629 67.8521 4.49629V5.99512ZM131.897 25.5469H130.398C130.398 29.1606 128.991 32.0746 126.385 34.4901C123.735 36.9473 119.817 38.9065 114.826 40.4276L115.263 41.8613L115.7 43.295C120.907 41.7079 125.306 39.5777 128.423 36.6886C131.585 33.7578 133.396 30.0688 133.396 25.5469H131.897ZM115.263 41.8613L116.758 41.7524C116.554 38.9496 114.828 36.4881 112.287 34.4282C109.733 32.359 106.199 30.5591 101.988 29.0755C93.5553 26.1046 82.1216 24.301 69.5815 24.301V25.7998V27.2986C81.8701 27.2986 92.9526 29.0706 100.992 31.9028C105.016 33.3208 108.206 34.9794 110.399 36.7571C112.604 38.5441 113.648 40.3179 113.768 41.9703L115.263 41.8613ZM69.5815 25.7998V24.301C56.8356 24.301 45.2309 26.1644 36.759 29.224C32.5294 30.7515 29.0007 32.6056 26.5013 34.7398C24.0075 36.8691 22.3845 39.4196 22.3845 42.3037L23.8833 42.3037L25.3821 42.3037C25.3821 40.6304 26.3167 38.8392 28.4478 37.0195C30.5733 35.2046 33.7371 33.5025 37.7772 32.0434C45.8449 29.1298 57.0893 27.2986 69.5815 27.2986V25.7998ZM23.8833 42.3037H22.3845C22.3845 42.6329 22.4083 42.9519 22.4471 43.2586L23.9341 43.0703L25.421 42.882C25.3955 42.6804 25.3821 42.4885 25.3821 42.3037H23.8833ZM23.9341 43.0703L24.2889 41.6141C18.4729 40.1971 13.8696 38.2385 10.7432 35.6072C7.67652 33.0261 5.99541 29.7751 5.99541 25.5469H4.49658H2.99775C2.99775 30.7224 5.11908 34.7917 8.81295 37.9006C12.4471 40.9593 17.5626 43.0606 23.5793 44.5265L23.9341 43.0703ZM4.49658 25.5469L5.99541 25.547C5.99554 23.5863 7.36332 21.4057 10.5521 19.1623C13.6943 16.9517 18.3077 14.9019 24.0592 13.1559C35.5434 9.66968 51.2304 7.49398 67.8521 7.49395L67.8521 5.99512L67.852 4.49629C51.0051 4.49633 35.0147 6.69745 23.1885 10.2875C17.2848 12.0797 12.3348 14.243 8.82723 16.7106C5.36624 19.1455 2.99798 22.1084 2.99775 25.5468L4.49658 25.5469Z" fill="#190B37" mask="url(#path-1-inside-1_513_30632)"/>
<mask id="path-3-inside-2_513_30632" fill="white">
<path d="M67.8286 5.99512C103.66 5.99513 136.393 20.2603 136.394 37.8574C136.394 66.7562 103.66 71.9434 67.8286 71.9434C31.9969 71.9434 0.00048828 68.2382 0.000488281 37.8574C0.00102026 20.2603 31.9972 5.99512 67.8286 5.99512ZM69.3091 8.9043C42.2895 8.9043 20.3857 17.5885 20.3853 28.3008C20.3853 39.0132 42.2892 47.6973 69.3091 47.6973C96.3289 47.6973 118.233 39.0132 118.233 28.3008C118.233 17.5885 96.3286 8.90431 69.3091 8.9043Z"/>
</mask>
<path d="M67.8286 5.99512C103.66 5.99513 136.393 20.2603 136.394 37.8574C136.394 66.7562 103.66 71.9434 67.8286 71.9434C31.9969 71.9434 0.00048828 68.2382 0.000488281 37.8574C0.00102026 20.2603 31.9972 5.99512 67.8286 5.99512ZM69.3091 8.9043C42.2895 8.9043 20.3857 17.5885 20.3853 28.3008C20.3853 39.0132 42.2892 47.6973 69.3091 47.6973C96.3289 47.6973 118.233 39.0132 118.233 28.3008C118.233 17.5885 96.3286 8.90431 69.3091 8.9043Z" fill="url(#paint1_linear_513_30632)"/>
<path d="M67.8286 5.99512C103.66 5.99513 136.393 20.2603 136.394 37.8574C136.394 66.7562 103.66 71.9434 67.8286 71.9434C31.9969 71.9434 0.00048828 68.2382 0.000488281 37.8574C0.00102026 20.2603 31.9972 5.99512 67.8286 5.99512ZM69.3091 8.9043C42.2895 8.9043 20.3857 17.5885 20.3853 28.3008C20.3853 39.0132 42.2892 47.6973 69.3091 47.6973C96.3289 47.6973 118.233 39.0132 118.233 28.3008C118.233 17.5885 96.3286 8.90431 69.3091 8.9043Z" fill="url(#paint2_linear_513_30632)"/>
<path d="M67.8286 5.99512V4.49629V4.49629V5.99512ZM136.394 37.8574H137.893V37.8574L136.394 37.8574ZM67.8286 71.9434V73.4422V73.4422V71.9434ZM0.000488281 37.8574L-1.49834 37.8574V37.8574H0.000488281ZM69.3091 8.9043V7.40547V7.40547V8.9043ZM20.3853 28.3008L18.8864 28.3007V28.3008H20.3853ZM69.3091 47.6973V49.1961V49.1961V47.6973ZM118.233 28.3008H119.732V28.3007L118.233 28.3008ZM67.8286 5.99512V7.49395C85.5669 7.49395 102.49 11.0284 114.927 16.6914C121.147 19.5237 126.178 22.8583 129.634 26.4886C133.084 30.1136 134.895 33.9533 134.895 37.8575L136.394 37.8574L137.893 37.8574C137.893 32.963 135.611 28.4206 131.805 24.4217C128.003 20.4281 122.611 16.8969 116.169 13.9633C103.281 8.09444 85.9217 4.49629 67.8286 4.49629V5.99512ZM136.394 37.8574H134.895C134.895 44.7775 132.944 50.1819 129.548 54.4405C126.134 58.7217 121.176 61.948 115.006 64.3399C102.624 69.1404 85.7273 70.4445 67.8286 70.4445V71.9434V73.4422C85.7616 73.4422 103.147 72.1527 116.09 67.1349C122.583 64.6177 128.048 61.1287 131.891 56.3095C135.753 51.4678 137.893 45.3867 137.893 37.8574H136.394ZM67.8286 71.9434V70.4445C49.899 70.4445 33.1992 69.5066 21.0083 64.8914C14.9422 62.595 10.0882 59.4216 6.74707 55.0854C3.41934 50.7666 1.49932 45.174 1.49932 37.8574H0.000488281H-1.49834C-1.49834 45.7312 0.581191 51.9945 4.37253 56.915C8.15048 61.8182 13.535 65.2675 19.947 67.6949C32.7122 72.5275 49.9265 73.4422 67.8286 73.4422V71.9434ZM0.000488281 37.8574L1.49932 37.8575C1.49944 33.942 3.27412 30.0993 6.65554 26.4781C10.0428 22.8506 14.9812 19.5184 21.1067 16.6879C33.3548 11.0283 50.0906 7.49395 67.8286 7.49395V5.99512V4.49629C49.7352 4.49629 32.5573 8.09456 19.8493 13.9668C13.4967 16.9022 8.19645 20.4358 4.46459 24.4322C0.726849 28.435 -1.49819 32.9743 -1.49834 37.8574L0.000488281 37.8574ZM69.3091 8.9043V7.40547C55.6588 7.40547 43.232 9.59638 34.1626 13.1921C29.6322 14.9882 25.8648 17.1643 23.2051 19.6573C20.5429 22.1527 18.8865 25.0727 18.8864 28.3007L20.3853 28.3008L21.8841 28.3008C21.8842 26.1727 22.966 23.9901 25.2552 21.8444C27.5469 19.6962 30.9443 17.6927 35.2674 15.9787C43.9048 12.5543 55.9398 10.4031 69.3091 10.4031V8.9043ZM20.3853 28.3008H18.8864C18.8864 31.5289 20.5427 34.4489 23.2049 36.9443C25.8646 39.4373 29.6319 41.6134 34.1623 43.4095C43.2318 47.0052 55.6587 49.1961 69.3091 49.1961V47.6973V46.1984C55.9396 46.1984 43.9046 44.0473 35.2671 40.6229C30.944 38.9089 27.5467 36.9054 25.255 34.7573C22.9658 32.6116 21.8841 30.4289 21.8841 28.3008H20.3853ZM69.3091 47.6973V49.1961C82.9595 49.1961 95.3863 47.0052 104.456 43.4095C108.986 41.6134 112.754 39.4373 115.413 36.9443C118.075 34.4489 119.732 31.5289 119.732 28.3008H118.233H116.734C116.734 30.4289 115.652 32.6116 113.363 34.7573C111.071 36.9054 107.674 38.9089 103.351 40.6229C94.7135 44.0473 82.6785 46.1984 69.3091 46.1984V47.6973ZM118.233 28.3008L119.732 28.3007C119.732 25.0727 118.075 22.1527 115.413 19.6573C112.753 17.1643 108.986 14.9882 104.456 13.1921C95.3861 9.59639 82.9593 7.40548 69.3091 7.40547V8.9043V10.4031C82.6784 10.4031 94.7133 12.5543 103.351 15.9788C107.674 17.6927 111.071 19.6962 113.363 21.8444C115.652 23.9901 116.734 26.1727 116.734 28.3008L118.233 28.3008Z" fill="#190B37" mask="url(#path-3-inside-2_513_30632)"/>
<mask id="path-5-outside-3_513_30632" maskUnits="userSpaceOnUse" x="-0.500977" y="-0.501221" width="137" height="59" fill="black">
<rect fill="white" x="-0.500977" y="-0.501221" width="137" height="59"/>
<path d="M68.1973 1.49878C105.033 1.49886 134.895 13.9134 134.895 29.2273C134.894 44.5411 105.033 56.9557 68.1973 56.9558C31.3612 56.9558 1.49926 44.5411 1.49902 29.2273C1.49902 13.9134 31.361 1.49878 68.1973 1.49878ZM68.1973 8.43042C41.2944 8.43042 19.4854 17.4313 19.4854 28.5339C19.4858 39.6364 41.2947 48.6365 68.1973 48.6365C95.0997 48.6364 116.909 39.6363 116.909 28.5339C116.909 17.4314 95.1 8.43051 68.1973 8.43042Z"/>
</mask>
<g filter="url(#filter0_ii_513_30632)">
<path d="M68.1973 1.49878C105.033 1.49886 134.895 13.9134 134.895 29.2273C134.894 44.5411 105.033 56.9557 68.1973 56.9558C31.3612 56.9558 1.49926 44.5411 1.49902 29.2273C1.49902 13.9134 31.361 1.49878 68.1973 1.49878ZM68.1973 8.43042C41.2944 8.43042 19.4854 17.4313 19.4854 28.5339C19.4858 39.6364 41.2947 48.6365 68.1973 48.6365C95.0997 48.6364 116.909 39.6363 116.909 28.5339C116.909 17.4314 95.1 8.43051 68.1973 8.43042Z" fill="#C38393"/>
</g>
<path d="M68.1973 1.49878V-4.97103e-05V-4.97103e-05V1.49878ZM134.895 29.2273L136.393 29.2273V29.2273H134.895ZM68.1973 56.9558V58.4546V58.4546V56.9558ZM1.49902 29.2273H0.00019443V29.2273L1.49902 29.2273ZM68.1973 8.43042L68.1973 6.93159H68.1973V8.43042ZM19.4854 28.5339H17.9865V28.534L19.4854 28.5339ZM68.1973 48.6365V50.1353H68.1973L68.1973 48.6365ZM116.909 28.5339L118.408 28.534V28.5339H116.909ZM68.1973 1.49878V2.99761C86.4672 2.99765 102.937 6.07919 114.784 11.0043C120.711 13.4683 125.409 16.3641 128.602 19.5031C131.791 22.637 133.396 25.9222 133.396 29.2273H134.895H136.393C136.393 24.8755 134.266 20.8661 130.704 17.3653C127.147 13.8695 122.078 10.7903 115.935 8.23637C103.642 3.12576 86.7634 -1.00136e-05 68.1973 -4.97103e-05V1.49878ZM134.895 29.2273L133.396 29.2273C133.396 32.5324 131.791 35.8176 128.602 38.9514C125.409 42.0904 120.711 44.9862 114.784 47.4502C102.937 52.3754 86.4672 55.4569 68.1973 55.457V56.9558V58.4546C86.7633 58.4546 103.642 55.3288 115.935 50.2182C122.078 47.6643 127.147 44.5851 130.704 41.0893C134.265 37.5884 136.393 33.5791 136.393 29.2273L134.895 29.2273ZM68.1973 56.9558V55.457C49.9273 55.457 33.4571 52.3754 21.6101 47.4503C15.6833 44.9863 10.9849 42.0904 7.79129 38.9515C4.60284 35.8176 2.9979 32.5324 2.99785 29.2273L1.49902 29.2273L0.00019443 29.2273C0.000261426 33.5791 2.12816 37.5885 5.69 41.0893C9.24667 44.5851 14.3161 47.6643 20.4593 50.2182C32.7524 55.3289 49.6312 58.4546 68.1973 58.4546V56.9558ZM1.49902 29.2273H2.99785C2.99785 25.9222 4.60275 22.637 7.79118 19.5031C10.9848 16.3641 15.6831 13.4683 21.6099 11.0043C33.4569 6.07914 49.9272 2.99761 68.1973 2.99761V1.49878V-4.97103e-05C49.6311 -4.97103e-05 32.7522 3.12571 20.4592 8.23632C14.316 10.7902 9.24653 13.8694 5.68988 17.3652C2.12805 20.8661 0.00019443 24.8754 0.00019443 29.2273H1.49902ZM68.1973 8.43042V6.93159C54.599 6.93159 42.218 9.20357 33.1809 12.9332C28.6659 14.7966 24.9135 17.0534 22.2666 19.6361C19.6149 22.2235 17.9865 25.2309 17.9865 28.5339H19.4854H20.9842C20.9842 26.2857 22.0819 24.0045 24.3601 21.7816C26.6431 19.554 30.0245 17.4788 34.3245 15.7042C42.9177 12.1577 54.8927 9.92925 68.1973 9.92925V8.43042ZM19.4854 28.5339L17.9865 28.534C17.9866 31.837 19.6151 34.8443 22.2669 37.4316C24.9138 40.0142 28.6662 42.2708 33.1812 44.1341C42.2183 47.8635 54.5991 50.1353 68.1973 50.1353V48.6365V47.1376C54.8928 47.1376 42.9179 44.9094 34.3247 41.3631C30.0247 39.5886 26.6433 37.5135 24.3603 35.286C22.0821 33.0632 20.9843 30.7821 20.9842 28.5339L19.4854 28.5339ZM68.1973 48.6365L68.1973 50.1353C81.7953 50.1353 94.1762 47.8635 103.213 44.1341C107.728 42.2708 111.481 40.0141 114.128 37.4316C116.779 34.8443 118.408 31.837 118.408 28.534L116.909 28.5339L115.41 28.5339C115.41 30.7821 114.312 33.0632 112.034 35.286C109.751 37.5135 106.37 39.5885 102.07 41.3631C93.4765 44.9093 81.5016 47.1376 68.1973 47.1376L68.1973 48.6365ZM116.909 28.5339H118.408C118.408 25.2309 116.78 22.2235 114.128 19.6361C111.481 17.0535 107.729 14.7967 103.214 12.9333C94.1764 9.20363 81.7955 6.93163 68.1973 6.93159L68.1973 8.43042L68.1973 9.92925C81.5017 9.92929 93.4767 12.1578 102.07 15.7042C106.37 17.4789 109.751 19.554 112.034 21.7817C114.313 24.0045 115.41 26.2857 115.41 28.5339H116.909Z" fill="#442047" mask="url(#path-5-outside-3_513_30632)"/>
<mask id="path-7-inside-4_513_30632" fill="white">
<path d="M228.227 5.99512C261.696 5.99512 292.271 14.7487 292.272 25.5469C292.272 33.6827 285.835 38.7531 275.637 41.8613C274.988 32.951 254.785 25.7998 229.957 25.7998C204.718 25.7998 184.258 33.1888 184.258 42.3037C184.258 42.5607 184.277 42.8162 184.309 43.0703C172.476 40.1874 164.872 34.9506 164.872 25.5469C164.872 14.7488 194.758 5.9952 228.227 5.99512Z"/>
</mask>
<path d="M228.227 5.99512C261.696 5.99512 292.271 14.7487 292.272 25.5469C292.272 33.6827 285.835 38.7531 275.637 41.8613C274.988 32.951 254.785 25.7998 229.957 25.7998C204.718 25.7998 184.258 33.1888 184.258 42.3037C184.258 42.5607 184.277 42.8162 184.309 43.0703C172.476 40.1874 164.872 34.9506 164.872 25.5469C164.872 14.7488 194.758 5.9952 228.227 5.99512Z" fill="url(#paint3_linear_513_30632)"/>
<path d="M228.227 5.99512V4.49629H228.227L228.227 5.99512ZM292.272 25.5469H293.771V25.5468L292.272 25.5469ZM275.637 41.8613L274.142 41.9703L274.279 43.8423L276.074 43.295L275.637 41.8613ZM229.957 25.7998V24.301V24.301V25.7998ZM184.258 42.3037L182.759 42.3037V42.3037H184.258ZM184.309 43.0703L183.954 44.5265L186.07 45.0419L185.796 42.882L184.309 43.0703ZM164.872 25.5469L163.373 25.5468V25.5469H164.872ZM228.227 5.99512V7.49395C244.849 7.49395 260.711 9.66962 272.37 13.1576C278.21 14.9045 282.912 16.956 286.12 19.17C289.381 21.4207 290.773 23.6011 290.773 25.547L292.272 25.5469L293.771 25.5468C293.771 22.0936 291.34 19.1304 287.823 16.7028C284.252 14.2385 279.218 12.077 273.23 10.2857C261.234 6.69741 245.074 4.49629 228.227 4.49629V5.99512ZM292.272 25.5469H290.773C290.773 29.1607 289.366 32.0747 286.76 34.4902C284.109 36.9473 280.191 38.9065 275.2 40.4276L275.637 41.8613L276.074 43.295C281.282 41.7079 285.681 39.5778 288.798 36.6887C291.96 33.758 293.771 30.0689 293.771 25.5469H292.272ZM275.637 41.8613L277.132 41.7524C276.928 38.9496 275.203 36.4881 272.661 34.4282C270.108 32.359 266.573 30.5592 262.362 29.0755C253.93 26.1046 242.497 24.301 229.957 24.301V25.7998V27.2986C242.245 27.2986 253.327 29.0706 261.366 31.9028C265.391 33.3208 268.58 34.9794 270.773 36.7571C272.978 38.5441 274.022 40.3179 274.142 41.9703L275.637 41.8613ZM229.957 25.7998V24.301C217.211 24.301 205.606 26.1644 197.134 29.224C192.904 30.7515 189.376 32.6056 186.876 34.7398C184.382 36.8691 182.759 39.4196 182.759 42.3037L184.258 42.3037L185.757 42.3037C185.757 40.6304 186.692 38.8392 188.823 37.0195C190.948 35.2046 194.112 33.5025 198.152 32.0434C206.22 29.1298 217.464 27.2986 229.957 27.2986V25.7998ZM184.258 42.3037H182.759C182.759 42.6329 182.783 42.9519 182.822 43.2586L184.309 43.0703L185.796 42.882C185.771 42.6804 185.757 42.4885 185.757 42.3037H184.258ZM184.309 43.0703L184.664 41.6141C178.848 40.1971 174.245 38.2385 171.118 35.6072C168.052 33.0261 166.37 29.7751 166.37 25.5469H164.872H163.373C163.373 30.7224 165.494 34.7917 169.188 37.9006C172.822 40.9593 177.938 43.0606 183.954 44.5265L184.309 43.0703ZM164.872 25.5469L166.37 25.547C166.371 23.5863 167.738 21.4057 170.927 19.1623C174.069 16.9517 178.683 14.9019 184.434 13.1559C195.918 9.66968 211.605 7.49398 228.227 7.49395L228.227 5.99512L228.227 4.49629C211.38 4.49633 195.39 6.69745 183.563 10.2875C177.66 12.0797 172.71 14.243 169.202 16.7106C165.741 19.1455 163.373 22.1084 163.373 25.5468L164.872 25.5469Z" fill="#190B37" mask="url(#path-7-inside-4_513_30632)"/>
<mask id="path-9-inside-5_513_30632" fill="white">
<path d="M228.203 5.99512C264.035 5.99513 296.768 20.2603 296.769 37.8574C296.769 66.7562 264.035 71.9434 228.203 71.9434C192.371 71.9434 160.375 68.2382 160.375 37.8574C160.376 20.2603 192.372 5.99512 228.203 5.99512ZM229.684 8.9043C202.664 8.90435 180.76 17.5885 180.76 28.3008C180.76 39.0132 202.664 47.6972 229.684 47.6973C256.703 47.6973 278.607 39.0132 278.607 28.3008C278.607 17.5885 256.703 8.9043 229.684 8.9043Z"/>
</mask>
<path d="M228.203 5.99512C264.035 5.99513 296.768 20.2603 296.769 37.8574C296.769 66.7562 264.035 71.9434 228.203 71.9434C192.371 71.9434 160.375 68.2382 160.375 37.8574C160.376 20.2603 192.372 5.99512 228.203 5.99512ZM229.684 8.9043C202.664 8.90435 180.76 17.5885 180.76 28.3008C180.76 39.0132 202.664 47.6972 229.684 47.6973C256.703 47.6973 278.607 39.0132 278.607 28.3008C278.607 17.5885 256.703 8.9043 229.684 8.9043Z" fill="url(#paint4_linear_513_30632)"/>
<path d="M228.203 5.99512C264.035 5.99513 296.768 20.2603 296.769 37.8574C296.769 66.7562 264.035 71.9434 228.203 71.9434C192.371 71.9434 160.375 68.2382 160.375 37.8574C160.376 20.2603 192.372 5.99512 228.203 5.99512ZM229.684 8.9043C202.664 8.90435 180.76 17.5885 180.76 28.3008C180.76 39.0132 202.664 47.6972 229.684 47.6973C256.703 47.6973 278.607 39.0132 278.607 28.3008C278.607 17.5885 256.703 8.9043 229.684 8.9043Z" fill="url(#paint5_linear_513_30632)"/>
<path d="M228.203 5.99512V4.49629V4.49629V5.99512ZM296.769 37.8574H298.267V37.8574L296.769 37.8574ZM228.203 71.9434V73.4422V73.4422V71.9434ZM160.375 37.8574L158.876 37.8574V37.8574H160.375ZM229.684 8.9043V7.40547V7.40547V8.9043ZM180.76 28.3008L179.261 28.3007V28.3008H180.76ZM229.684 47.6973V49.1961V49.1961V47.6973ZM278.607 28.3008H280.106V28.3007L278.607 28.3008ZM228.203 5.99512V7.49395C245.941 7.49395 262.865 11.0284 275.301 16.6914C281.521 19.5237 286.552 22.8583 290.008 26.4886C293.459 30.1136 295.27 33.9533 295.27 37.8575L296.769 37.8574L298.267 37.8574C298.267 32.963 295.986 28.4206 292.179 24.4217C288.378 20.4281 282.986 16.8969 276.544 13.9633C263.655 8.09444 246.296 4.49629 228.203 4.49629V5.99512ZM296.769 37.8574H295.27C295.27 44.7775 293.318 50.1819 289.922 54.4405C286.508 58.7217 281.551 61.948 275.381 64.3399C262.999 69.1404 246.102 70.4445 228.203 70.4445V71.9434V73.4422C246.136 73.4422 263.522 72.1527 276.465 67.1349C282.957 64.6177 288.423 61.1287 292.266 56.3095C296.127 51.4678 298.267 45.3867 298.267 37.8574H296.769ZM228.203 71.9434V70.4445C210.273 70.4445 193.574 69.5066 181.383 64.8914C175.317 62.595 170.463 59.4216 167.122 55.0854C163.794 50.7666 161.874 45.174 161.874 37.8574H160.375H158.876C158.876 45.7312 160.956 51.9945 164.747 56.915C168.525 61.8182 173.91 65.2675 180.322 67.6949C193.087 72.5275 210.301 73.4422 228.203 73.4422V71.9434ZM160.375 37.8574L161.874 37.8575C161.874 33.942 163.649 30.0993 167.03 26.4781C170.417 22.8506 175.356 19.5184 181.481 16.6879C193.729 11.0283 210.465 7.49395 228.203 7.49395V5.99512V4.49629C210.11 4.49629 192.932 8.09456 180.224 13.9668C173.871 16.9022 168.571 20.4358 164.839 24.4322C161.101 28.435 158.876 32.9743 158.876 37.8574L160.375 37.8574ZM229.684 8.9043V7.40547C216.033 7.4055 203.607 9.59642 194.537 13.1921C190.007 14.9883 186.239 17.1643 183.58 19.6573C180.917 22.1527 179.261 25.0727 179.261 28.3007L180.76 28.3008L182.259 28.3008C182.259 26.1727 183.34 23.9901 185.63 21.8444C187.921 19.6963 191.319 17.6927 195.642 15.9788C204.279 12.5543 216.314 10.4032 229.684 10.4031V8.9043ZM180.76 28.3008H179.261C179.261 31.5289 180.917 34.4489 183.579 36.9443C186.239 39.4373 190.006 41.6134 194.537 43.4095C203.606 47.0052 216.033 49.1961 229.684 49.1961V47.6973V46.1984C216.314 46.1984 204.279 44.0473 195.642 40.6228C191.319 38.9089 187.921 36.9054 185.629 34.7572C183.34 32.6115 182.259 30.4289 182.259 28.3008H180.76ZM229.684 47.6973V49.1961C243.334 49.1961 255.761 47.0052 264.83 43.4095C269.361 41.6134 273.128 39.4373 275.788 36.9443C278.45 34.4489 280.106 31.5289 280.106 28.3008H278.607H277.109C277.109 30.4289 276.027 32.6116 273.738 34.7573C271.446 36.9054 268.049 38.9089 263.726 40.6229C255.088 44.0473 243.053 46.1984 229.684 46.1984V47.6973ZM278.607 28.3008L280.106 28.3007C280.106 25.0727 278.45 22.1527 275.788 19.6573C273.128 17.1643 269.36 14.9882 264.83 13.1921C255.761 9.59638 243.334 7.40547 229.684 7.40547V8.9043V10.4031C243.053 10.4031 255.088 12.5543 263.725 15.9787C268.048 17.6927 271.446 19.6962 273.738 21.8444C276.027 23.9901 277.109 26.1727 277.109 28.3008L278.607 28.3008Z" fill="#190B37" mask="url(#path-9-inside-5_513_30632)"/>
<mask id="path-11-outside-6_513_30632" maskUnits="userSpaceOnUse" x="159.874" y="-0.501221" width="137" height="59" fill="black">
<rect fill="white" x="159.874" y="-0.501221" width="137" height="59"/>
<path d="M228.572 1.49878C265.408 1.49886 295.27 13.9134 295.27 29.2273C295.269 44.5411 265.408 56.9557 228.572 56.9558C191.736 56.9558 161.874 44.5411 161.874 29.2273C161.874 13.9134 191.736 1.49878 228.572 1.49878ZM228.572 8.43042C201.669 8.43042 179.86 17.4313 179.86 28.5339C179.861 39.6364 201.67 48.6365 228.572 48.6365C255.475 48.6364 277.284 39.6364 277.284 28.5339C277.284 17.4314 255.475 8.43048 228.572 8.43042Z"/>
</mask>
<g filter="url(#filter1_ii_513_30632)">
<path d="M228.572 1.49878C265.408 1.49886 295.27 13.9134 295.27 29.2273C295.269 44.5411 265.408 56.9557 228.572 56.9558C191.736 56.9558 161.874 44.5411 161.874 29.2273C161.874 13.9134 191.736 1.49878 228.572 1.49878ZM228.572 8.43042C201.669 8.43042 179.86 17.4313 179.86 28.5339C179.861 39.6364 201.67 48.6365 228.572 48.6365C255.475 48.6364 277.284 39.6364 277.284 28.5339C277.284 17.4314 255.475 8.43048 228.572 8.43042Z" fill="#C38393"/>
</g>
<path d="M228.572 1.49878V-4.97103e-05V-4.97103e-05V1.49878ZM295.27 29.2273L296.768 29.2273V29.2273H295.27ZM228.572 56.9558V58.4546V58.4546V56.9558ZM161.874 29.2273H160.375V29.2273L161.874 29.2273ZM228.572 8.43042V6.93159V6.93159V8.43042ZM179.86 28.5339H178.362V28.534L179.86 28.5339ZM228.572 48.6365V50.1353V50.1353V48.6365ZM277.284 28.5339L278.783 28.534V28.5339H277.284ZM228.572 1.49878V2.99761C246.842 2.99765 263.312 6.07919 275.159 11.0043C281.086 13.4683 285.784 16.3641 288.977 19.5031C292.166 22.637 293.771 25.9222 293.771 29.2273H295.27H296.768C296.768 24.8755 294.641 20.8661 291.079 17.3653C287.522 13.8695 282.453 10.7903 276.31 8.23637C264.017 3.12576 247.138 -1.00136e-05 228.572 -4.97103e-05V1.49878ZM295.27 29.2273L293.771 29.2273C293.771 32.5324 292.166 35.8176 288.977 38.9514C285.784 42.0904 281.086 44.9862 275.159 47.4502C263.312 52.3754 246.842 55.4569 228.572 55.457V56.9558V58.4546C247.138 58.4546 264.017 55.3288 276.31 50.2182C282.453 47.6643 287.522 44.5851 291.079 41.0893C294.64 37.5884 296.768 33.5791 296.768 29.2273L295.27 29.2273ZM228.572 56.9558V55.457C210.302 55.457 193.832 52.3754 181.985 47.4503C176.058 44.9863 171.36 42.0904 168.166 38.9515C164.978 35.8176 163.373 32.5324 163.373 29.2273L161.874 29.2273L160.375 29.2273C160.375 33.5791 162.503 37.5885 166.065 41.0893C169.622 44.5851 174.691 47.6643 180.834 50.2182C193.127 55.3289 210.006 58.4546 228.572 58.4546V56.9558ZM161.874 29.2273H163.373C163.373 25.9222 164.978 22.637 168.166 19.5031C171.36 16.3641 176.058 13.4683 181.985 11.0043C193.832 6.07914 210.302 2.99761 228.572 2.99761V1.49878V-4.97103e-05C210.006 -4.97103e-05 193.127 3.12571 180.834 8.23632C174.691 10.7902 169.622 13.8694 166.065 17.3652C162.503 20.8661 160.375 24.8754 160.375 29.2273H161.874ZM228.572 8.43042V6.93159C214.974 6.93159 202.593 9.20357 193.556 12.9332C189.041 14.7966 185.289 17.0534 182.642 19.6361C179.99 22.2235 178.362 25.2309 178.362 28.5339H179.86H181.359C181.359 26.2857 182.457 24.0045 184.735 21.7816C187.018 19.554 190.399 17.4788 194.7 15.7042C203.293 12.1577 215.268 9.92925 228.572 9.92925V8.43042ZM179.86 28.5339L178.362 28.534C178.362 31.837 179.99 34.8443 182.642 37.4316C185.289 40.0142 189.041 42.2708 193.556 44.1341C202.593 47.8635 214.974 50.1353 228.572 50.1353V48.6365V47.1376C215.268 47.1376 203.293 44.9094 194.7 41.3631C190.4 39.5886 187.018 37.5135 184.735 35.286C182.457 33.0632 181.359 30.7821 181.359 28.5339L179.86 28.5339ZM228.572 48.6365V50.1353C242.17 50.1353 254.551 47.8635 263.588 44.1341C268.103 42.2708 271.856 40.0141 274.503 37.4316C277.154 34.8443 278.783 31.837 278.783 28.534L277.284 28.5339L275.785 28.5339C275.785 30.7821 274.687 33.0632 272.409 35.286C270.126 37.5135 266.745 39.5885 262.445 41.3631C253.852 44.9093 241.877 47.1376 228.572 47.1376V48.6365ZM277.284 28.5339H278.783C278.783 25.2309 277.155 22.2235 274.503 19.6361C271.856 17.0535 268.104 14.7967 263.589 12.9333C254.551 9.20362 242.171 6.93162 228.572 6.93159V8.43042V9.92925C241.877 9.92928 253.852 12.1578 262.445 15.7042C266.745 17.4789 270.126 19.554 272.409 21.7816C274.688 24.0045 275.785 26.2857 275.785 28.5339H277.284Z" fill="#442047" mask="url(#path-11-outside-6_513_30632)"/>
<defs>
<filter id="filter0_ii_513_30632" x="0" y="-0.899297" width="136.394" height="60.2532" filterUnits="userSpaceOnUse" color-interpolation-filters="sRGB">
<feFlood flood-opacity="0" result="BackgroundImageFix"/>
<feBlend mode="normal" in="SourceGraphic" in2="BackgroundImageFix" result="shape"/>
<feColorMatrix in="SourceAlpha" type="matrix" values="0 0 0 0 0 0 0 0 0 0 0 0 0 0 0 0 0 0 127 0" result="hardAlpha"/>
<feOffset dy="4.49649"/>
<feGaussianBlur stdDeviation="0.449649"/>
<feComposite in2="hardAlpha" operator="arithmetic" k2="-1" k3="1"/>
<feColorMatrix type="matrix" values="0 0 0 0 0.960784 0 0 0 0 0.690196 0 0 0 0 0.662745 0 0 0 1 0"/>
<feBlend mode="normal" in2="shape" result="effect1_innerShadow_513_30632"/>
<feColorMatrix in="SourceAlpha" type="matrix" values="0 0 0 0 0 0 0 0 0 0 0 0 0 0 0 0 0 0 127 0" result="hardAlpha"/>
<feOffset dy="-4.49649"/>
<feGaussianBlur stdDeviation="0.449649"/>
<feComposite in2="hardAlpha" operator="arithmetic" k2="-1" k3="1"/>
<feColorMatrix type="matrix" values="0 0 0 0 0.894118 0 0 0 0 0.647059 0 0 0 0 0.611765 0 0 0 1 0"/>
<feBlend mode="normal" in2="effect1_innerShadow_513_30632" result="effect2_innerShadow_513_30632"/>
</filter>
<filter id="filter1_ii_513_30632" x="160.375" y="-0.899297" width="136.393" height="60.2532" filterUnits="userSpaceOnUse" color-interpolation-filters="sRGB">
<feFlood flood-opacity="0" result="BackgroundImageFix"/>
<feBlend mode="normal" in="SourceGraphic" in2="BackgroundImageFix" result="shape"/>
<feColorMatrix in="SourceAlpha" type="matrix" values="0 0 0 0 0 0 0 0 0 0 0 0 0 0 0 0 0 0 127 0" result="hardAlpha"/>
<feOffset dy="4.49649"/>
<feGaussianBlur stdDeviation="0.449649"/>
<feComposite in2="hardAlpha" operator="arithmetic" k2="-1" k3="1"/>
<feColorMatrix type="matrix" values="0 0 0 0 0.960784 0 0 0 0 0.690196 0 0 0 0 0.662745 0 0 0 1 0"/>
<feBlend mode="normal" in2="shape" result="effect1_innerShadow_513_30632"/>
<feColorMatrix in="SourceAlpha" type="matrix" values="0 0 0 0 0 0 0 0 0 0 0 0 0 0 0 0 0 0 127 0" result="hardAlpha"/>
<feOffset dy="-4.49649"/>
<feGaussianBlur stdDeviation="0.449649"/>
<feComposite in2="hardAlpha" operator="arithmetic" k2="-1" k3="1"/>
<feColorMatrix type="matrix" values="0 0 0 0 0.894118 0 0 0 0 0.647059 0 0 0 0 0.611765 0 0 0 1 0"/>
<feBlend mode="normal" in2="effect1_innerShadow_513_30632" result="effect2_innerShadow_513_30632"/>
</filter>
<linearGradient id="paint0_linear_513_30632" x1="115.28" y1="11.7717" x2="22.4744" y2="14.0961" gradientUnits="userSpaceOnUse">
<stop stop-color="#4E275A"/>
<stop offset="1" stop-color="#301D4A"/>
</linearGradient>
<linearGradient id="paint1_linear_513_30632" x1="118.233" y1="-7.58247" x2="18.8661" y2="-5.31532" gradientUnits="userSpaceOnUse">
<stop stop-color="#4E275A"/>
<stop offset="1" stop-color="#301D4A"/>
</linearGradient>
<linearGradient id="paint2_linear_513_30632" x1="10.0076" y1="56.4261" x2="128.618" y2="55.2929" gradientUnits="userSpaceOnUse">
<stop stop-color="#582D5F"/>
<stop offset="1" stop-color="#281B44"/>
</linearGradient>
<linearGradient id="paint3_linear_513_30632" x1="275.655" y1="11.7717" x2="182.849" y2="14.0961" gradientUnits="userSpaceOnUse">
<stop stop-color="#4E275A"/>
<stop offset="1" stop-color="#301D4A"/>
</linearGradient>
<linearGradient id="paint4_linear_513_30632" x1="278.607" y1="-7.58247" x2="179.241" y2="-5.31532" gradientUnits="userSpaceOnUse">
<stop stop-color="#4E275A"/>
<stop offset="1" stop-color="#301D4A"/>
</linearGradient>
<linearGradient id="paint5_linear_513_30632" x1="170.382" y1="56.4261" x2="288.993" y2="55.2929" gradientUnits="userSpaceOnUse">
<stop stop-color="#582D5F"/>
<stop offset="1" stop-color="#281B44"/>
</linearGradient>
</defs>
</svg>
