<svg width="253" height="216" viewBox="0 0 253 216" fill="none" xmlns="http://www.w3.org/2000/svg">
<g filter="url(#filter0_i_374_2415)">
<path d="M235.397 155.64C248.536 201.539 245.842 206.332 239.676 208.097C233.511 209.862 232.41 206.155 219.272 160.256C206.133 114.357 185.932 43.6473 192.097 41.8824C198.263 40.1175 222.258 109.741 235.397 155.64Z" fill="url(#paint0_linear_374_2415)"/>
</g>
<path d="M191.273 38.2258C193.401 37.7165 195.081 38.8526 195.83 39.4668C196.74 40.2124 197.552 41.218 198.263 42.2383C199.716 44.3217 201.315 47.3006 203.001 50.851C206.397 58.0034 210.432 68.1028 214.65 79.597C223.097 102.615 232.408 131.583 239 154.609C245.553 177.503 248.308 190.616 248.521 198.316C248.628 202.17 248.129 205.285 246.604 207.645C244.969 210.175 242.606 211.156 240.708 211.7C238.868 212.226 236.205 212.71 233.597 210.899C231.446 209.405 229.98 206.729 228.63 203.493C225.834 196.79 222.196 184.089 215.669 161.287C209.104 138.353 200.75 109.137 194.81 85.4295C191.844 73.5915 189.454 63.0266 188.196 55.2688C187.571 51.4193 187.195 48.0843 187.209 45.5722C187.216 44.3451 187.313 43.056 187.653 41.9235C187.947 40.9414 188.782 38.9338 191.066 38.28L191.273 38.2258Z" stroke="#201B38" stroke-width="7.49415"/>
<path d="M227.465 147.206C236.164 177.596 235.338 180.495 232.827 181.214C230.315 181.933 229.596 179.476 220.897 149.087C212.198 118.697 198.813 71.8829 201.325 71.1641C203.836 70.4452 218.766 116.817 227.465 147.206Z" fill="#FDCA81"/>
<g filter="url(#filter1_i_374_2415)">
<path d="M16.8853 155.64C3.74665 201.539 6.44028 206.332 12.6058 208.097C18.7713 209.862 19.872 206.155 33.0106 160.256C46.1493 114.357 66.3507 43.6473 60.1852 41.8824C54.0196 40.1175 30.024 109.741 16.8853 155.64Z" fill="url(#paint1_linear_374_2415)"/>
</g>
<path d="M61.0094 38.2258C58.8808 37.7165 57.2014 38.8526 56.4518 39.4668C55.542 40.2124 54.7302 41.218 54.019 42.2383C52.5667 44.3217 50.9671 47.3006 49.2813 50.851C45.8852 58.0034 41.8506 68.1028 37.6325 79.597C29.1857 102.615 19.8738 131.583 13.2826 154.609C6.72905 177.503 3.97411 190.616 3.76082 198.316C3.65408 202.17 4.15332 205.285 5.67856 207.645C7.31357 210.175 9.67613 211.156 11.5746 211.7C13.4141 212.226 16.0777 212.71 18.6847 210.899C20.836 209.405 22.3021 206.729 23.6518 203.493C26.4485 196.79 30.0861 184.089 36.6131 161.287C43.1781 138.353 51.5321 109.137 57.4722 85.4295C60.4383 73.5915 62.8277 63.0266 64.0864 55.2688C64.711 51.4193 65.0871 48.0843 65.0733 45.5722C65.0665 44.3451 64.9688 43.056 64.6296 41.9235C64.3355 40.9414 63.5004 38.9338 61.2163 38.28L61.0094 38.2258Z" stroke="#201B38" stroke-width="7.49415"/>
<path d="M24.9895 147.206C16.2904 177.596 17.1165 180.495 19.6279 181.214C22.1393 181.933 22.8587 179.476 31.5577 149.087C40.2568 118.697 53.6414 71.8829 51.13 71.1641C48.6186 70.4452 33.6885 116.817 24.9895 147.206Z" fill="#FDCA81"/>
<g filter="url(#filter2_d_374_2415)">
<path d="M205.413 16.4966C165.661 66.6421 92.6003 69.2178 55.3846 16.4966C48.6746 6.99096 46.5864 4.20551 46.5864 4.20551C46.5864 4.20551 23.0304 11.2234 24.0248 23.9663C25.307 40.3998 62.4937 77.7485 129.173 77.7485C195.852 77.7485 238.167 38.9058 238.167 23.9663C238.167 12.2978 214.316 2.91528 214.316 2.91528C214.316 2.91528 212.483 7.5781 205.413 16.4966Z" fill="url(#paint2_linear_374_2415)"/>
<path d="M205.413 16.4966C165.661 66.6421 92.6003 69.2178 55.3846 16.4966C48.6746 6.99096 46.5864 4.20551 46.5864 4.20551C46.5864 4.20551 23.0304 11.2234 24.0248 23.9663C25.307 40.3998 62.4937 77.7485 129.173 77.7485C195.852 77.7485 238.167 38.9058 238.167 23.9663C238.167 12.2978 214.316 2.91528 214.316 2.91528C214.316 2.91528 212.483 7.5781 205.413 16.4966Z" stroke="url(#paint3_linear_374_2415)" stroke-width="4.49649" stroke-miterlimit="3.4203"/>
</g>
<g filter="url(#filter3_i_374_2415)">
<path d="M205.868 13.2371C165.87 56.5446 92.3568 58.7691 54.9108 13.2371C48.1593 5.02772 46.585 2.91528 46.585 2.91528C46.585 2.91528 22.3563 8.683 23.3568 19.6883C24.647 33.8808 62.0639 66.1365 129.156 66.1365C196.248 66.1365 238.825 32.5905 238.825 19.6883C238.825 9.61094 214.311 2.91528 214.311 2.91528C214.311 2.91528 212.981 5.5348 205.868 13.2371Z" fill="url(#paint4_linear_374_2415)"/>
</g>
<path d="M205.868 13.2371C165.87 56.5446 92.3568 58.7691 54.9108 13.2371C48.1593 5.02772 46.585 2.91528 46.585 2.91528C46.585 2.91528 22.3563 8.683 23.3568 19.6883C24.647 33.8808 62.0639 66.1365 129.156 66.1365C196.248 66.1365 238.825 32.5905 238.825 19.6883C238.825 9.61094 214.311 2.91528 214.311 2.91528C214.311 2.91528 212.981 5.5348 205.868 13.2371Z" stroke="url(#paint5_linear_374_2415)" stroke-width="1.49883" stroke-miterlimit="3.4203"/>
<defs>
<filter id="filter0_i_374_2415" x="183.461" y="34.3462" width="68.821" height="181.58" filterUnits="userSpaceOnUse" color-interpolation-filters="sRGB">
<feFlood flood-opacity="0" result="BackgroundImageFix"/>
<feBlend mode="normal" in="SourceGraphic" in2="BackgroundImageFix" result="shape"/>
<feColorMatrix in="SourceAlpha" type="matrix" values="0 0 0 0 0 0 0 0 0 0 0 0 0 0 0 0 0 0 127 0" result="hardAlpha"/>
<feOffset dx="8.99297"/>
<feComposite in2="hardAlpha" operator="arithmetic" k2="-1" k3="1"/>
<feColorMatrix type="matrix" values="0 0 0 0 0.992157 0 0 0 0 0.752941 0 0 0 0 0.470588 0 0 0 0.49 0"/>
<feBlend mode="normal" in2="shape" result="effect1_innerShadow_374_2415"/>
</filter>
<filter id="filter1_i_374_2415" x="0" y="34.3462" width="68.8208" height="181.58" filterUnits="userSpaceOnUse" color-interpolation-filters="sRGB">
<feFlood flood-opacity="0" result="BackgroundImageFix"/>
<feBlend mode="normal" in="SourceGraphic" in2="BackgroundImageFix" result="shape"/>
<feColorMatrix in="SourceAlpha" type="matrix" values="0 0 0 0 0 0 0 0 0 0 0 0 0 0 0 0 0 0 127 0" result="hardAlpha"/>
<feOffset dx="-8.99297"/>
<feComposite in2="hardAlpha" operator="arithmetic" k2="-1" k3="1"/>
<feColorMatrix type="matrix" values="0 0 0 0 0.992157 0 0 0 0 0.752941 0 0 0 0 0.470588 0 0 0 0.49 0"/>
<feBlend mode="normal" in2="shape" result="effect1_innerShadow_374_2415"/>
</filter>
<filter id="filter2_d_374_2415" x="21.7456" y="0" width="218.67" height="84.4933" filterUnits="userSpaceOnUse" color-interpolation-filters="sRGB">
<feFlood flood-opacity="0" result="BackgroundImageFix"/>
<feColorMatrix in="SourceAlpha" type="matrix" values="0 0 0 0 0 0 0 0 0 0 0 0 0 0 0 0 0 0 127 0" result="hardAlpha"/>
<feOffset dy="4.49649"/>
<feComposite in2="hardAlpha" operator="out"/>
<feColorMatrix type="matrix" values="0 0 0 0 0.101961 0 0 0 0 0.0392157 0 0 0 0 0.192157 0 0 0 1 0"/>
<feBlend mode="normal" in2="BackgroundImageFix" result="effect1_dropShadow_374_2415"/>
<feBlend mode="normal" in="SourceGraphic" in2="effect1_dropShadow_374_2415" result="shape"/>
</filter>
<filter id="filter3_i_374_2415" x="22.5771" y="2.03149" width="216.997" height="64.8545" filterUnits="userSpaceOnUse" color-interpolation-filters="sRGB">
<feFlood flood-opacity="0" result="BackgroundImageFix"/>
<feBlend mode="normal" in="SourceGraphic" in2="BackgroundImageFix" result="shape"/>
<feColorMatrix in="SourceAlpha" type="matrix" values="0 0 0 0 0 0 0 0 0 0 0 0 0 0 0 0 0 0 127 0" result="hardAlpha"/>
<feOffset dy="5.99532"/>
<feComposite in2="hardAlpha" operator="arithmetic" k2="-1" k3="1"/>
<feColorMatrix type="matrix" values="0 0 0 0 0.203922 0 0 0 0 0.121569 0 0 0 0 0.313726 0 0 0 0.52 0"/>
<feBlend mode="normal" in2="shape" result="effect1_innerShadow_374_2415"/>
</filter>
<linearGradient id="paint0_linear_374_2415" x1="193.958" y1="41.3498" x2="241.537" y2="207.565" gradientUnits="userSpaceOnUse">
<stop offset="0.264423" stop-color="#6A3F62"/>
<stop offset="0.307692" stop-color="#C177A6"/>
<stop offset="0.793269" stop-color="#B16EA0"/>
<stop offset="0.903846" stop-color="#653F80"/>
</linearGradient>
<linearGradient id="paint1_linear_374_2415" x1="58.3245" y1="41.3498" x2="10.7452" y2="207.565" gradientUnits="userSpaceOnUse">
<stop offset="0.264423" stop-color="#6A3F62"/>
<stop offset="0.307692" stop-color="#C177A6"/>
<stop offset="0.793269" stop-color="#B16EA0"/>
<stop offset="0.903846" stop-color="#653F80"/>
</linearGradient>
<linearGradient id="paint2_linear_374_2415" x1="23.9891" y1="29.9422" x2="238.167" y2="29.9422" gradientUnits="userSpaceOnUse">
<stop stop-color="#2F1B41"/>
<stop offset="1" stop-color="#3B214B"/>
</linearGradient>
<linearGradient id="paint3_linear_374_2415" x1="45.2961" y1="66.1365" x2="256.894" y2="62.2658" gradientUnits="userSpaceOnUse">
<stop stop-color="#28163D"/>
<stop offset="0.504808" stop-color="#402442"/>
<stop offset="1" stop-color="#20113A"/>
</linearGradient>
<linearGradient id="paint4_linear_374_2415" x1="23.3267" y1="24.8492" x2="238.83" y2="24.8492" gradientUnits="userSpaceOnUse">
<stop stop-color="#502752"/>
<stop offset="1" stop-color="#6F3C5C"/>
</linearGradient>
<linearGradient id="paint5_linear_374_2415" x1="129.161" y1="30.0101" x2="129.161" y2="63.556" gradientUnits="userSpaceOnUse">
<stop offset="0.552885" stop-color="#351A47"/>
</linearGradient>
</defs>
</svg>
