<svg width="127" height="216" viewBox="0 0 127 216" fill="none" xmlns="http://www.w3.org/2000/svg">
<g filter="url(#filter0_gn_78_129)">
<g filter="url(#filter1_i_78_129)">
<path d="M123.6 157.703C123.6 181.839 96.5132 213 63.1 213C29.6867 213 2.59998 181.839 2.59998 157.703C2.59998 133.566 29.6867 114 63.1 114C96.5132 114 123.6 133.566 123.6 157.703Z" fill="url(#paint0_radial_78_129)"/>
</g>
<path d="M68.5059 146.352L35.8329 157.703L31.5722 156.811C15.3822 151.46 -4.21699 141.877 19.3048 126.242C41.4023 111.553 68.7936 113.126 79.7272 115.75L82.3167 126.242L68.5059 146.352Z" fill="#DEC562"/>
<path d="M21.3466 154.135L30.7198 158.595L63.9522 180.892C40.5972 177.649 15.3818 171.081 15.3818 167.514C15.3818 163.946 21.3466 154.135 21.3466 154.135Z" fill="#D4A567"/>
<path d="M39.2409 171.973L30.7198 157.703C77.7564 170.546 109.966 154.135 120.192 144.324C120.192 171.973 73.6095 179.703 63.9522 180.892C60.8278 180.595 51.5113 178.395 39.2409 171.973Z" fill="url(#paint1_linear_78_129)"/>
<path d="M39.2409 171.973L30.7198 157.703C77.7564 170.546 109.966 154.135 120.192 144.324C120.192 171.973 73.6095 179.703 63.9522 180.892C60.8278 180.595 51.5113 178.395 39.2409 171.973Z" fill="url(#paint2_linear_78_129)"/>
<path d="M122.748 166.622C74.3479 194.449 26.4591 178.216 8.56476 166.622C12.6549 183.746 22.1986 193.378 26.4591 196.054C31.5718 202.297 48.4436 214.07 75.0295 211.216C101.615 208.362 117.919 180.297 122.748 166.622Z" fill="#CFA962"/>
<path d="M115.931 167.514C73.3102 189.558 31.1395 176.699 15.3818 167.514C18.9835 181.08 27.3877 188.71 31.1395 190.83C35.6417 195.776 50.499 205.103 73.9105 202.842C97.322 200.581 111.679 178.348 115.931 167.514Z" fill="#E5CC8C"/>
</g>
<g opacity="0.55" style="mix-blend-mode:darken">
<path d="M96.2482 141.889C96.2482 135.248 64.2578 141.889 66.8516 45.8242C65.187 43.3947 60.2578 45.8242 59.0702 45.8242C53.6537 45.8242 43.7074 41.259 42.6427 47.5534C40.4783 60.3494 51.4717 90.9398 46.9657 106.347C40.1988 129.483 21.8922 138.082 21.8922 141.889C21.8922 149.477 38.5373 155.629 59.0702 155.629C79.603 155.629 96.2482 149.477 96.2482 141.889Z" fill="#6E4FB6"/>
</g>
<foreignObject x="1.09998" y="37.9573" width="125.196" height="178.236"><div xmlns="http://www.w3.org/1999/xhtml" style="backdrop-filter:blur(0.5px);clip-path:url(#bgblur_0_78_129_clip_path);height:100%;width:100%"></div></foreignObject><g filter="url(#filter2_ddi_78_129)" data-figma-bg-blur-radius="1">
<path d="M41.9491 41.4573H85.0426C85.0426 41.4573 76.94 80.8928 85.0426 103.795C92.5995 125.156 117.957 126.88 120.379 149.451C122.404 168.321 117.067 181.571 104.004 195.107C91.7337 207.822 80.1323 212.292 62.634 212.667C44.1997 213.063 31.1073 208.982 18.6786 195.107C5.96331 180.912 2.4903 166.623 5.75054 147.695C9.54916 125.642 34.1128 124.714 41.9491 103.795C50.4695 81.0507 41.9491 41.4573 41.9491 41.4573Z" fill="url(#paint3_linear_78_129)" fill-opacity="0.28" shape-rendering="crispEdges"/>
<path d="M41.9491 41.4573H85.0426C85.0426 41.4573 76.94 80.8928 85.0426 103.795C92.5995 125.156 117.957 126.88 120.379 149.451C122.404 168.321 117.067 181.571 104.004 195.107C91.7337 207.822 80.1323 212.292 62.634 212.667C44.1997 213.063 31.1073 208.982 18.6786 195.107C5.96331 180.912 2.4903 166.623 5.75054 147.695C9.54916 125.642 34.1128 124.714 41.9491 103.795C50.4695 81.0507 41.9491 41.4573 41.9491 41.4573Z" stroke="url(#paint4_linear_78_129)" stroke-width="5" shape-rendering="crispEdges"/>
</g>
<path d="M98.2968 36.0594C98.2968 45.9635 83.2376 48.6672 64.6611 48.6672C46.0846 48.6672 31.0254 46.8647 31.0254 36.0594C31.0254 27.9386 46.0846 28.8397 64.6611 28.8397C83.2376 28.8397 98.2968 27.0374 98.2968 36.0594Z" fill="url(#paint5_linear_78_129)"/>
<path d="M32.0444 35.1484C32.0444 32.2644 39.519 30.0414 42.237 29.741L44.2775 38.7534L56.5069 40.5559C42.2366 40.5559 32.0443 37.1989 32.0444 35.1484Z" fill="#C09FD5" stroke="url(#paint6_linear_78_129)" stroke-miterlimit="3.4203"/>
<path d="M46.5989 30.453C51.2386 30.047 57.642 30.1425 64.6605 30.1425C71.6788 30.1425 78.0824 30.0471 82.722 30.453C85.0375 30.6556 86.9663 30.9867 88.3284 31.5409C89.6832 32.0921 90.6418 32.9422 90.6419 34.2469C90.6419 35.4985 89.7498 36.5782 88.4173 37.4696C87.0664 38.3732 85.1445 39.1669 82.8148 39.826C78.1479 41.1465 71.7295 41.9569 64.6605 41.9569C57.5914 41.9569 51.173 41.1465 46.5062 39.826C44.1764 39.1668 42.2545 38.3732 40.9036 37.4696C39.5711 36.5782 38.679 35.4985 38.679 34.2469C38.6791 32.9421 39.6386 32.0921 40.9935 31.5409C42.3555 30.9868 44.2836 30.6556 46.5989 30.453Z" fill="url(#paint7_linear_78_129)" stroke="url(#paint8_linear_78_129)"/>
<path d="M42.2368 33.3462L39.179 9.0127C42.2368 12.6177 49.3717 16.2226 62.6221 16.2226C75.8725 16.2226 85.0459 12.6177 88.1037 9.0127L85.0459 33.3462C73.834 38.7536 53.4487 38.7536 42.2368 33.3462Z" fill="url(#paint9_linear_78_129)" stroke="url(#paint10_linear_78_129)" stroke-miterlimit="3.4203"/>
<ellipse cx="63.6413" cy="8.11117" rx="24.4623" ry="8.11117" fill="url(#paint11_linear_78_129)"/>
<ellipse cx="63.6417" cy="7.21006" rx="20.3853" ry="5.40744" fill="#280E32"/>
<ellipse cx="53.8824" cy="81.2729" rx="2.59381" ry="8.64605" fill="white" fill-opacity="0.78"/>
<path d="M56.4764 102.159C56.4764 113.694 37.3075 129.691 35.8194 129.691C34.3314 129.691 51.0876 113.694 51.0876 102.159C51.0876 90.624 52.2939 81.2729 53.782 81.2729C55.2701 81.2729 56.4764 90.624 56.4764 102.159Z" fill="white" fill-opacity="0.78"/>
<ellipse cx="37.2244" cy="146.321" rx="12.1979" ry="6.09893" transform="rotate(-78.4627 37.2244 146.321)" fill="white" fill-opacity="0.92"/>
<ellipse cx="45.6709" cy="122.262" rx="4.32155" ry="2.20875" transform="rotate(-78.4627 45.6709 122.262)" fill="white" fill-opacity="0.86"/>
<defs>
<filter id="filter0_gn_78_129" x="-2.43187e-05" y="111.4" width="126.2" height="104.2" filterUnits="userSpaceOnUse" color-interpolation-filters="sRGB">
<feFlood flood-opacity="0" result="BackgroundImageFix"/>
<feBlend mode="normal" in="SourceGraphic" in2="BackgroundImageFix" result="shape"/>
<feTurbulence type="fractalNoise" baseFrequency="0.99900001287460327 0.99900001287460327" numOctaves="3" seed="7522" />
<feDisplacementMap in="shape" scale="5.1999998092651367" xChannelSelector="R" yChannelSelector="G" result="displacedImage" width="100%" height="100%" />
<feMerge result="effect1_texture_78_129">
<feMergeNode in="displacedImage"/>
</feMerge>
<feTurbulence type="fractalNoise" baseFrequency="2 2" stitchTiles="stitch" numOctaves="3" result="noise" seed="4481" />
<feColorMatrix in="noise" type="luminanceToAlpha" result="alphaNoise" />
<feComponentTransfer in="alphaNoise" result="coloredNoise1">
<feFuncA type="discrete" tableValues="1 1 1 1 1 1 1 1 1 1 1 1 1 1 1 1 1 1 1 1 1 1 1 1 1 1 1 1 1 1 1 1 1 1 1 1 1 1 1 1 1 1 1 1 1 1 1 1 1 1 1 0 0 0 0 0 0 0 0 0 0 0 0 0 0 0 0 0 0 0 0 0 0 0 0 0 0 0 0 0 0 0 0 0 0 0 0 0 0 0 0 0 0 0 0 0 0 0 0 0 "/>
</feComponentTransfer>
<feComposite operator="in" in2="effect1_texture_78_129" in="coloredNoise1" result="noise1Clipped" />
<feComponentTransfer in="alphaNoise" result="coloredNoise2">
<feFuncA type="discrete" tableValues="0 0 0 0 0 0 0 0 0 0 0 0 0 0 0 0 0 0 0 0 0 0 0 0 0 0 0 0 0 0 0 0 0 0 0 0 0 0 0 0 0 0 0 0 0 0 0 0 0 1 1 1 1 1 1 1 1 1 1 1 1 1 1 1 1 1 1 1 1 1 1 1 1 1 1 1 1 1 1 1 1 1 1 1 1 1 1 1 1 1 1 1 1 1 1 1 1 1 1 1 "/>
</feComponentTransfer>
<feComposite operator="in" in2="effect1_texture_78_129" in="coloredNoise2" result="noise2Clipped" />
<feFlood flood-color="rgba(255, 255, 255, 0.2)" result="color1Flood" />
<feComposite operator="in" in2="noise1Clipped" in="color1Flood" result="color1" />
<feFlood flood-color="rgba(214, 67, 255, 0.04)" result="color2Flood" />
<feComposite operator="in" in2="noise2Clipped" in="color2Flood" result="color2" />
<feMerge result="effect2_noise_78_129">
<feMergeNode in="effect1_texture_78_129" />
<feMergeNode in="color1" />
<feMergeNode in="color2" />
</feMerge>
</filter>
<filter id="filter1_i_78_129" x="2.59998" y="114" width="121" height="99" filterUnits="userSpaceOnUse" color-interpolation-filters="sRGB">
<feFlood flood-opacity="0" result="BackgroundImageFix"/>
<feBlend mode="normal" in="SourceGraphic" in2="BackgroundImageFix" result="shape"/>
<feColorMatrix in="SourceAlpha" type="matrix" values="0 0 0 0 0 0 0 0 0 0 0 0 0 0 0 0 0 0 127 0" result="hardAlpha"/>
<feOffset dx="2" dy="-1"/>
<feComposite in2="hardAlpha" operator="arithmetic" k2="-1" k3="1"/>
<feColorMatrix type="matrix" values="0 0 0 0 0 0 0 0 0 0 0 0 0 0 0 0 0 0 0.2 0"/>
<feBlend mode="normal" in2="shape" result="effect1_innerShadow_78_129"/>
</filter>
<filter id="filter2_ddi_78_129" x="1.09998" y="37.9573" width="125.196" height="178.236" filterUnits="userSpaceOnUse" color-interpolation-filters="sRGB">
<feFlood flood-opacity="0" result="BackgroundImageFix"/>
<feColorMatrix in="SourceAlpha" type="matrix" values="0 0 0 0 0 0 0 0 0 0 0 0 0 0 0 0 0 0 127 0" result="hardAlpha"/>
<feOffset dx="-1" dy="-1"/>
<feComposite in2="hardAlpha" operator="out"/>
<feColorMatrix type="matrix" values="0 0 0 0 0.968627 0 0 0 0 0.886275 0 0 0 0 0.858824 0 0 0 1 0"/>
<feBlend mode="normal" in2="BackgroundImageFix" result="effect1_dropShadow_78_129"/>
<feColorMatrix in="SourceAlpha" type="matrix" values="0 0 0 0 0 0 0 0 0 0 0 0 0 0 0 0 0 0 127 0" result="hardAlpha"/>
<feOffset dx="3"/>
<feComposite in2="hardAlpha" operator="out"/>
<feColorMatrix type="matrix" values="0 0 0 0 0.996078 0 0 0 0 0.956863 0 0 0 0 0.870588 0 0 0 1 0"/>
<feBlend mode="normal" in2="effect1_dropShadow_78_129" result="effect2_dropShadow_78_129"/>
<feBlend mode="normal" in="SourceGraphic" in2="effect2_dropShadow_78_129" result="shape"/>
<feColorMatrix in="SourceAlpha" type="matrix" values="0 0 0 0 0 0 0 0 0 0 0 0 0 0 0 0 0 0 127 0" result="hardAlpha"/>
<feOffset dx="-7" dy="6"/>
<feComposite in2="hardAlpha" operator="arithmetic" k2="-1" k3="1"/>
<feColorMatrix type="matrix" values="0 0 0 0 0.996078 0 0 0 0 0.878431 0 0 0 0 0.807843 0 0 0 0.25 0"/>
<feBlend mode="normal" in2="shape" result="effect3_innerShadow_78_129"/>
</filter>
<clipPath id="bgblur_0_78_129_clip_path" transform="translate(-1.09998 -37.9573)"><path d="M41.9491 41.4573H85.0426C85.0426 41.4573 76.94 80.8928 85.0426 103.795C92.5995 125.156 117.957 126.88 120.379 149.451C122.404 168.321 117.067 181.571 104.004 195.107C91.7337 207.822 80.1323 212.292 62.634 212.667C44.1997 213.063 31.1073 208.982 18.6786 195.107C5.96331 180.912 2.4903 166.623 5.75054 147.695C9.54916 125.642 34.1128 124.714 41.9491 103.795C50.4695 81.0507 41.9491 41.4573 41.9491 41.4573Z"/>
</clipPath><radialGradient id="paint0_radial_78_129" cx="0" cy="0" r="1" gradientTransform="matrix(70.7254 -0.891892 0.337789 29.3453 65.6563 137.189)" gradientUnits="userSpaceOnUse">
<stop offset="0.807692" stop-color="#F4D0B8"/>
<stop offset="0.807792" stop-color="#B98B4F"/>
</radialGradient>
<linearGradient id="paint1_linear_78_129" x1="75.4557" y1="144.324" x2="75.4557" y2="180.892" gradientUnits="userSpaceOnUse">
<stop stop-color="#BD863E"/>
<stop offset="1" stop-color="#F5C06B"/>
</linearGradient>
<linearGradient id="paint2_linear_78_129" x1="26.4592" y1="166.622" x2="120.246" y2="159.29" gradientUnits="userSpaceOnUse">
<stop stop-color="#BD9D35"/>
<stop offset="0.490385" stop-color="white" stop-opacity="0"/>
<stop offset="1" stop-color="#DDB357"/>
</linearGradient>
<linearGradient id="paint3_linear_78_129" x1="97.9706" y1="60.7732" x2="26.8663" y2="60.7732" gradientUnits="userSpaceOnUse">
<stop stop-color="#FEE5CF"/>
<stop offset="1" stop-color="#4D3770"/>
</linearGradient>
<linearGradient id="paint4_linear_78_129" x1="42.9838" y1="210.864" x2="44.8851" y2="49.5443" gradientUnits="userSpaceOnUse">
<stop stop-color="#987EAE"/>
<stop offset="0.1875" stop-color="#CF8BAA"/>
<stop offset="0.763657" stop-color="#F7BCBA"/>
<stop offset="1" stop-color="#BEA0CF"/>
</linearGradient>
<linearGradient id="paint5_linear_78_129" x1="96.9514" y1="34.8587" x2="29.68" y2="34.8587" gradientUnits="userSpaceOnUse">
<stop stop-color="#FEEBD5"/>
<stop offset="0.225962" stop-color="#FED1AB"/>
<stop offset="0.408654" stop-color="#FCCBAE"/>
<stop offset="0.548077" stop-color="#E69881"/>
<stop offset="0.75" stop-color="#936597"/>
<stop offset="1" stop-color="#835F9C"/>
</linearGradient>
<linearGradient id="paint6_linear_78_129" x1="55.997" y1="39.5196" x2="37.6503" y2="39.5196" gradientUnits="userSpaceOnUse">
<stop offset="0.350962" stop-color="#EFD3DE"/>
<stop offset="0.846154" stop-color="#DABCE6"/>
</linearGradient>
<linearGradient id="paint7_linear_78_129" x1="89.1229" y1="33.4461" x2="38.1598" y2="33.4461" gradientUnits="userSpaceOnUse">
<stop stop-color="#FBCAA1"/>
<stop offset="0.5" stop-color="#6E4158"/>
<stop offset="1" stop-color="#351C48"/>
</linearGradient>
<linearGradient id="paint8_linear_78_129" x1="39.179" y1="36.0449" x2="90.1422" y2="36.0449" gradientUnits="userSpaceOnUse">
<stop stop-color="#D6BAD3"/>
<stop offset="0.9999" stop-color="#FEFDFE"/>
</linearGradient>
<linearGradient id="paint9_linear_78_129" x1="86.0651" y1="22.5313" x2="41.2175" y2="22.5313" gradientUnits="userSpaceOnUse">
<stop offset="0.461538" stop-color="#682D49"/>
<stop offset="0.552885" stop-color="#461F55"/>
<stop offset="0.591346" stop-color="#371B4C"/>
</linearGradient>
<linearGradient id="paint10_linear_78_129" x1="79.9496" y1="28.84" x2="47.3331" y2="28.84" gradientUnits="userSpaceOnUse">
<stop stop-color="#451D33"/>
<stop offset="1" stop-color="#331842"/>
</linearGradient>
<linearGradient id="paint11_linear_78_129" x1="39.179" y1="8.11117" x2="88.1037" y2="8.11117" gradientUnits="userSpaceOnUse">
<stop stop-color="#BE6F85"/>
<stop offset="0.504808" stop-color="#E48E81"/>
<stop offset="1" stop-color="#E79E88"/>
</linearGradient>
</defs>
</svg>
