<svg width="1053" height="1163" viewBox="0 0 1053 1163" fill="none" xmlns="http://www.w3.org/2000/svg">
<path d="M144.426 -58.2332C189.445 -23.5193 348.026 294.01 374.541 470.642C486.734 522.883 599.858 598.128 650.436 486.808C711.044 353.411 796.393 75.3469 898.497 -58.2332C597.355 -58.4034 235.681 -58.2332 144.426 -58.2332Z" fill="#2E203C" stroke="#2E203C" stroke-width="1.38871"/>
<path d="M967.56 -63.1692L968.02 -58.8196C984.186 94.0616 1006.87 462.229 967.989 711.051C948.329 836.874 866.552 932.127 775.374 999.941C684.182 1067.77 583.056 1108.56 523.477 1125.39L520.703 1116.07C596.557 1092.31 641.178 1040.85 663.414 985.579C685.729 930.112 685.393 871.06 671.52 832.701L669.875 828.153L674.415 826.486C704.021 815.609 724.066 801.147 737.171 785.098C750.262 769.067 756.635 751.202 758.517 733.163C762.303 696.88 747.89 659.919 733.247 636.963L731.108 633.61L733.971 630.85C759.072 606.648 771.578 581.884 775.56 557.814C779.55 533.699 775.055 509.843 765.415 487.399C746.069 442.358 706.306 403.743 675.424 382.009L672.961 380.275L673.417 377.299L692.415 253.182L692.455 252.919L692.523 252.662L732.649 102.611L732.982 101.366L733.888 100.45L894.215 -61.7258L895.641 -63.1692H967.56Z" fill="#231C30" stroke="url(#paint0_linear_368_2108)" stroke-width="9.72099"/>
<path d="M81.1528 734.823C119.943 990.727 401.885 1123.3 522.232 1158.2C366.718 1106.8 339.694 941.014 368.349 859.336C247.289 813.49 277.057 705.011 307.073 656.502C204.059 554.113 303.58 437.634 366.217 392.193L347.213 264.206L307.073 109.476L146.691 -57.7578H81.1528C64.9902 99.8089 42.3627 478.918 81.1528 734.823Z" fill="#231C30" stroke="url(#paint1_linear_368_2108)" stroke-width="9.72099"/>
<path d="M101.656 -91.6276C177.426 -93.8489 372.62 272.799 460.745 456.401L0 41.3014C2.31441 -2.08274 25.8858 -89.4064 101.656 -91.6276Z" fill="#231C30"/>
<path d="M950.681 -91.6279C874.91 -93.8492 679.717 272.799 591.591 456.401L1052.34 41.3012C1050.02 -2.08298 1026.45 -89.4066 950.681 -91.6279Z" fill="#231C30"/>
<g filter="url(#filter0_i_368_2108)">
<path d="M76.5607 9.22644C139.982 -82.9772 307.324 212.524 357.68 332.764C387.018 318.979 420.439 318.099 319.42 424.856C218.401 531.613 265.232 627.806 296.267 661.515C234.92 780.643 313.837 848.131 352.918 864.465C334.363 915.376 363.756 1022.7 380.833 1069.33C22.0445 940.918 2.33992 117.13 76.5607 9.22644Z" fill="#30254C"/>
</g>
<g filter="url(#filter1_i_368_2108)">
<path d="M973.714 27.8772C908.51 -60.1678 736.464 222.005 684.692 336.822C654.529 323.659 620.168 322.819 724.027 424.761C827.886 526.703 779.738 618.557 747.831 650.745C810.903 764.501 729.767 828.945 689.588 844.542C708.664 893.156 678.445 995.641 660.888 1040.16C1029.76 917.547 1050.02 130.914 973.714 27.8772Z" fill="#30254C"/>
</g>
<g filter="url(#filter2_d_368_2108)">
<path d="M582.514 834.197C538.168 862.03 492.08 863.071 448.407 834.197C395.973 799.529 448.521 725.765 406.727 678.835C369.129 636.616 274.965 618.738 274.965 618.738L299.983 490.816L274.965 290.489L286.545 69.9686C286.545 69.9686 396.877 136.56 432.743 221.079C462.337 290.818 479.064 403.279 479.064 403.279C502.947 393.88 518.146 393.88 544.201 403.279C544.201 403.279 561.587 292.457 595.588 221.079C632.331 143.944 740.338 56.9543 740.338 56.9543V290.489L727.279 490.816L770.736 618.738C770.736 618.738 672.053 635.629 631.67 678.835C588.2 725.344 636.447 800.345 582.514 834.197Z" fill="#4B2F53"/>
<path d="M582.514 834.197C538.168 862.03 492.08 863.071 448.407 834.197C395.973 799.529 448.521 725.765 406.727 678.835C369.129 636.616 274.965 618.738 274.965 618.738L299.983 490.816L274.965 290.489L286.545 69.9686C286.545 69.9686 396.877 136.56 432.743 221.079C462.337 290.818 479.064 403.279 479.064 403.279C502.947 393.88 518.146 393.88 544.201 403.279C544.201 403.279 561.587 292.457 595.588 221.079C632.331 143.944 740.338 56.9543 740.338 56.9543V290.489L727.279 490.816L770.736 618.738C770.736 618.738 672.053 635.629 631.67 678.835C588.2 725.344 636.447 800.345 582.514 834.197Z" stroke="url(#paint2_linear_368_2108)" stroke-width="9.72099"/>
</g>
<path d="M563.817 783.251H470.774L516.288 829.078L563.817 783.251Z" fill="#AEA8D3"/>
<path d="M403.871 537.593C448.752 534.284 458.826 588.889 458.253 616.605C447.577 613.631 420.723 607.463 398.713 606.593C371.199 605.504 361.527 563.277 366.471 550.87C370.426 540.945 393.052 537.883 403.871 537.593Z" fill="white"/>
<path d="M403.871 537.593C448.752 534.284 458.826 588.889 458.253 616.605C447.577 613.631 420.723 607.463 398.713 606.593C371.199 605.504 361.527 563.277 366.471 550.87C370.426 540.945 393.052 537.883 403.871 537.593Z" fill="white"/>
<path d="M403.871 537.593C448.752 534.284 458.826 588.889 458.253 616.605C447.577 613.631 420.723 607.463 398.713 606.593C371.199 605.504 361.527 563.277 366.471 550.87C370.426 540.945 393.052 537.883 403.871 537.593Z" fill="white"/>
<path d="M641.018 537.593C596.807 534.284 586.883 588.889 587.448 616.605C597.964 613.631 624.417 607.463 646.099 606.593C673.202 605.504 682.73 563.277 677.86 550.87C673.964 540.945 651.675 537.883 641.018 537.593Z" fill="white"/>
<path d="M641.018 537.593C596.807 534.284 586.883 588.889 587.448 616.605C597.964 613.631 624.417 607.463 646.099 606.593C673.202 605.504 682.73 563.277 677.86 550.87C673.964 540.945 651.675 537.883 641.018 537.593Z" fill="white"/>
<path d="M641.018 537.593C596.807 534.284 586.883 588.889 587.448 616.605C597.964 613.631 624.417 607.463 646.099 606.593C673.202 605.504 682.73 563.277 677.86 550.87C673.964 540.945 651.675 537.883 641.018 537.593Z" fill="white"/>
<defs>
<filter id="filter0_i_368_2108" x="41.6616" y="-8.31519" width="345.789" height="1077.64" filterUnits="userSpaceOnUse" color-interpolation-filters="sRGB">
<feFlood flood-opacity="0" result="BackgroundImageFix"/>
<feBlend mode="normal" in="SourceGraphic" in2="BackgroundImageFix" result="shape"/>
<feColorMatrix in="SourceAlpha" type="matrix" values="0 0 0 0 0 0 0 0 0 0 0 0 0 0 0 0 0 0 127 0" result="hardAlpha"/>
<feOffset dx="-30.5517" dy="20.8307"/>
<feComposite in2="hardAlpha" operator="arithmetic" k2="-1" k3="1"/>
<feColorMatrix type="matrix" values="0 0 0 0 0.160784 0 0 0 0 0.0823529 0 0 0 0 0.317647 0 0 0 0.25 0"/>
<feBlend mode="normal" in2="shape" result="effect1_innerShadow_368_2108"/>
</filter>
<filter id="filter1_i_368_2108" x="654.084" y="11.1267" width="355.51" height="1029.04" filterUnits="userSpaceOnUse" color-interpolation-filters="sRGB">
<feFlood flood-opacity="0" result="BackgroundImageFix"/>
<feBlend mode="normal" in="SourceGraphic" in2="BackgroundImageFix" result="shape"/>
<feColorMatrix in="SourceAlpha" type="matrix" values="0 0 0 0 0 0 0 0 0 0 0 0 0 0 0 0 0 0 127 0" result="hardAlpha"/>
<feOffset dx="30.5517" dy="9.72099"/>
<feComposite in2="hardAlpha" operator="arithmetic" k2="-1" k3="1"/>
<feColorMatrix type="matrix" values="0 0 0 0 0.161705 0 0 0 0 0.0839035 0 0 0 0 0.317308 0 0 0 0.25 0"/>
<feBlend mode="normal" in2="shape" result="effect1_innerShadow_368_2108"/>
</filter>
<filter id="filter2_d_368_2108" x="269.257" y="2.36003" width="507.913" height="857.964" filterUnits="userSpaceOnUse" color-interpolation-filters="sRGB">
<feFlood flood-opacity="0" result="BackgroundImageFix"/>
<feColorMatrix in="SourceAlpha" type="matrix" values="0 0 0 0 0 0 0 0 0 0 0 0 0 0 0 0 0 0 127 0" result="hardAlpha"/>
<feOffset dy="-44.4388"/>
<feComposite in2="hardAlpha" operator="out"/>
<feColorMatrix type="matrix" values="0 0 0 0 0 0 0 0 0 0 0 0 0 0 0 0 0 0 0.25 0"/>
<feBlend mode="normal" in2="BackgroundImageFix" result="effect1_dropShadow_368_2108"/>
<feBlend mode="normal" in="SourceGraphic" in2="effect1_dropShadow_368_2108" result="shape"/>
</filter>
<linearGradient id="paint0_linear_368_2108" x1="754.071" y1="988.78" x2="855.508" y2="639.916" gradientUnits="userSpaceOnUse">
<stop stop-color="#D961F5"/>
<stop offset="1" stop-color="#231C30"/>
</linearGradient>
<linearGradient id="paint1_linear_368_2108" x1="174.978" y1="604.107" x2="376.341" y2="1076.96" gradientUnits="userSpaceOnUse">
<stop stop-color="#231C30"/>
<stop offset="1" stop-color="#D961F5"/>
</linearGradient>
<linearGradient id="paint2_linear_368_2108" x1="504.797" y1="97.9214" x2="499.242" y2="663.822" gradientUnits="userSpaceOnUse">
<stop stop-color="#DE7FEF"/>
<stop offset="1" stop-color="#7F4989"/>
</linearGradient>
</defs>
</svg>
