<svg width="653" height="471" viewBox="0 0 653 471" fill="none" xmlns="http://www.w3.org/2000/svg">
<path d="M568.01 203.04L560.456 203.04L540.01 228.5L553.51 242.5L568.01 242.5L568.01 203.04Z" fill="#B837B9"/>
<path d="M101.385 204.5L109 204.5L129 230L115 244L101.385 244.059L101.385 204.5Z" fill="#B837B9"/>
<ellipse opacity="0.99" cx="9.88894" cy="17.6855" rx="9.88894" ry="17.6855" transform="matrix(0.955665 0.294457 -0.267188 0.963644 315.46 235)" fill="#B636B7"/>
<ellipse opacity="0.99" cx="9.88894" cy="17.6855" rx="9.88894" ry="17.6855" transform="matrix(-0.955665 0.294457 0.267188 0.963644 366.91 235)" fill="#B636B7"/>
<foreignObject x="37.1213" y="118.8" width="594.158" height="279.011"><div xmlns="http://www.w3.org/1999/xhtml" style="backdrop-filter:blur(2.85px);clip-path:url(#bgblur_0_102_298_clip_path);height:100%;width:100%"></div></foreignObject><g filter="url(#filter0_di_102_298)" data-figma-bg-blur-radius="5.7">
<path d="M496.972 297.948L520.53 366.868L442.083 324.013L441.919 323.974C399.347 321.135 365.175 284.104 359.869 237.119L322.019 237.67C318.047 288.699 280.024 328.801 233.429 329.018C231.848 329.12 230.503 328.957 228.831 328.716L149.977 368.811L172.919 300.779L57.3884 301.31L129.366 230.107L49.1214 128.558L174.141 128.861L208.591 128.78L211.517 128.841C213.917 128.935 216.28 129.182 218.716 129.124C223.642 129.505 228.805 129.62 233.677 129.505C276.944 129.453 312.593 163.942 320.591 209.804L360.35 209.23C366.808 161.534 403.499 124.814 447.783 124.846C448.474 124.852 449.202 124.705 449.692 124.823C453.473 124.928 457.037 124.498 460.818 124.603L462.4 124.5L493.43 125.689L494.248 125.886L619.28 129.733L539.987 228.468L612.586 302.105L496.881 297.604L496.972 297.948Z" fill="#B700FF" fill-opacity="0.4" shape-rendering="crispEdges"/>
</g>
<path d="M498.03 364.773L491.052 361.448L492.946 407.607L507.529 414.773L498.03 364.773Z" fill="url(#paint0_linear_102_298)"/>
<path d="M493.248 407.787L480.529 415.273L485.029 365.773L491.169 361.456L493.248 407.787Z" fill="url(#paint1_linear_102_298)"/>
<path d="M492.705 369.491L492.329 379.669C492.586 377.419 493.939 374.447 497.292 380.561C498.899 383.492 499.729 386.182 500.11 388.382C498.736 393.626 500.338 394.981 500.182 393.503C500.407 392.584 500.524 390.771 500.11 388.382C500.417 387.211 500.873 385.845 501.53 384.273L499.53 373.773L498.53 367.773L494.555 365.361L492.705 369.491Z" fill="url(#paint2_linear_102_298)"/>
<path d="M493.99 407.835L492.618 377.138L494.959 375.024L497.874 378.332L501.53 383.773L504.53 400.273L505.779 406.773C499.67 407.96 503.418 412.325 505.779 414.558L493.99 407.835Z" fill="url(#paint3_linear_102_298)"/>
<path d="M502.161 398.451C503.161 398.516 502.83 395.872 503.53 393.273L502.53 388.273C502.119 388.152 501.53 387.904 499.53 387.773C497.529 387.642 498.263 391.111 497.759 393.912C498.81 395.397 501.161 398.385 502.161 398.451Z" fill="url(#paint4_linear_102_298)"/>
<path d="M492.118 368.886L495.276 363.991L498.03 364.773L498.03 370.773L497.53 377.273C494.842 378.325 495.03 374.273 495.03 373.273C495.029 365.685 493.802 371.83 491.888 372.272C490.357 372.625 491.404 370.162 492.118 368.886Z" fill="url(#paint5_linear_102_298)"/>
<path d="M498.086 369.773C491.339 361.85 493.578 365.864 493.093 368.383L492.175 368.04L492.577 362.115L498.086 364.84C498.03 366.273 498.101 369.547 498.086 369.773Z" fill="#492195"/>
<path d="M490.197 379.138C491.939 383.064 492.667 382.136 492.975 381.129L491.571 369.417C487.012 369.68 484.529 371.355 484.529 377.773C484.529 379.773 486.751 382.369 487.547 381.207C487.705 378.881 488.456 375.212 490.197 379.138Z" fill="url(#paint6_linear_102_298)"/>
<path d="M484.03 376.773L485.029 365.773L491.169 361.456L491.279 362.741L491.808 370.566C487.383 369.143 486.523 372.172 486.03 373.273C485.056 380.238 484.702 377.667 484.03 376.773Z" fill="#672DC2"/>
<path d="M494.227 408.984L494.842 424.045L504.263 414.742L494.227 408.984Z" fill="url(#paint7_linear_102_298)"/>
<path d="M492.469 409.152L494.842 424.045L483.629 415.376L492.469 409.152Z" fill="url(#paint8_linear_102_298)"/>
<path d="M494.842 424.045C494.878 423.385 494.907 422.727 494.929 422.07C495.081 417.608 494.916 413.197 494.433 408.837L494.093 405.901L491.289 407.725C489.993 408.56 488.716 409.42 487.46 410.304C485.77 411.495 484.116 412.729 482.498 414.008L480.616 415.185L482.376 416.719C485.746 419.021 489.282 421.145 492.984 423.091C493.599 423.414 494.218 423.731 494.842 424.045C494.401 423.535 493.956 423.03 493.507 422.531C490.798 419.519 487.923 416.686 484.882 414.032L484.76 416.743C486.524 415.642 488.251 414.496 489.942 413.306C491.198 412.421 492.434 411.513 493.649 410.579L490.505 409.467C491.401 413.761 492.614 418.004 494.145 422.196C494.37 422.813 494.602 423.429 494.842 424.045Z" fill="url(#paint9_linear_102_298)"/>
<path d="M495.299 424.046C495.144 424.16 494.951 424.218 494.757 424.2C494.564 424.182 494.386 424.091 494.262 423.946C494.138 423.8 494.076 423.61 494.089 423.416C494.103 423.222 494.19 423.041 494.327 422.906C494.327 422.906 494.327 422.906 494.327 422.906C495.141 422.104 495.957 421.304 496.776 420.508C499.171 418.18 501.59 415.878 504.032 413.603L504.291 416.125C500.461 414.258 496.66 412.34 492.887 410.371L491.949 409.882L491.882 408.761C491.724 406.112 491.588 403.463 491.475 400.812C491.467 400.621 491.459 400.429 491.451 400.238C491.052 390.193 490.977 380.139 491.228 370.07C491.256 368.929 491.289 367.789 491.325 366.649C491.332 366.456 491.405 366.269 491.539 366.128C491.672 365.986 491.854 365.902 492.045 365.894C492.237 365.886 492.425 365.954 492.569 366.083C492.714 366.213 492.802 366.393 492.824 366.584C492.824 366.584 492.824 366.584 492.824 366.584C492.954 367.717 493.08 368.85 493.201 369.984C494.275 379.996 495.024 390.021 495.447 400.061C495.456 400.249 495.464 400.441 495.472 400.633C495.585 403.283 495.676 405.934 495.744 408.587L494.739 406.976C498.443 409.073 502.119 411.222 505.767 413.421L507.738 414.605L506.025 415.943C503.392 417.993 500.735 420.015 498.055 422.01C497.139 422.692 496.22 423.371 495.299 424.046Z" fill="url(#paint10_linear_102_298)"/>
<path d="M486.623 414.504C486.177 414.194 485.626 414.062 485.08 414.151C484.536 414.239 484.042 414.541 483.717 414.977C483.393 415.413 483.267 415.944 483.377 416.439C483.487 416.935 483.824 417.355 484.304 417.621C484.304 417.621 484.304 417.621 484.304 417.621C484.65 417.812 484.996 418.004 485.343 418.195C487.854 419.584 490.366 420.973 492.877 422.362L495.116 423.891L495.293 421.258C495.124 417.344 494.955 413.431 494.785 409.518C494.77 409.154 494.754 408.79 494.738 408.426C494.214 408.408 493.69 408.39 493.166 408.373C493.138 408.735 493.11 409.098 493.082 409.46C492.782 413.358 492.482 417.255 492.182 421.153L494.599 420.049C492.262 418.425 489.926 416.801 487.59 415.176C487.268 414.952 486.946 414.728 486.623 414.504Z" fill="#FEEBFE"/>
<path d="M501.165 414.182C501.574 413.828 502.106 413.642 502.657 413.678C503.208 413.713 503.731 413.967 504.101 414.371C504.472 414.775 504.655 415.293 504.599 415.798C504.544 416.303 504.255 416.755 503.806 417.065C503.806 417.065 503.806 417.065 503.806 417.065C503.492 417.283 503.178 417.501 502.864 417.719C500.674 419.237 498.484 420.756 496.295 422.274L494.148 424.096L493.742 421.361C493.604 417.447 493.466 413.533 493.328 409.62C493.315 409.265 493.303 408.91 493.29 408.555C493.81 408.499 494.329 408.442 494.849 408.386C494.905 408.736 494.961 409.086 495.017 409.437C495.632 413.299 496.248 417.161 496.864 421.023L494.311 420.109C496.309 418.381 498.307 416.654 500.305 414.926C500.592 414.678 500.879 414.43 501.165 414.182Z" fill="#FEEBFE"/>
<path d="M492.813 405.862C493.531 406.984 494.249 408.106 494.967 409.228C494.829 409.277 494.691 409.326 494.552 409.375C492.063 410.259 489.574 411.143 487.084 412.027C486.946 412.076 486.808 412.125 486.669 412.174C486.772 412.069 486.874 411.963 486.977 411.858C488.82 409.965 490.663 408.071 492.506 406.178C492.609 406.073 492.711 405.968 492.813 405.862Z" fill="#FEEBFE"/>
<path d="M485.353 380.349C485.779 382.112 489.434 383.891 490.074 383.323C490.714 382.755 490.621 380.533 489.387 380.239C488.62 380.056 487.657 380.954 487.657 380.954C486.009 380.657 485.107 379.329 485.353 380.349Z" fill="url(#paint11_linear_102_298)"/>
<ellipse cx="492" cy="366.5" rx="2" ry="2.5" fill="black"/>
<g filter="url(#filter1_i_102_298)">
<ellipse cx="492" cy="350" rx="2" ry="7" fill="url(#paint12_linear_102_298)"/>
</g>
<path d="M492 342.5C492.53 342.5 492.923 342.872 493.192 343.271C493.473 343.686 493.707 344.255 493.895 344.913C494.272 346.236 494.5 348.034 494.5 350C494.5 351.966 494.272 353.764 493.895 355.087C493.707 355.745 493.473 356.314 493.192 356.729C492.923 357.128 492.53 357.5 492 357.5C491.47 357.5 491.077 357.128 490.808 356.729C490.527 356.314 490.293 355.745 490.105 355.087C489.728 353.764 489.5 351.966 489.5 350C489.5 348.034 489.728 346.236 490.105 344.913C490.293 344.255 490.527 343.686 490.808 343.271C491.077 342.872 491.47 342.5 492 342.5Z" stroke="url(#paint13_linear_102_298)"/>
<g filter="url(#filter2_i_102_298)">
<ellipse cx="492" cy="360" rx="2" ry="7" fill="url(#paint14_linear_102_298)"/>
</g>
<path d="M492 352.5C492.53 352.5 492.923 352.872 493.192 353.271C493.473 353.686 493.707 354.255 493.895 354.913C494.272 356.236 494.5 358.034 494.5 360C494.5 361.966 494.272 363.764 493.895 365.087C493.707 365.745 493.473 366.314 493.192 366.729C492.923 367.128 492.53 367.5 492 367.5C491.47 367.5 491.077 367.128 490.808 366.729C490.527 366.314 490.293 365.745 490.105 365.087C489.728 363.764 489.5 361.966 489.5 360C489.5 358.034 489.728 356.236 490.105 354.913C490.293 354.255 490.527 353.686 490.808 353.271C491.077 352.872 491.47 352.5 492 352.5Z" stroke="url(#paint15_linear_102_298)"/>
<g filter="url(#filter3_ii_102_298)">
<circle cx="492.5" cy="338.5" r="8.5" fill="url(#paint16_linear_102_298)"/>
</g>
<circle cx="492.5" cy="338.5" r="8" stroke="url(#paint17_linear_102_298)"/>
<path d="M492.545 338.672C491.989 338.672 491.166 338.774 490.924 338.997C490.706 339.197 490.755 339.598 490.81 339.975C490.86 340.317 491.201 340.56 491.554 340.767C491.768 340.892 492.165 340.837 492.41 340.769C493.141 340.566 493.55 340.014 493.85 339.448C494.235 338.72 493.517 338.09 492.995 337.471C492.752 337.183 492.361 337.091 492.007 337.023C491.689 336.961 491.316 337.021 490.944 337.244C490.365 337.59 490.197 338.325 490.065 338.979C489.995 339.319 489.971 339.667 490.045 339.975C490.119 340.284 490.604 340.457 490.994 340.715C491.394 340.978 492.13 341.043 492.913 340.975C493.514 340.46 493.812 339.775 493.907 338.761C493.925 338.536 493.962 338.4 494 338.259" stroke="#D0D0D0" stroke-width="2" stroke-linecap="round"/>
<path d="M489.586 334.843C489.42 334.917 489.198 335.176 489.03 335.5C488.833 335.883 488.955 336.436 489.168 336.797C489.429 337.241 489.9 337.16 490.437 337.17C490.661 337.174 490.827 337.105 490.975 337.05C491.296 336.93 491.42 336.568 491.532 336.29C491.589 336.149 491.588 335.938 491.56 335.698C491.51 335.256 490.942 334.938 490.588 334.732C490.445 334.65 490.291 334.602 490.134 334.593C489.766 334.571 489.55 335.138 489.419 335.454C489.361 335.595 489.364 335.842 489.391 336.12C489.403 336.236 489.474 336.288 489.539 336.335C489.677 336.418 489.9 336.456 490.159 336.438C490.271 336.419 490.345 336.382 490.476 336.289" stroke="#FAFAFA" stroke-width="2" stroke-linecap="round"/>
<path d="M489.141 340.293C489.105 340.44 488.993 340.81 489.011 341.098C489.029 341.384 489.566 341.331 489.955 341.368C490.319 341.403 490.733 341.884 491.04 342.174C491.286 342.405 491.55 342.535 491.698 342.656C491.767 342.711 491.846 342.721 491.838 342.648C491.776 342.084 491.238 341.778 490.977 341.425C490.774 341.149 490.496 340.906 490.199 340.692C490.051 340.609 489.902 340.516 489.754 340.414C489.68 340.367 489.606 340.331 489.364 340.237" stroke="#0E0E0B" stroke-opacity="0.87" stroke-linecap="round"/>
<path d="M493.757 342.239C493.886 342.184 494.145 341.962 494.368 341.684C494.593 341.403 494.757 341.128 494.933 340.85C495.129 340.542 495.405 340.221 495.591 339.859C495.633 339.777 495.665 339.701 495.675 339.7C495.409 340.123 494.815 340.792 494.546 341.015C494.48 341.071 494.425 341.126 494.313 341.183" stroke="#0E0E0B" stroke-opacity="0.87" stroke-linecap="round"/>
<path d="M497.705 340.738C497.816 340.572 498.038 340.165 498.251 339.785C498.473 339.39 498.446 338.978 498.585 338.534C498.769 337.948 498.577 337.033 498.419 336.587C498.285 336.207 497.783 335.497 497.271 334.919C496.968 334.576 496.705 334.51 496.639 334.463C496.421 334.307 496.925 335.009 497.083 335.351C497.384 336.003 497.519 336.325 497.566 336.695C497.627 337.188 497.816 338.006 497.724 338.67C497.668 339.069 497.41 339.696 497.26 340.227C497.207 340.417 497.204 340.607 497.296 340.746C497.353 340.832 497.571 340.794 497.694 340.739C497.871 340.573 497.946 340.386 497.992 340.239C498.02 340.164 498.056 340.091 498.15 339.848" stroke="#0E0E0B" stroke-opacity="0.87" stroke-linecap="round"/>
<path d="M493.534 335.399C493.867 335.418 494.311 335.638 494.636 335.945C494.76 336.062 494.887 336.177 494.979 336.224C494.851 335.975 494.647 335.733 494.499 335.65C494.407 335.622 494.278 335.622 494.146 335.677" stroke="#0E0E0B" stroke-opacity="0.87" stroke-linecap="round"/>
<path d="M496.023 335.46C495.927 335.374 495.748 335.295 495.573 335.265C495.365 335.228 495.243 335.428 495.221 335.64C495.194 335.9 495.425 336.172 495.656 336.506C495.752 336.645 495.847 336.732 495.929 336.811C496.106 336.982 496.275 336.978 496.412 336.985C496.482 336.988 496.548 336.941 496.612 336.87C496.73 336.74 496.583 336.318 496.494 336.054C496.458 335.947 496.406 335.842 496.341 335.743C496.187 335.51 495.914 335.504 495.757 335.494C495.687 335.49 495.609 335.547 495.533 335.626C495.502 335.659 495.516 335.714 495.53 335.765C495.563 335.869 495.648 336.015 495.767 336.171C495.822 336.236 495.865 336.273 495.952 336.333" stroke="#FAFAFA" stroke-linecap="round"/>
<path d="M492.887 341.269C492.826 341.231 492.693 341.217 492.552 341.235C492.385 341.257 492.238 341.421 492.172 341.57C492.091 341.754 492.225 341.889 492.345 342.065C492.395 342.139 492.455 342.177 492.506 342.213C492.617 342.29 492.76 342.249 492.874 342.223C492.932 342.21 492.999 342.163 493.068 342.1C493.197 341.985 493.168 341.729 493.152 341.569C493.145 341.504 493.125 341.443 493.092 341.39C493.015 341.266 492.786 341.323 492.656 341.351C492.598 341.364 492.52 341.42 492.438 341.491C492.404 341.521 492.404 341.555 492.404 341.587C492.409 341.651 492.448 341.731 492.513 341.811C492.545 341.843 492.573 341.859 492.633 341.881" stroke="#FAFAFA" stroke-linecap="round"/>
<path d="M578.03 313.773L571.052 310.448L572.946 356.607L587.529 363.773L578.03 313.773Z" fill="url(#paint18_linear_102_298)"/>
<path d="M573.248 356.787L560.529 364.273L565.029 314.773L571.169 310.456L573.248 356.787Z" fill="url(#paint19_linear_102_298)"/>
<path d="M572.705 318.491L572.329 328.669C572.586 326.419 573.939 323.447 577.292 329.561C578.899 332.492 579.729 335.182 580.11 337.382C578.736 342.626 580.338 343.981 580.182 342.503C580.407 341.584 580.524 339.771 580.11 337.382C580.417 336.211 580.873 334.845 581.53 333.273L579.53 322.773L578.53 316.773L574.555 314.361L572.705 318.491Z" fill="url(#paint20_linear_102_298)"/>
<path d="M573.99 356.835L572.618 326.138L574.959 324.024L577.874 327.332L581.53 332.773L584.53 349.273L585.779 355.773C579.67 356.96 583.418 361.325 585.779 363.558L573.99 356.835Z" fill="url(#paint21_linear_102_298)"/>
<path d="M582.161 347.451C583.161 347.516 582.83 344.872 583.53 342.273L582.53 337.273C582.119 337.152 581.53 336.904 579.53 336.773C577.529 336.642 578.263 340.111 577.759 342.912C578.81 344.397 581.161 347.385 582.161 347.451Z" fill="url(#paint22_linear_102_298)"/>
<path d="M572.118 317.886L575.276 312.991L578.03 313.773L578.03 319.773L577.53 326.273C574.842 327.325 575.03 323.273 575.03 322.273C575.029 314.685 573.802 320.83 571.888 321.272C570.357 321.625 571.404 319.162 572.118 317.886Z" fill="url(#paint23_linear_102_298)"/>
<path d="M578.086 318.773C571.339 310.85 573.578 314.864 573.093 317.383L572.175 317.04L572.577 311.115L578.086 313.84C578.03 315.273 578.101 318.547 578.086 318.773Z" fill="#492195"/>
<path d="M570.197 328.138C571.939 332.064 572.667 331.136 572.975 330.129L571.571 318.417C567.012 318.68 564.529 320.355 564.529 326.773C564.529 328.773 566.751 331.369 567.547 330.207C567.705 327.881 568.456 324.212 570.197 328.138Z" fill="url(#paint24_linear_102_298)"/>
<path d="M564.03 325.773L565.029 314.773L571.169 310.456L571.279 311.741L571.808 319.566C567.383 318.143 566.523 321.172 566.03 322.273C565.056 329.238 564.702 326.667 564.03 325.773Z" fill="#672DC2"/>
<path d="M574.227 357.984L574.842 373.045L584.263 363.742L574.227 357.984Z" fill="url(#paint25_linear_102_298)"/>
<path d="M572.469 358.152L574.842 373.045L563.629 364.376L572.469 358.152Z" fill="url(#paint26_linear_102_298)"/>
<path d="M574.842 373.045C574.878 372.385 574.907 371.727 574.929 371.07C575.081 366.608 574.916 362.197 574.433 357.837L574.093 354.901L571.289 356.725C569.993 357.56 568.716 358.42 567.46 359.304C565.77 360.495 564.116 361.729 562.498 363.008L560.616 364.185L562.376 365.719C565.746 368.021 569.282 370.145 572.984 372.091C573.599 372.414 574.218 372.731 574.842 373.045C574.401 372.535 573.956 372.03 573.507 371.531C570.798 368.519 567.923 365.686 564.882 363.032L564.76 365.743C566.524 364.642 568.251 363.496 569.942 362.306C571.198 361.421 572.434 360.513 573.649 359.579L570.505 358.467C571.401 362.761 572.614 367.004 574.145 371.196C574.37 371.813 574.602 372.429 574.842 373.045Z" fill="url(#paint27_linear_102_298)"/>
<path d="M575.299 373.046C575.144 373.16 574.951 373.218 574.757 373.2C574.564 373.182 574.386 373.091 574.262 372.946C574.138 372.8 574.076 372.61 574.089 372.416C574.103 372.222 574.19 372.041 574.327 371.906C574.327 371.906 574.327 371.906 574.327 371.906C575.141 371.104 575.957 370.304 576.776 369.508C579.171 367.18 581.59 364.878 584.032 362.603L584.291 365.125C580.461 363.258 576.66 361.34 572.887 359.371L571.949 358.882L571.882 357.761C571.724 355.112 571.588 352.463 571.475 349.812C571.467 349.621 571.459 349.429 571.451 349.238C571.052 339.193 570.977 329.139 571.228 319.07C571.256 317.929 571.289 316.789 571.325 315.649C571.332 315.456 571.405 315.269 571.539 315.128C571.672 314.986 571.854 314.902 572.045 314.894C572.237 314.886 572.425 314.954 572.569 315.083C572.714 315.213 572.802 315.393 572.824 315.584C572.824 315.584 572.824 315.584 572.824 315.584C572.954 316.717 573.08 317.85 573.201 318.984C574.275 328.996 575.024 339.021 575.447 349.061C575.456 349.249 575.464 349.441 575.472 349.633C575.585 352.283 575.676 354.934 575.744 357.587L574.739 355.976C578.443 358.073 582.119 360.222 585.767 362.421L587.738 363.605L586.025 364.943C583.392 366.993 580.735 369.015 578.055 371.01C577.139 371.692 576.22 372.371 575.299 373.046Z" fill="url(#paint28_linear_102_298)"/>
<path d="M566.623 363.504C566.177 363.194 565.626 363.062 565.08 363.151C564.536 363.239 564.042 363.541 563.717 363.977C563.393 364.413 563.267 364.944 563.377 365.439C563.487 365.935 563.824 366.355 564.304 366.621C564.304 366.621 564.304 366.621 564.304 366.621C564.65 366.812 564.996 367.004 565.343 367.195C567.854 368.584 570.366 369.973 572.877 371.362L575.116 372.891L575.293 370.258C575.124 366.344 574.955 362.431 574.785 358.518C574.77 358.154 574.754 357.79 574.738 357.426C574.214 357.408 573.69 357.39 573.166 357.373C573.138 357.735 573.11 358.098 573.082 358.46C572.782 362.358 572.482 366.255 572.182 370.153L574.599 369.049C572.262 367.425 569.926 365.801 567.59 364.176C567.268 363.952 566.946 363.728 566.623 363.504Z" fill="#FEEBFE"/>
<path d="M581.165 363.182C581.574 362.828 582.106 362.642 582.657 362.678C583.208 362.713 583.731 362.967 584.101 363.371C584.472 363.775 584.655 364.293 584.599 364.798C584.544 365.303 584.255 365.755 583.806 366.065C583.806 366.065 583.806 366.065 583.806 366.065C583.492 366.283 583.178 366.501 582.864 366.719C580.674 368.237 578.484 369.756 576.295 371.274L574.148 373.096L573.742 370.361C573.604 366.447 573.466 362.533 573.328 358.62C573.315 358.265 573.303 357.91 573.29 357.555C573.81 357.499 574.329 357.442 574.849 357.386C574.905 357.736 574.961 358.086 575.017 358.437C575.632 362.299 576.248 366.161 576.864 370.023L574.311 369.109C576.309 367.381 578.307 365.654 580.305 363.926C580.592 363.678 580.879 363.43 581.165 363.182Z" fill="#FEEBFE"/>
<path d="M572.813 354.862C573.531 355.984 574.249 357.106 574.967 358.228C574.829 358.277 574.691 358.326 574.552 358.375C572.063 359.259 569.574 360.143 567.084 361.027C566.946 361.076 566.808 361.125 566.669 361.174C566.772 361.069 566.874 360.963 566.977 360.858C568.82 358.965 570.663 357.071 572.506 355.178C572.609 355.073 572.711 354.968 572.813 354.862Z" fill="#FEEBFE"/>
<path d="M565.353 329.349C565.779 331.112 569.434 332.891 570.074 332.323C570.714 331.755 570.621 329.533 569.387 329.239C568.62 329.056 567.657 329.954 567.657 329.954C566.009 329.657 565.107 328.329 565.353 329.349Z" fill="url(#paint29_linear_102_298)"/>
<ellipse cx="572" cy="315.5" rx="2" ry="2.5" fill="black"/>
<g filter="url(#filter4_i_102_298)">
<ellipse cx="572" cy="299" rx="2" ry="7" fill="url(#paint30_linear_102_298)"/>
</g>
<path d="M572 291.5C572.53 291.5 572.923 291.872 573.192 292.271C573.473 292.686 573.707 293.255 573.895 293.913C574.272 295.236 574.5 297.034 574.5 299C574.5 300.966 574.272 302.764 573.895 304.087C573.707 304.745 573.473 305.314 573.192 305.729C572.923 306.128 572.53 306.5 572 306.5C571.47 306.5 571.077 306.128 570.808 305.729C570.527 305.314 570.293 304.745 570.105 304.087C569.728 302.764 569.5 300.966 569.5 299C569.5 297.034 569.728 295.236 570.105 293.913C570.293 293.255 570.527 292.686 570.808 292.271C571.077 291.872 571.47 291.5 572 291.5Z" stroke="url(#paint31_linear_102_298)"/>
<g filter="url(#filter5_i_102_298)">
<ellipse cx="572" cy="309" rx="2" ry="7" fill="url(#paint32_linear_102_298)"/>
</g>
<path d="M572 301.5C572.53 301.5 572.923 301.872 573.192 302.271C573.473 302.686 573.707 303.255 573.895 303.913C574.272 305.236 574.5 307.034 574.5 309C574.5 310.966 574.272 312.764 573.895 314.087C573.707 314.745 573.473 315.314 573.192 315.729C572.923 316.128 572.53 316.5 572 316.5C571.47 316.5 571.077 316.128 570.808 315.729C570.527 315.314 570.293 314.745 570.105 314.087C569.728 312.764 569.5 310.966 569.5 309C569.5 307.034 569.728 305.236 570.105 303.913C570.293 303.255 570.527 302.686 570.808 302.271C571.077 301.872 571.47 301.5 572 301.5Z" stroke="url(#paint33_linear_102_298)"/>
<g filter="url(#filter6_ii_102_298)">
<circle cx="572.5" cy="287.5" r="8.5" fill="url(#paint34_linear_102_298)"/>
</g>
<circle cx="572.5" cy="287.5" r="8" stroke="url(#paint35_linear_102_298)"/>
<path d="M572.545 287.672C571.989 287.672 571.166 287.774 570.924 287.997C570.706 288.197 570.755 288.598 570.81 288.975C570.86 289.317 571.201 289.56 571.554 289.767C571.768 289.892 572.165 289.837 572.41 289.769C573.141 289.566 573.55 289.014 573.85 288.448C574.235 287.72 573.517 287.09 572.995 286.471C572.752 286.183 572.361 286.091 572.007 286.023C571.689 285.961 571.316 286.021 570.944 286.244C570.365 286.59 570.197 287.325 570.065 287.979C569.995 288.319 569.971 288.667 570.045 288.975C570.119 289.284 570.604 289.457 570.994 289.715C571.394 289.978 572.13 290.043 572.913 289.975C573.514 289.46 573.812 288.775 573.907 287.761C573.925 287.536 573.962 287.4 574 287.259" stroke="#D0D0D0" stroke-width="2" stroke-linecap="round"/>
<path d="M569.586 283.843C569.42 283.917 569.198 284.176 569.03 284.5C568.833 284.883 568.955 285.436 569.168 285.797C569.429 286.241 569.9 286.16 570.437 286.17C570.661 286.174 570.827 286.105 570.975 286.05C571.296 285.93 571.42 285.568 571.532 285.29C571.589 285.149 571.588 284.938 571.56 284.698C571.51 284.256 570.942 283.938 570.588 283.732C570.445 283.65 570.291 283.602 570.134 283.593C569.766 283.571 569.55 284.138 569.419 284.454C569.361 284.595 569.364 284.842 569.391 285.12C569.403 285.236 569.474 285.288 569.539 285.335C569.677 285.418 569.9 285.456 570.159 285.438C570.271 285.419 570.345 285.382 570.476 285.289" stroke="#FAFAFA" stroke-width="2" stroke-linecap="round"/>
<path d="M569.141 289.293C569.105 289.44 568.993 289.81 569.011 290.098C569.029 290.384 569.566 290.331 569.955 290.368C570.319 290.403 570.733 290.884 571.04 291.174C571.286 291.405 571.55 291.535 571.698 291.656C571.767 291.711 571.846 291.721 571.838 291.648C571.776 291.084 571.238 290.778 570.977 290.425C570.774 290.149 570.496 289.906 570.199 289.692C570.051 289.609 569.902 289.516 569.754 289.414C569.68 289.367 569.606 289.331 569.364 289.237" stroke="#0E0E0B" stroke-opacity="0.87" stroke-linecap="round"/>
<path d="M573.757 291.239C573.886 291.184 574.145 290.962 574.368 290.684C574.593 290.403 574.757 290.128 574.933 289.85C575.129 289.542 575.405 289.221 575.591 288.859C575.633 288.777 575.665 288.701 575.675 288.7C575.409 289.123 574.815 289.792 574.546 290.015C574.48 290.071 574.425 290.126 574.313 290.183" stroke="#0E0E0B" stroke-opacity="0.87" stroke-linecap="round"/>
<path d="M577.705 289.738C577.816 289.572 578.038 289.165 578.251 288.785C578.473 288.39 578.446 287.978 578.585 287.534C578.769 286.948 578.577 286.033 578.419 285.587C578.285 285.207 577.783 284.497 577.271 283.919C576.968 283.576 576.705 283.51 576.639 283.463C576.421 283.307 576.925 284.009 577.083 284.351C577.384 285.003 577.519 285.325 577.566 285.695C577.627 286.188 577.816 287.006 577.724 287.67C577.668 288.069 577.41 288.696 577.26 289.227C577.207 289.417 577.204 289.607 577.296 289.746C577.353 289.832 577.571 289.794 577.694 289.739C577.871 289.573 577.946 289.386 577.992 289.239C578.02 289.164 578.056 289.091 578.15 288.848" stroke="#0E0E0B" stroke-opacity="0.87" stroke-linecap="round"/>
<path d="M573.534 284.399C573.867 284.418 574.311 284.638 574.636 284.945C574.76 285.062 574.887 285.177 574.979 285.224C574.851 284.975 574.647 284.733 574.499 284.65C574.407 284.622 574.278 284.622 574.146 284.677" stroke="#0E0E0B" stroke-opacity="0.87" stroke-linecap="round"/>
<path d="M576.023 284.46C575.927 284.374 575.748 284.295 575.573 284.265C575.365 284.228 575.243 284.428 575.221 284.64C575.194 284.9 575.425 285.172 575.656 285.506C575.752 285.645 575.847 285.732 575.929 285.811C576.106 285.982 576.275 285.978 576.412 285.985C576.482 285.988 576.548 285.941 576.612 285.87C576.73 285.74 576.583 285.318 576.494 285.054C576.458 284.947 576.406 284.842 576.341 284.743C576.187 284.51 575.914 284.504 575.757 284.494C575.687 284.49 575.609 284.547 575.533 284.626C575.502 284.659 575.516 284.714 575.53 284.765C575.563 284.869 575.648 285.015 575.767 285.171C575.822 285.236 575.865 285.273 575.952 285.333" stroke="#FAFAFA" stroke-linecap="round"/>
<path d="M572.887 290.269C572.826 290.231 572.693 290.217 572.552 290.235C572.385 290.257 572.238 290.421 572.172 290.57C572.091 290.754 572.225 290.889 572.345 291.065C572.395 291.139 572.455 291.177 572.506 291.213C572.617 291.29 572.76 291.249 572.874 291.223C572.932 291.21 572.999 291.163 573.068 291.1C573.197 290.985 573.168 290.729 573.152 290.569C573.145 290.504 573.125 290.443 573.092 290.39C573.015 290.266 572.786 290.323 572.656 290.351C572.598 290.364 572.52 290.42 572.438 290.491C572.404 290.521 572.404 290.555 572.404 290.587C572.409 290.651 572.448 290.731 572.513 290.811C572.545 290.843 572.573 290.859 572.633 290.881" stroke="#FAFAFA" stroke-linecap="round"/>
<path d="M179.03 369.773L172.052 366.448L173.946 412.607L188.529 419.773L179.03 369.773Z" fill="url(#paint36_linear_102_298)"/>
<path d="M174.248 412.787L161.529 420.273L166.029 370.773L172.169 366.456L174.248 412.787Z" fill="url(#paint37_linear_102_298)"/>
<path d="M173.705 374.491L173.329 384.669C173.586 382.419 174.939 379.447 178.292 385.561C179.899 388.492 180.729 391.182 181.11 393.382C179.736 398.626 181.338 399.981 181.182 398.503C181.407 397.584 181.524 395.771 181.11 393.382C181.417 392.211 181.873 390.845 182.53 389.273L180.53 378.773L179.53 372.773L175.555 370.361L173.705 374.491Z" fill="url(#paint38_linear_102_298)"/>
<path d="M174.99 412.835L173.618 382.138L175.959 380.024L178.874 383.332L182.53 388.773L185.53 405.273L186.779 411.773C180.67 412.96 184.418 417.325 186.779 419.558L174.99 412.835Z" fill="url(#paint39_linear_102_298)"/>
<path d="M183.161 403.451C184.161 403.516 183.83 400.872 184.53 398.273L183.53 393.273C183.119 393.152 182.53 392.904 180.53 392.773C178.529 392.642 179.263 396.111 178.759 398.912C179.81 400.397 182.161 403.385 183.161 403.451Z" fill="url(#paint40_linear_102_298)"/>
<path d="M173.118 373.886L176.275 368.991L179.03 369.773L179.03 375.773L178.53 382.273C175.842 383.325 176.03 379.273 176.03 378.273C176.029 370.685 174.802 376.83 172.888 377.272C171.357 377.625 172.403 375.162 173.118 373.886Z" fill="url(#paint41_linear_102_298)"/>
<path d="M179.086 374.773C172.339 366.85 174.578 370.864 174.093 373.383L173.175 373.04L173.577 367.115L179.086 369.84C179.03 371.273 179.101 374.547 179.086 374.773Z" fill="#492195"/>
<path d="M171.197 384.138C172.939 388.064 173.668 387.136 173.975 386.129L172.571 374.417C168.012 374.68 165.529 376.355 165.529 382.773C165.529 384.773 167.752 387.369 168.547 386.207C168.705 383.881 169.456 380.212 171.197 384.138Z" fill="url(#paint42_linear_102_298)"/>
<path d="M165.03 381.773L166.029 370.773L172.169 366.456L172.279 367.741L172.807 375.566C168.383 374.143 167.523 377.172 167.03 378.273C166.055 385.238 165.701 382.667 165.03 381.773Z" fill="#672DC2"/>
<path d="M175.227 413.984L175.842 429.045L185.262 419.742L175.227 413.984Z" fill="url(#paint43_linear_102_298)"/>
<path d="M173.469 414.152L175.841 429.045L164.629 420.376L173.469 414.152Z" fill="url(#paint44_linear_102_298)"/>
<path d="M175.841 429.045C175.877 428.385 175.907 427.727 175.929 427.07C176.081 422.608 175.916 418.197 175.433 413.837L175.093 410.901L172.289 412.725C170.992 413.56 169.716 414.42 168.46 415.304C166.769 416.495 165.115 417.729 163.498 419.008L161.616 420.185L163.376 421.719C166.746 424.021 170.282 426.145 173.984 428.091C174.599 428.414 175.218 428.731 175.841 429.045C175.401 428.535 174.956 428.03 174.506 427.531C171.798 424.519 168.923 421.686 165.881 419.032L165.76 421.743C167.523 420.642 169.251 419.496 170.941 418.306C172.197 417.421 173.433 416.513 174.649 415.579L171.505 414.467C172.401 418.761 173.614 423.004 175.144 427.196C175.37 427.813 175.602 428.429 175.841 429.045Z" fill="url(#paint45_linear_102_298)"/>
<path d="M176.299 429.046C176.144 429.16 175.951 429.218 175.757 429.2C175.564 429.182 175.386 429.091 175.262 428.946C175.138 428.8 175.076 428.61 175.089 428.416C175.103 428.222 175.19 428.041 175.327 427.906C175.327 427.906 175.327 427.906 175.327 427.906C176.141 427.104 176.957 426.304 177.776 425.508C180.171 423.18 182.59 420.878 185.032 418.603L185.291 421.125C181.461 419.258 177.66 417.34 173.887 415.371L172.949 414.882L172.882 413.761C172.724 411.112 172.588 408.463 172.475 405.812C172.467 405.621 172.459 405.429 172.451 405.238C172.052 395.193 171.977 385.139 172.228 375.07C172.256 373.929 172.289 372.789 172.325 371.649C172.332 371.456 172.405 371.269 172.539 371.128C172.672 370.986 172.854 370.902 173.045 370.894C173.237 370.886 173.425 370.954 173.569 371.083C173.714 371.213 173.802 371.393 173.824 371.584C173.824 371.584 173.824 371.584 173.824 371.584C173.954 372.717 174.08 373.85 174.201 374.984C175.275 384.996 176.024 395.021 176.447 405.061C176.456 405.249 176.464 405.441 176.472 405.633C176.585 408.283 176.676 410.934 176.744 413.587L175.739 411.976C179.443 414.073 183.119 416.222 186.767 418.421L188.738 419.605L187.025 420.943C184.392 422.993 181.735 425.015 179.055 427.01C178.139 427.692 177.22 428.371 176.299 429.046Z" fill="url(#paint46_linear_102_298)"/>
<path d="M167.623 419.504C167.177 419.194 166.625 419.062 166.08 419.151C165.535 419.239 165.042 419.541 164.717 419.977C164.392 420.413 164.267 420.944 164.377 421.439C164.487 421.935 164.823 422.355 165.303 422.621C165.303 422.621 165.303 422.621 165.303 422.621C165.65 422.812 165.996 423.004 166.343 423.195C168.854 424.584 171.365 425.973 173.877 427.362L176.116 428.891L176.293 426.258C176.124 422.344 175.954 418.431 175.785 414.518C175.769 414.154 175.754 413.79 175.738 413.426C175.214 413.408 174.69 413.39 174.166 413.373C174.138 413.735 174.11 414.098 174.082 414.46C173.782 418.358 173.482 422.255 173.182 426.153L175.598 425.049C173.262 423.425 170.926 421.801 168.59 420.176C168.268 419.952 167.945 419.728 167.623 419.504Z" fill="#FEEBFE"/>
<path d="M182.165 419.182C182.574 418.828 183.106 418.642 183.657 418.678C184.208 418.713 184.731 418.967 185.101 419.371C185.472 419.775 185.655 420.293 185.599 420.798C185.544 421.303 185.255 421.755 184.806 422.065C184.806 422.065 184.806 422.065 184.806 422.065C184.492 422.283 184.178 422.501 183.864 422.719C181.674 424.237 179.484 425.756 177.295 427.274L175.148 429.096L174.742 426.361C174.604 422.447 174.466 418.533 174.328 414.62C174.315 414.265 174.303 413.91 174.29 413.555C174.81 413.499 175.329 413.442 175.849 413.386C175.905 413.736 175.961 414.086 176.017 414.437C176.632 418.299 177.248 422.161 177.864 426.023L175.311 425.109C177.309 423.381 179.307 421.654 181.305 419.926C181.592 419.678 181.879 419.43 182.165 419.182Z" fill="#FEEBFE"/>
<path d="M173.813 410.862C174.531 411.984 175.249 413.106 175.967 414.228C175.829 414.277 175.69 414.326 175.552 414.375C173.063 415.259 170.573 416.143 168.084 417.027C167.946 417.076 167.807 417.125 167.669 417.174C167.772 417.069 167.874 416.963 167.976 416.858C169.82 414.965 171.663 413.071 173.506 411.178C173.608 411.073 173.711 410.968 173.813 410.862Z" fill="#FEEBFE"/>
<path d="M166.353 385.349C166.779 387.112 170.435 388.891 171.074 388.323C171.714 387.755 171.621 385.533 170.387 385.239C169.621 385.056 168.657 385.954 168.657 385.954C167.009 385.657 166.107 384.329 166.353 385.349Z" fill="url(#paint47_linear_102_298)"/>
<ellipse cx="173" cy="371.5" rx="2" ry="2.5" fill="black"/>
<g filter="url(#filter7_i_102_298)">
<ellipse cx="173" cy="355" rx="2" ry="7" fill="url(#paint48_linear_102_298)"/>
</g>
<path d="M173 347.5C173.53 347.5 173.923 347.872 174.192 348.271C174.473 348.686 174.707 349.255 174.895 349.913C175.272 351.236 175.5 353.034 175.5 355C175.5 356.966 175.272 358.764 174.895 360.087C174.707 360.745 174.473 361.314 174.192 361.729C173.923 362.128 173.53 362.5 173 362.5C172.47 362.5 172.077 362.128 171.808 361.729C171.527 361.314 171.293 360.745 171.105 360.087C170.728 358.764 170.5 356.966 170.5 355C170.5 353.034 170.728 351.236 171.105 349.913C171.293 349.255 171.527 348.686 171.808 348.271C172.077 347.872 172.47 347.5 173 347.5Z" stroke="url(#paint49_linear_102_298)"/>
<g filter="url(#filter8_i_102_298)">
<ellipse cx="173" cy="365" rx="2" ry="7" fill="url(#paint50_linear_102_298)"/>
</g>
<path d="M173 357.5C173.53 357.5 173.923 357.872 174.192 358.271C174.473 358.686 174.707 359.255 174.895 359.913C175.272 361.236 175.5 363.034 175.5 365C175.5 366.966 175.272 368.764 174.895 370.087C174.707 370.745 174.473 371.314 174.192 371.729C173.923 372.128 173.53 372.5 173 372.5C172.47 372.5 172.077 372.128 171.808 371.729C171.527 371.314 171.293 370.745 171.105 370.087C170.728 368.764 170.5 366.966 170.5 365C170.5 363.034 170.728 361.236 171.105 359.913C171.293 359.255 171.527 358.686 171.808 358.271C172.077 357.872 172.47 357.5 173 357.5Z" stroke="url(#paint51_linear_102_298)"/>
<g filter="url(#filter9_ii_102_298)">
<circle cx="173.5" cy="343.5" r="8.5" fill="url(#paint52_linear_102_298)"/>
</g>
<circle cx="173.5" cy="343.5" r="8" stroke="url(#paint53_linear_102_298)"/>
<path d="M173.545 343.672C172.989 343.672 172.166 343.774 171.924 343.997C171.706 344.197 171.755 344.598 171.81 344.975C171.86 345.317 172.201 345.56 172.554 345.767C172.768 345.892 173.165 345.837 173.41 345.769C174.141 345.566 174.55 345.014 174.85 344.448C175.235 343.72 174.517 343.09 173.995 342.471C173.752 342.183 173.361 342.091 173.007 342.023C172.689 341.961 172.316 342.021 171.944 342.244C171.365 342.59 171.197 343.325 171.065 343.979C170.995 344.319 170.971 344.667 171.045 344.975C171.119 345.284 171.604 345.457 171.994 345.715C172.394 345.978 173.13 346.043 173.913 345.975C174.514 345.46 174.812 344.775 174.907 343.761C174.925 343.536 174.962 343.4 175 343.259" stroke="#D0D0D0" stroke-width="2" stroke-linecap="round"/>
<path d="M170.586 339.843C170.42 339.917 170.198 340.176 170.03 340.5C169.833 340.883 169.955 341.436 170.168 341.797C170.429 342.241 170.9 342.16 171.437 342.17C171.661 342.174 171.827 342.105 171.975 342.05C172.296 341.93 172.42 341.568 172.532 341.29C172.589 341.149 172.588 340.938 172.56 340.698C172.51 340.256 171.942 339.938 171.588 339.732C171.445 339.65 171.291 339.602 171.134 339.593C170.766 339.571 170.55 340.138 170.419 340.454C170.361 340.595 170.364 340.842 170.391 341.12C170.403 341.236 170.474 341.288 170.539 341.335C170.677 341.418 170.9 341.456 171.159 341.438C171.271 341.419 171.345 341.382 171.476 341.289" stroke="#FAFAFA" stroke-width="2" stroke-linecap="round"/>
<path d="M170.141 345.293C170.105 345.44 169.993 345.81 170.011 346.098C170.029 346.384 170.566 346.331 170.955 346.368C171.319 346.403 171.733 346.884 172.04 347.174C172.286 347.405 172.55 347.535 172.698 347.656C172.767 347.711 172.846 347.721 172.838 347.648C172.776 347.084 172.238 346.778 171.977 346.425C171.774 346.149 171.496 345.906 171.199 345.692C171.051 345.609 170.902 345.516 170.754 345.414C170.68 345.367 170.606 345.331 170.364 345.237" stroke="#0E0E0B" stroke-opacity="0.87" stroke-linecap="round"/>
<path d="M174.757 347.239C174.886 347.184 175.145 346.962 175.368 346.684C175.593 346.403 175.757 346.128 175.933 345.85C176.129 345.542 176.405 345.221 176.591 344.859C176.633 344.777 176.665 344.701 176.675 344.7C176.409 345.123 175.815 345.792 175.546 346.015C175.48 346.071 175.425 346.126 175.313 346.183" stroke="#0E0E0B" stroke-opacity="0.87" stroke-linecap="round"/>
<path d="M178.705 345.738C178.816 345.572 179.038 345.165 179.251 344.785C179.473 344.39 179.446 343.978 179.585 343.534C179.769 342.948 179.577 342.033 179.419 341.587C179.285 341.207 178.783 340.497 178.271 339.919C177.968 339.576 177.705 339.51 177.639 339.463C177.421 339.307 177.925 340.009 178.083 340.351C178.384 341.003 178.519 341.325 178.566 341.695C178.627 342.188 178.816 343.006 178.724 343.67C178.668 344.069 178.41 344.696 178.26 345.227C178.207 345.417 178.204 345.607 178.296 345.746C178.353 345.832 178.571 345.794 178.694 345.739C178.871 345.573 178.946 345.386 178.992 345.239C179.02 345.164 179.056 345.091 179.15 344.848" stroke="#0E0E0B" stroke-opacity="0.87" stroke-linecap="round"/>
<path d="M174.534 340.399C174.867 340.418 175.311 340.638 175.636 340.945C175.76 341.062 175.887 341.177 175.979 341.224C175.851 340.975 175.647 340.733 175.499 340.65C175.407 340.622 175.278 340.622 175.146 340.677" stroke="#0E0E0B" stroke-opacity="0.87" stroke-linecap="round"/>
<path d="M177.023 340.46C176.927 340.374 176.748 340.295 176.573 340.265C176.365 340.228 176.243 340.428 176.221 340.64C176.194 340.9 176.425 341.172 176.656 341.506C176.752 341.645 176.847 341.732 176.929 341.811C177.106 341.982 177.275 341.978 177.412 341.985C177.482 341.988 177.548 341.941 177.612 341.87C177.73 341.74 177.583 341.318 177.494 341.054C177.458 340.947 177.406 340.842 177.341 340.743C177.187 340.51 176.914 340.504 176.757 340.494C176.687 340.49 176.609 340.547 176.533 340.626C176.502 340.659 176.516 340.714 176.53 340.765C176.563 340.869 176.648 341.015 176.767 341.171C176.822 341.236 176.865 341.273 176.952 341.333" stroke="#FAFAFA" stroke-linecap="round"/>
<path d="M173.887 346.269C173.826 346.231 173.693 346.217 173.552 346.235C173.385 346.257 173.238 346.421 173.172 346.57C173.091 346.754 173.225 346.889 173.345 347.065C173.395 347.139 173.455 347.177 173.506 347.213C173.617 347.29 173.76 347.249 173.874 347.223C173.932 347.21 173.999 347.163 174.068 347.1C174.197 346.985 174.168 346.729 174.152 346.569C174.145 346.504 174.125 346.443 174.092 346.39C174.015 346.266 173.786 346.323 173.656 346.351C173.598 346.364 173.52 346.42 173.438 346.491C173.404 346.521 173.404 346.555 173.404 346.587C173.409 346.651 173.448 346.731 173.513 346.811C173.545 346.843 173.573 346.859 173.633 346.881" stroke="#FAFAFA" stroke-linecap="round"/>
<path d="M101.03 315.773L94.0525 312.448L95.9463 358.607L110.529 365.773L101.03 315.773Z" fill="url(#paint54_linear_102_298)"/>
<path d="M96.2478 358.787L83.5286 366.273L88.0286 316.773L94.1689 312.456L96.2478 358.787Z" fill="url(#paint55_linear_102_298)"/>
<path d="M95.7048 320.491L95.3287 330.669C95.5859 328.419 96.9386 325.447 100.292 331.561C101.899 334.492 102.729 337.182 103.11 339.382C101.736 344.626 103.338 345.981 103.182 344.503C103.407 343.584 103.524 341.771 103.11 339.382C103.417 338.211 103.873 336.845 104.53 335.273L102.53 324.773L101.53 318.773L97.5546 316.361L95.7048 320.491Z" fill="url(#paint56_linear_102_298)"/>
<path d="M96.9899 358.835L95.6175 328.138L97.9586 326.024L100.874 329.332L104.53 334.773L107.53 351.273L108.779 357.773C102.67 358.96 106.418 363.325 108.779 365.558L96.9899 358.835Z" fill="url(#paint57_linear_102_298)"/>
<path d="M105.161 349.451C106.161 349.516 105.83 346.872 106.53 344.273L105.53 339.273C105.119 339.152 104.53 338.904 102.53 338.773C100.529 338.642 101.263 342.111 100.759 344.912C101.81 346.397 104.161 349.385 105.161 349.451Z" fill="url(#paint58_linear_102_298)"/>
<path d="M95.1178 319.886L98.2753 314.991L101.03 315.773L101.03 321.773L100.53 328.273C97.8422 329.325 98.0295 325.273 98.0295 324.273C98.0293 316.685 96.8019 322.83 94.8882 323.272C93.3573 323.625 94.4033 321.162 95.1178 319.886Z" fill="url(#paint59_linear_102_298)"/>
<path d="M101.086 320.773C94.3394 312.85 96.5782 316.864 96.0935 319.383L95.1749 319.04L95.5766 313.115L101.086 315.84C101.03 317.273 101.101 320.547 101.086 320.773Z" fill="#492195"/>
<path d="M93.1973 330.138C94.9388 334.064 95.6676 333.136 95.9749 332.129L94.5712 320.417C90.0123 320.68 87.529 322.355 87.5291 328.773C87.5291 330.773 89.7516 333.369 90.5475 332.207C90.7051 329.881 91.4558 326.212 93.1973 330.138Z" fill="url(#paint60_linear_102_298)"/>
<path d="M87.0295 327.773L88.0288 316.773L94.1691 312.456L94.2786 313.741L94.8073 321.566C90.3827 320.143 89.5231 323.172 89.0298 324.273C88.0553 331.238 87.7015 328.667 87.0295 327.773Z" fill="#672DC2"/>
<path d="M97.2266 359.984L97.8417 375.045L107.262 365.742L97.2266 359.984Z" fill="url(#paint61_linear_102_298)"/>
<path d="M95.469 360.152L97.8413 375.045L86.6287 366.376L95.469 360.152Z" fill="url(#paint62_linear_102_298)"/>
<path d="M97.8413 375.045C97.8774 374.385 97.9067 373.727 97.9291 373.07C98.0812 368.608 97.9158 364.197 97.4332 359.837L97.0931 356.901L94.289 358.725C92.9925 359.56 91.7162 360.42 90.4601 361.304C88.7694 362.495 87.1153 363.729 85.4978 365.008L83.6157 366.185L85.376 367.719C88.7457 370.021 92.2818 372.145 95.9842 374.091C96.5987 374.414 97.2177 374.731 97.8413 375.045C97.4009 374.535 96.956 374.03 96.5064 373.531C93.7978 370.519 90.9228 367.686 87.8814 365.032L87.7596 367.743C89.5234 366.642 91.2507 365.496 92.9413 364.306C94.1974 363.421 95.4334 362.513 96.6491 361.579L93.5049 360.467C94.4007 364.761 95.6138 369.004 97.1444 373.196C97.3698 373.813 97.6021 374.429 97.8413 375.045Z" fill="url(#paint63_linear_102_298)"/>
<path d="M98.2988 375.046C98.1435 375.16 97.951 375.218 97.7575 375.2C97.564 375.182 97.3862 375.091 97.262 374.946C97.1379 374.8 97.0762 374.61 97.0894 374.416C97.1025 374.222 97.1903 374.041 97.3273 373.906C97.3273 373.906 97.3273 373.906 97.3273 373.906C98.1407 373.104 98.9568 372.304 99.7756 371.508C102.171 369.18 104.59 366.878 107.032 364.603L107.291 367.125C103.461 365.258 99.66 363.34 95.8865 361.371L94.9495 360.882L94.8824 359.761C94.724 357.112 94.5883 354.463 94.4752 351.812C94.467 351.621 94.459 351.429 94.451 351.238C94.0518 341.193 93.9774 331.139 94.2278 321.07C94.2562 319.929 94.2887 318.789 94.3254 317.649C94.3317 317.456 94.4049 317.269 94.5385 317.128C94.6721 316.986 94.8537 316.902 95.0453 316.894C95.2369 316.886 95.4247 316.954 95.5694 317.083C95.7141 317.213 95.8024 317.393 95.8244 317.584C95.8244 317.584 95.8244 317.584 95.8244 317.584C95.9542 318.717 96.0799 319.85 96.2015 320.984C97.2749 330.996 98.0236 341.021 98.4474 351.061C98.4557 351.249 98.464 351.441 98.4722 351.633C98.5853 354.283 98.6758 356.934 98.7436 359.587L97.7395 357.976C101.443 360.073 105.119 362.222 108.767 364.421L110.738 365.605L109.025 366.943C106.392 368.993 103.735 371.015 101.055 373.01C100.139 373.692 99.2202 374.371 98.2988 375.046Z" fill="url(#paint64_linear_102_298)"/>
<path d="M89.623 365.504C89.1769 365.194 88.6254 365.062 88.0802 365.151C87.5355 365.239 87.0416 365.541 86.7171 365.977C86.3925 366.413 86.2666 366.944 86.3768 367.439C86.4865 367.935 86.8234 368.355 87.3034 368.621C87.3034 368.621 87.3034 368.621 87.3034 368.621C87.6498 368.812 87.9962 369.004 88.3426 369.195C90.854 370.584 93.3654 371.973 95.8768 373.362L98.1156 374.891L98.2932 372.258C98.1238 368.344 97.9544 364.431 97.785 360.518C97.7693 360.154 97.7535 359.79 97.7377 359.426C97.2137 359.408 96.6897 359.39 96.1657 359.373C96.1378 359.735 96.1099 360.098 96.082 360.46C95.782 364.358 95.4819 368.255 95.1819 372.153L97.5983 371.049C95.2621 369.425 92.926 367.801 90.5898 366.176C90.2675 365.952 89.9453 365.728 89.623 365.504Z" fill="#FEEBFE"/>
<path d="M104.165 365.182C104.574 364.828 105.106 364.642 105.657 364.678C106.208 364.713 106.731 364.967 107.101 365.371C107.472 365.775 107.655 366.293 107.599 366.798C107.544 367.303 107.255 367.755 106.806 368.065C106.806 368.065 106.806 368.065 106.806 368.065C106.492 368.283 106.178 368.501 105.864 368.719C103.674 370.237 101.484 371.756 99.2946 373.274L97.1476 375.096L96.7422 372.361C96.6041 368.447 96.4659 364.533 96.3277 360.62C96.3152 360.265 96.3027 359.91 96.2901 359.555C96.8098 359.499 97.3294 359.442 97.849 359.386C97.9049 359.736 97.9607 360.086 98.0165 360.437C98.6323 364.299 99.248 368.161 99.8637 372.023L97.3114 371.109C99.3094 369.381 101.307 367.654 103.305 365.926C103.592 365.678 103.879 365.43 104.165 365.182Z" fill="#FEEBFE"/>
<path d="M95.8132 356.862C96.5312 357.984 97.2491 359.106 97.9671 360.228C97.8288 360.277 97.6905 360.326 97.5522 360.375C95.0628 361.259 92.5735 362.143 90.0841 363.027C89.9458 363.076 89.8075 363.125 89.6692 363.174C89.7716 363.069 89.874 362.963 89.9764 362.858C91.8196 360.965 93.6628 359.071 95.506 357.178C95.6084 357.073 95.7108 356.968 95.8132 356.862Z" fill="#FEEBFE"/>
<path d="M88.3533 331.349C88.7792 333.112 92.4347 334.891 93.0744 334.323C93.714 333.755 93.6208 331.533 92.3872 331.239C91.6206 331.056 90.6568 331.954 90.6568 331.954C89.0091 331.657 88.1068 330.329 88.3533 331.349Z" fill="url(#paint65_linear_102_298)"/>
<ellipse cx="95" cy="317.5" rx="2" ry="2.5" fill="black"/>
<g filter="url(#filter10_i_102_298)">
<ellipse cx="95" cy="301" rx="2" ry="7" fill="url(#paint66_linear_102_298)"/>
</g>
<path d="M95 293.5C95.5299 293.5 95.9233 293.872 96.1924 294.271C96.4733 294.686 96.7065 295.255 96.8945 295.913C97.2725 297.236 97.5 299.034 97.5 301C97.5 302.966 97.2725 304.764 96.8945 306.087C96.7065 306.745 96.4733 307.314 96.1924 307.729C95.9233 308.128 95.5299 308.5 95 308.5C94.4701 308.5 94.0767 308.128 93.8076 307.729C93.5267 307.314 93.2935 306.745 93.1055 306.087C92.7275 304.764 92.5 302.966 92.5 301C92.5 299.034 92.7275 297.236 93.1055 295.913C93.2935 295.255 93.5267 294.686 93.8076 294.271C94.0767 293.872 94.4701 293.5 95 293.5Z" stroke="url(#paint67_linear_102_298)"/>
<g filter="url(#filter11_i_102_298)">
<ellipse cx="95" cy="311" rx="2" ry="7" fill="url(#paint68_linear_102_298)"/>
</g>
<path d="M95 303.5C95.5299 303.5 95.9233 303.872 96.1924 304.271C96.4733 304.686 96.7065 305.255 96.8945 305.913C97.2725 307.236 97.5 309.034 97.5 311C97.5 312.966 97.2725 314.764 96.8945 316.087C96.7065 316.745 96.4733 317.314 96.1924 317.729C95.9233 318.128 95.5299 318.5 95 318.5C94.4701 318.5 94.0767 318.128 93.8076 317.729C93.5267 317.314 93.2935 316.745 93.1055 316.087C92.7275 314.764 92.5 312.966 92.5 311C92.5 309.034 92.7275 307.236 93.1055 305.913C93.2935 305.255 93.5267 304.686 93.8076 304.271C94.0767 303.872 94.4701 303.5 95 303.5Z" stroke="url(#paint69_linear_102_298)"/>
<g filter="url(#filter12_ii_102_298)">
<circle cx="95.5" cy="289.5" r="8.5" fill="url(#paint70_linear_102_298)"/>
</g>
<circle cx="95.5" cy="289.5" r="8" stroke="url(#paint71_linear_102_298)"/>
<path d="M95.5452 289.672C94.989 289.672 94.1664 289.774 93.9241 289.997C93.706 290.197 93.7546 290.598 93.81 290.975C93.8602 291.317 94.2011 291.56 94.5536 291.767C94.7676 291.892 95.1647 291.837 95.4103 291.769C96.1413 291.566 96.5501 291.014 96.85 290.448C97.2352 289.72 96.5165 289.09 95.995 288.471C95.7522 288.183 95.3605 288.091 95.0069 288.023C94.6885 287.961 94.3164 288.021 93.9437 288.244C93.3653 288.59 93.1973 289.325 93.0647 289.979C92.9955 290.319 92.9712 290.667 93.0451 290.975C93.1188 291.284 93.6035 291.457 93.9941 291.715C94.3938 291.978 95.13 292.043 95.9128 291.975C96.5143 291.46 96.812 290.775 96.9066 289.761C96.925 289.536 96.962 289.4 97 289.259" stroke="#D0D0D0" stroke-width="2" stroke-linecap="round"/>
<path d="M92.586 285.843C92.4198 285.917 92.1979 286.176 92.0305 286.5C91.8326 286.883 91.9554 287.436 92.1678 287.797C92.4288 288.241 92.8997 288.16 93.4366 288.17C93.661 288.174 93.8273 288.105 93.9752 288.05C94.2957 287.93 94.4201 287.568 94.5321 287.29C94.5891 287.149 94.588 286.938 94.5605 286.698C94.51 286.256 93.9418 285.938 93.5881 285.732C93.4451 285.65 93.2912 285.602 93.1341 285.593C92.7655 285.571 92.5504 286.138 92.4195 286.454C92.3611 286.595 92.3636 286.842 92.3911 287.12C92.4026 287.236 92.4737 287.288 92.5388 287.335C92.6772 287.418 92.8997 287.456 93.1588 287.438C93.2712 287.419 93.3446 287.382 93.4758 287.289" stroke="#FAFAFA" stroke-width="2" stroke-linecap="round"/>
<path d="M92.1413 291.293C92.1046 291.44 91.9934 291.81 92.0112 292.098C92.0288 292.384 92.5662 292.331 92.9555 292.368C93.3193 292.403 93.7329 292.884 94.0404 293.174C94.2861 293.405 94.5504 293.535 94.6983 293.656C94.7666 293.711 94.8462 293.721 94.8381 293.648C94.776 293.084 94.2378 292.778 93.9773 292.425C93.774 292.149 93.496 291.906 93.199 291.692C93.0511 291.609 92.9021 291.516 92.7541 291.414C92.6796 291.367 92.6062 291.331 92.3638 291.237" stroke="#0E0E0B" stroke-opacity="0.87" stroke-linecap="round"/>
<path d="M96.7568 293.239C96.8859 293.184 97.145 292.962 97.3677 292.684C97.5931 292.403 97.7567 292.128 97.9333 291.85C98.1293 291.542 98.4051 291.221 98.5914 290.859C98.6335 290.777 98.6654 290.701 98.6751 290.7C98.409 291.123 97.8145 291.792 97.5457 292.015C97.4803 292.071 97.4253 292.126 97.3129 292.183" stroke="#0E0E0B" stroke-opacity="0.87" stroke-linecap="round"/>
<path d="M100.705 291.738C100.816 291.572 101.038 291.165 101.251 290.785C101.473 290.39 101.446 289.978 101.585 289.534C101.769 288.948 101.577 288.033 101.419 287.587C101.285 287.207 100.783 286.497 100.271 285.919C99.9678 285.576 99.7045 285.51 99.6395 285.463C99.421 285.307 99.9253 286.009 100.083 286.351C100.384 287.003 100.519 287.325 100.566 287.695C100.627 288.188 100.816 289.006 100.724 289.67C100.668 290.069 100.41 290.696 100.26 291.227C100.207 291.417 100.204 291.607 100.296 291.746C100.353 291.832 100.571 291.794 100.694 291.739C100.871 291.573 100.946 291.386 100.992 291.239C101.02 291.164 101.056 291.091 101.15 290.848" stroke="#0E0E0B" stroke-opacity="0.87" stroke-linecap="round"/>
<path d="M96.5342 286.399C96.8667 286.418 97.3105 286.638 97.6361 286.945C97.76 287.062 97.8866 287.177 97.9795 287.224C97.851 286.975 97.6469 286.733 97.4993 286.65C97.4067 286.622 97.2782 286.622 97.1459 286.677" stroke="#0E0E0B" stroke-opacity="0.87" stroke-linecap="round"/>
<path d="M99.0229 286.46C98.9272 286.374 98.7484 286.295 98.5727 286.265C98.3651 286.228 98.2434 286.428 98.2214 286.64C98.1943 286.9 98.4252 287.172 98.656 287.506C98.7525 287.645 98.8467 287.732 98.9287 287.811C99.1063 287.982 99.275 287.978 99.4119 287.985C99.4816 287.988 99.5479 287.941 99.6121 287.87C99.73 287.74 99.5834 287.318 99.4944 287.054C99.4584 286.947 99.4063 286.842 99.3409 286.743C99.1874 286.51 98.9139 286.504 98.7568 286.494C98.6867 286.49 98.6092 286.547 98.5332 286.626C98.5016 286.659 98.516 286.714 98.5296 286.765C98.5634 286.869 98.6484 287.015 98.7671 287.171C98.8218 287.236 98.8654 287.273 98.9522 287.333" stroke="#FAFAFA" stroke-linecap="round"/>
<path d="M95.8874 292.269C95.8261 292.231 95.6931 292.217 95.5521 292.235C95.3854 292.257 95.2383 292.421 95.1723 292.57C95.0913 292.754 95.2249 292.889 95.3447 293.065C95.3948 293.139 95.4547 293.177 95.5061 293.213C95.6174 293.29 95.7604 293.249 95.8742 293.223C95.9321 293.21 95.9986 293.163 96.0685 293.1C96.1968 292.985 96.1677 292.729 96.1518 292.569C96.1454 292.504 96.1251 292.443 96.0921 292.39C96.0148 292.266 95.7858 292.323 95.6557 292.351C95.5977 292.364 95.5198 292.42 95.438 292.491C95.4041 292.521 95.4038 292.555 95.4039 292.587C95.4091 292.651 95.4481 292.731 95.5132 292.811C95.5447 292.843 95.5731 292.859 95.6328 292.881" stroke="#FAFAFA" stroke-linecap="round"/>
<defs>
<filter id="filter0_di_102_298" x="37.1213" y="118.8" width="594.158" height="279.011" filterUnits="userSpaceOnUse" color-interpolation-filters="sRGB">
<feFlood flood-opacity="0" result="BackgroundImageFix"/>
<feColorMatrix in="SourceAlpha" type="matrix" values="0 0 0 0 0 0 0 0 0 0 0 0 0 0 0 0 0 0 127 0" result="hardAlpha"/>
<feOffset dy="17"/>
<feGaussianBlur stdDeviation="6"/>
<feComposite in2="hardAlpha" operator="out"/>
<feColorMatrix type="matrix" values="0 0 0 0 0 0 0 0 0 0 0 0 0 0 0 0 0 0 0.25 0"/>
<feBlend mode="normal" in2="BackgroundImageFix" result="effect1_dropShadow_102_298"/>
<feBlend mode="normal" in="SourceGraphic" in2="effect1_dropShadow_102_298" result="shape"/>
<feColorMatrix in="SourceAlpha" type="matrix" values="0 0 0 0 0 0 0 0 0 0 0 0 0 0 0 0 0 0 127 0" result="hardAlpha"/>
<feOffset dy="7"/>
<feGaussianBlur stdDeviation="4.6"/>
<feComposite in2="hardAlpha" operator="arithmetic" k2="-1" k3="1"/>
<feColorMatrix type="matrix" values="0 0 0 0 0.984314 0 0 0 0 0.694118 0 0 0 0 1 0 0 0 0.25 0"/>
<feBlend mode="normal" in2="shape" result="effect2_innerShadow_102_298"/>
</filter>
<clipPath id="bgblur_0_102_298_clip_path" transform="translate(-37.1213 -118.8)"><path d="M496.972 297.948L520.53 366.868L442.083 324.013L441.919 323.974C399.347 321.135 365.175 284.104 359.869 237.119L322.019 237.67C318.047 288.699 280.024 328.801 233.429 329.018C231.848 329.12 230.503 328.957 228.831 328.716L149.977 368.811L172.919 300.779L57.3884 301.31L129.366 230.107L49.1214 128.558L174.141 128.861L208.591 128.78L211.517 128.841C213.917 128.935 216.28 129.182 218.716 129.124C223.642 129.505 228.805 129.62 233.677 129.505C276.944 129.453 312.593 163.942 320.591 209.804L360.35 209.23C366.808 161.534 403.499 124.814 447.783 124.846C448.474 124.852 449.202 124.705 449.692 124.823C453.473 124.928 457.037 124.498 460.818 124.603L462.4 124.5L493.43 125.689L494.248 125.886L619.28 129.733L539.987 228.468L612.586 302.105L496.881 297.604L496.972 297.948Z"/>
</clipPath><filter id="filter1_i_102_298" x="489" y="342" width="6" height="16" filterUnits="userSpaceOnUse" color-interpolation-filters="sRGB">
<feFlood flood-opacity="0" result="BackgroundImageFix"/>
<feBlend mode="normal" in="SourceGraphic" in2="BackgroundImageFix" result="shape"/>
<feColorMatrix in="SourceAlpha" type="matrix" values="0 0 0 0 0 0 0 0 0 0 0 0 0 0 0 0 0 0 127 0" result="hardAlpha"/>
<feOffset dx="2"/>
<feComposite in2="hardAlpha" operator="arithmetic" k2="-1" k3="1"/>
<feColorMatrix type="matrix" values="0 0 0 0 0.915385 0 0 0 0 0.915385 0 0 0 0 0.915385 0 0 0 1 0"/>
<feBlend mode="normal" in2="shape" result="effect1_innerShadow_102_298"/>
</filter>
<filter id="filter2_i_102_298" x="489" y="352" width="6" height="16" filterUnits="userSpaceOnUse" color-interpolation-filters="sRGB">
<feFlood flood-opacity="0" result="BackgroundImageFix"/>
<feBlend mode="normal" in="SourceGraphic" in2="BackgroundImageFix" result="shape"/>
<feColorMatrix in="SourceAlpha" type="matrix" values="0 0 0 0 0 0 0 0 0 0 0 0 0 0 0 0 0 0 127 0" result="hardAlpha"/>
<feOffset dx="2"/>
<feComposite in2="hardAlpha" operator="arithmetic" k2="-1" k3="1"/>
<feColorMatrix type="matrix" values="0 0 0 0 0.915385 0 0 0 0 0.915385 0 0 0 0 0.915385 0 0 0 1 0"/>
<feBlend mode="normal" in2="shape" result="effect1_innerShadow_102_298"/>
</filter>
<filter id="filter3_ii_102_298" x="484" y="330" width="17" height="17" filterUnits="userSpaceOnUse" color-interpolation-filters="sRGB">
<feFlood flood-opacity="0" result="BackgroundImageFix"/>
<feBlend mode="normal" in="SourceGraphic" in2="BackgroundImageFix" result="shape"/>
<feColorMatrix in="SourceAlpha" type="matrix" values="0 0 0 0 0 0 0 0 0 0 0 0 0 0 0 0 0 0 127 0" result="hardAlpha"/>
<feOffset dy="4"/>
<feComposite in2="hardAlpha" operator="arithmetic" k2="-1" k3="1"/>
<feColorMatrix type="matrix" values="0 0 0 0 0 0 0 0 0 0 0 0 0 0 0 0 0 0 0.25 0"/>
<feBlend mode="normal" in2="shape" result="effect1_innerShadow_102_298"/>
<feColorMatrix in="SourceAlpha" type="matrix" values="0 0 0 0 0 0 0 0 0 0 0 0 0 0 0 0 0 0 127 0" result="hardAlpha"/>
<feOffset dy="-4"/>
<feComposite in2="hardAlpha" operator="arithmetic" k2="-1" k3="1"/>
<feColorMatrix type="matrix" values="0 0 0 0 1 0 0 0 0 1 0 0 0 0 1 0 0 0 0.25 0"/>
<feBlend mode="normal" in2="effect1_innerShadow_102_298" result="effect2_innerShadow_102_298"/>
</filter>
<filter id="filter4_i_102_298" x="569" y="291" width="6" height="16" filterUnits="userSpaceOnUse" color-interpolation-filters="sRGB">
<feFlood flood-opacity="0" result="BackgroundImageFix"/>
<feBlend mode="normal" in="SourceGraphic" in2="BackgroundImageFix" result="shape"/>
<feColorMatrix in="SourceAlpha" type="matrix" values="0 0 0 0 0 0 0 0 0 0 0 0 0 0 0 0 0 0 127 0" result="hardAlpha"/>
<feOffset dx="2"/>
<feComposite in2="hardAlpha" operator="arithmetic" k2="-1" k3="1"/>
<feColorMatrix type="matrix" values="0 0 0 0 0.915385 0 0 0 0 0.915385 0 0 0 0 0.915385 0 0 0 1 0"/>
<feBlend mode="normal" in2="shape" result="effect1_innerShadow_102_298"/>
</filter>
<filter id="filter5_i_102_298" x="569" y="301" width="6" height="16" filterUnits="userSpaceOnUse" color-interpolation-filters="sRGB">
<feFlood flood-opacity="0" result="BackgroundImageFix"/>
<feBlend mode="normal" in="SourceGraphic" in2="BackgroundImageFix" result="shape"/>
<feColorMatrix in="SourceAlpha" type="matrix" values="0 0 0 0 0 0 0 0 0 0 0 0 0 0 0 0 0 0 127 0" result="hardAlpha"/>
<feOffset dx="2"/>
<feComposite in2="hardAlpha" operator="arithmetic" k2="-1" k3="1"/>
<feColorMatrix type="matrix" values="0 0 0 0 0.915385 0 0 0 0 0.915385 0 0 0 0 0.915385 0 0 0 1 0"/>
<feBlend mode="normal" in2="shape" result="effect1_innerShadow_102_298"/>
</filter>
<filter id="filter6_ii_102_298" x="564" y="279" width="17" height="17" filterUnits="userSpaceOnUse" color-interpolation-filters="sRGB">
<feFlood flood-opacity="0" result="BackgroundImageFix"/>
<feBlend mode="normal" in="SourceGraphic" in2="BackgroundImageFix" result="shape"/>
<feColorMatrix in="SourceAlpha" type="matrix" values="0 0 0 0 0 0 0 0 0 0 0 0 0 0 0 0 0 0 127 0" result="hardAlpha"/>
<feOffset dy="4"/>
<feComposite in2="hardAlpha" operator="arithmetic" k2="-1" k3="1"/>
<feColorMatrix type="matrix" values="0 0 0 0 0 0 0 0 0 0 0 0 0 0 0 0 0 0 0.25 0"/>
<feBlend mode="normal" in2="shape" result="effect1_innerShadow_102_298"/>
<feColorMatrix in="SourceAlpha" type="matrix" values="0 0 0 0 0 0 0 0 0 0 0 0 0 0 0 0 0 0 127 0" result="hardAlpha"/>
<feOffset dy="-4"/>
<feComposite in2="hardAlpha" operator="arithmetic" k2="-1" k3="1"/>
<feColorMatrix type="matrix" values="0 0 0 0 1 0 0 0 0 1 0 0 0 0 1 0 0 0 0.25 0"/>
<feBlend mode="normal" in2="effect1_innerShadow_102_298" result="effect2_innerShadow_102_298"/>
</filter>
<filter id="filter7_i_102_298" x="170" y="347" width="6" height="16" filterUnits="userSpaceOnUse" color-interpolation-filters="sRGB">
<feFlood flood-opacity="0" result="BackgroundImageFix"/>
<feBlend mode="normal" in="SourceGraphic" in2="BackgroundImageFix" result="shape"/>
<feColorMatrix in="SourceAlpha" type="matrix" values="0 0 0 0 0 0 0 0 0 0 0 0 0 0 0 0 0 0 127 0" result="hardAlpha"/>
<feOffset dx="2"/>
<feComposite in2="hardAlpha" operator="arithmetic" k2="-1" k3="1"/>
<feColorMatrix type="matrix" values="0 0 0 0 0.915385 0 0 0 0 0.915385 0 0 0 0 0.915385 0 0 0 1 0"/>
<feBlend mode="normal" in2="shape" result="effect1_innerShadow_102_298"/>
</filter>
<filter id="filter8_i_102_298" x="170" y="357" width="6" height="16" filterUnits="userSpaceOnUse" color-interpolation-filters="sRGB">
<feFlood flood-opacity="0" result="BackgroundImageFix"/>
<feBlend mode="normal" in="SourceGraphic" in2="BackgroundImageFix" result="shape"/>
<feColorMatrix in="SourceAlpha" type="matrix" values="0 0 0 0 0 0 0 0 0 0 0 0 0 0 0 0 0 0 127 0" result="hardAlpha"/>
<feOffset dx="2"/>
<feComposite in2="hardAlpha" operator="arithmetic" k2="-1" k3="1"/>
<feColorMatrix type="matrix" values="0 0 0 0 0.915385 0 0 0 0 0.915385 0 0 0 0 0.915385 0 0 0 1 0"/>
<feBlend mode="normal" in2="shape" result="effect1_innerShadow_102_298"/>
</filter>
<filter id="filter9_ii_102_298" x="165" y="335" width="17" height="17" filterUnits="userSpaceOnUse" color-interpolation-filters="sRGB">
<feFlood flood-opacity="0" result="BackgroundImageFix"/>
<feBlend mode="normal" in="SourceGraphic" in2="BackgroundImageFix" result="shape"/>
<feColorMatrix in="SourceAlpha" type="matrix" values="0 0 0 0 0 0 0 0 0 0 0 0 0 0 0 0 0 0 127 0" result="hardAlpha"/>
<feOffset dy="4"/>
<feComposite in2="hardAlpha" operator="arithmetic" k2="-1" k3="1"/>
<feColorMatrix type="matrix" values="0 0 0 0 0 0 0 0 0 0 0 0 0 0 0 0 0 0 0.25 0"/>
<feBlend mode="normal" in2="shape" result="effect1_innerShadow_102_298"/>
<feColorMatrix in="SourceAlpha" type="matrix" values="0 0 0 0 0 0 0 0 0 0 0 0 0 0 0 0 0 0 127 0" result="hardAlpha"/>
<feOffset dy="-4"/>
<feComposite in2="hardAlpha" operator="arithmetic" k2="-1" k3="1"/>
<feColorMatrix type="matrix" values="0 0 0 0 1 0 0 0 0 1 0 0 0 0 1 0 0 0 0.25 0"/>
<feBlend mode="normal" in2="effect1_innerShadow_102_298" result="effect2_innerShadow_102_298"/>
</filter>
<filter id="filter10_i_102_298" x="92" y="293" width="6" height="16" filterUnits="userSpaceOnUse" color-interpolation-filters="sRGB">
<feFlood flood-opacity="0" result="BackgroundImageFix"/>
<feBlend mode="normal" in="SourceGraphic" in2="BackgroundImageFix" result="shape"/>
<feColorMatrix in="SourceAlpha" type="matrix" values="0 0 0 0 0 0 0 0 0 0 0 0 0 0 0 0 0 0 127 0" result="hardAlpha"/>
<feOffset dx="2"/>
<feComposite in2="hardAlpha" operator="arithmetic" k2="-1" k3="1"/>
<feColorMatrix type="matrix" values="0 0 0 0 0.915385 0 0 0 0 0.915385 0 0 0 0 0.915385 0 0 0 1 0"/>
<feBlend mode="normal" in2="shape" result="effect1_innerShadow_102_298"/>
</filter>
<filter id="filter11_i_102_298" x="92" y="303" width="6" height="16" filterUnits="userSpaceOnUse" color-interpolation-filters="sRGB">
<feFlood flood-opacity="0" result="BackgroundImageFix"/>
<feBlend mode="normal" in="SourceGraphic" in2="BackgroundImageFix" result="shape"/>
<feColorMatrix in="SourceAlpha" type="matrix" values="0 0 0 0 0 0 0 0 0 0 0 0 0 0 0 0 0 0 127 0" result="hardAlpha"/>
<feOffset dx="2"/>
<feComposite in2="hardAlpha" operator="arithmetic" k2="-1" k3="1"/>
<feColorMatrix type="matrix" values="0 0 0 0 0.915385 0 0 0 0 0.915385 0 0 0 0 0.915385 0 0 0 1 0"/>
<feBlend mode="normal" in2="shape" result="effect1_innerShadow_102_298"/>
</filter>
<filter id="filter12_ii_102_298" x="87" y="281" width="17" height="17" filterUnits="userSpaceOnUse" color-interpolation-filters="sRGB">
<feFlood flood-opacity="0" result="BackgroundImageFix"/>
<feBlend mode="normal" in="SourceGraphic" in2="BackgroundImageFix" result="shape"/>
<feColorMatrix in="SourceAlpha" type="matrix" values="0 0 0 0 0 0 0 0 0 0 0 0 0 0 0 0 0 0 127 0" result="hardAlpha"/>
<feOffset dy="4"/>
<feComposite in2="hardAlpha" operator="arithmetic" k2="-1" k3="1"/>
<feColorMatrix type="matrix" values="0 0 0 0 0 0 0 0 0 0 0 0 0 0 0 0 0 0 0.25 0"/>
<feBlend mode="normal" in2="shape" result="effect1_innerShadow_102_298"/>
<feColorMatrix in="SourceAlpha" type="matrix" values="0 0 0 0 0 0 0 0 0 0 0 0 0 0 0 0 0 0 127 0" result="hardAlpha"/>
<feOffset dy="-4"/>
<feComposite in2="hardAlpha" operator="arithmetic" k2="-1" k3="1"/>
<feColorMatrix type="matrix" values="0 0 0 0 1 0 0 0 0 1 0 0 0 0 1 0 0 0 0.25 0"/>
<feBlend mode="normal" in2="effect1_innerShadow_102_298" result="effect2_innerShadow_102_298"/>
</filter>
<linearGradient id="paint0_linear_102_298" x1="496.891" y1="414.26" x2="500.307" y2="362.054" gradientUnits="userSpaceOnUse">
<stop stop-color="#A05FF0"/>
<stop offset="0.350962" stop-color="#A24FFD"/>
<stop offset="0.615385" stop-color="#9A43FB"/>
<stop offset="1" stop-color="#4B24A1"/>
</linearGradient>
<linearGradient id="paint1_linear_102_298" x1="482.474" y1="413.884" x2="487.968" y2="361.224" gradientUnits="userSpaceOnUse">
<stop offset="0.00480769" stop-color="#BD5DE8"/>
<stop offset="0.0913462" stop-color="#D082F2"/>
<stop offset="0.177885" stop-color="#D767F0"/>
<stop offset="0.427885" stop-color="#D261F4"/>
<stop offset="0.754808" stop-color="#D961F5"/>
<stop offset="1" stop-color="#B253EA"/>
</linearGradient>
<linearGradient id="paint2_linear_102_298" x1="497.904" y1="394.683" x2="499.8" y2="365.705" gradientUnits="userSpaceOnUse">
<stop stop-color="#9A4AE5"/>
<stop offset="1" stop-color="#803BDA"/>
</linearGradient>
<linearGradient id="paint3_linear_102_298" x1="500.585" y1="375.392" x2="498.055" y2="414.052" gradientUnits="userSpaceOnUse">
<stop stop-color="#BC5CE7"/>
<stop offset="1" stop-color="#D761F5"/>
</linearGradient>
<linearGradient id="paint4_linear_102_298" x1="502.084" y1="385.692" x2="501.253" y2="398.391" gradientUnits="userSpaceOnUse">
<stop stop-color="#DE7FEF"/>
<stop offset="0.9998" stop-color="#D07BEE"/>
</linearGradient>
<linearGradient id="paint5_linear_102_298" x1="497.593" y1="379.245" x2="498.576" y2="364.208" gradientUnits="userSpaceOnUse">
<stop stop-color="#5D30B9"/>
<stop offset="1" stop-color="#5528AB"/>
</linearGradient>
<linearGradient id="paint6_linear_102_298" x1="486.957" y1="382.124" x2="487.804" y2="369.171" gradientUnits="userSpaceOnUse">
<stop stop-color="#9B4BE5"/>
<stop offset="1" stop-color="#7D3AD8"/>
</linearGradient>
<linearGradient id="paint7_linear_102_298" x1="495.243" y1="424.638" x2="499.703" y2="412.237" gradientUnits="userSpaceOnUse">
<stop offset="0.00480769" stop-color="#EFA2F7"/>
<stop offset="1" stop-color="#F6BBFB"/>
</linearGradient>
<linearGradient id="paint8_linear_102_298" x1="493.668" y1="422.834" x2="488.514" y2="412.325" gradientUnits="userSpaceOnUse">
<stop offset="0.00480769" stop-color="#DF96F5"/>
<stop offset="0.719249" stop-color="#FBACF9"/>
<stop offset="1" stop-color="#F8C0FB"/>
</linearGradient>
<linearGradient id="paint9_linear_102_298" x1="494.178" y1="424.568" x2="488.653" y2="411.194" gradientUnits="userSpaceOnUse">
<stop stop-color="#E491F9"/>
<stop offset="1" stop-color="#F8C0FB"/>
</linearGradient>
<linearGradient id="paint10_linear_102_298" x1="502.123" y1="412.902" x2="498.005" y2="372.154" gradientUnits="userSpaceOnUse">
<stop stop-color="#F2AEFA"/>
<stop offset="0.139077" stop-color="#FEE9FE"/>
<stop offset="0.461576" stop-color="#FEE9FE"/>
<stop offset="1" stop-color="#9A47ED"/>
</linearGradient>
<linearGradient id="paint11_linear_102_298" x1="486.319" y1="379.589" x2="488.491" y2="384.099" gradientUnits="userSpaceOnUse">
<stop stop-color="#7D3BE5"/>
<stop offset="1" stop-color="#A251F6"/>
</linearGradient>
<linearGradient id="paint12_linear_102_298" x1="490" y1="350" x2="494" y2="350" gradientUnits="userSpaceOnUse">
<stop stop-color="#D9D9D9"/>
<stop offset="1" stop-color="#737373"/>
</linearGradient>
<linearGradient id="paint13_linear_102_298" x1="494" y1="350" x2="490" y2="350" gradientUnits="userSpaceOnUse">
<stop stop-color="#E9E9E9"/>
<stop offset="1" stop-color="#666666"/>
</linearGradient>
<linearGradient id="paint14_linear_102_298" x1="490" y1="360" x2="494" y2="360" gradientUnits="userSpaceOnUse">
<stop stop-color="#D9D9D9"/>
<stop offset="1" stop-color="#737373"/>
</linearGradient>
<linearGradient id="paint15_linear_102_298" x1="494" y1="360" x2="490" y2="360" gradientUnits="userSpaceOnUse">
<stop stop-color="#E9E9E9"/>
<stop offset="1" stop-color="#666666"/>
</linearGradient>
<linearGradient id="paint16_linear_102_298" x1="501" y1="339" x2="484" y2="339" gradientUnits="userSpaceOnUse">
<stop stop-color="#D9D9D9"/>
<stop offset="1" stop-color="#737373"/>
</linearGradient>
<linearGradient id="paint17_linear_102_298" x1="484" y1="339" x2="501" y2="339" gradientUnits="userSpaceOnUse">
<stop stop-color="white"/>
<stop offset="1" stop-color="#595959"/>
</linearGradient>
<linearGradient id="paint18_linear_102_298" x1="576.891" y1="363.26" x2="580.307" y2="311.054" gradientUnits="userSpaceOnUse">
<stop stop-color="#A05FF0"/>
<stop offset="0.350962" stop-color="#A24FFD"/>
<stop offset="0.615385" stop-color="#9A43FB"/>
<stop offset="1" stop-color="#4B24A1"/>
</linearGradient>
<linearGradient id="paint19_linear_102_298" x1="562.474" y1="362.884" x2="567.968" y2="310.224" gradientUnits="userSpaceOnUse">
<stop offset="0.00480769" stop-color="#BD5DE8"/>
<stop offset="0.0913462" stop-color="#D082F2"/>
<stop offset="0.177885" stop-color="#D767F0"/>
<stop offset="0.427885" stop-color="#D261F4"/>
<stop offset="0.754808" stop-color="#D961F5"/>
<stop offset="1" stop-color="#B253EA"/>
</linearGradient>
<linearGradient id="paint20_linear_102_298" x1="577.904" y1="343.683" x2="579.8" y2="314.705" gradientUnits="userSpaceOnUse">
<stop stop-color="#9A4AE5"/>
<stop offset="1" stop-color="#803BDA"/>
</linearGradient>
<linearGradient id="paint21_linear_102_298" x1="580.585" y1="324.392" x2="578.055" y2="363.052" gradientUnits="userSpaceOnUse">
<stop stop-color="#BC5CE7"/>
<stop offset="1" stop-color="#D761F5"/>
</linearGradient>
<linearGradient id="paint22_linear_102_298" x1="582.084" y1="334.692" x2="581.253" y2="347.391" gradientUnits="userSpaceOnUse">
<stop stop-color="#DE7FEF"/>
<stop offset="0.9998" stop-color="#D07BEE"/>
</linearGradient>
<linearGradient id="paint23_linear_102_298" x1="577.593" y1="328.245" x2="578.576" y2="313.208" gradientUnits="userSpaceOnUse">
<stop stop-color="#5D30B9"/>
<stop offset="1" stop-color="#5528AB"/>
</linearGradient>
<linearGradient id="paint24_linear_102_298" x1="566.957" y1="331.124" x2="567.804" y2="318.171" gradientUnits="userSpaceOnUse">
<stop stop-color="#9B4BE5"/>
<stop offset="1" stop-color="#7D3AD8"/>
</linearGradient>
<linearGradient id="paint25_linear_102_298" x1="575.243" y1="373.638" x2="579.703" y2="361.237" gradientUnits="userSpaceOnUse">
<stop offset="0.00480769" stop-color="#EFA2F7"/>
<stop offset="1" stop-color="#F6BBFB"/>
</linearGradient>
<linearGradient id="paint26_linear_102_298" x1="573.668" y1="371.834" x2="568.514" y2="361.325" gradientUnits="userSpaceOnUse">
<stop offset="0.00480769" stop-color="#DF96F5"/>
<stop offset="0.719249" stop-color="#FBACF9"/>
<stop offset="1" stop-color="#F8C0FB"/>
</linearGradient>
<linearGradient id="paint27_linear_102_298" x1="574.178" y1="373.568" x2="568.653" y2="360.194" gradientUnits="userSpaceOnUse">
<stop stop-color="#E491F9"/>
<stop offset="1" stop-color="#F8C0FB"/>
</linearGradient>
<linearGradient id="paint28_linear_102_298" x1="582.123" y1="361.902" x2="578.005" y2="321.154" gradientUnits="userSpaceOnUse">
<stop stop-color="#F2AEFA"/>
<stop offset="0.139077" stop-color="#FEE9FE"/>
<stop offset="0.461576" stop-color="#FEE9FE"/>
<stop offset="1" stop-color="#9A47ED"/>
</linearGradient>
<linearGradient id="paint29_linear_102_298" x1="566.319" y1="328.589" x2="568.491" y2="333.099" gradientUnits="userSpaceOnUse">
<stop stop-color="#7D3BE5"/>
<stop offset="1" stop-color="#A251F6"/>
</linearGradient>
<linearGradient id="paint30_linear_102_298" x1="570" y1="299" x2="574" y2="299" gradientUnits="userSpaceOnUse">
<stop stop-color="#D9D9D9"/>
<stop offset="1" stop-color="#737373"/>
</linearGradient>
<linearGradient id="paint31_linear_102_298" x1="574" y1="299" x2="570" y2="299" gradientUnits="userSpaceOnUse">
<stop stop-color="#E9E9E9"/>
<stop offset="1" stop-color="#666666"/>
</linearGradient>
<linearGradient id="paint32_linear_102_298" x1="570" y1="309" x2="574" y2="309" gradientUnits="userSpaceOnUse">
<stop stop-color="#D9D9D9"/>
<stop offset="1" stop-color="#737373"/>
</linearGradient>
<linearGradient id="paint33_linear_102_298" x1="574" y1="309" x2="570" y2="309" gradientUnits="userSpaceOnUse">
<stop stop-color="#E9E9E9"/>
<stop offset="1" stop-color="#666666"/>
</linearGradient>
<linearGradient id="paint34_linear_102_298" x1="581" y1="288" x2="564" y2="288" gradientUnits="userSpaceOnUse">
<stop stop-color="#D9D9D9"/>
<stop offset="1" stop-color="#737373"/>
</linearGradient>
<linearGradient id="paint35_linear_102_298" x1="564" y1="288" x2="581" y2="288" gradientUnits="userSpaceOnUse">
<stop stop-color="white"/>
<stop offset="1" stop-color="#595959"/>
</linearGradient>
<linearGradient id="paint36_linear_102_298" x1="177.891" y1="419.26" x2="181.307" y2="367.054" gradientUnits="userSpaceOnUse">
<stop stop-color="#A05FF0"/>
<stop offset="0.350962" stop-color="#A24FFD"/>
<stop offset="0.615385" stop-color="#9A43FB"/>
<stop offset="1" stop-color="#4B24A1"/>
</linearGradient>
<linearGradient id="paint37_linear_102_298" x1="163.474" y1="418.884" x2="168.967" y2="366.224" gradientUnits="userSpaceOnUse">
<stop offset="0.00480769" stop-color="#BD5DE8"/>
<stop offset="0.0913462" stop-color="#D082F2"/>
<stop offset="0.177885" stop-color="#D767F0"/>
<stop offset="0.427885" stop-color="#D261F4"/>
<stop offset="0.754808" stop-color="#D961F5"/>
<stop offset="1" stop-color="#B253EA"/>
</linearGradient>
<linearGradient id="paint38_linear_102_298" x1="178.904" y1="399.683" x2="180.8" y2="370.705" gradientUnits="userSpaceOnUse">
<stop stop-color="#9A4AE5"/>
<stop offset="1" stop-color="#803BDA"/>
</linearGradient>
<linearGradient id="paint39_linear_102_298" x1="181.585" y1="380.392" x2="179.055" y2="419.052" gradientUnits="userSpaceOnUse">
<stop stop-color="#BC5CE7"/>
<stop offset="1" stop-color="#D761F5"/>
</linearGradient>
<linearGradient id="paint40_linear_102_298" x1="183.084" y1="390.692" x2="182.253" y2="403.391" gradientUnits="userSpaceOnUse">
<stop stop-color="#DE7FEF"/>
<stop offset="0.9998" stop-color="#D07BEE"/>
</linearGradient>
<linearGradient id="paint41_linear_102_298" x1="178.592" y1="384.245" x2="179.576" y2="369.208" gradientUnits="userSpaceOnUse">
<stop stop-color="#5D30B9"/>
<stop offset="1" stop-color="#5528AB"/>
</linearGradient>
<linearGradient id="paint42_linear_102_298" x1="167.957" y1="387.124" x2="168.804" y2="374.171" gradientUnits="userSpaceOnUse">
<stop stop-color="#9B4BE5"/>
<stop offset="1" stop-color="#7D3AD8"/>
</linearGradient>
<linearGradient id="paint43_linear_102_298" x1="176.243" y1="429.638" x2="180.703" y2="417.237" gradientUnits="userSpaceOnUse">
<stop offset="0.00480769" stop-color="#EFA2F7"/>
<stop offset="1" stop-color="#F6BBFB"/>
</linearGradient>
<linearGradient id="paint44_linear_102_298" x1="174.667" y1="427.834" x2="169.514" y2="417.325" gradientUnits="userSpaceOnUse">
<stop offset="0.00480769" stop-color="#DF96F5"/>
<stop offset="0.719249" stop-color="#FBACF9"/>
<stop offset="1" stop-color="#F8C0FB"/>
</linearGradient>
<linearGradient id="paint45_linear_102_298" x1="175.178" y1="429.568" x2="169.652" y2="416.194" gradientUnits="userSpaceOnUse">
<stop stop-color="#E491F9"/>
<stop offset="1" stop-color="#F8C0FB"/>
</linearGradient>
<linearGradient id="paint46_linear_102_298" x1="183.123" y1="417.902" x2="179.005" y2="377.154" gradientUnits="userSpaceOnUse">
<stop stop-color="#F2AEFA"/>
<stop offset="0.139077" stop-color="#FEE9FE"/>
<stop offset="0.461576" stop-color="#FEE9FE"/>
<stop offset="1" stop-color="#9A47ED"/>
</linearGradient>
<linearGradient id="paint47_linear_102_298" x1="167.319" y1="384.589" x2="169.491" y2="389.099" gradientUnits="userSpaceOnUse">
<stop stop-color="#7D3BE5"/>
<stop offset="1" stop-color="#A251F6"/>
</linearGradient>
<linearGradient id="paint48_linear_102_298" x1="171" y1="355" x2="175" y2="355" gradientUnits="userSpaceOnUse">
<stop stop-color="#D9D9D9"/>
<stop offset="1" stop-color="#737373"/>
</linearGradient>
<linearGradient id="paint49_linear_102_298" x1="175" y1="355" x2="171" y2="355" gradientUnits="userSpaceOnUse">
<stop stop-color="#E9E9E9"/>
<stop offset="1" stop-color="#666666"/>
</linearGradient>
<linearGradient id="paint50_linear_102_298" x1="171" y1="365" x2="175" y2="365" gradientUnits="userSpaceOnUse">
<stop stop-color="#D9D9D9"/>
<stop offset="1" stop-color="#737373"/>
</linearGradient>
<linearGradient id="paint51_linear_102_298" x1="175" y1="365" x2="171" y2="365" gradientUnits="userSpaceOnUse">
<stop stop-color="#E9E9E9"/>
<stop offset="1" stop-color="#666666"/>
</linearGradient>
<linearGradient id="paint52_linear_102_298" x1="182" y1="344" x2="165" y2="344" gradientUnits="userSpaceOnUse">
<stop stop-color="#D9D9D9"/>
<stop offset="1" stop-color="#737373"/>
</linearGradient>
<linearGradient id="paint53_linear_102_298" x1="165" y1="344" x2="182" y2="344" gradientUnits="userSpaceOnUse">
<stop stop-color="white"/>
<stop offset="1" stop-color="#595959"/>
</linearGradient>
<linearGradient id="paint54_linear_102_298" x1="99.8909" y1="365.26" x2="103.307" y2="313.054" gradientUnits="userSpaceOnUse">
<stop stop-color="#A05FF0"/>
<stop offset="0.350962" stop-color="#A24FFD"/>
<stop offset="0.615385" stop-color="#9A43FB"/>
<stop offset="1" stop-color="#4B24A1"/>
</linearGradient>
<linearGradient id="paint55_linear_102_298" x1="85.4737" y1="364.884" x2="90.9674" y2="312.224" gradientUnits="userSpaceOnUse">
<stop offset="0.00480769" stop-color="#BD5DE8"/>
<stop offset="0.0913462" stop-color="#D082F2"/>
<stop offset="0.177885" stop-color="#D767F0"/>
<stop offset="0.427885" stop-color="#D261F4"/>
<stop offset="0.754808" stop-color="#D961F5"/>
<stop offset="1" stop-color="#B253EA"/>
</linearGradient>
<linearGradient id="paint56_linear_102_298" x1="100.904" y1="345.683" x2="102.8" y2="316.705" gradientUnits="userSpaceOnUse">
<stop stop-color="#9A4AE5"/>
<stop offset="1" stop-color="#803BDA"/>
</linearGradient>
<linearGradient id="paint57_linear_102_298" x1="103.585" y1="326.392" x2="101.055" y2="365.052" gradientUnits="userSpaceOnUse">
<stop stop-color="#BC5CE7"/>
<stop offset="1" stop-color="#D761F5"/>
</linearGradient>
<linearGradient id="paint58_linear_102_298" x1="105.084" y1="336.692" x2="104.253" y2="349.391" gradientUnits="userSpaceOnUse">
<stop stop-color="#DE7FEF"/>
<stop offset="0.9998" stop-color="#D07BEE"/>
</linearGradient>
<linearGradient id="paint59_linear_102_298" x1="100.592" y1="330.245" x2="101.576" y2="315.208" gradientUnits="userSpaceOnUse">
<stop stop-color="#5D30B9"/>
<stop offset="1" stop-color="#5528AB"/>
</linearGradient>
<linearGradient id="paint60_linear_102_298" x1="89.9568" y1="333.124" x2="90.8044" y2="320.171" gradientUnits="userSpaceOnUse">
<stop stop-color="#9B4BE5"/>
<stop offset="1" stop-color="#7D3AD8"/>
</linearGradient>
<linearGradient id="paint61_linear_102_298" x1="98.2431" y1="375.638" x2="102.703" y2="363.237" gradientUnits="userSpaceOnUse">
<stop offset="0.00480769" stop-color="#EFA2F7"/>
<stop offset="1" stop-color="#F6BBFB"/>
</linearGradient>
<linearGradient id="paint62_linear_102_298" x1="96.6674" y1="373.834" x2="91.5138" y2="363.325" gradientUnits="userSpaceOnUse">
<stop offset="0.00480769" stop-color="#DF96F5"/>
<stop offset="0.719249" stop-color="#FBACF9"/>
<stop offset="1" stop-color="#F8C0FB"/>
</linearGradient>
<linearGradient id="paint63_linear_102_298" x1="97.1778" y1="375.568" x2="91.6523" y2="362.194" gradientUnits="userSpaceOnUse">
<stop stop-color="#E491F9"/>
<stop offset="1" stop-color="#F8C0FB"/>
</linearGradient>
<linearGradient id="paint64_linear_102_298" x1="105.123" y1="363.902" x2="101.005" y2="323.154" gradientUnits="userSpaceOnUse">
<stop stop-color="#F2AEFA"/>
<stop offset="0.139077" stop-color="#FEE9FE"/>
<stop offset="0.461576" stop-color="#FEE9FE"/>
<stop offset="1" stop-color="#9A47ED"/>
</linearGradient>
<linearGradient id="paint65_linear_102_298" x1="89.3191" y1="330.589" x2="91.4911" y2="335.099" gradientUnits="userSpaceOnUse">
<stop stop-color="#7D3BE5"/>
<stop offset="1" stop-color="#A251F6"/>
</linearGradient>
<linearGradient id="paint66_linear_102_298" x1="93" y1="301" x2="97" y2="301" gradientUnits="userSpaceOnUse">
<stop stop-color="#D9D9D9"/>
<stop offset="1" stop-color="#737373"/>
</linearGradient>
<linearGradient id="paint67_linear_102_298" x1="97" y1="301" x2="93" y2="301" gradientUnits="userSpaceOnUse">
<stop stop-color="#E9E9E9"/>
<stop offset="1" stop-color="#666666"/>
</linearGradient>
<linearGradient id="paint68_linear_102_298" x1="93" y1="311" x2="97" y2="311" gradientUnits="userSpaceOnUse">
<stop stop-color="#D9D9D9"/>
<stop offset="1" stop-color="#737373"/>
</linearGradient>
<linearGradient id="paint69_linear_102_298" x1="97" y1="311" x2="93" y2="311" gradientUnits="userSpaceOnUse">
<stop stop-color="#E9E9E9"/>
<stop offset="1" stop-color="#666666"/>
</linearGradient>
<linearGradient id="paint70_linear_102_298" x1="104" y1="290" x2="87" y2="290" gradientUnits="userSpaceOnUse">
<stop stop-color="#D9D9D9"/>
<stop offset="1" stop-color="#737373"/>
</linearGradient>
<linearGradient id="paint71_linear_102_298" x1="87" y1="290" x2="104" y2="290" gradientUnits="userSpaceOnUse">
<stop stop-color="white"/>
<stop offset="1" stop-color="#595959"/>
</linearGradient>
</defs>
</svg>
