<svg width="660" height="471" viewBox="0 0 660 471" fill="none" xmlns="http://www.w3.org/2000/svg">
<path d="M568.028 203.04L560.474 203.04L540.028 228.5L553.527 242.5L568.027 242.5L568.028 203.04Z" fill="#B837B9"/>
<path d="M101.385 204.5L109 204.5L129 230L115 244L101.385 244.059L101.385 204.5Z" fill="#B837B9"/>
<ellipse opacity="0.99" cx="9.88894" cy="17.6855" rx="9.88894" ry="17.6855" transform="matrix(0.955665 0.294457 -0.267188 0.963644 315.478 235)" fill="#B636B7"/>
<ellipse opacity="0.99" cx="9.88894" cy="17.6855" rx="9.88894" ry="17.6855" transform="matrix(-0.955665 0.294457 0.267188 0.963644 366.928 235)" fill="#B636B7"/>
<foreignObject x="37.1211" y="118.8" width="594.159" height="279.011"><div xmlns="http://www.w3.org/1999/xhtml" style="backdrop-filter:blur(2.85px);clip-path:url(#bgblur_0_102_627_clip_path);height:100%;width:100%"></div></foreignObject><g filter="url(#filter0_di_102_627)" data-figma-bg-blur-radius="5.7">
<path d="M496.971 297.948L520.53 366.868L442.082 324.013L441.919 323.974C399.347 321.135 365.175 284.104 359.869 237.119L322.019 237.67C318.046 288.699 280.023 328.801 233.429 329.018C231.847 329.12 230.502 328.957 228.83 328.716L149.976 368.811L172.919 300.779L57.3881 301.31L129.366 230.107L49.1212 128.558L174.141 128.861L208.59 128.78L211.517 128.841C213.917 128.935 216.28 129.182 218.716 129.124C223.642 129.505 228.805 129.62 233.677 129.505C276.944 129.453 312.593 163.942 320.591 209.804L360.35 209.23C366.808 161.534 403.498 124.814 447.783 124.846C448.474 124.852 449.201 124.705 449.692 124.823C453.473 124.928 457.037 124.498 460.818 124.603L462.4 124.5L493.43 125.689L494.248 125.886L619.28 129.733L539.986 228.468L612.586 302.105L496.881 297.604L496.971 297.948Z" fill="#B700FF" fill-opacity="0.4" shape-rendering="crispEdges"/>
</g>
<path d="M549.03 355.773L542.052 352.448L543.946 398.607L558.529 405.773L549.03 355.773Z" fill="url(#paint0_linear_102_627)"/>
<path d="M544.248 398.787L531.529 406.273L536.029 356.773L542.169 352.456L544.248 398.787Z" fill="url(#paint1_linear_102_627)"/>
<path d="M543.705 360.491L543.329 370.669C543.586 368.419 544.939 365.447 548.292 371.561C549.899 374.492 550.729 377.182 551.11 379.382C549.736 384.626 551.338 385.981 551.182 384.503C551.407 383.584 551.524 381.771 551.11 379.382C551.417 378.211 551.873 376.845 552.53 375.273L550.53 364.773L549.53 358.773L545.555 356.361L543.705 360.491Z" fill="url(#paint2_linear_102_627)"/>
<path d="M544.99 398.835L543.618 368.138L545.959 366.024L548.874 369.332L552.53 374.773L555.53 391.273L556.779 397.773C550.67 398.96 554.418 403.325 556.779 405.558L544.99 398.835Z" fill="url(#paint3_linear_102_627)"/>
<path d="M553.161 389.451C554.161 389.516 553.83 386.872 554.53 384.273L553.53 379.273C553.119 379.152 552.53 378.904 550.53 378.773C548.529 378.642 549.263 382.111 548.759 384.912C549.81 386.397 552.161 389.385 553.161 389.451Z" fill="url(#paint4_linear_102_627)"/>
<path d="M543.118 359.886L546.276 354.991L549.03 355.773L549.03 361.773L548.53 368.273C545.842 369.325 546.03 365.273 546.03 364.273C546.029 356.685 544.802 362.83 542.888 363.272C541.357 363.625 542.404 361.162 543.118 359.886Z" fill="url(#paint5_linear_102_627)"/>
<path d="M549.086 360.773C542.339 352.85 544.578 356.864 544.093 359.383L543.175 359.04L543.577 353.115L549.086 355.84C549.03 357.273 549.101 360.547 549.086 360.773Z" fill="#492195"/>
<path d="M541.197 370.138C542.939 374.064 543.667 373.136 543.975 372.129L542.571 360.417C538.012 360.68 535.529 362.355 535.529 368.773C535.529 370.773 537.751 373.369 538.547 372.207C538.705 369.881 539.456 366.212 541.197 370.138Z" fill="url(#paint6_linear_102_627)"/>
<path d="M535.03 367.773L536.029 356.773L542.169 352.456L542.279 353.741L542.808 361.566C538.383 360.143 537.523 363.172 537.03 364.273C536.056 371.238 535.702 368.667 535.03 367.773Z" fill="#672DC2"/>
<path d="M545.227 399.984L545.842 415.045L555.263 405.742L545.227 399.984Z" fill="url(#paint7_linear_102_627)"/>
<path d="M543.469 400.152L545.842 415.045L534.629 406.376L543.469 400.152Z" fill="url(#paint8_linear_102_627)"/>
<path d="M545.842 415.045C545.878 414.385 545.907 413.727 545.929 413.07C546.081 408.608 545.916 404.197 545.433 399.837L545.093 396.901L542.289 398.725C540.993 399.56 539.716 400.42 538.46 401.304C536.77 402.495 535.116 403.729 533.498 405.008L531.616 406.185L533.376 407.719C536.746 410.021 540.282 412.145 543.984 414.091C544.599 414.414 545.218 414.731 545.842 415.045C545.401 414.535 544.956 414.03 544.507 413.531C541.798 410.519 538.923 407.686 535.882 405.032L535.76 407.743C537.524 406.642 539.251 405.496 540.942 404.306C542.198 403.421 543.434 402.513 544.649 401.579L541.505 400.467C542.401 404.761 543.614 409.004 545.145 413.196C545.37 413.813 545.602 414.429 545.842 415.045Z" fill="url(#paint9_linear_102_627)"/>
<path d="M546.299 415.046C546.144 415.16 545.951 415.218 545.757 415.2C545.564 415.182 545.386 415.091 545.262 414.946C545.138 414.8 545.076 414.61 545.089 414.416C545.103 414.222 545.19 414.041 545.327 413.906C545.327 413.906 545.327 413.906 545.327 413.906C546.141 413.104 546.957 412.304 547.776 411.508C550.171 409.18 552.59 406.878 555.032 404.603L555.291 407.125C551.461 405.258 547.66 403.34 543.887 401.371L542.949 400.882L542.882 399.761C542.724 397.112 542.588 394.463 542.475 391.812C542.467 391.621 542.459 391.429 542.451 391.238C542.052 381.193 541.977 371.139 542.228 361.07C542.256 359.929 542.289 358.789 542.325 357.649C542.332 357.456 542.405 357.269 542.539 357.128C542.672 356.986 542.854 356.902 543.045 356.894C543.237 356.886 543.425 356.954 543.569 357.083C543.714 357.213 543.802 357.393 543.824 357.584C543.824 357.584 543.824 357.584 543.824 357.584C543.954 358.717 544.08 359.85 544.201 360.984C545.275 370.996 546.024 381.021 546.447 391.061C546.456 391.249 546.464 391.441 546.472 391.633C546.585 394.283 546.676 396.934 546.744 399.587L545.739 397.976C549.443 400.073 553.119 402.222 556.767 404.421L558.738 405.605L557.025 406.943C554.392 408.993 551.735 411.015 549.055 413.01C548.139 413.692 547.22 414.371 546.299 415.046Z" fill="url(#paint10_linear_102_627)"/>
<path d="M537.623 405.504C537.177 405.194 536.626 405.062 536.08 405.151C535.536 405.239 535.042 405.541 534.717 405.977C534.393 406.413 534.267 406.944 534.377 407.439C534.487 407.935 534.824 408.355 535.304 408.621C535.304 408.621 535.304 408.621 535.304 408.621C535.65 408.812 535.996 409.004 536.343 409.195C538.854 410.584 541.366 411.973 543.877 413.362L546.116 414.891L546.293 412.258C546.124 408.344 545.955 404.431 545.785 400.518C545.77 400.154 545.754 399.79 545.738 399.426C545.214 399.408 544.69 399.39 544.166 399.373C544.138 399.735 544.11 400.098 544.082 400.46C543.782 404.358 543.482 408.255 543.182 412.153L545.599 411.049C543.262 409.425 540.926 407.801 538.59 406.176C538.268 405.952 537.946 405.728 537.623 405.504Z" fill="#FEEBFE"/>
<path d="M552.165 405.182C552.574 404.828 553.106 404.642 553.657 404.678C554.208 404.713 554.731 404.967 555.101 405.371C555.472 405.775 555.655 406.293 555.599 406.798C555.544 407.303 555.255 407.755 554.806 408.065C554.806 408.065 554.806 408.065 554.806 408.065C554.492 408.283 554.178 408.501 553.864 408.719C551.674 410.237 549.484 411.756 547.295 413.274L545.148 415.096L544.742 412.361C544.604 408.447 544.466 404.533 544.328 400.62C544.315 400.265 544.303 399.91 544.29 399.555C544.81 399.499 545.329 399.442 545.849 399.386C545.905 399.736 545.961 400.086 546.017 400.437C546.632 404.299 547.248 408.161 547.864 412.023L545.311 411.109C547.309 409.381 549.307 407.654 551.305 405.926C551.592 405.678 551.879 405.43 552.165 405.182Z" fill="#FEEBFE"/>
<path d="M543.813 396.862C544.531 397.984 545.249 399.106 545.967 400.228C545.829 400.277 545.691 400.326 545.552 400.375C543.063 401.259 540.574 402.143 538.084 403.027C537.946 403.076 537.808 403.125 537.669 403.174C537.772 403.069 537.874 402.963 537.977 402.858C539.82 400.965 541.663 399.071 543.506 397.178C543.609 397.073 543.711 396.968 543.813 396.862Z" fill="#FEEBFE"/>
<path d="M536.353 371.349C536.779 373.112 540.434 374.891 541.074 374.323C541.714 373.755 541.621 371.533 540.387 371.239C539.62 371.056 538.657 371.954 538.657 371.954C537.009 371.657 536.107 370.329 536.353 371.349Z" fill="url(#paint11_linear_102_627)"/>
<ellipse cx="543" cy="357.5" rx="2" ry="2.5" fill="black"/>
<g filter="url(#filter1_i_102_627)">
<ellipse cx="543" cy="341" rx="2" ry="7" fill="url(#paint12_linear_102_627)"/>
</g>
<path d="M543 333.5C543.53 333.5 543.923 333.872 544.192 334.271C544.473 334.686 544.707 335.255 544.895 335.913C545.272 337.236 545.5 339.034 545.5 341C545.5 342.966 545.272 344.764 544.895 346.087C544.707 346.745 544.473 347.314 544.192 347.729C543.923 348.128 543.53 348.5 543 348.5C542.47 348.5 542.077 348.128 541.808 347.729C541.527 347.314 541.293 346.745 541.105 346.087C540.728 344.764 540.5 342.966 540.5 341C540.5 339.034 540.728 337.236 541.105 335.913C541.293 335.255 541.527 334.686 541.808 334.271C542.077 333.872 542.47 333.5 543 333.5Z" stroke="url(#paint13_linear_102_627)"/>
<g filter="url(#filter2_i_102_627)">
<ellipse cx="543" cy="351" rx="2" ry="7" fill="url(#paint14_linear_102_627)"/>
</g>
<path d="M543 343.5C543.53 343.5 543.923 343.872 544.192 344.271C544.473 344.686 544.707 345.255 544.895 345.913C545.272 347.236 545.5 349.034 545.5 351C545.5 352.966 545.272 354.764 544.895 356.087C544.707 356.745 544.473 357.314 544.192 357.729C543.923 358.128 543.53 358.5 543 358.5C542.47 358.5 542.077 358.128 541.808 357.729C541.527 357.314 541.293 356.745 541.105 356.087C540.728 354.764 540.5 352.966 540.5 351C540.5 349.034 540.728 347.236 541.105 345.913C541.293 345.255 541.527 344.686 541.808 344.271C542.077 343.872 542.47 343.5 543 343.5Z" stroke="url(#paint15_linear_102_627)"/>
<g filter="url(#filter3_i_102_627)">
<ellipse cx="543" cy="321" rx="2" ry="7" fill="url(#paint16_linear_102_627)"/>
</g>
<path d="M543 313.5C543.53 313.5 543.923 313.872 544.192 314.271C544.473 314.686 544.707 315.255 544.895 315.913C545.272 317.236 545.5 319.034 545.5 321C545.5 322.966 545.272 324.764 544.895 326.087C544.707 326.745 544.473 327.314 544.192 327.729C543.923 328.128 543.53 328.5 543 328.5C542.47 328.5 542.077 328.128 541.808 327.729C541.527 327.314 541.293 326.745 541.105 326.087C540.728 324.764 540.5 322.966 540.5 321C540.5 319.034 540.728 317.236 541.105 315.913C541.293 315.255 541.527 314.686 541.808 314.271C542.077 313.872 542.47 313.5 543 313.5Z" stroke="url(#paint17_linear_102_627)"/>
<g filter="url(#filter4_i_102_627)">
<ellipse cx="543" cy="331" rx="2" ry="7" fill="url(#paint18_linear_102_627)"/>
</g>
<path d="M543 323.5C543.53 323.5 543.923 323.872 544.192 324.271C544.473 324.686 544.707 325.255 544.895 325.913C545.272 327.236 545.5 329.034 545.5 331C545.5 332.966 545.272 334.764 544.895 336.087C544.707 336.745 544.473 337.314 544.192 337.729C543.923 338.128 543.53 338.5 543 338.5C542.47 338.5 542.077 338.128 541.808 337.729C541.527 337.314 541.293 336.745 541.105 336.087C540.728 334.764 540.5 332.966 540.5 331C540.5 329.034 540.728 327.236 541.105 325.913C541.293 325.255 541.527 324.686 541.808 324.271C542.077 323.872 542.47 323.5 543 323.5Z" stroke="url(#paint19_linear_102_627)"/>
<g filter="url(#filter5_i_102_627)">
<ellipse cx="543" cy="301" rx="2" ry="7" fill="url(#paint20_linear_102_627)"/>
</g>
<path d="M543 293.5C543.53 293.5 543.923 293.872 544.192 294.271C544.473 294.686 544.707 295.255 544.895 295.913C545.272 297.236 545.5 299.034 545.5 301C545.5 302.966 545.272 304.764 544.895 306.087C544.707 306.745 544.473 307.314 544.192 307.729C543.923 308.128 543.53 308.5 543 308.5C542.47 308.5 542.077 308.128 541.808 307.729C541.527 307.314 541.293 306.745 541.105 306.087C540.728 304.764 540.5 302.966 540.5 301C540.5 299.034 540.728 297.236 541.105 295.913C541.293 295.255 541.527 294.686 541.808 294.271C542.077 293.872 542.47 293.5 543 293.5Z" stroke="url(#paint21_linear_102_627)"/>
<g filter="url(#filter6_i_102_627)">
<ellipse cx="543" cy="311" rx="2" ry="7" fill="url(#paint22_linear_102_627)"/>
</g>
<path d="M543 303.5C543.53 303.5 543.923 303.872 544.192 304.271C544.473 304.686 544.707 305.255 544.895 305.913C545.272 307.236 545.5 309.034 545.5 311C545.5 312.966 545.272 314.764 544.895 316.087C544.707 316.745 544.473 317.314 544.192 317.729C543.923 318.128 543.53 318.5 543 318.5C542.47 318.5 542.077 318.128 541.808 317.729C541.527 317.314 541.293 316.745 541.105 316.087C540.728 314.764 540.5 312.966 540.5 311C540.5 309.034 540.728 307.236 541.105 305.913C541.293 305.255 541.527 304.686 541.808 304.271C542.077 303.872 542.47 303.5 543 303.5Z" stroke="url(#paint23_linear_102_627)"/>
<g filter="url(#filter7_i_102_627)">
<ellipse cx="543" cy="281" rx="2" ry="7" fill="url(#paint24_linear_102_627)"/>
</g>
<path d="M543 273.5C543.53 273.5 543.923 273.872 544.192 274.271C544.473 274.686 544.707 275.255 544.895 275.913C545.272 277.236 545.5 279.034 545.5 281C545.5 282.966 545.272 284.764 544.895 286.087C544.707 286.745 544.473 287.314 544.192 287.729C543.923 288.128 543.53 288.5 543 288.5C542.47 288.5 542.077 288.128 541.808 287.729C541.527 287.314 541.293 286.745 541.105 286.087C540.728 284.764 540.5 282.966 540.5 281C540.5 279.034 540.728 277.236 541.105 275.913C541.293 275.255 541.527 274.686 541.808 274.271C542.077 273.872 542.47 273.5 543 273.5Z" stroke="url(#paint25_linear_102_627)"/>
<g filter="url(#filter8_i_102_627)">
<ellipse cx="543" cy="291" rx="2" ry="7" fill="url(#paint26_linear_102_627)"/>
</g>
<path d="M543 283.5C543.53 283.5 543.923 283.872 544.192 284.271C544.473 284.686 544.707 285.255 544.895 285.913C545.272 287.236 545.5 289.034 545.5 291C545.5 292.966 545.272 294.764 544.895 296.087C544.707 296.745 544.473 297.314 544.192 297.729C543.923 298.128 543.53 298.5 543 298.5C542.47 298.5 542.077 298.128 541.808 297.729C541.527 297.314 541.293 296.745 541.105 296.087C540.728 294.764 540.5 292.966 540.5 291C540.5 289.034 540.728 287.236 541.105 285.913C541.293 285.255 541.527 284.686 541.808 284.271C542.077 283.872 542.47 283.5 543 283.5Z" stroke="url(#paint27_linear_102_627)"/>
<g filter="url(#filter9_i_102_627)">
<ellipse cx="543" cy="261" rx="2" ry="7" fill="url(#paint28_linear_102_627)"/>
</g>
<path d="M543 253.5C543.53 253.5 543.923 253.872 544.192 254.271C544.473 254.686 544.707 255.255 544.895 255.913C545.272 257.236 545.5 259.034 545.5 261C545.5 262.966 545.272 264.764 544.895 266.087C544.707 266.745 544.473 267.314 544.192 267.729C543.923 268.128 543.53 268.5 543 268.5C542.47 268.5 542.077 268.128 541.808 267.729C541.527 267.314 541.293 266.745 541.105 266.087C540.728 264.764 540.5 262.966 540.5 261C540.5 259.034 540.728 257.236 541.105 255.913C541.293 255.255 541.527 254.686 541.808 254.271C542.077 253.872 542.47 253.5 543 253.5Z" stroke="url(#paint29_linear_102_627)"/>
<g filter="url(#filter10_i_102_627)">
<ellipse cx="543" cy="271" rx="2" ry="7" fill="url(#paint30_linear_102_627)"/>
</g>
<path d="M543 263.5C543.53 263.5 543.923 263.872 544.192 264.271C544.473 264.686 544.707 265.255 544.895 265.913C545.272 267.236 545.5 269.034 545.5 271C545.5 272.966 545.272 274.764 544.895 276.087C544.707 276.745 544.473 277.314 544.192 277.729C543.923 278.128 543.53 278.5 543 278.5C542.47 278.5 542.077 278.128 541.808 277.729C541.527 277.314 541.293 276.745 541.105 276.087C540.728 274.764 540.5 272.966 540.5 271C540.5 269.034 540.728 267.236 541.105 265.913C541.293 265.255 541.527 264.686 541.808 264.271C542.077 263.872 542.47 263.5 543 263.5Z" stroke="url(#paint31_linear_102_627)"/>
<g filter="url(#filter11_i_102_627)">
<ellipse cx="543" cy="251" rx="2" ry="7" fill="url(#paint32_linear_102_627)"/>
</g>
<path d="M543 243.5C543.53 243.5 543.923 243.872 544.192 244.271C544.473 244.686 544.707 245.255 544.895 245.913C545.272 247.236 545.5 249.034 545.5 251C545.5 252.966 545.272 254.764 544.895 256.087C544.707 256.745 544.473 257.314 544.192 257.729C543.923 258.128 543.53 258.5 543 258.5C542.47 258.5 542.077 258.128 541.808 257.729C541.527 257.314 541.293 256.745 541.105 256.087C540.728 254.764 540.5 252.966 540.5 251C540.5 249.034 540.728 247.236 541.105 245.913C541.293 245.255 541.527 244.686 541.808 244.271C542.077 243.872 542.47 243.5 543 243.5Z" stroke="url(#paint33_linear_102_627)"/>
<g filter="url(#filter12_i_102_627)">
<ellipse cx="543" cy="261" rx="2" ry="7" fill="url(#paint34_linear_102_627)"/>
</g>
<path d="M543 253.5C543.53 253.5 543.923 253.872 544.192 254.271C544.473 254.686 544.707 255.255 544.895 255.913C545.272 257.236 545.5 259.034 545.5 261C545.5 262.966 545.272 264.764 544.895 266.087C544.707 266.745 544.473 267.314 544.192 267.729C543.923 268.128 543.53 268.5 543 268.5C542.47 268.5 542.077 268.128 541.808 267.729C541.527 267.314 541.293 266.745 541.105 266.087C540.728 264.764 540.5 262.966 540.5 261C540.5 259.034 540.728 257.236 541.105 255.913C541.293 255.255 541.527 254.686 541.808 254.271C542.077 253.872 542.47 253.5 543 253.5Z" stroke="url(#paint35_linear_102_627)"/>
<g filter="url(#filter13_i_102_627)">
<ellipse cx="543" cy="241" rx="2" ry="7" fill="url(#paint36_linear_102_627)"/>
</g>
<path d="M543 233.5C543.53 233.5 543.923 233.872 544.192 234.271C544.473 234.686 544.707 235.255 544.895 235.913C545.272 237.236 545.5 239.034 545.5 241C545.5 242.966 545.272 244.764 544.895 246.087C544.707 246.745 544.473 247.314 544.192 247.729C543.923 248.128 543.53 248.5 543 248.5C542.47 248.5 542.077 248.128 541.808 247.729C541.527 247.314 541.293 246.745 541.105 246.087C540.728 244.764 540.5 242.966 540.5 241C540.5 239.034 540.728 237.236 541.105 235.913C541.293 235.255 541.527 234.686 541.808 234.271C542.077 233.872 542.47 233.5 543 233.5Z" stroke="url(#paint37_linear_102_627)"/>
<g filter="url(#filter14_ii_102_627)">
<circle cx="543.5" cy="230.5" r="8.5" fill="url(#paint38_linear_102_627)"/>
</g>
<circle cx="543.5" cy="230.5" r="8" stroke="url(#paint39_linear_102_627)"/>
<path d="M543.545 230.672C542.989 230.672 542.166 230.774 541.924 230.997C541.706 231.197 541.755 231.598 541.81 231.975C541.86 232.317 542.201 232.56 542.554 232.767C542.768 232.892 543.165 232.837 543.41 232.769C544.141 232.566 544.55 232.014 544.85 231.448C545.235 230.72 544.517 230.09 543.995 229.471C543.752 229.183 543.361 229.091 543.007 229.023C542.689 228.961 542.316 229.021 541.944 229.244C541.365 229.59 541.197 230.325 541.065 230.979C540.995 231.319 540.971 231.667 541.045 231.975C541.119 232.284 541.604 232.457 541.994 232.715C542.394 232.978 543.13 233.043 543.913 232.975C544.514 232.46 544.812 231.775 544.907 230.761C544.925 230.536 544.962 230.4 545 230.259" stroke="#D0D0D0" stroke-width="2" stroke-linecap="round"/>
<path d="M540.586 226.843C540.42 226.917 540.198 227.176 540.03 227.5C539.833 227.883 539.955 228.436 540.168 228.797C540.429 229.241 540.9 229.16 541.437 229.17C541.661 229.174 541.827 229.105 541.975 229.05C542.296 228.93 542.42 228.568 542.532 228.29C542.589 228.149 542.588 227.938 542.56 227.698C542.51 227.256 541.942 226.938 541.588 226.732C541.445 226.65 541.291 226.602 541.134 226.593C540.766 226.571 540.55 227.138 540.419 227.454C540.361 227.595 540.364 227.842 540.391 228.12C540.403 228.236 540.474 228.288 540.539 228.335C540.677 228.418 540.9 228.456 541.159 228.438C541.271 228.419 541.345 228.382 541.476 228.289" stroke="#FAFAFA" stroke-width="2" stroke-linecap="round"/>
<path d="M540.141 232.293C540.105 232.44 539.993 232.81 540.011 233.098C540.029 233.384 540.566 233.331 540.955 233.368C541.319 233.403 541.733 233.884 542.04 234.174C542.286 234.405 542.55 234.535 542.698 234.656C542.767 234.711 542.846 234.721 542.838 234.648C542.776 234.084 542.238 233.778 541.977 233.425C541.774 233.149 541.496 232.906 541.199 232.692C541.051 232.609 540.902 232.516 540.754 232.414C540.68 232.367 540.606 232.331 540.364 232.237" stroke="#0E0E0B" stroke-opacity="0.87" stroke-linecap="round"/>
<path d="M544.757 234.239C544.886 234.184 545.145 233.962 545.368 233.684C545.593 233.403 545.757 233.128 545.933 232.85C546.129 232.542 546.405 232.221 546.591 231.859C546.633 231.777 546.665 231.701 546.675 231.7C546.409 232.123 545.815 232.792 545.546 233.015C545.48 233.071 545.425 233.126 545.313 233.183" stroke="#0E0E0B" stroke-opacity="0.87" stroke-linecap="round"/>
<path d="M548.705 232.738C548.816 232.572 549.038 232.165 549.251 231.785C549.473 231.39 549.446 230.978 549.585 230.534C549.769 229.948 549.577 229.033 549.419 228.587C549.285 228.207 548.783 227.497 548.271 226.919C547.968 226.576 547.705 226.51 547.639 226.463C547.421 226.307 547.925 227.009 548.083 227.351C548.384 228.003 548.519 228.325 548.566 228.695C548.627 229.188 548.816 230.006 548.724 230.67C548.668 231.069 548.41 231.696 548.26 232.227C548.207 232.417 548.204 232.607 548.296 232.746C548.353 232.832 548.571 232.794 548.694 232.739C548.871 232.573 548.946 232.386 548.992 232.239C549.02 232.164 549.056 232.091 549.15 231.848" stroke="#0E0E0B" stroke-opacity="0.87" stroke-linecap="round"/>
<path d="M544.534 227.399C544.867 227.418 545.311 227.638 545.636 227.945C545.76 228.062 545.887 228.177 545.979 228.224C545.851 227.975 545.647 227.733 545.499 227.65C545.407 227.622 545.278 227.622 545.146 227.677" stroke="#0E0E0B" stroke-opacity="0.87" stroke-linecap="round"/>
<path d="M547.023 227.46C546.927 227.374 546.748 227.295 546.573 227.265C546.365 227.228 546.243 227.428 546.221 227.64C546.194 227.9 546.425 228.172 546.656 228.506C546.752 228.645 546.847 228.732 546.929 228.811C547.106 228.982 547.275 228.978 547.412 228.985C547.482 228.988 547.548 228.941 547.612 228.87C547.73 228.74 547.583 228.318 547.494 228.054C547.458 227.947 547.406 227.842 547.341 227.743C547.187 227.51 546.914 227.504 546.757 227.494C546.687 227.49 546.609 227.547 546.533 227.626C546.502 227.659 546.516 227.714 546.53 227.765C546.563 227.869 546.648 228.015 546.767 228.171C546.822 228.236 546.865 228.273 546.952 228.333" stroke="#FAFAFA" stroke-linecap="round"/>
<path d="M543.887 233.269C543.826 233.231 543.693 233.217 543.552 233.235C543.385 233.257 543.238 233.421 543.172 233.57C543.091 233.754 543.225 233.889 543.345 234.065C543.395 234.139 543.455 234.177 543.506 234.213C543.617 234.29 543.76 234.249 543.874 234.223C543.932 234.21 543.999 234.163 544.068 234.1C544.197 233.985 544.168 233.729 544.152 233.569C544.145 233.504 544.125 233.443 544.092 233.39C544.015 233.266 543.786 233.323 543.656 233.351C543.598 233.364 543.52 233.42 543.438 233.491C543.404 233.521 543.404 233.555 543.404 233.587C543.409 233.651 543.448 233.731 543.513 233.811C543.545 233.843 543.573 233.859 543.633 233.881" stroke="#FAFAFA" stroke-linecap="round"/>
<path d="M182.967 369.714L177.949 367.322L179.311 400.519L189.799 405.673L182.967 369.714Z" fill="url(#paint40_linear_102_627)"/>
<path d="M179.528 400.648L170.38 406.032L173.617 370.433L178.033 367.328L179.528 400.648Z" fill="url(#paint41_linear_102_627)"/>
<path d="M179.138 373.107L178.867 380.427C179.052 378.808 180.025 376.671 182.437 381.068C183.593 383.176 184.19 385.11 184.464 386.693C183.475 390.464 184.628 391.438 184.515 390.376C184.677 389.714 184.761 388.411 184.464 386.693C184.684 385.85 185.012 384.868 185.484 383.738L184.046 376.186L183.327 371.871L180.468 370.137L179.138 373.107Z" fill="url(#paint42_linear_102_627)"/>
<path d="M180.062 400.683L179.075 378.606L180.759 377.086L182.855 379.465L185.484 383.378L187.642 395.245L188.54 399.919C184.147 400.773 186.843 403.912 188.54 405.518L180.062 400.683Z" fill="url(#paint43_linear_102_627)"/>
<path d="M185.938 393.934C186.658 393.981 186.42 392.08 186.923 390.21L186.204 386.615C185.908 386.527 185.485 386.349 184.046 386.255C182.607 386.161 183.135 388.655 182.773 390.67C183.528 391.738 185.219 393.887 185.938 393.934Z" fill="url(#paint44_linear_102_627)"/>
<path d="M178.715 372.672L180.986 369.152L182.967 369.714L182.967 374.029L182.607 378.704C180.674 379.46 180.809 376.546 180.809 375.827C180.809 370.37 179.926 374.789 178.55 375.107C177.449 375.361 178.201 373.589 178.715 372.672Z" fill="url(#paint45_linear_102_627)"/>
<path d="M183.008 373.31C178.155 367.611 179.766 370.499 179.417 372.31L178.756 372.063L179.045 367.802L183.008 369.762C182.967 370.792 183.019 373.147 183.008 373.31Z" fill="#492195"/>
<path d="M177.334 380.044C178.586 382.868 179.11 382.201 179.331 381.476L178.322 373.054C175.043 373.242 173.257 374.447 173.257 379.063C173.257 380.501 174.856 382.368 175.428 381.532C175.542 379.86 176.081 377.221 177.334 380.044Z" fill="url(#paint46_linear_102_627)"/>
<path d="M172.899 378.344L173.617 370.433L178.033 367.328L178.112 368.253L178.492 373.88C175.31 372.857 174.692 375.035 174.337 375.827C173.636 380.835 173.382 378.987 172.899 378.344Z" fill="#672DC2"/>
<path d="M180.232 401.509L180.674 412.341L187.449 405.65L180.232 401.509Z" fill="url(#paint47_linear_102_627)"/>
<path d="M178.968 401.63L180.674 412.34L172.61 406.106L178.968 401.63Z" fill="url(#paint48_linear_102_627)"/>
<path d="M180.674 412.34C180.674 412.34 180.674 412.34 180.674 412.34C180.738 411.86 180.796 411.381 180.847 410.903C181.193 407.656 181.221 404.46 180.932 401.316L180.643 398.403L177.788 400.203C176.844 400.79 175.92 401.402 175.017 402.037C173.801 402.893 172.622 403.794 171.479 404.738L169.609 405.853L171.357 407.45C173.827 409.056 176.463 410.484 179.265 411.733C179.73 411.941 180.2 412.143 180.674 412.34C180.674 412.34 180.674 412.34 180.674 412.34C180.383 411.946 180.087 411.557 179.787 411.173C177.979 408.858 176.004 406.721 173.863 404.762L173.741 407.474C175.03 406.706 176.282 405.895 177.498 405.039C178.402 404.403 179.285 403.742 180.148 403.058L177.004 401.945C177.706 405.024 178.725 408.052 180.062 411.029C180.259 411.467 180.463 411.904 180.674 412.34Z" fill="url(#paint49_linear_102_627)"/>
<path d="M181.139 412.502C180.982 412.61 180.791 412.666 180.6 412.647C180.408 412.628 180.233 412.538 180.11 412.394C179.988 412.251 179.927 412.063 179.939 411.871C179.951 411.679 180.036 411.499 180.168 411.361V411.361C180.737 410.767 181.31 410.175 181.885 409.587C183.568 407.865 185.274 406.17 187.004 404.503L187.262 407.025C184.483 405.729 181.731 404.382 179.008 402.984L178.079 402.507L178.004 401.373C177.877 399.469 177.773 397.564 177.692 395.658C177.686 395.52 177.68 395.382 177.674 395.244C177.391 388.02 177.432 380.784 177.798 373.535C177.839 372.714 177.885 371.893 177.935 371.072C177.946 370.882 178.02 370.698 178.154 370.558C178.287 370.418 178.466 370.336 178.655 370.327C178.844 370.319 179.029 370.386 179.173 370.514C179.317 370.641 179.406 370.819 179.434 371.007C179.434 371.007 179.434 371.007 179.434 371.007C179.55 371.821 179.663 372.635 179.771 373.45C180.729 380.642 181.362 387.848 181.671 395.068C181.677 395.202 181.683 395.34 181.689 395.478C181.77 397.384 181.829 399.291 181.865 401.199L180.861 399.589C183.514 401.115 186.14 402.692 188.738 404.321L190.71 405.549L188.997 406.843C187.076 408.285 185.132 409.7 183.164 411.088C182.492 411.563 181.817 412.034 181.139 412.502Z" fill="url(#paint50_linear_102_627)"/>
<path d="M175.089 405.042C174.65 404.722 174.104 404.582 173.559 404.672C173.014 404.76 172.514 405.069 172.183 405.514C171.852 405.959 171.72 406.498 171.831 406.993C171.94 407.489 172.283 407.902 172.77 408.158C172.77 408.158 172.77 408.158 172.77 408.158C173.022 408.291 173.275 408.424 173.527 408.557C175.358 409.523 177.189 410.489 179.019 411.455L181.204 413.002L181.436 410.351C181.248 407.534 181.06 404.718 180.872 401.901C180.855 401.639 180.838 401.377 180.82 401.115C180.296 401.097 179.772 401.08 179.248 401.062C179.222 401.322 179.196 401.583 179.169 401.844C178.888 404.644 178.606 407.445 178.324 410.246L180.741 409.142C179.085 407.941 177.43 406.74 175.774 405.539C175.546 405.373 175.317 405.207 175.089 405.042Z" fill="#FEEBFE"/>
<path d="M184.851 404.843C185.251 404.48 185.777 404.287 186.328 404.323C186.879 404.358 187.409 404.619 187.787 405.032C188.165 405.444 188.355 405.97 188.299 406.474C188.244 406.98 187.948 407.424 187.492 407.726C187.262 407.878 187.032 408.031 186.803 408.183C185.201 409.246 183.599 410.309 181.997 411.371L179.908 413.207L179.445 410.458C179.412 407.636 179.38 404.814 179.348 401.992C179.345 401.736 179.342 401.48 179.339 401.225C179.859 401.168 180.378 401.112 180.898 401.056C180.944 401.307 180.99 401.558 181.037 401.809C181.547 404.579 182.056 407.35 182.566 410.12L180.014 409.207C181.424 407.934 182.834 406.662 184.244 405.39C184.446 405.208 184.648 405.025 184.851 404.843Z" fill="#FEEBFE"/>
<path d="M178.913 398.792C179.631 399.913 180.349 401.035 181.067 402.157C180.962 402.184 180.858 402.212 180.753 402.239C178.872 402.733 176.991 403.227 175.11 403.721C175.006 403.748 174.901 403.776 174.797 403.803C174.865 403.72 174.934 403.636 175.003 403.553C176.238 402.049 177.472 400.546 178.707 399.042C178.776 398.959 178.844 398.875 178.913 398.792Z" fill="#FEEBFE"/>
<path d="M173.85 380.916C174.156 382.183 176.785 383.463 177.245 383.055C177.705 382.646 177.638 381.048 176.751 380.837C176.199 380.705 175.506 381.351 175.506 381.351C174.321 381.137 173.672 380.182 173.85 380.916Z" fill="url(#paint51_linear_102_627)"/>
<ellipse cx="178" cy="370.5" rx="2" ry="2.5" fill="black"/>
<g filter="url(#filter15_i_102_627)">
<ellipse cx="178" cy="354" rx="2" ry="7" fill="url(#paint52_linear_102_627)"/>
</g>
<path d="M178 346.5C178.53 346.5 178.923 346.872 179.192 347.271C179.473 347.686 179.707 348.255 179.895 348.913C180.272 350.236 180.5 352.034 180.5 354C180.5 355.966 180.272 357.764 179.895 359.087C179.707 359.745 179.473 360.314 179.192 360.729C178.923 361.128 178.53 361.5 178 361.5C177.47 361.5 177.077 361.128 176.808 360.729C176.527 360.314 176.293 359.745 176.105 359.087C175.728 357.764 175.5 355.966 175.5 354C175.5 352.034 175.728 350.236 176.105 348.913C176.293 348.255 176.527 347.686 176.808 347.271C177.077 346.872 177.47 346.5 178 346.5Z" stroke="url(#paint53_linear_102_627)"/>
<g filter="url(#filter16_i_102_627)">
<ellipse cx="178" cy="364" rx="2" ry="7" fill="url(#paint54_linear_102_627)"/>
</g>
<path d="M178 356.5C178.53 356.5 178.923 356.872 179.192 357.271C179.473 357.686 179.707 358.255 179.895 358.913C180.272 360.236 180.5 362.034 180.5 364C180.5 365.966 180.272 367.764 179.895 369.087C179.707 369.745 179.473 370.314 179.192 370.729C178.923 371.128 178.53 371.5 178 371.5C177.47 371.5 177.077 371.128 176.808 370.729C176.527 370.314 176.293 369.745 176.105 369.087C175.728 367.764 175.5 365.966 175.5 364C175.5 362.034 175.728 360.236 176.105 358.913C176.293 358.255 176.527 357.686 176.808 357.271C177.077 356.872 177.47 356.5 178 356.5Z" stroke="url(#paint55_linear_102_627)"/>
<g filter="url(#filter17_ii_102_627)">
<circle cx="178.5" cy="342.5" r="8.5" fill="url(#paint56_linear_102_627)"/>
</g>
<circle cx="178.5" cy="342.5" r="8" stroke="url(#paint57_linear_102_627)"/>
<path d="M178.545 342.672C177.989 342.672 177.166 342.774 176.924 342.997C176.706 343.197 176.755 343.598 176.81 343.975C176.86 344.317 177.201 344.56 177.554 344.767C177.768 344.892 178.165 344.837 178.41 344.769C179.141 344.566 179.55 344.014 179.85 343.448C180.235 342.72 179.517 342.09 178.995 341.471C178.752 341.183 178.361 341.091 178.007 341.023C177.689 340.961 177.316 341.021 176.944 341.244C176.365 341.59 176.197 342.325 176.065 342.979C175.995 343.319 175.971 343.667 176.045 343.975C176.119 344.284 176.604 344.457 176.994 344.715C177.394 344.978 178.13 345.043 178.913 344.975C179.514 344.46 179.812 343.775 179.907 342.761C179.925 342.536 179.962 342.4 180 342.259" stroke="#D0D0D0" stroke-width="2" stroke-linecap="round"/>
<path d="M175.586 338.843C175.42 338.917 175.198 339.176 175.03 339.5C174.833 339.883 174.955 340.436 175.168 340.797C175.429 341.241 175.9 341.16 176.437 341.17C176.661 341.174 176.827 341.105 176.975 341.05C177.296 340.93 177.42 340.568 177.532 340.29C177.589 340.149 177.588 339.938 177.56 339.698C177.51 339.256 176.942 338.938 176.588 338.732C176.445 338.65 176.291 338.602 176.134 338.593C175.766 338.571 175.55 339.138 175.419 339.454C175.361 339.595 175.364 339.842 175.391 340.12C175.403 340.236 175.474 340.288 175.539 340.335C175.677 340.418 175.9 340.456 176.159 340.438C176.271 340.419 176.345 340.382 176.476 340.289" stroke="#FAFAFA" stroke-width="2" stroke-linecap="round"/>
<path d="M175.141 344.293C175.105 344.44 174.993 344.81 175.011 345.098C175.029 345.384 175.566 345.331 175.955 345.368C176.319 345.403 176.733 345.884 177.04 346.174C177.286 346.405 177.55 346.535 177.698 346.656C177.767 346.711 177.846 346.721 177.838 346.648C177.776 346.084 177.238 345.778 176.977 345.425C176.774 345.149 176.496 344.906 176.199 344.692C176.051 344.609 175.902 344.516 175.754 344.414C175.68 344.367 175.606 344.331 175.364 344.237" stroke="#0E0E0B" stroke-opacity="0.87" stroke-linecap="round"/>
<path d="M179.757 346.239C179.886 346.184 180.145 345.962 180.368 345.684C180.593 345.403 180.757 345.128 180.933 344.85C181.129 344.542 181.405 344.221 181.591 343.859C181.633 343.777 181.665 343.701 181.675 343.7C181.409 344.123 180.815 344.792 180.546 345.015C180.48 345.071 180.425 345.126 180.313 345.183" stroke="#0E0E0B" stroke-opacity="0.87" stroke-linecap="round"/>
<path d="M183.705 344.738C183.816 344.572 184.038 344.165 184.251 343.785C184.473 343.39 184.446 342.978 184.585 342.534C184.769 341.948 184.577 341.033 184.419 340.587C184.285 340.207 183.783 339.497 183.271 338.919C182.968 338.576 182.705 338.51 182.639 338.463C182.421 338.307 182.925 339.009 183.083 339.351C183.384 340.003 183.519 340.325 183.566 340.695C183.627 341.188 183.816 342.006 183.724 342.67C183.668 343.069 183.41 343.696 183.26 344.227C183.207 344.417 183.204 344.607 183.296 344.746C183.353 344.832 183.571 344.794 183.694 344.739C183.871 344.573 183.946 344.386 183.992 344.239C184.02 344.164 184.056 344.091 184.15 343.848" stroke="#0E0E0B" stroke-opacity="0.87" stroke-linecap="round"/>
<path d="M179.534 339.399C179.867 339.418 180.311 339.638 180.636 339.945C180.76 340.062 180.887 340.177 180.979 340.224C180.851 339.975 180.647 339.733 180.499 339.65C180.407 339.622 180.278 339.622 180.146 339.677" stroke="#0E0E0B" stroke-opacity="0.87" stroke-linecap="round"/>
<path d="M182.023 339.46C181.927 339.374 181.748 339.295 181.573 339.265C181.365 339.228 181.243 339.428 181.221 339.64C181.194 339.9 181.425 340.172 181.656 340.506C181.752 340.645 181.847 340.732 181.929 340.811C182.106 340.982 182.275 340.978 182.412 340.985C182.482 340.988 182.548 340.941 182.612 340.87C182.73 340.74 182.583 340.318 182.494 340.054C182.458 339.947 182.406 339.842 182.341 339.743C182.187 339.51 181.914 339.504 181.757 339.494C181.687 339.49 181.609 339.547 181.533 339.626C181.502 339.659 181.516 339.714 181.53 339.765C181.563 339.869 181.648 340.015 181.767 340.171C181.822 340.236 181.865 340.273 181.952 340.333" stroke="#FAFAFA" stroke-linecap="round"/>
<path d="M178.887 345.269C178.826 345.231 178.693 345.217 178.552 345.235C178.385 345.257 178.238 345.421 178.172 345.57C178.091 345.754 178.225 345.889 178.345 346.065C178.395 346.139 178.455 346.177 178.506 346.213C178.617 346.29 178.76 346.249 178.874 346.223C178.932 346.21 178.999 346.163 179.068 346.1C179.197 345.985 179.168 345.729 179.152 345.569C179.145 345.504 179.125 345.443 179.092 345.39C179.015 345.266 178.786 345.323 178.656 345.351C178.598 345.364 178.52 345.42 178.438 345.491C178.404 345.521 178.404 345.555 178.404 345.587C178.409 345.651 178.448 345.731 178.513 345.811C178.545 345.843 178.573 345.859 178.633 345.881" stroke="#FAFAFA" stroke-linecap="round"/>
<path d="M68.5039 130C64.3672 130 61 133.367 61 137.504C61 141.641 64.3672 145.008 68.5039 145.008C72.6406 145.008 76.0078 141.645 76.0078 137.504C76.0078 133.367 72.6406 130 68.5039 130Z" fill="url(#paint58_radial_102_627)"/>
<path d="M109.693 134.424C107.614 121.244 96.5986 121.49 87.1886 124.326C106.603 112.123 91.2394 102.326 91.2394 102.326C92.2394 86.8257 78.7394 95.3257 78.7394 95.3257C60.8524 92.314 61.8954 112.131 63.5014 122.099C56.767 88.2507 40.0604 101.997 40.0604 101.997C25.1894 97.5162 30.4159 112.591 30.4159 112.591C25.9745 123.247 32.4589 128.689 40.4199 131.47C21.3889 131.966 26.2829 147.638 26.2829 147.638C16.3141 159.548 32.2282 160.673 32.2282 160.673C40.8337 169.52 48.9622 164.325 54.8412 157.161C47.9037 175.821 65.2862 175.915 65.2862 175.915C72.9815 189.407 79.5752 174.88 79.5752 174.88C91.7862 169.485 88.6299 159.411 83.3916 151.501C101.408 165.907 107.033 148.501 107.033 148.501C122.045 144.524 109.693 134.424 109.693 134.424ZM79.1536 138.599C79.1419 138.705 79.1223 138.81 79.1067 138.916L97.0717 148.416L78.6337 140.814C77.8251 143.107 76.2431 145.033 74.2001 146.283L79.8759 165.49L72.3447 147.181C72.2939 147.201 72.2431 147.22 72.1924 147.236L71.6494 173.939L69.6377 147.783C69.54 147.791 69.4424 147.791 69.3486 147.798L62.5908 167.368L67.3369 147.723C65.1181 147.427 63.1181 146.434 61.5635 144.973L42.0165 158.227L60.0985 143.301L30.6215 152.735L58.8245 140.774C58.8128 140.739 58.7972 140.704 58.7855 140.665L35.2505 140.821L58.3015 138.485C58.2585 138.102 58.2312 137.712 58.2312 137.321C58.2312 136.243 58.3952 135.208 58.696 134.227L37.696 121.895L58.942 131.817L37.762 109.247L60.883 129.77L50.504 108.313L62.828 128.649C64.5116 127.497 66.5468 126.821 68.7382 126.821C68.832 126.821 68.9257 126.833 69.0195 126.836L72.8006 103.527L71.2381 126.922L84.6132 99.0125L73.8512 127.992L90.0972 110.551L75.6012 129.395C76.9683 130.583 78.0269 132.114 78.6363 133.856L97.7573 131.247L79.1124 135.794C79.1241 135.88 79.1436 135.966 79.1514 136.052L104.768 140.544L79.1536 138.599Z" fill="url(#paint59_radial_102_627)"/>
<path d="M112.737 268.665C112.359 265.115 108.95 262.555 105.14 262.961C101.329 263.367 98.5353 266.586 98.9133 270.136C99.2912 273.686 102.697 276.246 106.511 275.84C110.321 275.434 113.115 272.215 112.737 268.665Z" fill="url(#paint60_radial_102_627)"/>
<path d="M112.426 304.459C124.376 301.384 123.143 291.954 119.671 284.157C132.686 299.621 140.306 285.476 140.306 285.476C154.675 284.814 145.612 274.062 145.612 274.062C146.752 258.417 128.594 261.255 119.558 263.611C150.121 254.512 135.933 241.523 135.933 241.523C138.702 228.322 125.294 234.286 125.294 234.286C115.072 231.519 110.652 237.618 108.818 244.722C106.622 228.439 92.6334 234.176 92.6334 234.176C80.752 226.789 81.1697 240.556 81.1697 240.556C73.8061 248.809 79.3344 255.275 86.4704 259.618C68.6484 255.494 70.1499 270.42 70.1499 270.42C58.4252 278.347 72.409 282.581 72.409 282.581C78.4937 292.531 87.4852 288.835 94.2927 283.564C82.669 300.437 99.216 303.557 99.216 303.557C104.251 316.05 112.426 304.459 112.426 304.459ZM105.789 278.661C105.691 278.662 105.592 278.655 105.493 278.652L98.3842 295.001L103.702 278.432C101.516 277.963 99.5971 276.795 98.2591 275.164L81.0856 281.918L97.2624 273.66C97.2398 273.618 97.2171 273.577 97.1981 273.534L72.5516 275.687L96.4608 271.396C96.4447 271.313 96.4358 271.229 96.42 271.149L77.7762 267.269L96.3053 269.416C96.3761 267.482 97.1073 265.669 98.3109 264.191L84.3164 248.717L99.7172 262.77L88.3345 238.399L101.929 261.429C101.96 261.415 101.991 261.399 102.026 261.385L99.7318 241.203L103.99 260.756C104.338 260.681 104.696 260.619 105.055 260.581C106.048 260.475 107.017 260.515 107.948 260.677L117.388 241.446L110.19 260.651L129.045 240.262L112.253 262.116L131.069 251.105L113.463 263.676C114.679 265.007 115.487 266.688 115.687 268.568C115.696 268.649 115.694 268.73 115.699 268.811L137.515 269.77L115.822 270.724L142.753 279.464L115.075 273.071L132.625 285.302L113.943 274.71C112.974 276 111.66 277.059 110.111 277.752L114.262 293.905L108.37 278.351C108.292 278.369 108.214 278.395 108.136 278.41L106.338 300.834L105.789 278.661Z" fill="url(#paint61_radial_102_627)"/>
<path d="M546.737 146.656C546.359 143.106 542.95 140.547 539.14 140.952C535.329 141.358 532.535 144.578 532.913 148.128C533.291 151.678 536.697 154.238 540.511 153.832C544.321 153.426 547.115 150.206 546.737 146.656Z" fill="url(#paint62_radial_102_627)"/>
<path d="M546.426 182.459C558.376 179.384 557.143 169.954 553.671 162.157C566.686 177.621 574.306 163.476 574.306 163.476C588.675 162.814 579.612 152.062 579.612 152.062C580.752 136.417 562.594 139.255 553.558 141.611C584.121 132.512 569.933 119.523 569.933 119.523C572.702 106.322 559.294 112.286 559.294 112.286C549.072 109.519 544.652 115.618 542.818 122.722C540.622 106.439 526.633 112.176 526.633 112.176C514.752 104.789 515.17 118.556 515.17 118.556C507.806 126.809 513.334 133.275 520.47 137.618C502.648 133.494 504.15 148.42 504.15 148.42C492.425 156.347 506.409 160.581 506.409 160.581C512.494 170.531 521.485 166.835 528.293 161.564C516.669 178.437 533.216 181.557 533.216 181.557C538.251 194.05 546.426 182.459 546.426 182.459ZM539.789 156.661C539.691 156.662 539.592 156.655 539.493 156.652L532.384 173.001L537.702 156.432C535.516 155.963 533.597 154.795 532.259 153.164L515.086 159.918L531.262 151.66C531.24 151.618 531.217 151.577 531.198 151.534L506.552 153.687L530.461 149.396C530.445 149.313 530.436 149.229 530.42 149.149L511.776 145.269L530.305 147.416C530.376 145.482 531.107 143.669 532.311 142.191L518.316 126.717L533.717 140.77L522.334 116.399L535.929 139.429C535.96 139.415 535.991 139.399 536.026 139.385L533.732 119.203L537.99 138.756C538.338 138.681 538.696 138.619 539.055 138.581C540.048 138.475 541.017 138.515 541.948 138.677L551.388 119.446L544.19 138.651L563.045 118.262L546.253 140.116L565.069 129.105L547.463 141.676C548.679 143.007 549.487 144.688 549.687 146.568C549.696 146.649 549.694 146.73 549.699 146.811L571.515 147.77L549.822 148.724L576.753 157.464L549.075 151.071L566.625 163.302L547.943 152.71C546.974 154 545.66 155.059 544.111 155.752L548.262 171.905L542.37 156.351C542.292 156.369 542.214 156.395 542.136 156.41L540.338 178.834L539.789 156.661Z" fill="url(#paint63_radial_102_627)"/>
<path d="M217.843 325.089C219.947 322.37 219.283 318.318 216.363 316.06C213.444 313.803 209.356 314.179 207.252 316.898C205.149 319.618 205.81 323.667 208.732 325.927C211.652 328.185 215.74 327.809 217.843 325.089Z" fill="url(#paint64_radial_102_627)"/>
<path d="M193.76 349.774C204.117 355.601 209.545 348.224 212.328 340.49C211.068 359.913 225.794 355.16 225.794 355.16C236.223 364.277 237.089 350.762 237.089 350.762C248.31 340.646 233.795 330.516 225.944 326.132C253.254 340.178 252.049 321.692 252.049 321.692C262.772 314.36 249.477 309.569 249.477 309.569C244.215 300.833 237.078 302.127 231.067 305.843C240.394 293.06 226.846 287.724 226.846 287.724C223.51 274.67 214.625 284.519 214.625 284.519C204.005 285.348 203.539 293.527 205.605 301.302C195.964 286.557 187.059 297.934 187.059 297.934C173.626 295.63 180.524 307.893 180.524 307.893C178.122 318.865 186.837 322.289 195.082 323.162C175.755 327.144 185.178 340.342 185.178 340.342C180.351 352.382 193.76 349.774 193.76 349.774ZM206.341 327.417C206.273 327.351 206.208 327.281 206.142 327.213L190.303 333.839L205.043 325.866C203.836 324.083 203.281 321.992 203.438 319.967L186.998 313.215L203.747 318.257C203.759 318.213 203.771 318.169 203.786 318.127L185.218 303.196L204.699 316.149C204.743 316.08 204.793 316.016 204.835 315.95L194.461 300.826L205.911 314.668C207.249 313.372 208.966 312.598 210.787 312.374L211.373 292.289L212.712 312.323L221.043 287.795L215.143 312.865C215.174 312.876 215.207 312.885 215.24 312.899L227.097 297.34L217.025 313.77C217.317 313.951 217.606 314.146 217.882 314.359C218.643 314.948 219.29 315.62 219.829 316.353L239.209 309.277L221.404 317.83L248.101 316.224L221.862 320.224L242.281 325.111L221.664 322.114C221.621 323.85 221.063 325.557 219.949 326.998C219.901 327.059 219.845 327.115 219.795 327.174L234.321 342.381L218.606 328.586L231.501 352.612L216.522 329.72L220.57 349.919L214.643 330.105C213.109 330.355 211.49 330.216 209.951 329.665L202.07 343.661L208.342 328.921C208.275 328.882 208.205 328.848 208.14 328.806L191.945 343.196L206.341 327.417Z" fill="url(#paint65_radial_102_627)"/>
<g filter="url(#filter18_dd_102_627)">
<path d="M157.737 312.659C157.359 309.109 153.95 306.55 150.14 306.956C146.329 307.361 143.535 310.581 143.913 314.131C144.291 317.681 147.697 320.241 151.511 319.835C155.321 319.429 158.115 316.209 157.737 312.659Z" fill="url(#paint66_radial_102_627)"/>
<path d="M157.426 348.459C169.376 345.383 168.143 335.954 164.671 328.157C177.686 343.62 185.306 329.475 185.306 329.475C199.675 328.814 190.612 318.062 190.612 318.062C191.752 302.417 173.594 305.255 164.558 307.611C195.121 298.512 180.933 285.523 180.933 285.523C183.702 272.322 170.294 278.286 170.294 278.286C160.072 275.519 155.652 281.617 153.818 288.722C151.622 272.439 137.633 278.176 137.633 278.176C125.752 270.789 126.17 284.556 126.17 284.556C118.806 292.809 124.334 299.275 131.47 303.617C113.648 299.494 115.15 314.42 115.15 314.42C103.425 322.347 117.409 326.581 117.409 326.581C123.494 336.531 132.485 332.834 139.293 327.563C127.669 344.437 144.216 347.557 144.216 347.557C149.251 360.05 157.426 348.459 157.426 348.459ZM150.789 322.661C150.691 322.661 150.592 322.655 150.493 322.652L143.384 339.001L148.702 322.432C146.516 321.963 144.597 320.794 143.259 319.164L126.086 325.918L142.262 317.66C142.24 317.618 142.217 317.576 142.198 317.534L117.552 319.687L141.461 315.396C141.445 315.313 141.436 315.229 141.42 315.149L122.776 311.269L141.305 313.415C141.376 311.482 142.107 309.668 143.311 308.191L129.316 292.716L144.717 306.77L133.334 282.399L146.929 305.429C146.96 305.415 146.991 305.398 147.026 305.384L144.732 285.203L148.99 304.755C149.338 304.681 149.696 304.619 150.055 304.581C151.048 304.475 152.017 304.514 152.948 304.676L162.388 285.446L155.19 304.651L174.045 284.262L157.253 306.116L176.069 295.105L158.463 307.675C159.679 309.007 160.487 310.687 160.687 312.568C160.696 312.648 160.694 312.73 160.699 312.811L182.515 313.77L160.822 314.723L187.753 323.464L160.075 317.071L177.625 329.302L158.943 318.71C157.974 320 156.66 321.058 155.111 321.752L159.262 337.905L153.37 322.351C153.292 322.369 153.214 322.394 153.136 322.409L151.338 344.834L150.789 322.661Z" fill="url(#paint67_radial_102_627)"/>
</g>
<g filter="url(#filter19_d_102_627)">
<path d="M604.843 136.089C606.947 133.37 606.283 129.318 603.363 127.06C600.444 124.803 596.356 125.179 594.252 127.898C592.149 130.618 592.81 134.667 595.732 136.927C598.652 139.185 602.74 138.809 604.843 136.089Z" fill="url(#paint68_radial_102_627)"/>
<path d="M580.76 160.774C591.117 166.601 596.545 159.224 599.328 151.49C598.068 170.913 612.794 166.16 612.794 166.16C623.223 175.277 624.089 161.762 624.089 161.762C635.31 151.646 620.795 141.516 612.944 137.132C640.254 151.178 639.049 132.692 639.049 132.692C649.772 125.36 636.477 120.569 636.477 120.569C631.215 111.833 624.078 113.127 618.067 116.843C627.394 104.06 613.846 98.7242 613.846 98.7242C610.51 85.6701 601.625 95.5188 601.625 95.5188C591.005 96.3476 590.539 104.527 592.605 112.302C582.964 97.5571 574.059 108.934 574.059 108.934C560.626 106.63 567.524 118.893 567.524 118.893C565.122 129.865 573.837 133.289 582.082 134.162C562.755 138.144 572.178 151.342 572.178 151.342C567.351 163.382 580.76 160.774 580.76 160.774ZM593.341 138.417C593.273 138.351 593.208 138.281 593.142 138.213L577.303 144.839L592.043 136.866C590.836 135.083 590.281 132.992 590.438 130.967L573.998 124.215L590.747 129.257C590.759 129.213 590.771 129.169 590.786 129.127L572.218 114.196L591.699 127.149C591.743 127.08 591.793 127.016 591.835 126.95L581.461 111.826L592.911 125.668C594.249 124.372 595.966 123.598 597.787 123.374L598.373 103.289L599.712 123.323L608.043 98.7947L602.143 123.865C602.174 123.876 602.207 123.885 602.24 123.899L614.097 108.34L604.025 124.77C604.317 124.951 604.606 125.146 604.882 125.359C605.643 125.948 606.29 126.62 606.829 127.353L626.209 120.277L608.404 128.83L635.101 127.224L608.862 131.224L629.281 136.111L608.664 133.114C608.621 134.85 608.063 136.557 606.949 137.998C606.901 138.059 606.845 138.115 606.795 138.174L621.321 153.381L605.606 139.586L618.501 163.612L603.522 140.72L607.57 160.919L601.643 141.105C600.109 141.355 598.49 141.216 596.951 140.665L589.07 154.661L595.342 139.921C595.275 139.882 595.205 139.848 595.14 139.806L578.945 154.196L593.341 138.417Z" fill="url(#paint69_radial_102_627)"/>
</g>
<g filter="url(#filter20_d_102_627)">
<path d="M109.943 195.153C105.572 193.269 100.481 195.293 98.5971 199.664C96.7131 204.034 98.7372 209.125 103.108 211.009C107.479 212.893 112.568 210.873 114.454 206.499C116.338 202.128 114.314 197.037 109.943 195.153Z" fill="url(#paint70_radial_102_627)"/>
<path d="M151.446 218.585C155.253 203.714 143.502 198.956 132.268 197.667C158.338 193.616 146.568 176.268 146.568 176.268C154.684 160.347 136.549 163.179 136.549 163.179C119.022 151.851 111.099 173.263 108.256 184.526C116.556 145.697 92.6442 152.612 92.6442 152.612C78.9727 141.105 77.6294 159.412 77.6294 159.412C68.0837 168.648 72.4563 177.351 79.601 183.915C59.2677 175.772 57.301 194.559 57.301 194.559C41.3442 202.603 57.646 211.039 57.646 211.039C62.7087 224.306 73.6631 222.519 83.1373 217.627C67.309 234.183 85.6318 242.199 85.6318 242.199C87.6176 259.959 101.2 247.613 101.2 247.613C116.559 247.475 117.812 235.393 115.88 224.65C128.354 248.076 142.225 232.247 142.225 232.247C159.897 234.883 151.446 218.585 151.446 218.585ZM117.278 209.089C117.218 209.195 117.149 209.298 117.085 209.402L131.739 227.621L115.72 211.192C113.822 213.247 111.273 214.561 108.545 214.951L105.795 237.829L106.176 215.055C106.113 215.052 106.051 215.05 105.99 215.043L93.255 243.009L103.042 214.458C102.935 214.421 102.832 214.377 102.729 214.343L86.6764 231.942L100.638 213.347C98.4289 212.023 96.7676 210.064 95.7905 207.812L69.1016 212.913L95.0041 205.378L59.5636 201.921L94.8091 202.128C94.8127 202.085 94.8122 202.041 94.8176 201.994L69.8804 191.441L95.299 199.471C95.4279 199.047 95.5769 198.622 95.7548 198.209C96.2458 197.07 96.8906 196.051 97.655 195.152L81.0837 172.559L99.0125 192.718L86.9138 159.225L101.996 191.439L100.802 164.041L104.561 191.14C106.865 190.69 109.323 190.903 111.638 191.901C111.737 191.943 111.831 191.998 111.928 192.045L126.539 169.14L114.233 193.147L141.076 169.749L116.507 195.467L141.615 184.439L117.717 197.746C118.62 199.624 119.041 201.724 118.892 203.842L140.283 209.793L118.512 206.106C118.486 206.202 118.467 206.302 118.436 206.396L143.456 222.809L117.278 209.089Z" fill="url(#paint71_radial_102_627)"/>
</g>
<g filter="url(#filter21_d_102_627)">
<path d="M593.603 173.817C589.232 171.933 584.141 173.957 582.257 178.327C580.373 182.698 582.397 187.789 586.768 189.673C591.138 191.557 596.228 189.537 598.113 185.163C599.997 180.792 597.973 175.701 593.603 173.817Z" fill="url(#paint72_radial_102_627)"/>
<path d="M635.106 197.249C638.913 182.377 627.162 177.62 615.928 176.331C641.998 172.28 630.228 154.932 630.228 154.932C638.343 139.01 620.209 141.843 620.209 141.843C602.682 130.514 594.758 151.927 591.915 163.19C600.216 124.361 576.304 131.275 576.304 131.275C562.632 119.769 561.289 138.076 561.289 138.076C551.743 147.312 556.116 156.015 563.261 162.579C542.927 154.436 540.961 173.223 540.961 173.223C525.004 181.266 541.306 189.703 541.306 189.703C546.368 202.97 557.323 201.183 566.797 196.291C550.969 212.847 569.291 220.863 569.291 220.863C571.277 238.623 584.86 226.277 584.86 226.277C600.219 226.139 601.472 214.057 599.54 203.314C612.014 226.74 625.884 210.911 625.884 210.911C643.556 213.546 635.106 197.249 635.106 197.249ZM600.938 187.753C600.878 187.859 600.809 187.961 600.744 188.066L615.399 206.285L599.38 189.856C597.481 191.91 594.933 193.225 592.205 193.615L589.454 216.493L589.836 193.719C589.773 193.716 589.711 193.714 589.65 193.707L576.915 221.673L586.701 193.122C586.595 193.085 586.492 193.041 586.389 193.006L570.336 210.605L584.298 192.011C582.089 190.687 580.427 188.728 579.45 186.476L552.761 191.577L578.664 184.042L543.223 180.585L578.469 180.792C578.472 180.749 578.472 180.705 578.477 180.658L553.54 170.105L578.959 178.135C579.088 177.711 579.237 177.286 579.415 176.873C579.906 175.734 580.55 174.715 581.315 173.816L564.743 151.222L582.672 171.382L570.573 137.889L585.655 170.103L584.461 142.705L588.221 169.804C590.524 169.353 592.983 169.566 595.298 170.564C595.397 170.607 595.491 170.662 595.588 170.709L610.199 147.804L597.893 171.81L624.736 148.413L600.166 174.131L625.274 163.102L601.376 176.41C602.28 178.288 602.701 180.388 602.552 182.506L623.942 188.457L602.172 184.77C602.145 184.866 602.127 184.965 602.096 185.06L627.116 201.473L600.938 187.753Z" fill="url(#paint73_radial_102_627)"/>
</g>
<defs>
<filter id="filter0_di_102_627" x="37.1211" y="118.8" width="594.159" height="279.011" filterUnits="userSpaceOnUse" color-interpolation-filters="sRGB">
<feFlood flood-opacity="0" result="BackgroundImageFix"/>
<feColorMatrix in="SourceAlpha" type="matrix" values="0 0 0 0 0 0 0 0 0 0 0 0 0 0 0 0 0 0 127 0" result="hardAlpha"/>
<feOffset dy="17"/>
<feGaussianBlur stdDeviation="6"/>
<feComposite in2="hardAlpha" operator="out"/>
<feColorMatrix type="matrix" values="0 0 0 0 0 0 0 0 0 0 0 0 0 0 0 0 0 0 0.25 0"/>
<feBlend mode="normal" in2="BackgroundImageFix" result="effect1_dropShadow_102_627"/>
<feBlend mode="normal" in="SourceGraphic" in2="effect1_dropShadow_102_627" result="shape"/>
<feColorMatrix in="SourceAlpha" type="matrix" values="0 0 0 0 0 0 0 0 0 0 0 0 0 0 0 0 0 0 127 0" result="hardAlpha"/>
<feOffset dy="7"/>
<feGaussianBlur stdDeviation="4.6"/>
<feComposite in2="hardAlpha" operator="arithmetic" k2="-1" k3="1"/>
<feColorMatrix type="matrix" values="0 0 0 0 0.984314 0 0 0 0 0.694118 0 0 0 0 1 0 0 0 0.25 0"/>
<feBlend mode="normal" in2="shape" result="effect2_innerShadow_102_627"/>
</filter>
<clipPath id="bgblur_0_102_627_clip_path" transform="translate(-37.1211 -118.8)"><path d="M496.971 297.948L520.53 366.868L442.082 324.013L441.919 323.974C399.347 321.135 365.175 284.104 359.869 237.119L322.019 237.67C318.046 288.699 280.023 328.801 233.429 329.018C231.847 329.12 230.502 328.957 228.83 328.716L149.976 368.811L172.919 300.779L57.3881 301.31L129.366 230.107L49.1212 128.558L174.141 128.861L208.59 128.78L211.517 128.841C213.917 128.935 216.28 129.182 218.716 129.124C223.642 129.505 228.805 129.62 233.677 129.505C276.944 129.453 312.593 163.942 320.591 209.804L360.35 209.23C366.808 161.534 403.498 124.814 447.783 124.846C448.474 124.852 449.201 124.705 449.692 124.823C453.473 124.928 457.037 124.498 460.818 124.603L462.4 124.5L493.43 125.689L494.248 125.886L619.28 129.733L539.986 228.468L612.586 302.105L496.881 297.604L496.971 297.948Z"/>
</clipPath><filter id="filter1_i_102_627" x="540" y="333" width="6" height="16" filterUnits="userSpaceOnUse" color-interpolation-filters="sRGB">
<feFlood flood-opacity="0" result="BackgroundImageFix"/>
<feBlend mode="normal" in="SourceGraphic" in2="BackgroundImageFix" result="shape"/>
<feColorMatrix in="SourceAlpha" type="matrix" values="0 0 0 0 0 0 0 0 0 0 0 0 0 0 0 0 0 0 127 0" result="hardAlpha"/>
<feOffset dx="2"/>
<feComposite in2="hardAlpha" operator="arithmetic" k2="-1" k3="1"/>
<feColorMatrix type="matrix" values="0 0 0 0 0.915385 0 0 0 0 0.915385 0 0 0 0 0.915385 0 0 0 1 0"/>
<feBlend mode="normal" in2="shape" result="effect1_innerShadow_102_627"/>
</filter>
<filter id="filter2_i_102_627" x="540" y="343" width="6" height="16" filterUnits="userSpaceOnUse" color-interpolation-filters="sRGB">
<feFlood flood-opacity="0" result="BackgroundImageFix"/>
<feBlend mode="normal" in="SourceGraphic" in2="BackgroundImageFix" result="shape"/>
<feColorMatrix in="SourceAlpha" type="matrix" values="0 0 0 0 0 0 0 0 0 0 0 0 0 0 0 0 0 0 127 0" result="hardAlpha"/>
<feOffset dx="2"/>
<feComposite in2="hardAlpha" operator="arithmetic" k2="-1" k3="1"/>
<feColorMatrix type="matrix" values="0 0 0 0 0.915385 0 0 0 0 0.915385 0 0 0 0 0.915385 0 0 0 1 0"/>
<feBlend mode="normal" in2="shape" result="effect1_innerShadow_102_627"/>
</filter>
<filter id="filter3_i_102_627" x="540" y="313" width="6" height="16" filterUnits="userSpaceOnUse" color-interpolation-filters="sRGB">
<feFlood flood-opacity="0" result="BackgroundImageFix"/>
<feBlend mode="normal" in="SourceGraphic" in2="BackgroundImageFix" result="shape"/>
<feColorMatrix in="SourceAlpha" type="matrix" values="0 0 0 0 0 0 0 0 0 0 0 0 0 0 0 0 0 0 127 0" result="hardAlpha"/>
<feOffset dx="2"/>
<feComposite in2="hardAlpha" operator="arithmetic" k2="-1" k3="1"/>
<feColorMatrix type="matrix" values="0 0 0 0 0.915385 0 0 0 0 0.915385 0 0 0 0 0.915385 0 0 0 1 0"/>
<feBlend mode="normal" in2="shape" result="effect1_innerShadow_102_627"/>
</filter>
<filter id="filter4_i_102_627" x="540" y="323" width="6" height="16" filterUnits="userSpaceOnUse" color-interpolation-filters="sRGB">
<feFlood flood-opacity="0" result="BackgroundImageFix"/>
<feBlend mode="normal" in="SourceGraphic" in2="BackgroundImageFix" result="shape"/>
<feColorMatrix in="SourceAlpha" type="matrix" values="0 0 0 0 0 0 0 0 0 0 0 0 0 0 0 0 0 0 127 0" result="hardAlpha"/>
<feOffset dx="2"/>
<feComposite in2="hardAlpha" operator="arithmetic" k2="-1" k3="1"/>
<feColorMatrix type="matrix" values="0 0 0 0 0.915385 0 0 0 0 0.915385 0 0 0 0 0.915385 0 0 0 1 0"/>
<feBlend mode="normal" in2="shape" result="effect1_innerShadow_102_627"/>
</filter>
<filter id="filter5_i_102_627" x="540" y="293" width="6" height="16" filterUnits="userSpaceOnUse" color-interpolation-filters="sRGB">
<feFlood flood-opacity="0" result="BackgroundImageFix"/>
<feBlend mode="normal" in="SourceGraphic" in2="BackgroundImageFix" result="shape"/>
<feColorMatrix in="SourceAlpha" type="matrix" values="0 0 0 0 0 0 0 0 0 0 0 0 0 0 0 0 0 0 127 0" result="hardAlpha"/>
<feOffset dx="2"/>
<feComposite in2="hardAlpha" operator="arithmetic" k2="-1" k3="1"/>
<feColorMatrix type="matrix" values="0 0 0 0 0.915385 0 0 0 0 0.915385 0 0 0 0 0.915385 0 0 0 1 0"/>
<feBlend mode="normal" in2="shape" result="effect1_innerShadow_102_627"/>
</filter>
<filter id="filter6_i_102_627" x="540" y="303" width="6" height="16" filterUnits="userSpaceOnUse" color-interpolation-filters="sRGB">
<feFlood flood-opacity="0" result="BackgroundImageFix"/>
<feBlend mode="normal" in="SourceGraphic" in2="BackgroundImageFix" result="shape"/>
<feColorMatrix in="SourceAlpha" type="matrix" values="0 0 0 0 0 0 0 0 0 0 0 0 0 0 0 0 0 0 127 0" result="hardAlpha"/>
<feOffset dx="2"/>
<feComposite in2="hardAlpha" operator="arithmetic" k2="-1" k3="1"/>
<feColorMatrix type="matrix" values="0 0 0 0 0.915385 0 0 0 0 0.915385 0 0 0 0 0.915385 0 0 0 1 0"/>
<feBlend mode="normal" in2="shape" result="effect1_innerShadow_102_627"/>
</filter>
<filter id="filter7_i_102_627" x="540" y="273" width="6" height="16" filterUnits="userSpaceOnUse" color-interpolation-filters="sRGB">
<feFlood flood-opacity="0" result="BackgroundImageFix"/>
<feBlend mode="normal" in="SourceGraphic" in2="BackgroundImageFix" result="shape"/>
<feColorMatrix in="SourceAlpha" type="matrix" values="0 0 0 0 0 0 0 0 0 0 0 0 0 0 0 0 0 0 127 0" result="hardAlpha"/>
<feOffset dx="2"/>
<feComposite in2="hardAlpha" operator="arithmetic" k2="-1" k3="1"/>
<feColorMatrix type="matrix" values="0 0 0 0 0.915385 0 0 0 0 0.915385 0 0 0 0 0.915385 0 0 0 1 0"/>
<feBlend mode="normal" in2="shape" result="effect1_innerShadow_102_627"/>
</filter>
<filter id="filter8_i_102_627" x="540" y="283" width="6" height="16" filterUnits="userSpaceOnUse" color-interpolation-filters="sRGB">
<feFlood flood-opacity="0" result="BackgroundImageFix"/>
<feBlend mode="normal" in="SourceGraphic" in2="BackgroundImageFix" result="shape"/>
<feColorMatrix in="SourceAlpha" type="matrix" values="0 0 0 0 0 0 0 0 0 0 0 0 0 0 0 0 0 0 127 0" result="hardAlpha"/>
<feOffset dx="2"/>
<feComposite in2="hardAlpha" operator="arithmetic" k2="-1" k3="1"/>
<feColorMatrix type="matrix" values="0 0 0 0 0.915385 0 0 0 0 0.915385 0 0 0 0 0.915385 0 0 0 1 0"/>
<feBlend mode="normal" in2="shape" result="effect1_innerShadow_102_627"/>
</filter>
<filter id="filter9_i_102_627" x="540" y="253" width="6" height="16" filterUnits="userSpaceOnUse" color-interpolation-filters="sRGB">
<feFlood flood-opacity="0" result="BackgroundImageFix"/>
<feBlend mode="normal" in="SourceGraphic" in2="BackgroundImageFix" result="shape"/>
<feColorMatrix in="SourceAlpha" type="matrix" values="0 0 0 0 0 0 0 0 0 0 0 0 0 0 0 0 0 0 127 0" result="hardAlpha"/>
<feOffset dx="2"/>
<feComposite in2="hardAlpha" operator="arithmetic" k2="-1" k3="1"/>
<feColorMatrix type="matrix" values="0 0 0 0 0.915385 0 0 0 0 0.915385 0 0 0 0 0.915385 0 0 0 1 0"/>
<feBlend mode="normal" in2="shape" result="effect1_innerShadow_102_627"/>
</filter>
<filter id="filter10_i_102_627" x="540" y="263" width="6" height="16" filterUnits="userSpaceOnUse" color-interpolation-filters="sRGB">
<feFlood flood-opacity="0" result="BackgroundImageFix"/>
<feBlend mode="normal" in="SourceGraphic" in2="BackgroundImageFix" result="shape"/>
<feColorMatrix in="SourceAlpha" type="matrix" values="0 0 0 0 0 0 0 0 0 0 0 0 0 0 0 0 0 0 127 0" result="hardAlpha"/>
<feOffset dx="2"/>
<feComposite in2="hardAlpha" operator="arithmetic" k2="-1" k3="1"/>
<feColorMatrix type="matrix" values="0 0 0 0 0.915385 0 0 0 0 0.915385 0 0 0 0 0.915385 0 0 0 1 0"/>
<feBlend mode="normal" in2="shape" result="effect1_innerShadow_102_627"/>
</filter>
<filter id="filter11_i_102_627" x="540" y="243" width="6" height="16" filterUnits="userSpaceOnUse" color-interpolation-filters="sRGB">
<feFlood flood-opacity="0" result="BackgroundImageFix"/>
<feBlend mode="normal" in="SourceGraphic" in2="BackgroundImageFix" result="shape"/>
<feColorMatrix in="SourceAlpha" type="matrix" values="0 0 0 0 0 0 0 0 0 0 0 0 0 0 0 0 0 0 127 0" result="hardAlpha"/>
<feOffset dx="2"/>
<feComposite in2="hardAlpha" operator="arithmetic" k2="-1" k3="1"/>
<feColorMatrix type="matrix" values="0 0 0 0 0.915385 0 0 0 0 0.915385 0 0 0 0 0.915385 0 0 0 1 0"/>
<feBlend mode="normal" in2="shape" result="effect1_innerShadow_102_627"/>
</filter>
<filter id="filter12_i_102_627" x="540" y="253" width="6" height="16" filterUnits="userSpaceOnUse" color-interpolation-filters="sRGB">
<feFlood flood-opacity="0" result="BackgroundImageFix"/>
<feBlend mode="normal" in="SourceGraphic" in2="BackgroundImageFix" result="shape"/>
<feColorMatrix in="SourceAlpha" type="matrix" values="0 0 0 0 0 0 0 0 0 0 0 0 0 0 0 0 0 0 127 0" result="hardAlpha"/>
<feOffset dx="2"/>
<feComposite in2="hardAlpha" operator="arithmetic" k2="-1" k3="1"/>
<feColorMatrix type="matrix" values="0 0 0 0 0.915385 0 0 0 0 0.915385 0 0 0 0 0.915385 0 0 0 1 0"/>
<feBlend mode="normal" in2="shape" result="effect1_innerShadow_102_627"/>
</filter>
<filter id="filter13_i_102_627" x="540" y="233" width="6" height="16" filterUnits="userSpaceOnUse" color-interpolation-filters="sRGB">
<feFlood flood-opacity="0" result="BackgroundImageFix"/>
<feBlend mode="normal" in="SourceGraphic" in2="BackgroundImageFix" result="shape"/>
<feColorMatrix in="SourceAlpha" type="matrix" values="0 0 0 0 0 0 0 0 0 0 0 0 0 0 0 0 0 0 127 0" result="hardAlpha"/>
<feOffset dx="2"/>
<feComposite in2="hardAlpha" operator="arithmetic" k2="-1" k3="1"/>
<feColorMatrix type="matrix" values="0 0 0 0 0.915385 0 0 0 0 0.915385 0 0 0 0 0.915385 0 0 0 1 0"/>
<feBlend mode="normal" in2="shape" result="effect1_innerShadow_102_627"/>
</filter>
<filter id="filter14_ii_102_627" x="535" y="222" width="17" height="17" filterUnits="userSpaceOnUse" color-interpolation-filters="sRGB">
<feFlood flood-opacity="0" result="BackgroundImageFix"/>
<feBlend mode="normal" in="SourceGraphic" in2="BackgroundImageFix" result="shape"/>
<feColorMatrix in="SourceAlpha" type="matrix" values="0 0 0 0 0 0 0 0 0 0 0 0 0 0 0 0 0 0 127 0" result="hardAlpha"/>
<feOffset dy="4"/>
<feComposite in2="hardAlpha" operator="arithmetic" k2="-1" k3="1"/>
<feColorMatrix type="matrix" values="0 0 0 0 0 0 0 0 0 0 0 0 0 0 0 0 0 0 0.25 0"/>
<feBlend mode="normal" in2="shape" result="effect1_innerShadow_102_627"/>
<feColorMatrix in="SourceAlpha" type="matrix" values="0 0 0 0 0 0 0 0 0 0 0 0 0 0 0 0 0 0 127 0" result="hardAlpha"/>
<feOffset dy="-4"/>
<feComposite in2="hardAlpha" operator="arithmetic" k2="-1" k3="1"/>
<feColorMatrix type="matrix" values="0 0 0 0 1 0 0 0 0 1 0 0 0 0 1 0 0 0 0.25 0"/>
<feBlend mode="normal" in2="effect1_innerShadow_102_627" result="effect2_innerShadow_102_627"/>
</filter>
<filter id="filter15_i_102_627" x="175" y="346" width="6" height="16" filterUnits="userSpaceOnUse" color-interpolation-filters="sRGB">
<feFlood flood-opacity="0" result="BackgroundImageFix"/>
<feBlend mode="normal" in="SourceGraphic" in2="BackgroundImageFix" result="shape"/>
<feColorMatrix in="SourceAlpha" type="matrix" values="0 0 0 0 0 0 0 0 0 0 0 0 0 0 0 0 0 0 127 0" result="hardAlpha"/>
<feOffset dx="2"/>
<feComposite in2="hardAlpha" operator="arithmetic" k2="-1" k3="1"/>
<feColorMatrix type="matrix" values="0 0 0 0 0.915385 0 0 0 0 0.915385 0 0 0 0 0.915385 0 0 0 1 0"/>
<feBlend mode="normal" in2="shape" result="effect1_innerShadow_102_627"/>
</filter>
<filter id="filter16_i_102_627" x="175" y="356" width="6" height="16" filterUnits="userSpaceOnUse" color-interpolation-filters="sRGB">
<feFlood flood-opacity="0" result="BackgroundImageFix"/>
<feBlend mode="normal" in="SourceGraphic" in2="BackgroundImageFix" result="shape"/>
<feColorMatrix in="SourceAlpha" type="matrix" values="0 0 0 0 0 0 0 0 0 0 0 0 0 0 0 0 0 0 127 0" result="hardAlpha"/>
<feOffset dx="2"/>
<feComposite in2="hardAlpha" operator="arithmetic" k2="-1" k3="1"/>
<feColorMatrix type="matrix" values="0 0 0 0 0.915385 0 0 0 0 0.915385 0 0 0 0 0.915385 0 0 0 1 0"/>
<feBlend mode="normal" in2="shape" result="effect1_innerShadow_102_627"/>
</filter>
<filter id="filter17_ii_102_627" x="170" y="334" width="17" height="17" filterUnits="userSpaceOnUse" color-interpolation-filters="sRGB">
<feFlood flood-opacity="0" result="BackgroundImageFix"/>
<feBlend mode="normal" in="SourceGraphic" in2="BackgroundImageFix" result="shape"/>
<feColorMatrix in="SourceAlpha" type="matrix" values="0 0 0 0 0 0 0 0 0 0 0 0 0 0 0 0 0 0 127 0" result="hardAlpha"/>
<feOffset dy="4"/>
<feComposite in2="hardAlpha" operator="arithmetic" k2="-1" k3="1"/>
<feColorMatrix type="matrix" values="0 0 0 0 0 0 0 0 0 0 0 0 0 0 0 0 0 0 0.25 0"/>
<feBlend mode="normal" in2="shape" result="effect1_innerShadow_102_627"/>
<feColorMatrix in="SourceAlpha" type="matrix" values="0 0 0 0 0 0 0 0 0 0 0 0 0 0 0 0 0 0 127 0" result="hardAlpha"/>
<feOffset dy="-4"/>
<feComposite in2="hardAlpha" operator="arithmetic" k2="-1" k3="1"/>
<feColorMatrix type="matrix" values="0 0 0 0 1 0 0 0 0 1 0 0 0 0 1 0 0 0 0.25 0"/>
<feBlend mode="normal" in2="effect1_innerShadow_102_627" result="effect2_innerShadow_102_627"/>
</filter>
<filter id="filter18_dd_102_627" x="99.4663" y="267.997" width="108.966" height="97.3562" filterUnits="userSpaceOnUse" color-interpolation-filters="sRGB">
<feFlood flood-opacity="0" result="BackgroundImageFix"/>
<feColorMatrix in="SourceAlpha" type="matrix" values="0 0 0 0 0 0 0 0 0 0 0 0 0 0 0 0 0 0 127 0" result="hardAlpha"/>
<feOffset dx="-7" dy="-4"/>
<feGaussianBlur stdDeviation="2"/>
<feComposite in2="hardAlpha" operator="out"/>
<feColorMatrix type="matrix" values="0 0 0 0 0 0 0 0 0 0 0 0 0 0 0 0 0 0 0.25 0"/>
<feBlend mode="normal" in2="BackgroundImageFix" result="effect1_dropShadow_102_627"/>
<feColorMatrix in="SourceAlpha" type="matrix" values="0 0 0 0 0 0 0 0 0 0 0 0 0 0 0 0 0 0 127 0" result="hardAlpha"/>
<feOffset dx="11" dy="8"/>
<feGaussianBlur stdDeviation="2"/>
<feComposite in2="hardAlpha" operator="out"/>
<feColorMatrix type="matrix" values="0 0 0 0 0 0 0 0 0 0 0 0 0 0 0 0 0 0 0.25 0"/>
<feBlend mode="normal" in2="effect1_dropShadow_102_627" result="effect2_dropShadow_102_627"/>
<feBlend mode="normal" in="SourceGraphic" in2="effect2_dropShadow_102_627" result="shape"/>
</filter>
<filter id="filter19_d_102_627" x="554.753" y="91.9565" width="88.4751" height="85.3625" filterUnits="userSpaceOnUse" color-interpolation-filters="sRGB">
<feFlood flood-opacity="0" result="BackgroundImageFix"/>
<feColorMatrix in="SourceAlpha" type="matrix" values="0 0 0 0 0 0 0 0 0 0 0 0 0 0 0 0 0 0 127 0" result="hardAlpha"/>
<feOffset dx="-7" dy="4"/>
<feGaussianBlur stdDeviation="2"/>
<feComposite in2="hardAlpha" operator="out"/>
<feColorMatrix type="matrix" values="0 0 0 0 0 0 0 0 0 0 0 0 0 0 0 0 0 0 0.25 0"/>
<feBlend mode="normal" in2="BackgroundImageFix" result="effect1_dropShadow_102_627"/>
<feBlend mode="normal" in="SourceGraphic" in2="effect1_dropShadow_102_627" result="shape"/>
</filter>
<filter id="filter20_d_102_627" x="37.7974" y="146.313" width="115.668" height="111.976" filterUnits="userSpaceOnUse" color-interpolation-filters="sRGB">
<feFlood flood-opacity="0" result="BackgroundImageFix"/>
<feColorMatrix in="SourceAlpha" type="matrix" values="0 0 0 0 0 0 0 0 0 0 0 0 0 0 0 0 0 0 127 0" result="hardAlpha"/>
<feOffset dx="-8" dy="2"/>
<feGaussianBlur stdDeviation="2.25"/>
<feComposite in2="hardAlpha" operator="out"/>
<feColorMatrix type="matrix" values="0 0 0 0 0 0 0 0 0 0 0 0 0 0 0 0 0 0 0.25 0"/>
<feBlend mode="normal" in2="BackgroundImageFix" result="effect1_dropShadow_102_627"/>
<feBlend mode="normal" in="SourceGraphic" in2="effect1_dropShadow_102_627" result="shape"/>
</filter>
<filter id="filter21_d_102_627" x="529.957" y="116.477" width="111.168" height="113.976" filterUnits="userSpaceOnUse" color-interpolation-filters="sRGB">
<feFlood flood-opacity="0" result="BackgroundImageFix"/>
<feColorMatrix in="SourceAlpha" type="matrix" values="0 0 0 0 0 0 0 0 0 0 0 0 0 0 0 0 0 0 127 0" result="hardAlpha"/>
<feOffset dy="-7"/>
<feGaussianBlur stdDeviation="2"/>
<feComposite in2="hardAlpha" operator="out"/>
<feColorMatrix type="matrix" values="0 0 0 0 0 0 0 0 0 0 0 0 0 0 0 0 0 0 0.25 0"/>
<feBlend mode="normal" in2="BackgroundImageFix" result="effect1_dropShadow_102_627"/>
<feBlend mode="normal" in="SourceGraphic" in2="effect1_dropShadow_102_627" result="shape"/>
</filter>
<linearGradient id="paint0_linear_102_627" x1="547.891" y1="405.26" x2="551.307" y2="353.054" gradientUnits="userSpaceOnUse">
<stop stop-color="#A05FF0"/>
<stop offset="0.350962" stop-color="#A24FFD"/>
<stop offset="0.615385" stop-color="#9A43FB"/>
<stop offset="1" stop-color="#4B24A1"/>
</linearGradient>
<linearGradient id="paint1_linear_102_627" x1="533.474" y1="404.884" x2="538.968" y2="352.224" gradientUnits="userSpaceOnUse">
<stop offset="0.00480769" stop-color="#BD5DE8"/>
<stop offset="0.0913462" stop-color="#D082F2"/>
<stop offset="0.177885" stop-color="#D767F0"/>
<stop offset="0.427885" stop-color="#D261F4"/>
<stop offset="0.754808" stop-color="#D961F5"/>
<stop offset="1" stop-color="#B253EA"/>
</linearGradient>
<linearGradient id="paint2_linear_102_627" x1="548.904" y1="385.683" x2="550.8" y2="356.705" gradientUnits="userSpaceOnUse">
<stop stop-color="#9A4AE5"/>
<stop offset="1" stop-color="#803BDA"/>
</linearGradient>
<linearGradient id="paint3_linear_102_627" x1="551.585" y1="366.392" x2="549.055" y2="405.052" gradientUnits="userSpaceOnUse">
<stop stop-color="#BC5CE7"/>
<stop offset="1" stop-color="#D761F5"/>
</linearGradient>
<linearGradient id="paint4_linear_102_627" x1="553.084" y1="376.692" x2="552.253" y2="389.391" gradientUnits="userSpaceOnUse">
<stop stop-color="#DE7FEF"/>
<stop offset="0.9998" stop-color="#D07BEE"/>
</linearGradient>
<linearGradient id="paint5_linear_102_627" x1="548.593" y1="370.245" x2="549.576" y2="355.208" gradientUnits="userSpaceOnUse">
<stop stop-color="#5D30B9"/>
<stop offset="1" stop-color="#5528AB"/>
</linearGradient>
<linearGradient id="paint6_linear_102_627" x1="537.957" y1="373.124" x2="538.804" y2="360.171" gradientUnits="userSpaceOnUse">
<stop stop-color="#9B4BE5"/>
<stop offset="1" stop-color="#7D3AD8"/>
</linearGradient>
<linearGradient id="paint7_linear_102_627" x1="546.243" y1="415.638" x2="550.703" y2="403.237" gradientUnits="userSpaceOnUse">
<stop offset="0.00480769" stop-color="#EFA2F7"/>
<stop offset="1" stop-color="#F6BBFB"/>
</linearGradient>
<linearGradient id="paint8_linear_102_627" x1="544.668" y1="413.834" x2="539.514" y2="403.325" gradientUnits="userSpaceOnUse">
<stop offset="0.00480769" stop-color="#DF96F5"/>
<stop offset="0.719249" stop-color="#FBACF9"/>
<stop offset="1" stop-color="#F8C0FB"/>
</linearGradient>
<linearGradient id="paint9_linear_102_627" x1="545.178" y1="415.568" x2="539.653" y2="402.194" gradientUnits="userSpaceOnUse">
<stop stop-color="#E491F9"/>
<stop offset="1" stop-color="#F8C0FB"/>
</linearGradient>
<linearGradient id="paint10_linear_102_627" x1="553.123" y1="403.902" x2="549.005" y2="363.154" gradientUnits="userSpaceOnUse">
<stop stop-color="#F2AEFA"/>
<stop offset="0.139077" stop-color="#FEE9FE"/>
<stop offset="0.461576" stop-color="#FEE9FE"/>
<stop offset="1" stop-color="#9A47ED"/>
</linearGradient>
<linearGradient id="paint11_linear_102_627" x1="537.319" y1="370.589" x2="539.491" y2="375.099" gradientUnits="userSpaceOnUse">
<stop stop-color="#7D3BE5"/>
<stop offset="1" stop-color="#A251F6"/>
</linearGradient>
<linearGradient id="paint12_linear_102_627" x1="541" y1="341" x2="545" y2="341" gradientUnits="userSpaceOnUse">
<stop stop-color="#D9D9D9"/>
<stop offset="1" stop-color="#737373"/>
</linearGradient>
<linearGradient id="paint13_linear_102_627" x1="545" y1="341" x2="541" y2="341" gradientUnits="userSpaceOnUse">
<stop stop-color="#E9E9E9"/>
<stop offset="1" stop-color="#666666"/>
</linearGradient>
<linearGradient id="paint14_linear_102_627" x1="541" y1="351" x2="545" y2="351" gradientUnits="userSpaceOnUse">
<stop stop-color="#D9D9D9"/>
<stop offset="1" stop-color="#737373"/>
</linearGradient>
<linearGradient id="paint15_linear_102_627" x1="545" y1="351" x2="541" y2="351" gradientUnits="userSpaceOnUse">
<stop stop-color="#E9E9E9"/>
<stop offset="1" stop-color="#666666"/>
</linearGradient>
<linearGradient id="paint16_linear_102_627" x1="541" y1="321" x2="545" y2="321" gradientUnits="userSpaceOnUse">
<stop stop-color="#D9D9D9"/>
<stop offset="1" stop-color="#737373"/>
</linearGradient>
<linearGradient id="paint17_linear_102_627" x1="545" y1="321" x2="541" y2="321" gradientUnits="userSpaceOnUse">
<stop stop-color="#E9E9E9"/>
<stop offset="1" stop-color="#666666"/>
</linearGradient>
<linearGradient id="paint18_linear_102_627" x1="541" y1="331" x2="545" y2="331" gradientUnits="userSpaceOnUse">
<stop stop-color="#D9D9D9"/>
<stop offset="1" stop-color="#737373"/>
</linearGradient>
<linearGradient id="paint19_linear_102_627" x1="545" y1="331" x2="541" y2="331" gradientUnits="userSpaceOnUse">
<stop stop-color="#E9E9E9"/>
<stop offset="1" stop-color="#666666"/>
</linearGradient>
<linearGradient id="paint20_linear_102_627" x1="541" y1="301" x2="545" y2="301" gradientUnits="userSpaceOnUse">
<stop stop-color="#D9D9D9"/>
<stop offset="1" stop-color="#737373"/>
</linearGradient>
<linearGradient id="paint21_linear_102_627" x1="545" y1="301" x2="541" y2="301" gradientUnits="userSpaceOnUse">
<stop stop-color="#E9E9E9"/>
<stop offset="1" stop-color="#666666"/>
</linearGradient>
<linearGradient id="paint22_linear_102_627" x1="541" y1="311" x2="545" y2="311" gradientUnits="userSpaceOnUse">
<stop stop-color="#D9D9D9"/>
<stop offset="1" stop-color="#737373"/>
</linearGradient>
<linearGradient id="paint23_linear_102_627" x1="545" y1="311" x2="541" y2="311" gradientUnits="userSpaceOnUse">
<stop stop-color="#E9E9E9"/>
<stop offset="1" stop-color="#666666"/>
</linearGradient>
<linearGradient id="paint24_linear_102_627" x1="541" y1="281" x2="545" y2="281" gradientUnits="userSpaceOnUse">
<stop stop-color="#D9D9D9"/>
<stop offset="1" stop-color="#737373"/>
</linearGradient>
<linearGradient id="paint25_linear_102_627" x1="545" y1="281" x2="541" y2="281" gradientUnits="userSpaceOnUse">
<stop stop-color="#E9E9E9"/>
<stop offset="1" stop-color="#666666"/>
</linearGradient>
<linearGradient id="paint26_linear_102_627" x1="541" y1="291" x2="545" y2="291" gradientUnits="userSpaceOnUse">
<stop stop-color="#D9D9D9"/>
<stop offset="1" stop-color="#737373"/>
</linearGradient>
<linearGradient id="paint27_linear_102_627" x1="545" y1="291" x2="541" y2="291" gradientUnits="userSpaceOnUse">
<stop stop-color="#E9E9E9"/>
<stop offset="1" stop-color="#666666"/>
</linearGradient>
<linearGradient id="paint28_linear_102_627" x1="541" y1="261" x2="545" y2="261" gradientUnits="userSpaceOnUse">
<stop stop-color="#D9D9D9"/>
<stop offset="1" stop-color="#737373"/>
</linearGradient>
<linearGradient id="paint29_linear_102_627" x1="545" y1="261" x2="541" y2="261" gradientUnits="userSpaceOnUse">
<stop stop-color="#E9E9E9"/>
<stop offset="1" stop-color="#666666"/>
</linearGradient>
<linearGradient id="paint30_linear_102_627" x1="541" y1="271" x2="545" y2="271" gradientUnits="userSpaceOnUse">
<stop stop-color="#D9D9D9"/>
<stop offset="1" stop-color="#737373"/>
</linearGradient>
<linearGradient id="paint31_linear_102_627" x1="545" y1="271" x2="541" y2="271" gradientUnits="userSpaceOnUse">
<stop stop-color="#E9E9E9"/>
<stop offset="1" stop-color="#666666"/>
</linearGradient>
<linearGradient id="paint32_linear_102_627" x1="541" y1="251" x2="545" y2="251" gradientUnits="userSpaceOnUse">
<stop stop-color="#D9D9D9"/>
<stop offset="1" stop-color="#737373"/>
</linearGradient>
<linearGradient id="paint33_linear_102_627" x1="545" y1="251" x2="541" y2="251" gradientUnits="userSpaceOnUse">
<stop stop-color="#E9E9E9"/>
<stop offset="1" stop-color="#666666"/>
</linearGradient>
<linearGradient id="paint34_linear_102_627" x1="541" y1="261" x2="545" y2="261" gradientUnits="userSpaceOnUse">
<stop stop-color="#D9D9D9"/>
<stop offset="1" stop-color="#737373"/>
</linearGradient>
<linearGradient id="paint35_linear_102_627" x1="545" y1="261" x2="541" y2="261" gradientUnits="userSpaceOnUse">
<stop stop-color="#E9E9E9"/>
<stop offset="1" stop-color="#666666"/>
</linearGradient>
<linearGradient id="paint36_linear_102_627" x1="541" y1="241" x2="545" y2="241" gradientUnits="userSpaceOnUse">
<stop stop-color="#D9D9D9"/>
<stop offset="1" stop-color="#737373"/>
</linearGradient>
<linearGradient id="paint37_linear_102_627" x1="545" y1="241" x2="541" y2="241" gradientUnits="userSpaceOnUse">
<stop stop-color="#E9E9E9"/>
<stop offset="1" stop-color="#666666"/>
</linearGradient>
<linearGradient id="paint38_linear_102_627" x1="552" y1="231" x2="535" y2="231" gradientUnits="userSpaceOnUse">
<stop stop-color="#D9D9D9"/>
<stop offset="1" stop-color="#737373"/>
</linearGradient>
<linearGradient id="paint39_linear_102_627" x1="535" y1="231" x2="552" y2="231" gradientUnits="userSpaceOnUse">
<stop stop-color="white"/>
<stop offset="1" stop-color="#595959"/>
</linearGradient>
<linearGradient id="paint40_linear_102_627" x1="182.148" y1="405.303" x2="184.605" y2="367.758" gradientUnits="userSpaceOnUse">
<stop stop-color="#A05FF0"/>
<stop offset="0.350962" stop-color="#A24FFD"/>
<stop offset="0.615385" stop-color="#9A43FB"/>
<stop offset="1" stop-color="#4B24A1"/>
</linearGradient>
<linearGradient id="paint41_linear_102_627" x1="171.779" y1="405.033" x2="175.73" y2="367.161" gradientUnits="userSpaceOnUse">
<stop offset="0.00480769" stop-color="#BD5DE8"/>
<stop offset="0.0913462" stop-color="#D082F2"/>
<stop offset="0.177885" stop-color="#D767F0"/>
<stop offset="0.427885" stop-color="#D261F4"/>
<stop offset="0.754808" stop-color="#D961F5"/>
<stop offset="1" stop-color="#B253EA"/>
</linearGradient>
<linearGradient id="paint42_linear_102_627" x1="182.877" y1="391.224" x2="184.241" y2="370.384" gradientUnits="userSpaceOnUse">
<stop stop-color="#9A4AE5"/>
<stop offset="1" stop-color="#803BDA"/>
</linearGradient>
<linearGradient id="paint43_linear_102_627" x1="184.805" y1="377.351" x2="182.986" y2="405.155" gradientUnits="userSpaceOnUse">
<stop stop-color="#BC5CE7"/>
<stop offset="1" stop-color="#D761F5"/>
</linearGradient>
<linearGradient id="paint44_linear_102_627" x1="185.883" y1="384.759" x2="185.285" y2="393.891" gradientUnits="userSpaceOnUse">
<stop stop-color="#DE7FEF"/>
<stop offset="0.9998" stop-color="#D07BEE"/>
</linearGradient>
<linearGradient id="paint45_linear_102_627" x1="182.652" y1="380.122" x2="183.36" y2="369.307" gradientUnits="userSpaceOnUse">
<stop stop-color="#5D30B9"/>
<stop offset="1" stop-color="#5528AB"/>
</linearGradient>
<linearGradient id="paint46_linear_102_627" x1="175.003" y1="382.192" x2="175.613" y2="372.877" gradientUnits="userSpaceOnUse">
<stop stop-color="#9B4BE5"/>
<stop offset="1" stop-color="#7D3AD8"/>
</linearGradient>
<linearGradient id="paint47_linear_102_627" x1="180.963" y1="412.767" x2="184.171" y2="403.849" gradientUnits="userSpaceOnUse">
<stop offset="0.00480769" stop-color="#EFA2F7"/>
<stop offset="1" stop-color="#F6BBFB"/>
</linearGradient>
<linearGradient id="paint48_linear_102_627" x1="179.83" y1="411.47" x2="176.123" y2="403.912" gradientUnits="userSpaceOnUse">
<stop offset="0.00480769" stop-color="#DF96F5"/>
<stop offset="0.719249" stop-color="#FBACF9"/>
<stop offset="1" stop-color="#F8C0FB"/>
</linearGradient>
<linearGradient id="paint49_linear_102_627" x1="180.197" y1="412.717" x2="176.223" y2="403.098" gradientUnits="userSpaceOnUse">
<stop stop-color="#E491F9"/>
<stop offset="1" stop-color="#F8C0FB"/>
</linearGradient>
<linearGradient id="paint50_linear_102_627" x1="185.911" y1="404.327" x2="182.949" y2="375.022" gradientUnits="userSpaceOnUse">
<stop stop-color="#F2AEFA"/>
<stop offset="0.139077" stop-color="#FEE9FE"/>
<stop offset="0.461576" stop-color="#FEE9FE"/>
<stop offset="1" stop-color="#9A47ED"/>
</linearGradient>
<linearGradient id="paint51_linear_102_627" x1="174.544" y1="380.369" x2="176.106" y2="383.613" gradientUnits="userSpaceOnUse">
<stop stop-color="#7D3BE5"/>
<stop offset="1" stop-color="#A251F6"/>
</linearGradient>
<linearGradient id="paint52_linear_102_627" x1="176" y1="354" x2="180" y2="354" gradientUnits="userSpaceOnUse">
<stop stop-color="#D9D9D9"/>
<stop offset="1" stop-color="#737373"/>
</linearGradient>
<linearGradient id="paint53_linear_102_627" x1="180" y1="354" x2="176" y2="354" gradientUnits="userSpaceOnUse">
<stop stop-color="#E9E9E9"/>
<stop offset="1" stop-color="#666666"/>
</linearGradient>
<linearGradient id="paint54_linear_102_627" x1="176" y1="364" x2="180" y2="364" gradientUnits="userSpaceOnUse">
<stop stop-color="#D9D9D9"/>
<stop offset="1" stop-color="#737373"/>
</linearGradient>
<linearGradient id="paint55_linear_102_627" x1="180" y1="364" x2="176" y2="364" gradientUnits="userSpaceOnUse">
<stop stop-color="#E9E9E9"/>
<stop offset="1" stop-color="#666666"/>
</linearGradient>
<linearGradient id="paint56_linear_102_627" x1="187" y1="343" x2="170" y2="343" gradientUnits="userSpaceOnUse">
<stop stop-color="#D9D9D9"/>
<stop offset="1" stop-color="#737373"/>
</linearGradient>
<linearGradient id="paint57_linear_102_627" x1="170" y1="343" x2="187" y2="343" gradientUnits="userSpaceOnUse">
<stop stop-color="white"/>
<stop offset="1" stop-color="#595959"/>
</linearGradient>
<radialGradient id="paint58_radial_102_627" cx="0" cy="0" r="1" gradientUnits="userSpaceOnUse" gradientTransform="translate(68.5039 137.504) rotate(90) scale(7.5039)">
<stop stop-color="#F8C0FB"/>
<stop offset="1" stop-color="#B837B9"/>
</radialGradient>
<radialGradient id="paint59_radial_102_627" cx="0" cy="0" r="1" gradientUnits="userSpaceOnUse" gradientTransform="translate(68.7358 137.327) rotate(64.4578) scale(41.1993 42.5086)">
<stop stop-color="#FBACF9"/>
<stop offset="0.740385" stop-color="#B939BA"/>
</radialGradient>
<radialGradient id="paint60_radial_102_627" cx="0" cy="0" r="1" gradientUnits="userSpaceOnUse" gradientTransform="translate(105.825 269.401) rotate(173.923) scale(6.9511 6.47598)">
<stop stop-color="#F8C0FB"/>
<stop offset="1" stop-color="#B837B9"/>
</radialGradient>
<radialGradient id="paint61_radial_102_627" cx="0" cy="0" r="1" gradientTransform="matrix(-32.6178 18.8901 -20.3873 -31.1167 106.009 269.596)" gradientUnits="userSpaceOnUse">
<stop stop-color="#FBACF9"/>
<stop offset="0.740385" stop-color="#B939BA"/>
</radialGradient>
<radialGradient id="paint62_radial_102_627" cx="0" cy="0" r="1" gradientUnits="userSpaceOnUse" gradientTransform="translate(539.825 147.392) rotate(173.923) scale(6.9511 6.47598)">
<stop stop-color="#F8C0FB"/>
<stop offset="1" stop-color="#B837B9"/>
</radialGradient>
<radialGradient id="paint63_radial_102_627" cx="0" cy="0" r="1" gradientTransform="matrix(-32.6178 18.8901 -20.3873 -31.1167 540.009 147.596)" gradientUnits="userSpaceOnUse">
<stop stop-color="#FBACF9"/>
<stop offset="0.740385" stop-color="#B939BA"/>
</radialGradient>
<radialGradient id="paint64_radial_102_627" cx="0" cy="0" r="1" gradientUnits="userSpaceOnUse" gradientTransform="translate(212.548 320.994) rotate(-142.282) scale(6.69429 6.23672)">
<stop stop-color="#F8C0FB"/>
<stop offset="1" stop-color="#B837B9"/>
</radialGradient>
<radialGradient id="paint65_radial_102_627" cx="0" cy="0" r="1" gradientTransform="matrix(-35.2647 -8.60897 6.56768 -35.2192 212.536 321.262)" gradientUnits="userSpaceOnUse">
<stop stop-color="#FBACF9"/>
<stop offset="0.740385" stop-color="#B939BA"/>
</radialGradient>
<radialGradient id="paint66_radial_102_627" cx="0" cy="0" r="1" gradientUnits="userSpaceOnUse" gradientTransform="translate(150.825 313.395) rotate(173.923) scale(6.9511 6.47598)">
<stop stop-color="#F8C0FB"/>
<stop offset="1" stop-color="#B837B9"/>
</radialGradient>
<radialGradient id="paint67_radial_102_627" cx="0" cy="0" r="1" gradientTransform="matrix(-32.6178 18.8901 -20.3873 -31.1167 151.009 313.596)" gradientUnits="userSpaceOnUse">
<stop stop-color="#FBACF9"/>
<stop offset="0.740385" stop-color="#B939BA"/>
</radialGradient>
<radialGradient id="paint68_radial_102_627" cx="0" cy="0" r="1" gradientUnits="userSpaceOnUse" gradientTransform="translate(599.548 131.994) rotate(-142.282) scale(6.69429 6.23672)">
<stop stop-color="#F8C0FB"/>
<stop offset="1" stop-color="#B837B9"/>
</radialGradient>
<radialGradient id="paint69_radial_102_627" cx="0" cy="0" r="1" gradientTransform="matrix(-35.2647 -8.60897 6.56768 -35.2192 599.536 132.262)" gradientUnits="userSpaceOnUse">
<stop stop-color="#FBACF9"/>
<stop offset="0.740385" stop-color="#B939BA"/>
</radialGradient>
<radialGradient id="paint70_radial_102_627" cx="0" cy="0" r="1" gradientUnits="userSpaceOnUse" gradientTransform="translate(106.525 203.081) rotate(113.319) scale(8.63351)">
<stop stop-color="#F8C0FB"/>
<stop offset="1" stop-color="#B837B9"/>
</radialGradient>
<radialGradient id="paint71_radial_102_627" cx="0" cy="0" r="1" gradientUnits="userSpaceOnUse" gradientTransform="translate(106.851 203) rotate(87.7765) scale(47.4013 48.9077)">
<stop stop-color="#FBACF9"/>
<stop offset="0.740385" stop-color="#B939BA"/>
</radialGradient>
<radialGradient id="paint72_radial_102_627" cx="0" cy="0" r="1" gradientUnits="userSpaceOnUse" gradientTransform="translate(590.185 181.745) rotate(113.319) scale(8.63351)">
<stop stop-color="#F8C0FB"/>
<stop offset="1" stop-color="#B837B9"/>
</radialGradient>
<radialGradient id="paint73_radial_102_627" cx="0" cy="0" r="1" gradientUnits="userSpaceOnUse" gradientTransform="translate(590.51 181.664) rotate(87.7765) scale(47.4013 48.9077)">
<stop stop-color="#FBACF9"/>
<stop offset="0.740385" stop-color="#B939BA"/>
</radialGradient>
</defs>
</svg>
